<?xml version="1.0" encoding="utf-8"?>
<!-- Generator: Adobe Illustrator 24.2.3, SVG Export Plug-In . SVG Version: 6.00 Build 0)  -->
<svg version="1.1" id="Layer_1" xmlns="http://www.w3.org/2000/svg" xmlns:xlink="http://www.w3.org/1999/xlink" x="0px" y="0px"
	 viewBox="0 0 452 464.86" style="enable-background:new 0 0 452 464.86;" xml:space="preserve">
<style type="text/css">
	.st0{fill:#B70101;stroke:#242424;stroke-width:0.28;stroke-linecap:round;stroke-linejoin:round;stroke-miterlimit:10;}
	.st1{fill:#84130D;stroke:#242424;stroke-width:0.28;stroke-linecap:round;stroke-linejoin:round;stroke-miterlimit:10;}
	.st2{fill:#C66720;stroke:#242424;stroke-width:0.28;stroke-linecap:round;stroke-linejoin:round;stroke-miterlimit:10;}
	.st3{fill:#E9CA67;stroke:#242424;stroke-width:0.28;stroke-linecap:round;stroke-linejoin:round;stroke-miterlimit:10;}
	.st4{fill:#242424;}
	.st5{font-family:Roboto;font-weight:700;}
	.st6{font-size:14px;}
</style>
<path class="st0" d="M179.52,165.47c-0.2,1.18-1.18,1.42-1.95,2.09c0.32,0.15,0.91-0.05,1.27-0.22c0.86-0.42,0.47-0.38,1.38-0.23
	c0.57,0.1,0.46,0.16,1.01-0.41c0.34-0.34,0.46-0.76,1.07-0.61c1.21,0.31,0.09,1.83,1.3,2.16c0.21,0.06,0.37-0.11,0.58-0.08
	c0.21,0.03,0.36,0.37,0.58,0.33c0.81-0.14,0.4-1.22,1.27-1.37c1.24-0.21,0.7,0.74,1.02,1.37c0.53,1.04,1.72-0.01,2.4-0.02
	c0,0.45,0.16,0.95,0.1,1.39c-0.1,0.62-0.41,0.37-0.06,0.81c0.4,0.49,0.98,0.07,0.55,0.9c-0.13,0.25-0.6,0.26-0.64,0.6
	c-0.13,0.96,1.03,0.53,1.4,0.83c0.26,0.22,0.08,0.73,0.3,0.91c0.21,0.17,0.89-0.05,1.15,0.01c0.35,0.08,0.56,0.24,0.76,0.4
	c0.6-0.57,1.86-1.17,2.22-1.3c0.29-0.96-0.89-0.83-0.8-1.62c1.71,0.11-0.83-1.42,0.41-1.98c-0.49-0.36-0.34-1.26,0.19-1.56
	c0.32-0.18,1.35,0.01,1.73,0.01c-0.36-0.25-0.8-1.83-0.87-2.3c-0.3-2.04,1.01-1.3,2.24-1.44c-0.05-0.27,0.06-0.62,0.03-0.9
	c0.84,0.19,0.47-0.33,0.83-0.66c0.6-0.55,0.84-0.49,1.45-0.81c0.91-0.48,0.86-0.96,1.39-1.66c0.66-0.86,3.7-0.6,3.47-1.67
	c-0.33-0.12-0.43-0.09-0.77-0.04c-0.2,0.03-0.76,0.13-0.9-0.08c-0.14-0.2,0.13-0.77-0.27-0.93c-0.17-0.07-0.72,0.09-0.93,0.07
	c-0.35-0.03-0.76-0.04-1.1-0.16c0.06-0.13,0.23-0.25,0.23-0.41c0-0.07-0.32-0.54-0.37-0.6c-0.41-0.45-0.78,0.18-1.3,0.04
	c-0.35-0.09-0.54-0.61-0.91-0.75c-0.38-0.14-0.88-0.01-1.28-0.04c-0.4-0.03-0.51-0.09-0.76-0.46c-0.45-0.66-0.56-0.73-1.33-0.91
	c-0.42-0.1-0.51-0.31-0.73-0.67c-0.33-0.54-0.08-0.84-0.16-1.42c-0.06-0.47-0.32-1.31-0.95-0.95c-0.18,0.11-0.27,0.38-0.48,0.53
	c-0.84,0.61-0.71-0.76-1.35-1.04c-0.03-0.01-0.06-0.02-0.1-0.04c0.01,0.3,0.04,0.63,0.05,0.86c0.02,0.45-0.22,0.76-0.24,1.1
	c-0.01,0.14,0.11,0.49,0.08,0.58c-0.02,0.06-0.16,0.37-0.16,0.36c-0.07,0.23-0.35,0.36-0.3,0.82c0.05,0.46,0.22,0.39,0.15,0.89
	c-0.07,0.54-0.3,0.46,0.09,1.07c0.11,0.18,0.52,0.03,0.46,0.5c-0.05,0.38-0.32,0.22-0.46,0.36c-0.32,0.33-0.53,0.75-1.09,0.48
	c0.17,1.23-1.4-0.33-1.62-0.39c-0.17,0.57,0.08,0.87,0.07,1.36c-0.01,0.58-0.24,0.81-0.61,1.36c0.2,0.13,0.7,0.35,0.77,0.59
	c0.13,0.47-0.07,0.19-0.27,0.49c-0.32,0.5-0.83,0.77-1.38,0.71c-0.92-0.12-1.48-1.01-2.25-1.24c-0.05,0.12-0.2,0.22-0.25,0.35
	c-0.14-0.12-0.45-0.18-0.59-0.29c-0.18,0.59,0,1.37-0.48,1.62c-0.37,0.19-0.96-0.11-1.32-0.1c-0.47,0.01-0.91,0.18-1.4,0.35
	c-0.06,0.92-0.56,0.68-1.12,1.14C179.29,164.13,179.63,164.77,179.52,165.47z"/>
<path class="st1" d="M168.18,161.66c0.26-0.44,0.24-1.03,0.93-0.78l0.05-0.05c0.07-0.18,0.12-0.4,0.18-0.56
	c-1,0.05-0.19-0.64-0.16-0.88c0.06-0.47-0.34-1.08-0.62-1.44c-0.36-0.46-0.75-0.35-0.52-1.09c0.16-0.54,0.78-0.73,0.45-1.41
	c-0.44,0.02-0.86,0.38-1.3,0.45c0.02-0.21-0.06-0.46-0.02-0.67c-0.26-0.03-0.56-0.04-0.83-0.04c0.23-1.36-0.96-0.18-1.35-0.74
	c-0.32-0.46,0.38-0.46,0.49-0.7c0.13-0.27,0.03-0.63,0.16-0.94c0.52,0.11,1.39,0.16,1.54-0.55c0.19-0.86-0.56-0.7-1.01-0.87
	c-0.91-0.33-0.51-0.59-0.41-1.36c0.08-0.63-0.07-1.75-0.92-1.35c-0.13-1.42-2.64-0.33-3.11,0.27c-0.57,0.73-0.81,2.59-0.18,3.35
	c0.4,0.48,0.85,0.23,0.72,0.97c-0.04,0.21-0.38,0.39-0.45,0.62c-0.06,0.18,0.02,0.43,0,0.62c-0.03,0.37-0.02,0.73-0.34,0.93
	c-0.16,0.1-0.31,0.06-0.47,0.02c0.01,0.03,0.03,0.04,0.04,0.07c0.06,0.14-0.15,0.3-0.07,0.44c0.11,0.2,0.4,0.22,0.53,0.4
	c0.25,0.33,0.36,0.65,0.7,0.88c0.21,0.14,0.55,0.08,0.76,0.22c0.42,0.28,0.48,0.82,0.78,1.19c0.36,0.45,0.95,0.55,1.34,0.91
	c0.41,0.37,0.56,1.22,1.01,1.55c0.39,0.29,0.77,0.33,1.19,0.71c0.25,0.23,0.31,0.29,0.5,0.37
	C167.87,162,168.08,161.84,168.18,161.66z"/>
<path class="st2" d="M182.55,198.96c-0.17-0.33-0.03-0.86-0.28-1.13c-0.18-0.2-0.61-0.16-0.85-0.28c-0.85-0.41-0.65-1.28-0.69-2.11
	c-0.23,0.05-0.51,0.09-0.74,0c-0.09,0.34-0.26,0.69-0.37,1.04c-0.35,0.02-0.68-0.53-0.93-0.74c-0.66-0.58-1.06-0.39-1.87-0.48
	c-0.43-0.05-0.72-0.38-1,0.28c-0.26,0.62-0.04,1.15-0.67,1.65c-2.04,1.66-1.37-2.94-2.65-2.99c-0.43-0.02-0.94,0.55-1.09,0.91
	c-0.15,0.37,0.11,1.17-0.43,1.21c-0.14,0.28-0.21,0.6-0.19,0.92c-0.72,0.11-1.33-0.42-2.11-0.28c-0.06,0.01-0.14,0.08-0.21,0.1
	c0.08,0.3,0.16,0.63,0.22,0.85c0.07,0.26,0.24,0.26,0.18,0.56c-0.03,0.13-0.37,0.4-0.42,0.64c-0.18,0.92,0.7,1.2,1.41,1.42
	c0.51,0.16,0.7,0.3,1.06,0.7c0.39,0.43,0.47,0.44,1,0.52c0.27,0.04,1.18,0.02,1.36,0.15c0.03,0.02,0.02,0.07,0.04,0.09
	c0.66-0.31,1.26,1.56,1.85,1.09c0.57-0.44-0.86-1.34-0.05-1.68c0.53-0.22,0.69,0.46,1.02,0.55c0.23,0.07,0.35-0.2,0.57-0.22
	c0.39-0.04,0.36,0.02,0.67,0.31c0.25,0.23,0.67,0.8,1.08,0.71c0.61-0.14,0.52-1.11,0.29-1.52c0.29-0.11,0.61-0.12,0.92-0.14
	c0.03-0.25-0.28-0.58-0.16-0.81c0.23-0.42,0.83-0.01,1.05,0.18c0.33,0.28,0.77,1.6,1.33,1.18c0.44,0.65,0.72,0.87,1.23,0.27
	c-0.53-0.6-0.11-0.88,0.14-1.44C183.65,199.61,182.86,199.58,182.55,198.96z"/>
<path class="st3" d="M183.83,188.11c0-0.5,0.66-2.64-0.54-2.26c-0.27,0.09-0.35,0.41-0.6,0.46c-0.33,0.07-0.6-0.25-0.85-0.4
	c-0.61-0.37-1-0.06-1.52-0.34c-0.31-0.17-0.42-0.59-0.84-0.66c-0.27-0.04-0.62,0.2-0.81,0.04c-0.34-0.28,0.13-1.62,0.14-2.09
	c0.08,0.01,0.19-0.03,0.27-0.02c0.02-0.4,0.02-1.04-0.32-1.34c-0.47-0.42-1.25-0.06-1.32,0.58c-0.9-0.08-0.67-1.1-1.81-0.55
	c-0.36,0.17-0.65,0.37-0.76,0.78c-0.21,0.81,0.43,0.92-0.46,1.25c-0.49,0.18-0.51,0.01-0.83,0.52c-0.25,0.41-0.14,0.65-0.71,0.65
	c-0.61,0-1.66-1.24-1.21-1.67c-0.25-0.28-0.64-0.87-1-0.98c-0.42-0.12-0.57,0.2-0.93-0.17c-0.44-0.45-0.22-0.97-1.04-1.18
	c-0.45-0.12-0.83-0.02-1.22-0.36c0.27,0.28,0.69,0.6,0.79,1c0.12,0.49-0.28,0.8-0.35,1.22c-0.17,1.01,1.01,0.97,1.35,1.66
	c0.13,0.25,0.06,0.55,0.2,0.8c0.08,0.15,0.3,0.21,0.37,0.36c0.21,0.48-0.21,0.74,0.37,0.98c0.77,0.32,1.62-0.09,2.3,0.46
	c-0.01-0.03-0.01-0.07-0.02-0.09c0.22,0.39,0.77,0.82,1.17,1.03c0.49,0.25,1.05,0.09,1.4,0.59c0.19,0.28,0.1,0.77,0.39,0.95
	c0.34,0.21,0.8-0.27,1.15-0.11c0.01,0,0.18,0.39,0.24,0.44c0.18,0.17,0.46,0.26,0.62,0.43c0.11,0.12-0.06,0.25,0.12,0.38
	c0.28,0.2,1.07-0.07,1.36-0.14c0.47-0.11,1.28-0.64,1.64-0.26c0.3,0.32,0.15,1.38-0.06,1.7c-0.13,0.21-0.3,0.21-0.47,0.25
	c0.12,0.13,0.23,0.26,0.38,0.4c0.38-0.33,0.55,0.12,0.9,0.05c0.43-0.09,0.58-0.5,1.13-0.48c0.05-0.37-0.49-0.76-0.29-1.11
	c0.1-0.17,0.23-0.09,0.37-0.17c0.08-0.05,0.25,0.05,0.34,0.01c0.14-0.07,0.1-0.19,0.21-0.27c0.27-0.2,0.29-0.26,0.57-0.42
	c0.42-0.24,0.34,0.14,0.5-0.42C184.35,189.06,183.83,188.65,183.83,188.11z"/>
<path class="st1" d="M175.41,171.3c0.29,0.31,1.05,0.22,1.12,0.68c0.52-0.04,0.33,0.37,0.46,0.65c0.06,0.13,0.07,0.29,0.17,0.41
	c0.11,0.13,0.31-0.03,0.41,0.11c0.06,0.08,0.01,0.21,0.02,0.32c0.12,0.01,0.23-0.01,0.36-0.2c0.13-0.18-0.02-0.52,0.07-0.64
	c0.16-0.2,0.91-0.32,1.14-0.17c0.37,0.24,0.05,0.61,0.22,0.88c0.24,0.37,0.75,0.13,1.05,0.46c0.21,0.23,0.06,0.61,0.24,0.85
	c0.43,0.57,1.16,0.01,1.72,0.32c0.17,0.1,0.21,0.36,0.35,0.41c0.22,0.08,0.61-0.22,0.76-0.12c0.45,0.29-0.31,0.9-0.11,1.17
	c0.08,0.11,0.32,0.14,0.57,0.16c0.13-0.04,0.27-0.07,0.44-0.12c0.26-0.09,0.68-0.29,0.96-0.11c0.15,0.1,0.16,0.4,0.3,0.47
	c0.29,0.15,0.18-0.12,0.47-0.09c0.31,0.04,0.22-0.07,0.52,0.27c0.07,0.08,0.22,0.51,0.33,0.52c0.41,0.01,0.17-1.07,0.35-1.34
	c0.5-0.76,0.91-0.14,1.17,0.29c0.25,0.41,0.45,0.57,0.99,0.53c0.01,0.89,0.04,0.84,0.85,0.93c0.79,0.08,0.62,0.43,0.8,1.23
	c0.66,0,0.46-0.77,0.52-1.16c0.07-0.58,0.28-0.39,0.71-0.75c0.05-0.04,0.08-0.08,0.12-0.12c-0.55-0.64,0.35-1.36,0.68-1.81
	c-0.71-0.22-0.59-0.6-0.18-1c-0.2-0.16-0.41-0.33-0.76-0.4c-0.26-0.06-0.94,0.16-1.15-0.01c-0.22-0.18-0.04-0.69-0.3-0.91
	c-0.36-0.3-1.53,0.13-1.4-0.83c0.05-0.34,0.51-0.35,0.64-0.6c0.44-0.83-0.14-0.4-0.55-0.9c-0.35-0.43-0.04-0.19,0.06-0.81
	c0.07-0.44-0.1-0.95-0.1-1.39c-0.68,0-1.87,1.06-2.4,0.02c-0.32-0.62,0.22-1.58-1.02-1.37c-0.87,0.15-0.47,1.23-1.27,1.37
	c-0.23,0.04-0.38-0.3-0.58-0.33c-0.2-0.03-0.37,0.14-0.58,0.08c-1.21-0.33-0.1-1.85-1.3-2.16c-0.6-0.16-0.73,0.26-1.07,0.61
	c-0.56,0.57-0.45,0.51-1.01,0.41c-0.91-0.16-0.52-0.19-1.38,0.23c-0.28,0.14-0.66,0.23-0.98,0.22c-0.16,0.2-0.31,0.39-0.5,0.47
	c-0.06,0.03-0.16,0-0.23,0.01h0c0.08,0.36,0.18,0.74-0.02,1c-0.19,0.25-0.7,0.1-0.87,0.36c-0.16,0.26,0.06,0.69-0.15,1.01
	c-0.27,0.39-0.62,0.37-0.98,0.46C175.19,171.02,175.28,171.15,175.41,171.3z"/>
<path class="st3" d="M186.06,180.46c-0.28-0.07-0.62-0.29-0.13-0.48c-0.58-0.63,0.7-0.8,0.82-1.07c0.05-0.11-0.01-0.63,0.02-0.79
	c0.06-0.28,0.21-0.41,0.1-0.72c-0.09-0.13-0.17-0.32-0.22-0.38c-0.3-0.34-0.21-0.24-0.52-0.27c-0.29-0.03-0.18,0.24-0.47,0.09
	c-0.14-0.07-0.14-0.38-0.3-0.47c-0.29-0.18-0.7,0.02-0.96,0.11c-0.17,0.05-0.3,0.08-0.44,0.12c0.17,0.02,0.35,0.03,0.44,0.07
	c-0.41,0.07-0.93,0.18-1.27,0.41c-0.53,0.37-0.47,1.06-0.87,1.41c-0.3,0.27-0.62,0.13-0.9,0.45c-0.25,0.3-0.34,0.75-0.64,1.06
	c-0.55,0.57-1.31,0.55-1.58,1.25c-0.08,0.21-0.11,0.47-0.19,0.71c0.1,0.31,0.13,0.64,0.12,0.91c-0.08-0.01-0.19,0.03-0.27,0.02
	c-0.01,0.47-0.48,1.82-0.14,2.09c0.19,0.16,0.55-0.09,0.81-0.04c0.43,0.07,0.53,0.49,0.84,0.66c0.52,0.28,0.91-0.04,1.52,0.34
	c0.25,0.15,0.52,0.47,0.85,0.4c0.25-0.05,0.33-0.37,0.6-0.46c1.03-0.33,0.7,1.18,0.58,1.93c0.43-0.25,0.76-0.63,1.27-0.65
	c0.55-0.03,0.81,0.17,1.48-0.01c0.01-0.83,0.23-0.99,0.88-1.29c-0.09-0.07-0.45-0.17-0.51-0.29c-0.13-0.28,0.2-0.45,0.23-0.69
	c0.06-0.64-0.2-0.2-0.41-0.53c-0.17-0.27-0.1-0.58,0.01-0.92c1.27-0.01,0.56-0.28,0.7-1.05c0.28-0.08,0.72-0.49,0.69-0.81
	c-0.05-0.58-0.92-0.5-1.34-0.55C187.01,180.21,186.51,180.58,186.06,180.46z"/>
<path class="st0" d="M197.32,180.45c-0.45-0.41-1.15-0.12-1.57-0.76c-0.31-0.47-0.02-1.03-0.58-1.45c-0.19-0.14-0.65-0.04-0.9-0.19
	c-0.3-0.19-0.37-0.62-0.7-0.76c-0.3-0.13-0.52,0.36-0.97,0.01c-0.06-0.05-0.07-0.1-0.11-0.15c-0.04,0.04-0.06,0.07-0.11,0.11
	c-0.43,0.36-0.63,0.17-0.71,0.75c-0.05,0.4,0.15,1.16-0.52,1.16c-0.19-0.8-0.01-1.15-0.8-1.23c-0.81-0.08-0.84-0.03-0.85-0.93
	c-0.54,0.05-0.74-0.11-0.99-0.53c-0.26-0.43-0.66-1.04-1.17-0.29c-0.18,0.27,0.06,1.36-0.35,1.34c-0.04,0-0.07-0.08-0.11-0.14
	c0.1,0.31-0.05,0.44-0.1,0.72c-0.03,0.16,0.03,0.68-0.02,0.79c-0.12,0.26-1.4,0.43-0.82,1.07c-0.49,0.19-0.15,0.41,0.13,0.48
	c0.45,0.12,0.94-0.25,0.82,0.52c0.42,0.06,1.29-0.03,1.34,0.55c0.03,0.32-0.41,0.74-0.69,0.81c-0.14,0.77,0.57,1.04-0.7,1.05
	c-0.11,0.34-0.18,0.65-0.01,0.92c0.21,0.34,0.47-0.11,0.41,0.53c-0.02,0.24-0.35,0.41-0.23,0.69c0.05,0.12,0.42,0.22,0.51,0.29
	c-0.05,0.03-0.06,0.05-0.11,0.07c0,0,0,0,0,0c0.53,0.1,0.7-0.11,0.65-0.63c0.64-0.18,0.59,0.47,0.98,0.7
	c0.37,0.22,0.52,0.04,0.82,0.4c0.17,0.21,0.02,0.41,0.3,0.51c0.76,0.26,0.41-0.83,0.21-1.13c-0.16-0.25-0.48-0.3-0.38-0.68
	c0.06-0.26,0.38-0.16,0.42-0.44c0.04-0.27-0.41-0.43-0.42-0.71c-0.01-0.25,0.38-0.71,0.61-0.8c0.72-0.28,1.1,0.65,1.86,0.35
	c0.3-0.12,0.45-0.43,0.73-0.52c0.39-0.14,0.95,0.23,0.9-0.41c-0.02-0.26-0.38-0.33-0.36-0.59c0.03-0.4,0.78-0.53,1.1-0.53
	c0.35,0,0.25,0.18,0.62,0.06c0.33-0.11,0.52-0.54,0.89-0.64c0.35-0.1,0.72-0.16,1.07-0.24
	C197.42,180.54,197.33,180.52,197.32,180.45z"/>
<path class="st0" d="M209.13,196.1c-0.01-0.42,0.56-0.74,0.4-1.22c-0.19-0.59-0.81-0.09-1.15-0.53c-0.23-0.3,0.02-0.53-0.06-0.85
	c-0.08-0.36-0.34-0.36-0.47-0.7c-0.08-0.22,0.03-0.5,0.1-0.75c-0.01,0.02-0.04,0.03-0.04,0.06c-0.12-0.14,0.04-0.18,0.01-0.35
	c-0.08-0.43-0.4-0.54-0.85-0.64c-0.62-0.13-1.27,0.01-1.57-0.67c-0.17-0.39-0.13-0.59-0.63-0.67c-0.29-0.05-0.5,0.05-0.75-0.12
	c-0.35-0.24-0.3-0.56-0.82-0.46c-0.48,0.1-0.45,0.24-0.49,0.62c-0.06,0.52-0.31,0.92-0.58,1.35c-0.49-0.07-0.91-0.67-1.33-0.66
	c-0.22,0-0.35,0.25-0.59,0.11c-0.27-0.16-0.05-0.56-0.2-0.77c-0.29-0.37-1.09,0.02-1.12,0.47c-0.03,0.5,0.33,0.86-0.04,1.36
	c-0.64-0.17-1.3,0.1-1.68-0.49c-0.23-0.35-0.44-0.73-0.85-0.28c-0.25,0.27-0.08,0.46-0.16,0.76c-0.16,0.57-0.46,0.4-0.82,0.22
	c-0.22-0.11-0.42-0.09-0.62-0.07c0.06,0.14,0.08,0.31,0.05,0.5c-0.13,0.78,0.04,1.54,0.4,2.31c0.21,0.45,0.48,0.65,0.91,0.83
	c0.25,0.11,0.25,0.02,0.44,0.28c0.38,0.52,0.46,1.33,1.21,1.44c0.28,0.04,0.69-0.16,0.96,0.02c0.2,0.13,0.16,0.34,0.27,0.52
	c0.19,0.33,0.51,0.33,0.75,0.59c0.14,0.16,0.19,0.36,0.37,0.51c0.34,0.29,0.77,0.31,1.21,0.35c0.54,0.05,1.06,0.01,1.59,0
	c0.06-0.09,0.13-0.18,0.22-0.22c0.16-0.08,0.48-0.01,0.66-0.02c-0.6-0.48,0.7-1,1.07-1.04c0.7-0.08,0.13-0.03,0.61,0.3
	c0.28,0.19,0.53,0.18,0.9,0.16c0.12-0.35,0.66-0.5,1-0.53c-0.12-0.35,0.09-0.73,0.4-0.92c0.37,0.5,1.69,1.43,1.71,0.28
	C209.57,196.87,209.15,196.47,209.13,196.1z"/>
<path class="st3" d="M213.7,258.18c0.03-0.33,0.27-1.93-0.57-1.56c-0.42,0.18-0.09,1.43-0.96,1.5c-0.79,0.06-0.38-1.2-0.92-1.47
	c-0.39-0.2-1.07,0.31-1.45,0.07c-0.3-0.19-0.16-0.69-0.36-0.93c-0.4-0.46-1.46-0.09-1.81-0.55c-0.51-0.67,0.72-1.3,0.76-1.83
	c0.12-1.89-2.55-0.39-2.97-1.41c-0.22-0.53,0.17-2.57-1.35-1.64c-0.38,0.23-0.09,0.86-0.85,0.66c-0.26-0.07-0.5-0.43-0.63-0.64
	c-0.31,0.22-1.69,1.19-1.79,0.11c-0.03-0.29,1.15-1.3,0.17-1.37c0.08-1.73-1.54,0.22-1.95,0.17c-0.25,0.35-0.34,0.28-0.37,0.11
	c-0.03,0.04-0.09,0.1-0.1,0.11c-0.28,0.5-0.13,0.7-0.08,1.25c-0.47-0.05-1.05,0.07-0.79,0.64c0.3,0.66,1.4,0.39,1.18,1.54
	c-0.87-0.2-1.13,0.4-1.97,0.04c-0.39-0.17-0.85-0.74-1.36-0.51c-0.3,0.14-0.15,0.53-0.47,0.72c-0.19-0.36-1-0.79-1.36-0.33
	c-0.28,0.35,0.19,0.55,0,0.94c-0.32,0.67-0.65,0.27-0.89,0.08c-0.1-0.08-0.05-0.41-0.24-0.55c-0.22-0.17-0.74-0.08-1-0.06
	c0.02,0.24-0.04,0.46,0.07,0.68c-1.04-0.46-1.03,0.7-1,1.29c0.01,0.26,0.09,0.66-0.2,0.87c0.3,0.27,0.23,0.6,0.43,0.93
	c0.35,0.58,1.08,0.17,0.86,1.27c0.66,0.09,1.02-0.91,1.55-1.22c0.18-0.1,0.37-0.04,0.54-0.15c0.11-0.07,0.26-0.44,0.31-0.45
	c1.15-0.23,0.76,3.31-1.17,2.22c-0.3,0.73,0,1.04-0.76,1.24c-0.63,0.16-2.06-0.79-2.39,0.17c-0.41,1.19,1.39,0.76,1.77,1.14
	c0.6,0.6-0.26,1.33,1.15,1.26c-0.61,1.61,2.96-0.09,3.36,1.07c0.27-0.1,0.65-0.46,0.93-0.32c0.45,0.23,0.24,1.42,0.6,1.81
	c0.66,0.7,1.11-0.05,1.78-0.08c0.56-0.02,0.83,0.57,1.34,0.7c0.64-0.99-0.75-1.78-0.35-2.38c0.27-0.41,0.55,0.07,0.77,0
	c0.52-0.17,0.03-0.2,0.43-0.57c0.61-0.56,1.21-0.2,1.62,0.52c0.32,0.57,0.31,0.91,1.24,0.65c-0.01,0.2,0.06,0.26,0.12,0.35
	c0.9,0.45,1.29-0.48,1.37-1.21c0.1-0.89-0.5-1.58,0.48-2.32c0.43,0.33,1.04,1.02,1.55,0.44c0.28-0.31-0.07-1.23,0.71-0.85
	c0.57,0.28,0.09,1.88,1.01,1.64c0.47-0.12,0.25-0.87,0.73-1.16c0.34,0.35,1.11,0.32,1.52,0.07c0.57-0.34,0.26-0.77,0.72-1.12
	c0.47-0.36,1.26,0.09,1.66-0.79C214.54,258.38,214.37,258.12,213.7,258.18z"/>
<path class="st3" d="M206,214.67c-0.6-0.26-0.64-0.24-1.05-0.55c-0.51-0.38-0.77-0.94-1.61-0.58c-0.5,0.21-0.46,0.82-1.11,0.93
	c-1.28,0.23-1.07-1.05-1.12-1.84c-0.85,0.05-1.46,0.06-1.98-0.28c-0.31-0.04-0.57,0.03-0.9,0.01c-0.61-0.04-1.13-0.41-1.77-0.28
	c-0.37,0.07-1.2,0.47-1.31,0.88c-0.14,0.54,0.41,0.34,0.43,0.74c0.01,0.39-0.63,0.59-0.85,0.83c-0.39,0.42-0.47,0.91-0.38,1.47
	c0.12,0.77,0.62,1.29,0.87,1.99c0.06,0.18,0.04,0.29,0.05,0.43c0.57-0.4,0.01-1.28,0.26-2.18c0.34-1.22,2.39-0.86,2.32,0.51
	c1.39-0.68,0.92,1.24,0.41,1.86c1.19,0.04,2.45,0.18,3.49-0.15c0.98-0.3,2.09-0.65,1.98,0.97c1.16-0.08,1.72,0.58,0.71,1.56
	c0.76,0.11,1.29,0.3,2.05,0.02c0.02,0.11,0.09,0.08,0.13,0.15c0.08-0.56,0.19-1.29,0.38-1.74c0.21-0.5-0.05-0.33,0.52-0.66
	c0.28-0.16,0.53,0.07,0.79-0.27c0.2-0.26,0.18-0.82,0.23-1.28c-0.36-0.18-0.73-0.35-0.98-0.65
	C206.94,215.77,207.1,215.13,206,214.67z"/>
<path class="st2" d="M227.79,194.96c-0.02-0.18,0.08-0.29,0.08-0.46c0-0.08,0.01-0.15,0.01-0.23c-0.18-0.42-0.42-0.81-0.45-1.3
	c-0.03-0.56,0.52-1.22,0.01-1.74c-0.75-0.77-2.19,0.16-2.2,1.08c-0.46,0.13-1.02,0.34-1.52,0.2c-0.26-0.08-0.32-0.45-0.73-0.51
	c0.08-0.68-0.01-1.4-0.84-1.12c-0.68,0.23-0.47-0.54-0.9-0.81c-0.46-0.29-1.07-0.22-1.68-0.64c0.6,0.4,1.18,0.36,1.64,0.62
	c-0.11,0.7-0.29,1.37-0.82,1.96c-0.4,0.45-2.6,1.41-2.29,2.31c0.12,0.35,2.31,1.04,0.9,1.52c-0.73,0.25-1.5-0.75-2.19-0.05
	c-0.52,0.53,0.08,0.93,0.01,1.5c-0.05,0.44-1.16,1.4-1.64,1.14c-0.2-0.11-0.08-0.3-0.12-0.52c-0.1-0.62-0.36-1.53-1.04-0.64
	c-0.18,0.23-0.15,0.53-0.33,0.75c-0.36,0.42-1.05,0.55-1.3,1.09c-0.2,0.44-0.18,1.29-0.6,1.62c0.14,0.25,0.16,0.57,0.35,0.78
	c0.39,0.44,0.48,0.54,1.05,0.7c0.42,0.12,0.84,0.19,1.06,0.6c0.18,0.33-0.01,0.9,0.34,1.16c0.32,0.24,0.84-0.03,1.2,0.07
	c0.55,0.15,0.97,0.49,1.72,0.22c0.09-0.53,1.11-1.41,1.69-1.27c0.47,0.12,0.48,0.64,1.06,0.57c0.01-0.26,0.01-0.53,0.01-0.8
	c0.22-0.09,0.79-0.28,0.93-0.49c0.08-0.11,0-0.27,0.05-0.35c0.11-0.18,0.39-0.81,0.84-0.76c0.38,0.04,0.38,0.53,0.53,0.81
	c0.37,0.66,0.69,0.66,1.39,0.41c-0.03-0.32,0.03-0.79,0.35-0.92c0.21,0.26,0.56,0.26,0.87,0.22c-0.36-0.57,1.02-2.21-0.05-2.62
	c-0.13,0.28-0.33,0.64-0.7,0.52c-0.37-0.12-0.08-0.22-0.23-0.52c-0.12-0.24,0.02-0.25-0.19-0.42c-0.37-0.3-0.55,0.07-0.69-0.55
	c-0.1-0.45,0.07-1.05,0.51-1.26c0.18-0.08,0.42,0.08,0.6-0.05c0.48-0.37-0.02-1.29,0.37-1.75c0.57-0.7,0.5,0.09,0.51,0.43
	c0.04,0.9,0.19,0.46,0.7,0.3c0.59-0.18,1.84,0.88,2.04-0.01C228.15,195.5,227.82,195.19,227.79,194.96z"/>
<path class="st1" d="M214.59,203.96c-0.35-0.26-0.17-0.83-0.34-1.16c-0.22-0.4-0.63-0.48-1.06-0.6c-0.57-0.16-0.66-0.26-1.05-0.7
	c-0.19-0.21-0.21-0.53-0.35-0.78c-0.1,0.08-0.21,0.16-0.39,0.16c-0.55,0-0.4-0.29-0.62-0.64c-0.19-0.31-0.35-0.38-0.64-0.65
	c-0.77-0.71-0.46-1.16-0.64-2.05c-0.01-0.04-0.04-0.06-0.05-0.1c-0.26,0.61-1.28-0.08-1.6-0.52c-0.31,0.18-0.52,0.57-0.4,0.92
	c-0.34,0.03-0.88,0.18-1,0.53c-0.37,0.02-0.62,0.03-0.9-0.16c-0.48-0.33,0.09-0.38-0.61-0.3c-0.19,0.02-0.64,0.18-0.93,0.4
	c0.27,0.4,0.47,0.92,0.54,1.74c0.09,0.97,0.02,2.38,0.49,3.26c0.48,0.9,1.66,1.03,1.79,2.07c0.05,0.4-0.15,0.88-0.42,1.32
	c0.04,0.05,0.06,0.1,0.1,0.14c0.45,0.4,0.63-0.06,1.29,0.13c0.47,0.14,0.63,0.72,1.15,0.77c0.61,0.06,0.74-0.52,1.22-0.7
	c0.49-0.19,0.73,0.23,0.88-0.31c0.07-0.25-0.29-0.68-0.23-0.81c0.42-0.88,1.06,1.1,1.09,1.41c0.83,0.07,1.15-0.74,1.92,0.01
	c0.38-0.76,0.2-1.5,0.4-2.25c0.11-0.42,0.43-0.73,0.7-1.06C214.81,204,214.68,204.03,214.59,203.96z"/>
<path class="st0" d="M210.65,207c0.38,0.46,0.65,0.9,0.17,0.96c-0.21,0.78,0.39,0.83,0.99,0.7c0.04,0.74-0.15,1.57,0.09,2.19
	c0.09,0.24,0.3,0.19,0.39,0.52c0.08,0.3-0.14,0.59-0.08,0.85c0.02,0.09,0.1,0.16,0.15,0.23c0.85,0.17,1.22,1.18,1.86,1.67
	c1.08,0.84,3.06,0.3,4.28-0.07c0.97-0.29,2.95-0.69,3.31,0.7c0.06,0.21-0.01,0.34-0.05,0.49c0.07-0.01,0.16,0.02,0.23,0
	c0.55-0.19,1.02-1,1.54-1.47c0.65-0.59,0.73-1.38,1.4-1.97c0.71-0.62,1.69-0.87,2.62-0.83c-0.64-0.37-1.01-0.37-1.76-0.31
	c-0.85,0.07-1.64,0.63-2.47,0.38c0.07-0.95-0.75-0.98-1.25-1.54c-0.77-0.85-0.6-0.82-1.64-0.79c-0.86,0.03-1.25-0.58-2.01-0.68
	c-0.45-0.06-1.33,0.25-1.72-0.18c-0.41-0.46,0.03-1.43-1-1.39c-0.9,0.04-1.25,1.3-1.82,0.56c-0.03,0.1-0.02,0.19-0.07,0.29
	c-0.76-0.75-1.09,0.07-1.92-0.01c-0.03-0.31-0.68-2.3-1.09-1.41c-0.06,0.13,0.3,0.55,0.23,0.81c-0.16,0.54-0.39,0.13-0.88,0.31
	C210.37,206.94,210.52,206.98,210.65,207z"/>
<path class="st0" d="M234.21,197.46c-0.01,0-0.02,0.01-0.03,0.02c-0.24-0.86,0.85-1.08,0.82-1.82c-0.04-0.98-0.53-0.26-1.05-0.33
	c-0.63-0.09-1.07-0.62-1.73-0.61c-0.46,0-1.08,0.31-1.67,0.28c0.09-1.04-0.74-1.32-1.65-1.22c-0.01,0.51-0.37,0.93-0.83,1.01
	c-0.02-0.19-0.12-0.35-0.19-0.52c0,0.08-0.01,0.15-0.01,0.23c0,0.18-0.1,0.29-0.08,0.46c0.03,0.23,0.36,0.54,0.31,0.79
	c-0.2,0.89-1.46-0.17-2.04,0.01c-0.52,0.16-0.66,0.59-0.7-0.3c-0.02-0.34,0.06-1.12-0.51-0.43c-0.38,0.46,0.12,1.38-0.37,1.75
	c-0.18,0.14-0.42-0.03-0.6,0.05c-0.43,0.21-0.61,0.8-0.51,1.26c0.14,0.63,0.32,0.25,0.69,0.55c0.2,0.17,0.07,0.18,0.19,0.42
	c0.15,0.3-0.14,0.4,0.23,0.52c0.37,0.12,0.58-0.24,0.7-0.52c1.07,0.41-0.3,2.04,0.05,2.62c-0.31,0.04-0.66,0.04-0.87-0.22
	c-0.33,0.12-0.38,0.6-0.35,0.92c-0.7,0.25-1.02,0.25-1.39-0.41c-0.15-0.28-0.16-0.76-0.53-0.81c-0.44-0.05-0.73,0.58-0.84,0.76
	c-0.05,0.08,0.03,0.24-0.05,0.35c-0.14,0.21-0.71,0.4-0.93,0.49c-0.01,0.26,0,0.54-0.01,0.8c-0.11,0.01-0.14-0.06-0.21-0.08
	c0.09,0.51,0.15,1.01,0.43,1.19c0.28,0.18,1.08-0.21,1.3,0.02c0.25,0.26-0.02,0.85,0.22,1.18c0.55,0.77,1.39,0.04,2.08,0.03
	c0.37,0,1.38,0.08,1.56,0.32c0.49,0.65-0.68,2.08,0.82,1.77c0.63-0.13,1.32-2.15,2.03-1.75c0.52,0.29-0.23,1.47,0.8,1.24
	c-0.01,0.2,0.12,0.39,0.1,0.6c0.27,0.04,0.53,0.15,0.73,0.32c-0.08,0.06-0.14,0.16-0.19,0.22c0.2,0.02,0.33,0.15,0.53,0.19
	c-1.21,0.83,0.9,0.54,1.21,0.87c0.43,0.47-0.33,1.67,0.57,1.82c0.49-1.02-1.44-2.25-0.05-3.09c-0.78-0.6,0.6-0.76,0.89-1.17
	c0.74-1.05-1.29-0.28-1.73-0.91c-0.27-0.38,0.05-0.9-0.05-1.26c-0.1-0.36-0.59-0.15-0.35-0.71c0.42-0.98,2.84-0.38,1.07-1.69
	c0.57-0.9,1.55-0.09,1.31-1.61c-0.13-0.84-0.69-1.81-0.12-2.66C233.44,198.04,233.87,197.79,234.21,197.46z"/>
<path class="st2" d="M229.39,208.09c0.02-0.21-0.12-0.39-0.1-0.6c-1.03,0.22-0.28-0.96-0.8-1.24c-0.71-0.39-1.4,1.62-2.03,1.75
	c-1.5,0.31-0.33-1.12-0.82-1.77c-0.18-0.24-1.19-0.33-1.56-0.32c-0.69,0.01-1.54,0.74-2.08-0.03c-0.23-0.33,0.03-0.92-0.22-1.18
	c-0.22-0.23-1.02,0.16-1.3-0.02c-0.28-0.19-0.34-0.69-0.43-1.19c0.07,0.02,0.1,0.09,0.21,0.08c-0.58,0.07-0.59-0.45-1.06-0.57
	c-0.58-0.14-1.6,0.73-1.69,1.27c-0.74,0.27-1.17-0.07-1.72-0.22c-0.36-0.1-0.88,0.17-1.2-0.07c0.09,0.07,0.22,0.05,0.34,0.05
	c-0.27,0.33-0.58,0.64-0.7,1.06c-0.21,0.75-0.03,1.49-0.4,2.25c0.05-0.1,0.04-0.19,0.07-0.29c0.57,0.73,0.92-0.53,1.82-0.56
	c1.03-0.04,0.58,0.94,1,1.39c0.39,0.43,1.27,0.12,1.72,0.18c0.76,0.1,1.15,0.71,2.01,0.68c1.04-0.04,0.87-0.07,1.64,0.79
	c0.5,0.55,1.32,0.58,1.25,1.54c0.83,0.25,1.63-0.31,2.47-0.38c0.75-0.06,1.12-0.05,1.76,0.31c-0.08,0-0.16,0.03-0.24,0.03
	c0.26,0.13,0.52,0.26,0.64,0.61c0.12,0.34-0.15,0.72,0.25,0.91c0.34,0.17,0.59-0.16,0.7-0.47c0.29-0.77-0.2-1.84,0.15-2.62
	c0.24-0.54,0.45-0.87,0.57-1.24C229.54,208.17,229.48,208.1,229.39,208.09z"/>
<path class="st2" d="M231.3,218.45c-0.16-0.12-0.77-0.42-0.97-0.51c-0.5-0.22-0.98-0.07-1.49-0.24c-1.21-0.4-0.12-1.52-0.82-2.17
	c-0.6-0.55-1.65,0.04-1.59-1.19c0.01-0.28,0.27-0.31,0.3-0.57c0.04-0.38-0.14-0.47-0.17-0.76c-0.06-0.55-0.02-0.74,0.3-1.17
	c0.22-0.29,0.49-0.41,0.53-0.76c-0.03-0.01-0.04-0.05-0.06-0.06c0.03,0,0.06-0.01,0.08-0.01l0,0c-0.88-0.01-1.79,0.23-2.46,0.81
	c-0.67,0.59-0.74,1.37-1.4,1.97c-0.52,0.47-0.99,1.28-1.54,1.47c-0.06,0.02-0.15,0-0.23,0c-0.08,0.3-0.26,0.54-0.59,0.7
	c-0.35,0.17-0.98,0.07-1.28,0.3c-0.34,0.27-0.13,0.17-0.32,0.54c-0.2,0.4-0.44,1.27-0.47,1.76c-0.06,0.92,0.31,1.15,1.08,1.5
	c0.83,0.38,1.3,0.04,1.86,0.72c0.25,0.3,0.23,0.5,0.58,0.75c0.29,0.21,0.83,0.33,1.16,0.49c0.29,0.14,0.67,0.41,0.99,0.49
	c1.28,0.28,1.97-0.33,2.92-1.02c0.77-0.56,2.55-1.94,3.53-1.73c0.5,0.11,0.65,0.52,1.15,0.61c0.04,0.01,0.09-0.02,0.14-0.02
	C232.26,219.6,231.77,218.8,231.3,218.45z"/>
<path class="st1" d="M242.63,212.13c-0.53-0.4-1.05-0.6-1.59-0.9c-0.15-0.09-0.33-0.08-0.48-0.19c-0.17-0.12,0-0.36-0.2-0.48
	c-0.41-0.25-0.46-0.01-0.87-0.06c-0.65-0.09-0.93-0.31-1.66,0.09c-0.58,0.31-1.54,1.13-2.01,0.3c-0.09-0.16,0.12-0.47,0.05-0.68
	c-0.11-0.32-0.31-0.33-0.46-0.55c-0.06-0.08-0.3-0.28-0.36-0.35c-0.1-0.11,0.05-0.38-0.13-0.51c-0.69-0.5-1.22,0.64-1.76,0.7
	c-0.75,0.08-0.6-1.04-0.98-1.07c-1.36,0.85,0.55,2.06,0.06,3.08c-0.9-0.15-0.14-1.35-0.57-1.82c-0.31-0.33-2.42-0.04-1.21-0.87
	c-0.2-0.04-0.32-0.16-0.53-0.19c0.06-0.06,0.12-0.15,0.19-0.22c-0.21-0.17-0.46-0.28-0.73-0.32c0.09,0.01,0.16,0.08,0.24,0.11
	c-0.12,0.37-0.33,0.7-0.57,1.24c-0.35,0.78,0.14,1.85-0.15,2.62c-0.12,0.31-0.36,0.63-0.7,0.47c-0.4-0.19-0.13-0.58-0.25-0.91
	c-0.11-0.31-0.34-0.43-0.57-0.54c-0.04,0.35-0.31,0.47-0.53,0.76c-0.32,0.42-0.36,0.62-0.3,1.17c0.03,0.29,0.2,0.38,0.17,0.76
	c-0.02,0.26-0.29,0.29-0.3,0.57c-0.06,1.23,1,0.64,1.59,1.19c0.7,0.65-0.39,1.77,0.82,2.17c0.51,0.17,0.99,0.02,1.49,0.24
	c0.2,0.09,0.81,0.39,0.97,0.51c0.12,0.09,0.23,0.27,0.35,0.41c0.12-0.02,0.24-0.01,0.37-0.03c0.34-0.08,0.51-0.37,0.75-0.47
	c0.25-0.1,0.64,0,0.89-0.13c0.39-0.21,0.17-0.38,0.47-0.7c0.25-0.27,0.56-0.29,0.86-0.5c0.88-0.61,1.1-1.38,2.29-1.61
	c0.81-0.16,1.63-0.02,2.41,0.22c-0.68-0.88-0.29-1.4,0.2-2.28C240.51,212.26,241.36,211.93,242.63,212.13z"/>
<path class="st2" d="M246.65,203.54c-0.79-0.61-0.97-1.29-1.59-2.03c-0.49-0.58-1.46-0.99-1.71-1.71c-0.19-0.56,0.15-1.3-0.04-1.87
	c-0.07-0.21-0.34-0.39-0.43-0.6c-0.19-0.42-0.1-0.76-0.16-1.23c-0.04-0.3-0.14-0.52-0.21-0.78c-0.01,0-0.01-0.01-0.02-0.01
	c-0.52,0.02-0.9,0.6-1.59,0.51c-0.03-0.36-0.02-0.75-0.02-1.11c-0.44-0.02-1.04,0.09-1.45-0.06c-0.44-0.16-0.72-0.73-1.17-0.89
	c-0.27-0.1-1.01-0.24-1.22,0.08c-0.27,0.42,0.19,0.41,0.27,0.75c0.23,1.01,0.43,0.72-0.58,1.31c-0.83,0.48-1.63,1.34-2.54,1.57
	c-0.34,0.33-0.77,0.58-1.01,0.93c-0.58,0.85-0.02,1.82,0.12,2.66c0.24,1.52-0.74,0.71-1.31,1.61c1.78,1.31-0.64,0.71-1.07,1.69
	c-0.24,0.56,0.25,0.35,0.35,0.71c0.1,0.36-0.22,0.88,0.05,1.26c0.44,0.63,2.48-0.14,1.73,0.91c-0.29,0.41-1.67,0.57-0.89,1.17
	c-0.21,0.13-0.23,0.28-0.31,0.43c0,0,0,0,0,0.01c0.08-0.14,0.09-0.29,0.3-0.42c0.38,0.03,0.23,1.15,0.98,1.07
	c0.54-0.05,1.07-1.2,1.76-0.7c0.18,0.13,0.03,0.4,0.13,0.51c0.05,0.06,0.3,0.26,0.36,0.35c0.16,0.22,0.35,0.23,0.46,0.55
	c0.07,0.21-0.14,0.52-0.05,0.68c0.47,0.83,1.44,0.01,2.01-0.3c0.73-0.39,1.01-0.18,1.66-0.09c0.41,0.06,0.46-0.18,0.87,0.06
	c0.2,0.12,0.03,0.36,0.2,0.48c0.15,0.11,0.33,0.1,0.48,0.19c0.36,0.2,0.72,0.4,1.07,0.61c0.01,0,0.03,0,0.04,0.01
	c0.03,0.02,0.03,0.03,0.06,0.05c0.14,0.08,0.29,0.13,0.43,0.24c-0.05-0.01-0.08,0.02-0.12,0.01c0.16,0.31-0.2,0.63,0.01,0.92
	c0.56,0.76,1.65-0.18,1.95-0.66c0.1-0.16,0.12-0.48,0.19-0.63c0.1-0.24,0.48-0.18,0.27-0.62c0.54-0.04,1.42,0.1,1.76-0.4
	c0.54-0.78-0.45-1.34-1.08-1.46c-0.24-0.05-0.63,0.08-0.84-0.03c-0.2-0.11-0.22-0.5-0.4-0.63c-0.5-0.34-1.24,0.19-1.58-0.21
	c-0.64-0.74,0.82-1.63,1.43-1.57c1.17,0.11,0.8,0.57,1.24-0.63c0.26-0.72,0.61-0.67,1.32-0.29c0.55,0.29,0.45,0.44,1.14,0.39
	c0.35-0.02,0.61-0.26,0.95-0.09c0.28-0.39,0.74-0.46,1.15-0.32C248.67,205.41,247.77,204.41,246.65,203.54z"/>
<path class="st2" d="M242.94,218.06c-0.02-0.33,0.36-0.93-0.17-1.19c-0.4-0.19-0.94,0.41-1.41,0.32c-0.67-0.13-0.22-0.26-0.63-0.7
	c-0.16-0.17-0.41,0.01-0.59-0.17c-0.07-0.07-0.09-0.25-0.19-0.35c-0.1-0.1-0.24-0.24-0.37-0.37c-0.75-0.22-1.53-0.35-2.3-0.2
	c-1.2,0.24-1.41,1-2.29,1.61c-0.3,0.21-0.61,0.23-0.86,0.5c-0.3,0.32-0.08,0.5-0.47,0.7c-0.26,0.13-0.64,0.03-0.89,0.13
	c-0.25,0.1-0.41,0.39-0.75,0.47c-0.12,0.03-0.24,0.01-0.37,0.03c-0.12-0.14-0.23-0.32-0.35-0.41c0.47,0.35,0.97,1.16,1.24,1.91
	c-0.04,0-0.09,0.02-0.14,0.02c0.73,0.14,1.62-0.44,2.33-0.24c0.67,0.19,1.01,1.11,1.5,1.54c0.43,0.37,1.31,0.53,1.63,0.95
	c0.13,0.17,0.18,0.33,0.17,0.47c0.08,0,0.17,0.01,0.24,0c0.56-0.1,1.18-0.76,1.74-1.01c0.81-0.35,1.42-0.68,2.16-1.17
	c0.58-0.39,1.35-0.63,1.82-1.15C243.44,219.48,242.98,218.67,242.94,218.06z"/>
<path class="st0" d="M252.87,217.66c-0.39,0-0.89-0.04-1.16-0.28c-0.18-0.16-0.06-0.54-0.31-0.74c-0.22-0.18-0.55-0.14-0.81-0.21
	c-1.14-0.29-0.38-0.58-1.15-1.35c-0.69-0.7-1.16,0.22-1.98,0.16c-0.68-0.05-1.47-1.27-1.86-1.7c-0.19-0.21-0.61-1.05-1.04-1.52
	c-0.03,0.14-0.05,0.28-0.11,0.37c-0.3,0.49-1.39,1.42-1.95,0.66c-0.21-0.29,0.16-0.61-0.01-0.92c-1.19-0.15-2.02,0.16-2.61,1.21
	c-0.49,0.88-0.88,1.4-0.2,2.28c-0.04-0.01-0.07-0.01-0.11-0.02c0.13,0.12,0.27,0.26,0.37,0.37c0.1,0.1,0.12,0.29,0.19,0.35
	c0.18,0.17,0.43-0.01,0.59,0.17c0.41,0.45-0.04,0.57,0.63,0.7c0.47,0.09,1.01-0.51,1.41-0.32c0.53,0.25,0.15,0.86,0.17,1.19
	c0.03,0.49,0.36,1.04,0.76,1.42c0.87-0.26,1.66-0.82,2.55-1.05c0.67-0.17,1.41,0.12,2.1-0.01c0.69-0.14,1.58-0.08,2.22-0.26
	c0.27-0.08,0.2,0.08,0.62,0.01c0.23-0.04,0.68,0.11,0.9,0.16c0.5,0.11,0.84-0.13,1.34-0.03c0.85,0.17,1.86,0.09,2.69,0.14
	C255.92,217.81,253.49,217.66,252.87,217.66z"/>
<path class="st1" d="M259.49,217.7c-0.35-0.57-0.77-0.95-1.09-1.52c-0.18-0.33-0.21-0.52-0.48-0.78c-0.26-0.24-0.53-0.18-0.67-0.48
	c-0.18-0.38,0.14-0.99-0.01-1.39c-0.15-0.41-0.27-0.35-0.53-0.63c-0.47-0.51-0.82-0.75-1.01-1.38c-0.04-0.12,0.16-0.3,0.14-0.45
	c0-0.02-0.03-0.06-0.04-0.09c-0.06,0.11-0.09,0.23-0.25,0.23c-0.33,0-0.39-0.33-0.32-0.62c-0.33-0.12-0.56-0.37-0.8-0.64
	c-0.17-0.19-0.21-0.47-0.43-0.62c-0.14-0.1-0.45-0.06-0.55-0.15c-0.22-0.19-0.23-0.55-0.46-0.78c-0.42-0.42-0.99-0.08-1.4-0.36
	c-0.69-0.47,0.24-1.09-0.27-1.68c-0.33-0.39-1.12-0.22-1.48-0.65l-0.03,0.09c0.07,0.03,0.12,0.09,0.2,0.11
	c-0.41-0.14-0.86-0.07-1.15,0.32c-0.34-0.17-0.6,0.07-0.95,0.09c-0.69,0.05-0.59-0.1-1.14-0.39c-0.71-0.38-1.06-0.43-1.32,0.29
	c-0.44,1.2-0.07,0.74-1.24,0.63c-0.61-0.06-2.06,0.83-1.43,1.57c0.34,0.4,1.08-0.13,1.58,0.21c0.18,0.12,0.2,0.52,0.4,0.63
	c0.21,0.12,0.6-0.02,0.84,0.03c0.63,0.12,1.62,0.69,1.08,1.46c-0.35,0.5-1.22,0.36-1.76,0.4c0.21,0.43-0.17,0.38-0.27,0.62
	c-0.06,0.15-0.09,0.48-0.19,0.63c0.06-0.09,0.08-0.23,0.11-0.37c0.42,0.46,0.84,1.31,1.04,1.52c0.39,0.43,1.18,1.65,1.86,1.7
	c0.82,0.07,1.29-0.85,1.98-0.16c0.76,0.77,0,1.06,1.15,1.35c0.25,0.06,0.59,0.03,0.81,0.21c0.25,0.2,0.13,0.59,0.31,0.74
	c0.27,0.24,0.77,0.28,1.16,0.28c0.54,0,2.32,0.13,2.97,0.55c0.46,0.08,0.92,0.15,1.38,0.22c1.17,0.18,3.84,0.87,4.16,2.23
	C261.17,219.49,260.09,218.68,259.49,217.7z"/>
<path class="st1" d="M268.08,207.17c0.04-0.09,0.02-0.21,0.04-0.31c-0.43-0.14-0.86-0.34-1.13-0.54c-0.84-0.61-0.74-0.73-0.5-1.69
	c0.19-0.73,0.62-2.05-0.43-2.4c-0.96-0.32-1.46,1.18-2.28,1.46c-1.33,0.46-2.13-0.4-3.22,0.65c-0.02,0.06-0.03,0.12-0.05,0.18
	c0.03,0.04,0.07,0.08,0.07,0.16c-0.24-0.37-0.39-0.93-0.73-1.26c0.3,0.3,0.45,0.76,0.65,1.13c-0.03,0.06-0.03,0.13-0.06,0.19
	c-0.09,0.19-0.44,0.63-0.4,0.84c0.06,0.37,0.45,0.29,0.64,0.56c0.44,0.62,0.18,0.76-0.2,1.17c-0.26,0.28-1.14,0.52-0.81,1.15
	c0.22,0.42,1.75,0.49,1.71,1.23c-0.01,0.1-0.73,0.72-0.87,0.74c-0.5,0.08-1.22-0.5-1.62-0.72c-0.98,0.69-2.03-0.33-2.82,0.63
	c-0.19,0.23-0.05,0.86-0.53,0.86c0.16,0,0.2-0.13,0.25-0.23c0.01,0.02,0.04,0.07,0.04,0.09c0.02,0.16-0.18,0.33-0.14,0.45
	c0.19,0.63,0.55,0.87,1.01,1.38c0.26,0.28,0.37,0.22,0.53,0.63c0.15,0.4-0.17,1.01,0.01,1.39c0.14,0.3,0.41,0.24,0.67,0.48
	c0.28,0.26,0.3,0.45,0.48,0.78c0.32,0.57,0.73,0.95,1.09,1.52c0.54,0.88,1.39,1.65,1.72,2.63c0.03,0.04,0.07,0.06,0.11,0.1
	c0.45,0.53,0.77,0.71,1.57,0.59c0.74-0.11,1.52-0.36,1.94,0.41c-0.01-0.63-0.64-1.14-0.54-1.71c0.05-0.27,0.29-0.4,0.36-0.68
	c0.07-0.3-0.09-0.67-0.06-0.99c0.06-0.79,0.77-1.12,0.7-2.01c-0.06-0.92-0.6-1.31,0.3-2.01c0.44-0.34,1.67-0.63,1.39-1.48
	c-0.26-0.77-0.95-0.29-0.67-1.26c0.08-0.26,0.38-0.78,0.25-1.07c-0.07-0.17-0.46-0.17-0.58-0.46c-0.22-0.52,0.44-1.39,0.84-1.72
	C267.29,207.68,267.79,207.84,268.08,207.17z"/>
<path class="st1" d="M279.32,209.17c0.06-2.33-2.19-0.84-3.13-1.97c-0.46-0.56,0.01-1.26-1.13-1.13c-0.9,0.11-1.42,1.01-2.47,0.82
	c-0.22-0.51-0.46-1.01-1.01-1.11c-0.5-0.1-1.13,0.18-1.1,0.7c-0.7-0.11-1.03,0.52-1.74,0.54c-0.18,0.01-0.41-0.08-0.63-0.15
	c-0.02,0.1-0.01,0.23-0.04,0.31c-0.29,0.66-0.79,0.5-1.26,0.88c-0.4,0.32-1.05,1.2-0.84,1.72c0.12,0.29,0.51,0.29,0.58,0.46
	c0.12,0.28-0.18,0.81-0.25,1.07c-0.28,0.97,0.41,0.49,0.67,1.26c0.28,0.84-0.95,1.13-1.39,1.48c-0.89,0.7-0.36,1.09-0.3,2.01
	c0.06,0.88-0.64,1.22-0.7,2.01c-0.03,0.31,0.13,0.69,0.06,0.99c-0.07,0.28-0.31,0.41-0.36,0.68c-0.08,0.46,0.26,0.9,0.42,1.38
	c0.3,0.25,0.65,0.43,1.19,0.33c0.27-0.05,0.11,0.01,0.3-0.16c0.12-0.11,0.24-0.27,0.32-0.43c0.12-0.26-0.04-0.29,0.24-0.43
	c0.17-0.09,0.43-0.04,0.62-0.1c0.14-0.04,0.34-0.1,0.45-0.2c0.32-0.29,0.16-0.72,0.42-1.06c0.84-1.11,1.33,1.21,2.2,0.49
	c0.46-0.38-0.04-3.5,1.33-2.36c0.57,0.48,0.49,2.55,1.5,2.58c0.5,0.01,1.04-0.74,1.29-1.05c0.3-0.37,0.54-0.17,0.9-0.41
	c0.85-0.57-0.29-1.41-0.7-1.67c-0.24-0.16-0.66-0.44-0.74-0.74c-0.12-0.41,0.3-0.5,0.63-0.7c0.49-0.29,0.9-0.49,0.96-1.1
	c0.03-0.32-0.09-0.74,0-1.05c0.15-0.49,0.53-0.31,0.97-0.51c0.44-0.2,0.69-0.52,0.49-0.97c-0.21-0.48-0.43-0.33-0.03-0.74
	c0.4-0.4,0.74-0.75,1.26-0.98c0.36-0.16,0.94-0.37,1.19-0.69c0.01-0.01,0.01-0.03,0.01-0.04
	C279.45,209.13,279.37,209.17,279.32,209.17z"/>
<path class="st2" d="M286.93,222.77c-1.56-0.58-2.25-1.79-2.84-3.24c-0.5-1.23-0.41-2.37-0.26-3.66c0.11-0.95,0.96-1.38,1.24-2.24
	c0.29-0.87-0.64-1.84-0.74-2.72c-0.06-0.52,0.13-1.63,0.38-2.07c0.01-0.02,0.04-0.03,0.06-0.05c-0.1-0.29-0.04-0.78-0.02-1.25
	c0.08-1.62-1.08-1.66-1.91-0.73c-0.3,0.33-0.57,1.03-1.03,1.37c-0.53,0.38-1.62,0.79-2.29,0.95c-0.01,0.01-0.01,0.03-0.01,0.04
	c-0.25,0.32-0.84,0.53-1.19,0.69c-0.51,0.23-0.86,0.58-1.26,0.98c-0.41,0.41-0.18,0.27,0.03,0.74c0.2,0.45-0.05,0.77-0.49,0.97
	c-0.44,0.2-0.83,0.02-0.97,0.51c-0.09,0.31,0.03,0.72,0,1.05c-0.06,0.6-0.48,0.8-0.96,1.1c-0.33,0.2-0.75,0.29-0.63,0.7
	c0.02,0.07,0.1,0.13,0.15,0.2c0.1,0.05,0.12,0.16,0.26,0.19c0.91,0.2,1.88-0.42,2.69,0.23c0.48,0.38,0.8,0.99,1.33,1.25
	c0.48,0.24,0.58,0.03,0.71,0.5c0.11,0.39,0.05,0.77,0.5,0.95c0.33,0.13,0.76-0.11,1.06,0.03c0.45,0.21,0.68,1.06,0.75,1.5
	c0.09,0.6,0.16,1.37,0.07,1.97c-0.11,0.77-0.54,1.09-1.19,1.35c-0.74,0.3-1.18,0.72-1.37,1.5c-0.13,0.55-0.16,1.09-0.52,1.55
	c-0.25,0.33-0.66,0.48-0.9,0.8c-0.3,0.38-0.29,1.15-0.27,1.61c0.05,1.14,0.77,2.2,0.6,3.38c-0.08,0.51-0.67,0.89-0.99,1.27
	c-0.26,0.31-0.46,0.66-0.6,1.04c0.41-0.45,0.7-1.05,1.19-1.42c0.63-0.48,1.41-0.7,2.2-0.68c0.71,0.02,1.22,0.29,1.91-0.01
	c0.74-0.32,1.41-0.58,1.84-1.31c0.46-0.78,0.35-1.83,0.6-2.69c0.13-0.43,0.19-0.53,0.58-0.73c0.39-0.2,0.56-0.27,0.7-0.67
	c0.21-0.57,0.22-0.99,0.85-1.24c0.96-0.38,1.94-0.53,2.76-1.22c0.6-0.51,1.39-1.61,2.13-1.75
	C289.65,223.71,288.23,223.25,286.93,222.77z"/>
<path class="st1" d="M298.85,205.78c-0.25,0.2-0.68,0.27-0.91,0.51c-0.29,0.31-0.37,0.53-0.48,0.97c-0.05,0.21,0.05,0.81-0.04,1
	c-0.36,0.73-1.07,0.55-1.95,0.5c0.1-1.05-0.66-1.78-1.66-1.42c0.18,0.82-0.46,0.57-0.91,0.94c-0.49,0.41-0.41,1.05-1.27,1.23
	c-0.17,0.03-0.94-0.1-1.08-0.19c-0.3-0.21-0.39-0.8-0.55-0.89c-1.41-0.86-1.29,0.9-2.02,1.16c-0.28,0.1-1.83-0.67-1.99-1.01
	c-0.84,0.59-1.15,0.53-1.26,0.21c-0.01,0.02-0.04,0.03-0.06,0.05c-0.25,0.44-0.44,1.56-0.38,2.07c0.1,0.88,1.03,1.85,0.74,2.72
	c-0.29,0.86-1.14,1.29-1.24,2.24c-0.14,1.28-0.24,2.43,0.26,3.66c0.59,1.44,1.28,2.66,2.84,3.24c1.14,0.42,2.37,0.75,3.59,0.7
	c0.34-0.13,0.67-0.27,1.02-0.35c0.7-0.15,1.73,0.31,2.35,0.58c-0.15-1.09-0.57-2.14,0.51-3.04c0.87-0.71,2.48-0.76,3.52-1.08
	c-0.47-0.51-0.7-1-1.3-1.42c-0.66-0.47-1.46-0.77-2.1-1.26c-1.62-1.24-0.16-2.93,1.09-3.78c0.73-0.5,1.58-0.75,2.22-1.36
	c0.57-0.54,0.64-1.08,0.88-1.79c0.2-0.59,0.5-1.04,0.85-1.56c0.39-0.56,0.81-0.73,1.3-1.2c0.31-0.29,0.42-0.58,0.47-0.88
	C300.78,205.76,299.76,205.71,298.85,205.78z"/>
<path class="st0" d="M321.15,205.51c-0.53-1.18-1.33-0.03-2.3-0.45c-0.36-0.16-0.84-1.17-1.1-1.53c-0.69,0.28-1.7,0.85-2.38,0.29
	c-0.52-0.43-0.19-1.38-1.27-1.13c-0.9,0.2-0.87,2.64-2.25,1.44c-0.44-0.38-0.21-1.08-0.85-1.36c-0.74-0.33-0.82,0.15-1.37-0.43
	c-0.48-0.51-0.28-0.75-0.95-1.01c-0.4-0.16-0.95,0.17-1.31-0.23c0.11,0.12,0.25,0.1,0.39,0.12c-0.28,0.15-0.6,0.24-0.89,0.3
	c-0.49,0.1-0.48,0.07-0.64,0.53c-0.08,0.23-0.12,0.51-0.36,0.56c-0.63,0.14-0.73-0.86-1.19-0.86c-0.26,0-0.62,0.53-0.64,0.76
	c-0.03,0.29,0.18,0.45,0.23,0.7c-0.48,0.07-1.15-0.16-1.51,0.24c-0.27,0.3-0.38,0.93-0.49,1.31c-0.12,0.41-0.37,0.49-0.56,0.83
	c-0.14,0.26-0.1,0.61-0.09,0.89c0.44,0.08,0.89,0.18,1.16,0.37c0.57,0.4,0.78,1,1.33,1.39c0.9,0.63,1.83,1.06,1.94,2.33
	c0.94,0.07,0.68,1.12,1.14,1.63c0.05-0.7-0.01-1.68,0.24-2.33c0.05-0.13,0.31-0.14,0.36-0.27c0.04-0.11,0.06-0.39,0.12-0.5
	c0.15-0.3,0.18-0.42,0.34-0.56c0,0,0,0-0.01-0.01c0.2-1.18,1.69-2.2,2.96-1.82c0.97,0.29,1.02,1.06,2.04,1.2
	c0.67,0.09,1.69-0.38,2.34-0.09c0.32,0.14,0.61,0.65,0.88,0.89c0.45,0.41,1.24,1.15,1.86,0.62c0.35-0.3,0.07-0.95,0.43-1.29
	C320.01,210.09,321.74,206.83,321.15,205.51z"/>
<path class="st0" d="M321.44,217.99c0.88-0.88-0.53-1.34-0.09-2.34c0.23-0.53,2.02-1.5,0.25-1.62c0.19-0.52-0.08-1.52-0.15-2.05
	c-0.22-1.58-1.25-1.49-2.68-1.02c0.52,1.28-0.54,0.59-0.92,1.22c-0.36,0.58,0.37,0.8,0.45,1.35c0.22,1.46-3.14,1.68-3.93,0.82
	c-0.5-0.54-0.32-1.03-0.91-1.47c-0.88-0.65-1.89-0.55-2.36-1.53c-0.16-0.34,0.09-0.65-0.22-0.96c-0.18-0.18-0.9-0.29-1.16-0.51
	c-0.61-0.5-0.54-1.03-1.5-1.34c-0.16,0.14-0.19,0.26-0.34,0.56c-0.05,0.11-0.08,0.38-0.12,0.5c-0.05,0.13-0.3,0.14-0.36,0.27
	c-0.21,0.54-0.21,1.29-0.23,1.94c0,0,0,0,0,0.01c0,0,0,0.01,0,0.02c0,0.12-0.01,0.26-0.01,0.36c-0.01-0.01-0.01-0.02-0.02-0.03
	c-0.15,0.7,0.02,1.67,0.06,2.29c0.02,0.41-0.22,0.92-0.1,1.32c0.12,0.43,0.74,0.6,0.98,1c0.19,0.31,0.14,0.76,0.32,1.07
	c0.3,0.5,0.55,0.41,1.04,0.71c0.79,0.49,1.06,1.47,1.54,2.23c0.52,0.83,0.88,1.29,1.56,1.96c0.51,0.51,0.61,0.87,0.76,1.54
	c-0.34,0.14-0.9,0.76-0.69,1.18c0.27,0.56,1.27-0.03,1.41,0.68c0.55,0.05,0.98-0.15,1.43,0.13c0.45,0.28,0.28,0.68,0.89,0.74
	c0.93,0.1,0.67-0.51,1.5,0c0.38,0.23,0.69,0.39,0.82,0.83c0.07-1.07-0.27-1.91,0.41-2.77c0.56-0.72,0.73-1.61,1.39-2.15
	c0.1-0.08,0.22-0.14,0.33-0.21c0.23-0.41,0.8-0.6,0.75-1.25c-0.03-0.37-0.91-0.35-0.48-1.22c0.87,0.1,1.26-0.15,1.51-0.94
	C322.97,218.03,322.16,218.58,321.44,217.99z"/>
<path class="st1" d="M313.27,224.17c-0.14-0.56-0.25-0.93-0.72-1.4c-0.67-0.67-1.04-1.13-1.56-1.96c-0.48-0.76-0.76-1.75-1.54-2.23
	c-0.49-0.3-0.74-0.21-1.04-0.71c-0.19-0.31-0.14-0.76-0.32-1.07c-0.24-0.4-0.85-0.58-0.98-1c-0.01-0.03,0.01-0.06,0-0.09
	c0,0.03-0.01,0.06,0,0.08c-0.04-1.22-1.36-1.45-2.02-2.19c-0.39-0.44-0.6-0.95-0.99-1.39c-0.54-0.61-0.9-1.06-1.3-1.77
	c-0.16-0.29-0.47-0.9-0.9-0.77c-0.5,0.14-0.19,0.83-0.23,1.21c-0.12,1.42-0.82,1-1.86,1.04c-0.01-0.06-0.06-0.07-0.07-0.12
	c-0.02,0.04,0,0.1-0.02,0.14c0.18,0.99-0.98,0.95-1.01,2.02c-0.01,0.21,0.15,0.61,0.08,0.78c-0.12,0.31-0.29,0.2-0.43,0.39
	c-0.24,0.31-0.46,0.5-0.57,0.93c-0.38,1.53,0.99,0.61,1.85,0.7c0.62,0.06,1.37,0.5,1.61,1.11c0.09,0.22-0.03,0.44,0.09,0.64
	c0.19,0.33,0.66,0.51,0.93,0.77c0.57,0.54,0.42,0.83,0.63,1.51c1.04,0.2,1.91-0.24,2.87-0.14c0.53,0.06,1.31,0.07,1.72,0.32
	c1.11,0.7,0.36,1.62,0.74,2.32c0.4,0.75,1.07,0.52,1.04,1.65c0.21-0.51,1.43-0.47,2.02-0.48
	C312.06,224.4,312.66,224.4,313.27,224.17z"/>
<path class="st2" d="M321.25,238.91c-0.03-0.71-0.57-0.68-0.97-1.13c-0.71-0.81-0.27-0.89-0.08-1.77c0.09-0.43-0.09-0.92,0.01-1.36
	c0.12-0.49,0.59-0.82,0.51-1.36c-0.09-0.53-0.57-0.45-0.74-0.82c-0.14-0.3-0.01-0.51-0.02-0.83c-0.02-0.61,0.36-1.19-0.07-1.73
	c-0.22-0.28-0.68-0.4-1.14-0.43c0.05,0.33,0.04,0.63-0.22,1.07c-0.31,0.52-0.9,0.74-1.11,1.25c-0.29,0.7,0.1,1.6-0.91,1.95
	c-0.38,0.13-0.92-0.01-1.3-0.12c-0.33-0.1-0.63-0.34-0.91-0.43c-0.34-0.12-0.56-0.04-0.93-0.08c-0.22-0.02-0.27-0.09-0.37-0.15
	c-0.01,0.11-0.06,0.19-0.05,0.33c0.05,0.66,0.4,1.17,0.42,1.82c0.02,0.7-0.36,0.76-0.48,1.32c-0.13,0.63,0.25,1.65-0.81,1.71
	c-0.64,0.04-1.31-0.92-2.06-0.38c-0.39,0.28-0.32,0.47-0.38,0.89c-0.32,2.28,1.32,1.51,2.59,1.91c0.53,0.17,0.63,0.65,1.23,0.73
	c0.51,0.07,0.62-0.52,1.12-0.19c0.29,0.19,0.17,0.71,0.34,0.95c0.86,1.28,3.27-0.07,3.62,1.68c0.15-0.37,0.18-0.85,0.41-1.2
	c0.59-0.92,0.62-0.2,1.34-0.62c1.1-0.63,0.18-0.88,0.34-1.87C320.7,239.63,321.27,239.35,321.25,238.91z"/>
<path class="st0" d="M339.73,234.76c-0.03-0.76-0.68-1.19-0.7-1.9c-0.02-0.71,0.67-1.08,0.7-1.78c0.04-0.81-0.38-1.09-1.08-1.24
	c0.19-1.3-1.96-1.3-2.32-2.26c-0.23-0.59-0.23-0.78-0.44-1.05c-0.08,0.15-0.27,0.23-0.78,0.13c-0.74-0.14-1.23-1.23-1.84-1.32
	c-0.54-0.08-0.81,0.45-1.24,0.85c-0.8-0.49-1.44-1.09-2.43-1.16c-0.76-0.05-1.36,0.12-2.14-0.09c-0.98-0.27-1.6-0.82-2.64-0.84
	c-0.67-0.01-1.24,0.21-1.9-0.01c0.13-1.15-1.37-0.87-2.09-1.22c0.14-0.02-0.11,0.09-0.19,0.09c0.01-0.09,0.11-0.13,0.15-0.2
	c-0.11,0.07-0.23,0.13-0.33,0.21c-0.66,0.54-0.83,1.43-1.39,2.15c-0.67,0.86-0.33,1.7-0.41,2.77c-0.13-0.44-0.44-0.59-0.82-0.83
	c0.35,0.21,0.62,0.38,0.76,0.74c0,0.37-0.04,0.73,0.06,1.12c0.06,0.24,0.08,0.39,0.1,0.56v0c0.46,0.03,0.91,0.14,1.14,0.43
	c0.43,0.54,0.05,1.12,0.07,1.73c0.01,0.32-0.12,0.52,0.02,0.83c0.16,0.37,0.65,0.29,0.74,0.82c0.09,0.54-0.39,0.88-0.51,1.36
	c-0.11,0.43,0.08,0.92-0.01,1.36c-0.19,0.88-0.63,0.96,0.08,1.77c0.4,0.46,0.93,0.42,0.97,1.13c0.02,0.45-0.55,0.73-0.61,1.14
	c-0.03,0.21,0,0.36,0.03,0.51c0.46,0.07,0.92,0.17,1.4,0.08c1.08-0.2,2.63-0.58,3.36-1.41c0.23-0.26,0.38-0.6,0.59-0.85
	c0.35-0.42-0.01-0.18,0.43-0.42c0.17-0.09,0.44,0,0.65-0.13c0.45-0.26,0.43-0.67,0.71-1.04c0.47-0.63,1.17-1.1,1.96-1.04
	c0.84,0.06,0.79,0.42,1.29,0.95c0.57,0.6,0.89,0.22,1.56,0.46c0.68,0.24,0.92,0.99,1.32,1.5c0.59,0.73,2.3,1.35,2.23,2.43
	c0.16-0.49,0.18-0.93,0.45-1.36c0.37-0.59,0.49-0.77,0.68-1.44c0.37-1.3,2.04-0.45,2.43-1.92
	C339.82,236.04,339.75,235.12,339.73,234.76z"/>
<path class="st3" d="M356.06,228.62c0.13-0.03,0.21-0.13,0.3-0.17c-0.34-0.59-1.08-0.57-1.4-1.05c-0.07-0.1,0.16-0.35,0.08-0.5
	c-0.06-0.11-0.18-0.2-0.29-0.29c-0.14-0.05-0.26-0.11-0.47-0.11c-0.53,0-0.77,0.23-1.22,0.29c-1.2,0.16-1.49-0.11-2.11-0.75
	c-0.44-0.45-0.68-0.98-1.42-0.99c-0.4-0.01-0.79,0.35-1.24,0.3c-0.35-0.04-0.71-0.5-1.16-0.43c-0.68,0.11-0.55,0.58-0.82,0.92
	c-0.95,1.19-2.09,0.14-3.64,0.13c-1.92-0.02-0.7-0.38-1.35-1.57c-0.51-0.94-0.71-0.3-1.16-0.09c-0.56,0.27-1.45,1.03-2.03,1.04
	c-0.54,0.01-1.68-1.27-2.29-0.74c-0.56,0.49,0.25,1.52,0.05,1.92c0.22,0.27,0.22,0.45,0.44,1.05c0.37,0.96,2.51,0.96,2.32,2.26
	c0.69,0.15,1.12,0.44,1.08,1.24c-0.03,0.7-0.72,1.07-0.7,1.78c0.02,0.71,0.67,1.14,0.7,1.9c0.02,0.37,0.09,1.29,0,1.62
	c-0.39,1.47-2.06,0.62-2.43,1.92c-0.19,0.67-0.31,0.85-0.68,1.44c-0.27,0.43-0.29,0.86-0.45,1.36c0.03-0.44-0.27-0.79-0.63-1.11
	c-0.29,0.4-0.73,0.96-0.9,1.1c-0.43,0.36-1.02,0.43-1.4,0.77c-0.05,0.04-1.11,1.69-1.16,1.83c-0.25,0.69,0.24,1.09,0.06,1.8
	c-0.34,1.41-2.14,1.78-1.88,3.41c0.1,0.65,0.59,0.87,0.66,1.63c0.06,0.69-0.31,1.83-0.67,2.42c2.25,1.27,2.06-1.43,3.9-1.89
	c1.39-0.34,0.99,0.58,1.82,0.9c0.73,0.28,1.08-0.09,1.81-0.04c1.06,0.06,3.28,1.89,3.98,0.75c0.45-0.75,0.09-1.41-0.23-2.1
	c-0.11,0-0.23,0.01-0.28-0.04c-0.13-0.13,0-0.34-0.05-0.5c-0.1-0.32-0.03-0.83-0.47-0.74c-1.23,0.24-0.64-0.66-0.73-1.25
	c-0.14-0.87-1.25-1.4-1.24-2.25c0.01-0.34,0.52-0.53,0.52-0.7c-0.01-0.47-0.45-0.42-0.58-0.84c-0.31-0.99,0.29-2.01,1.29-2.22
	c0.1-0.9,0.53-2.35,1.61-2.36c0.23,0,0.99,0.51,1.29,0.58c0.72,0.17,1.46,0.22,2.19,0.03c-0.29-0.45-1.3-1.02-0.99-1.64
	c0.32-0.64,0.58,0.01,1.14-0.11c0.63-0.14,1.24-1.25,1.97-0.79c0.37,0.23,0.21,1.13,0.8,1.21c0.46,0.06,0.83-0.44,0.82-0.83
	c-0.02-0.51-0.84-0.69-0.85-1.14c0-0.11,0.69-1.05,0.84-1.13c0.63-0.32,1.42,0.01,2.08-0.53c0.34-0.28,0.38-0.77,0.83-0.83
	c0.11-0.02,0.17,0.02,0.25,0.03c0.03-0.07,0.02-0.14,0.04-0.21c0.07-0.19,0.34-0.56,0.35-0.78c0.02-0.38-0.21-0.41-0.24-0.64
	c-0.15-1.08,0.86-0.75,1-1.54c0.14-0.8-0.95-1.11-0.61-2.09c0.38,0.07,0.65,0.39,1.06,0.37c0.21-1.18,1.21-0.28,1.8-0.15
	C356.08,229.62,357.24,228.96,356.06,228.62z"/>
<path class="st0" d="M331.49,260.91c-0.17-0.63-0.82-1.31-1.16-1.87c-0.38-0.63-0.64-1.36-1.13-1.91c-1.01-1.12-1.64-1.77-1.82-3.32
	c-0.38,0.02-0.71-0.06-1.12-0.56c-0.13-0.15-0.12-0.32-0.13-0.48c-0.67,0.95-2.23,1.36-3.07,2.07c-0.48,0.41-1.48,1.05-1.74,1.6
	c-0.67,1.42,0.92,1.32,1.25,2.22c0.41,1.09-1.4,2.27-1.7,3.25c-0.18,0.62,0.05,1.31-0.12,1.86c-0.26,0.83-0.85,0.77,0.02,1.64
	c0.58,0.58,0.69,0.37,0.72,1.3c0.68,0.26,0.79,0.22,1.14,0.79c0.21,0.33,0.25,0.52,0.49,0.84c0.24,0.32,0.5,0.68,0.71,1.06
	c0.03-0.16,0.11-0.31,0.13-0.48c0.04,0.27,0.01,0.54,0.02,0.82c0.04,0.1,0.11,0.19,0.13,0.29c0.16,0.81-0.42,1.6-0.15,2.44
	c0.05,0.15,0.19,0.21,0.28,0.34c0.16-0.03,0.33-0.07,0.44-0.16c0.3-0.25,0.42-0.62,0.53-0.97c0.14-0.47,0.28-0.93,0.43-1.4
	c0.07-0.23,0.13-0.49-0.02-0.7c-0.21-0.3-0.74-0.33-0.92-0.64c-0.12-0.21-0.02-0.45,0.04-0.67c0.21-0.7,0.06-1.45-0.08-2.18
	c-0.09-0.46-0.19-0.92-0.28-1.38c-0.11-0.54-0.2-1.15,0.16-1.58c0.83,1.16-0.29,3.03,1.01,3.8c0.22,0.13,0.49,0.21,0.63,0.41
	c0.16,0.22,0.07,0.5,0.09,0.75c0.03,0.35,0.34,0.71,0.75,0.77c0.4,0.06,0.82-0.26,0.73-0.61c0.09,0.34,0.51,0.61,0.9,0.58
	c0.39-0.04,0.7-0.37,0.66-0.72c0.3,0.02,0.59,0.05,0.89,0.07c0.42-0.43,0.83-0.87,1.25-1.3c-0.09-0.09-0.17-0.15-0.25-0.29
	C330.18,264.81,331.94,262.64,331.49,260.91z"/>
<path class="st1" d="M309.65,238.65c0.06-0.42-0.01-0.61,0.38-0.89c0.75-0.54,1.42,0.41,2.06,0.38c1.05-0.06,0.67-1.07,0.81-1.71
	c0.12-0.56,0.51-0.62,0.48-1.32c-0.02-0.66-0.36-1.17-0.42-1.82c-0.01-0.14,0.04-0.21,0.05-0.33c-0.22-0.13-0.32-0.32-0.73-0.68
	c-0.53-0.46-1.63-0.32-2.08-0.88c-0.22-0.28-0.01-0.49-0.14-0.81c-0.22-0.53-0.37-0.32-0.78-0.7c-0.72-0.68-0.25-0.73,0.24-1.14
	c1.33-1.11,0.26-1.16-0.24-2.08c-0.31-0.57-0.17-1.08-0.11-1.63c-0.76-0.13-1.51-0.32-2.3-0.43c-1.08-0.16-3.03-0.05-4.47,0.43
	c0-0.15-0.08-0.26-0.03-0.43c-0.25,0.95,0.36,1.43,0.35,2.37c0,0.66-0.74,1.91-1.52,1.11c-0.22,0.4-0.12,0.85-0.24,1.28
	c-1.48,0.72-0.77-2.69-2.05-1.5c-0.53,0.49-0.02,1.13-0.19,1.61c-0.14,0.38-0.83,0.38-0.38,0.84c-0.34,0.39-1.06,0.68-1.75,0.78
	c0.01,0.02,0,0.03,0,0.05c0.22,0.6,0.8,0.45,1.08,0.83c0.39,0.51,0.26,1.27,0.78,1.83c0.48,0.5,1.75,1.51,2.38,1.83
	c0.81,0.42,1.28-0.4,2.06-0.01c0.8,0.4,0.19,1.13,1.56,0.87c0.71-0.13,1.23-0.69,1.82-0.01c0.6,0.69-0.29,1.5-0.03,1.93
	c0.29,0.49,1.49,0.3,1.93,0.43c0.6,0.18,1.02,0.34,1.51,0.42C309.68,239.05,309.61,238.93,309.65,238.65z"/>
<path class="st0" d="M253.76,220.34c0.44-0.66,1.66-1.22,2.09-1.94c-0.78-0.02-1.65,0.03-2.42-0.12c-0.5-0.1-0.84,0.14-1.34,0.03
	c-0.22-0.05-0.66-0.2-0.9-0.16c-0.42,0.07-0.34-0.09-0.62-0.01c-0.64,0.19-1.53,0.13-2.22,0.26c-0.68,0.14-1.43-0.16-2.1,0.01
	c-0.89,0.23-1.68,0.79-2.55,1.05c0.1,0.09,0.17,0.23,0.28,0.29c-0.48,0.52-1.24,0.76-1.82,1.15c-0.74,0.49-1.35,0.83-2.16,1.17
	c-0.56,0.24-1.18,0.91-1.74,1.01c-0.07,0.01-0.16-0.01-0.24,0v0c-0.03,0.42-0.61,0.7-1.1,0.77c-0.8,0.13-0.93-0.25-1.59,0.15
	c-0.96,0.57-0.97,1.22-0.52,2.06c0.26,0.49,0.47,0.65,0.44,1.25c-0.02,0.46-0.35,0.87-0.31,1.33c0.05,0.64,0.79,1.83,1.34,2.16
	c0.41,0.25,0.83,0.13,1.24,0.42c0.28,0.2,1.12,1.26,0.9,1.61c-0.05,0.09-0.15,0.06-0.23,0.08c0.73,0.31,1.52,1.22,2.08,1.17
	c0.29-0.03,0.81-0.54,1.14-0.67c0.53-0.21,1.28-0.08,1.81-0.43c0.46-0.3,0.96-1.28,1.17-1.77c0.27-0.62,0.31-1.12,0.81-1.58
	c0.33-0.3,0.66-0.21,1-0.58c0.6-0.65,0.74-1.65,1.45-2.28c0.52-0.46,1.21-0.5,1.74-0.86c1-0.69,1.36-1.75,2.49-2.37
	c1.09-0.6,0.39-0.47,0.62-1.47C252.62,221.55,253.48,220.76,253.76,220.34z"/>
<path class="st3" d="M268.29,248.59c-0.02,0.32-0.09,0.62-0.08,0.97c1-0.13-0.31,1.29-0.09,1.72c0.2,0.4,0.81,0.11,0.61,0.78
	c-0.13,0.44-0.83,0.33-0.92,0.73c-0.1,0.45,0.57,0.89,0.55,1.48c0,0.13-0.07,0.27-0.12,0.41c-0.14-0.07-0.28-0.13-0.42-0.2
	c0.99,0.52,1.89,1.02,3.09,0.94c0.48-0.04,1.01-0.26,1.49-0.18c0.75,0.13,1.32,0.83,2.1,0.94c0.56,0.08,0.87,0,1.39,0.22
	c0.57,0.24,1.01,0.78,1.57,1.02c0.58,0.25,1.09-0.04,1.43,0.41c0.13-0.47,0.12-0.93,0.1-1.51c-0.03-0.89,0.35-1.02,0.78-1.8
	c0.43-0.78,0.03-1.11,0.15-1.85c0.06-0.34,0.31-0.46,0.42-0.79c0.13-0.4-0.04-0.76-0.03-1.15c0.02-0.88,0.35-1.46,0.85-2.16
	c0.47-0.67,1.55-1.93,1.25-2.81c-0.34-0.98-1.29-0.4-1.02-1.57c0.16-0.67,0.44-1.34-0.44-1.69c-0.36-0.14-0.84,0.13-1.2-0.08
	c-0.18-0.1-0.12-0.41-0.3-0.53c-0.44-0.3-1.35-0.02-1.62-0.32c-0.16-0.18,0.04-0.89-0.01-1.13c-0.04-0.18-0.19-0.24-0.26-0.38
	c-0.7-0.4-2.16-0.07-2.9,0.05c-0.08,0.54,0.4,1.61-0.3,1.78c-0.51,0.13-1.08-0.64-1.73-0.48c-0.64,0.16-0.73,0.67-0.64,1.33
	c0.11,0.77,0.5,0.79,0.86,1.39c0.45,0.74-0.03,0.43-0.63,0.94c-0.45,0.38-0.39,0.81-0.7,1.3c-0.51,0.83-1.19,0.5-2.01,0.87
	c-0.72,0.33-0.71,0.93-1.02,1.48c-0.37-0.64-1.17-0.54-1.83-0.44C267.26,248.2,267.88,248.2,268.29,248.59z"/>
<path class="st3" d="M282.42,245.77c0.3,0.88-0.78,2.13-1.25,2.81c-0.49,0.7-0.83,1.28-0.85,2.16c-0.01,0.39,0.16,0.75,0.03,1.15
	c-0.11,0.33-0.37,0.45-0.42,0.79c-0.12,0.74,0.27,1.07-0.15,1.85c-0.43,0.78-0.8,0.91-0.78,1.8c0.02,0.57,0.03,1.02-0.1,1.49
	c0.64-0.11,1.4-0.07,1.73,0c0.57,0.12,0.89,0.32,1.41,0.59c-0.03,0.02-0.05,0.03-0.09,0.05c0.78-0.53,1.22-0.59,1.8-1.36
	c0.77-1.03,1.68-1.82,2.56-2.73c1.69-1.76,3.75-0.77,4.5,1.2c0.01,0.02,0.01,0.04,0.02,0.06c0.29-0.25,0.55-0.56,0.91-0.71
	c0.76-0.32,2.11-0.53,1.99-1.65c-0.08-0.79-0.94-0.88-1.45-1.31c-0.77-0.64-1.53-1.54-2.25-2.25c-0.56-0.56-0.91-1.3-1.72-1.57
	c-0.81-0.27-1.42,0.02-2.09-0.61c-0.83-0.79-1.45-2.49-2.83-2.41c-0.34,0.02-0.78,0.13-1.21,0.29
	C282.27,245.53,282.36,245.6,282.42,245.77z"/>
<path class="st2" d="M296.23,246.47c0.51-0.88-0.57-1.84-0.52-2.73c0.04-0.66,0.48-0.53-0.02-1.24c-0.34-0.49-0.68-0.42-0.7-1.18
	c-0.04-1.33,1.6-1.85,1.71-3.26c0.09-1.13-0.05-1.92-0.59-2.86c-0.37-0.66-0.27-0.91-0.26-1.72c0-0.54-0.19-0.85-0.32-1.28
	c-0.17,0.15-0.35,0.31-0.46,0.44c-0.49,0.59-0.43,1.26-0.79,1.83c-0.24,0.38-0.66,0.45-0.92,0.8c-0.51,0.7-0.31,1.62-0.95,2.25
	c-0.6,0.59-1.58,0.8-1.94,1.64c-0.37,0.87-0.01,1.46-1.06,1.91c-0.57,0.24-1.21,0.14-1.7,0.01c-0.62-0.16-0.77-0.38-1.32,0.23
	c-0.5,0.55-0.41,1.26-0.66,1.95c-0.05,0.14-0.06,0.19-0.11,0.29c0.51,0.01,1.08-0.08,1.57-0.03c1.05,0.13,0.51,0.53,1.1,1.3
	c0.39,0.5,0.84,0.15,1.34,0.5c0.52,0.38,0.3,1.11,1.08,1.2c1.35,0.15,1.1-2.34,2.74-1.18c0.55,0.39,0.36,1.14,1.05,1.47
	C294.97,247.06,295.93,246.99,296.23,246.47z"/>
<path class="st2" d="M298.28,244.39c-0.61-0.64-1.11-1.27-2.04-1.48c-0.14-0.03-0.28,0.01-0.42,0c0.03,0.24-0.09,0.39-0.11,0.84
	c-0.05,0.89,1.03,1.85,0.52,2.73c-0.3,0.51-1.26,0.59-1.72,0.37c-0.69-0.33-0.5-1.08-1.05-1.47c-1.64-1.16-1.39,1.33-2.74,1.18
	c-0.78-0.09-0.56-0.82-1.08-1.2c-0.49-0.36-0.95-0.01-1.34-0.5c-0.59-0.76-0.05-1.17-1.1-1.3c-0.5-0.06-1.06,0.04-1.57,0.03
	c-0.03,0-0.06,0-0.09,0c-0.42-1.62-0.68-0.81-2-0.92c-0.19-0.02-0.23-0.2-0.35-0.22c-0.58-0.09-1.33-0.05-1.91,0.06
	c-0.09,0.02-0.09,0.08-0.17,0.11c-0.05-0.03-0.07-0.07-0.14-0.1c0.87,0.34,0.59,1.02,0.44,1.69c-0.23,0.98,0.38,0.78,0.79,1.24
	c0.44-0.16,0.87-0.28,1.21-0.29c1.38-0.08,2,1.62,2.83,2.41c0.67,0.63,1.28,0.34,2.09,0.61c0.81,0.27,1.16,1.01,1.72,1.57
	c0.72,0.71,1.48,1.61,2.25,2.25c0.51,0.42,1.37,0.52,1.45,1.31c0.05,0.45-0.17,0.73-0.46,0.95c0.52,0.34,1.06,0.64,1.71,0.77
	c1.89,0.39,2.05-1.54,3.42-2.36c0.93-0.55,1.61-0.62,2.16-1.66c0.36-0.69,0.67-1.64,0.72-2.43
	C301.45,246.11,299.64,245.83,298.28,244.39z"/>
<path class="st0" d="M306.25,238.39c-0.26-0.43,0.64-1.24,0.03-1.93c-0.59-0.68-1.12-0.12-1.82,0.01c-1.37,0.26-0.77-0.47-1.56-0.87
	c-0.77-0.38-1.25,0.43-2.06,0.01c-0.62-0.32-1.9-1.33-2.38-1.83c-0.53-0.56-0.4-1.32-0.78-1.83c-0.29-0.37-0.86-0.22-1.08-0.83
	c-0.01-0.02,0-0.03,0-0.05c-0.29,0.04-0.59,0.15-0.83,0.07c-0.03-0.01-0.09-0.08-0.12-0.1c-0.14,0.28-0.27,0.56-0.18,0.98
	c0.02,0.07,0.04,0.12,0.06,0.18c0.13,0.43,0.32,0.74,0.32,1.28c-0.01,0.81-0.11,1.06,0.26,1.72c0.53,0.94,0.67,1.73,0.59,2.86
	c-0.11,1.4-1.75,1.93-1.71,3.26c0.02,0.76,0.36,0.69,0.7,1.18c0.15,0.22,0.11,0.29,0.13,0.39v0c0.14,0.01,0.28-0.03,0.42,0
	c0.93,0.21,1.43,0.85,2.04,1.48c0.17,0.18,0.36,0.31,0.54,0.46c0.08-0.18,0.13-0.36,0.3-0.54c0.39-0.4,0.83-0.45,0.69-1.17
	c0.9-0.31,0.93-0.11,1.64,0.06c0.78,0.19,0.86,0.19,0.84-0.49c-0.02-0.68-0.45-1.01,0.06-1.68c0.28-0.37,0.56-0.38,0.93-0.49
	c1.08-0.31,2.77-0.83,3.25-2.04C306.45,238.46,306.29,238.47,306.25,238.39z"/>
<path class="st3" d="M118.71,240.25c0.79-2.08-1.99-1.71-2.15-3.54c1.48-0.84,1.36,0.61,2.03,1.02c0.61,0.37,1.43-0.04,2.03,0.3
	c1.33,0.75,1.26,3.16,0.87,4.37c-0.87-0.17-4.98-0.54-2.93-2.31"/>
<path class="st3" d="M121.35,242.27c0.43,1.23-1.72,4.44,1,4.66c2.39,0.2,2.93-3.48-0.05-3.29c0.08-0.8-0.46-1.39-1.11-1.06"/>
<path class="st2" d="M130.35,395.76c0.79-1.11,0.2-2,0.5-3.09c0.44-1.56,1.25,0.1,2.26-0.01c0.92-0.09,0.99-1.15,1.03-1.96
	c0.08-1.49-1.05-2.16-1.58-3.32c-0.54-1.16-1-2.08-1.63-3.11c-0.28-0.46,0.03-0.7-0.61-1.02c-0.73-0.36-1.79,0.16-2.59-0.2
	c-1.25-0.56-1.18-1.86-1.37-3.03c-0.17-1.02-0.3-1.75-0.95-2.59c-0.42-0.54-0.6-0.51-0.83-1.22c-0.31-0.97-0.61-1.77-1.85-2.07
	c-0.6-0.15-1.21,0.3-1.83-0.01c-0.32-0.16-0.55-0.5-0.77-0.78c0,0,0,0,0,0c-0.02,0.1,0.04,0.2-0.01,0.29
	c-0.14,0.26-0.43,0.33-0.63,0.51c0.13,0.18,0.25,0.37,0.29,0.59c0.13-0.07,0.04-0.22,0.28-0.25c0.62,0.78,0.48,2.16,0.47,3.15
	c-0.03,1.88-0.13,3.6,0.51,5.33c1.35,3.64,3.3,7.28,4.31,11.02c0.48,1.77,0.71,2.85,1.89,4.38c0.01,0.02,0.03,0.03,0.04,0.05
	c0.02-0.42,0.09-0.84,0.42-1.21c0.57-0.63,1.61-0.78,2.31-1.25c0.11-0.07,0.25-0.15,0.37-0.22
	C130.38,395.76,130.37,395.75,130.35,395.76z"/>
<path class="st1" d="M168.46,434.99c-0.49-1.11-1.26-2.43-2.85-1.68c-0.63,0.3-0.6,1.11-1.25,1.56c0.76,0.53,0.81,2.09-0.37,2.02
	c-0.78-0.04-0.55-1.02-1.16-1.25c-0.65-0.25-1.24,0.42-1.95,0.1c-0.52-0.24-0.66-0.93-1.15-1.14c-0.25-0.11-1.31-0.11-1.72-0.22
	c-0.72-0.21-1.31-0.56-1.8-0.95c-0.77,0.86-1.66,1.58-2.13,2.66c-0.19,0.43-0.36,1.4-0.46,1.77c-0.23,0.88-0.44,1.46-0.43,2.46
	c0.03,1.9,0.3,2.61,1.59,3.88c1.18,1.17,4.29,1.81,4.63,3.27c0.27,1.14-1.64,3.13,0.15,3.42c0.86,0.14,2.51-1.33,3.19-1.76
	c0.96-0.6,3.24-1.86,3.65-2.91c0.26-0.66-0.32-1.31-0.29-1.86c0.04-0.64,0.34-0.92,0.4-1.55c0.07-0.65-0.47-1.08-0.02-1.9
	c0.32-0.59,1.11-1.06,1.57-1.53c0.74-0.76,1.41-1.41,2.36-1.91C169.71,436.7,168.92,436.04,168.46,434.99z"/>
<path class="st0" d="M302.37,224.6c0.21-0.8,0.31-1.32-0.8-1.11c-0.48,0.09-0.85,0.45-1.22,0.45c-0.37,0.01-0.63-0.36-1.08-0.15
	c0.1,0.8-1.07,1.21-1.11,0.19c-0.03-0.8,0.81-1.7-0.53-1.61c0.08-0.47-0.18-0.94-0.7-0.86c0.02-0.59-0.26-1.17-0.7-1.58
	c-0.7,0.15-1.38,0.33-1.85,0.72c-1.08,0.89-0.66,1.95-0.51,3.04c-0.09-0.04-0.23-0.09-0.34-0.13c0.05,0.39-0.09,0.7-0.34,1.11
	c-0.6,0.98-0.27,1.6,0.99,1.68c0.04,0.71-0.1,1.6,0.77,1.79c0.12,0.65-0.57,1.18-0.32,1.85c0.1,0.28,0.86,1.07,1.11,1.15
	c0.79,0.27,2.09-0.29,2.57-0.84c-0.45-0.46,0.25-0.46,0.38-0.84c0.17-0.48-0.34-1.12,0.19-1.61c1.28-1.19,0.57,2.22,2.05,1.5
	c0.12-0.43,0.02-0.88,0.24-1.28c0.78,0.8,1.51-0.44,1.52-1.11C302.73,226.03,302.12,225.55,302.37,224.6z"/>
<path class="st0" d="M331.49,260.91c-0.17-0.63-0.82-1.31-1.16-1.87c-0.38-0.63-0.64-1.36-1.13-1.91c-0.43-0.48-0.76-0.87-1.05-1.29
	c-0.46,0.37-0.79,1.14-1.07,1.66c-0.61,1.13-1.38,2.13-2.02,3.24c-0.44,0.77-0.43,1.64-0.5,2.47c0.34,0.54,0.32,1.21,0.3,1.86
	c0.14,0.43,0.26,0.93,0.36,1.45c0.1,0.14,0.14,0.3,0.32,0.41c0.22,0.13,0.49,0.21,0.63,0.41c0.16,0.22,0.07,0.5,0.09,0.75
	c0.03,0.35,0.34,0.71,0.75,0.77c0.4,0.06,0.82-0.26,0.73-0.61c0.09,0.34,0.51,0.61,0.9,0.58c0.39-0.04,0.7-0.37,0.66-0.72
	c0.3,0.02,0.59,0.05,0.89,0.07c0.42-0.43,0.83-0.87,1.25-1.3c-0.09-0.09-0.17-0.15-0.25-0.29
	C330.18,264.81,331.94,262.64,331.49,260.91z"/>
<path class="st0" d="M335.22,261.82c-0.19-0.38-0.14-0.8-0.49-1.17c-0.32-0.33-0.58-0.29-0.75-0.75c-0.15-0.41-0.02-0.95-0.19-1.41
	c-0.26-0.72-0.64-0.62-1.04-1.06c-0.41-0.44-0.22-0.91-0.47-1.46c-0.22-0.48-0.8-1.05-1.2-1.39c-0.6-0.53-1.1-0.74-1.34-1.45
	c-0.5,0.28-1.01,0.51-1.54,0.58c-0.34,0.05-0.59,0.09-0.82,0.1c0.11,0.88,0.38,1.47,0.77,2.03c0,0,0.01-0.01,0.01-0.01
	c0.29,0.42,0.61,0.81,1.05,1.29c0.49,0.55,0.76,1.28,1.13,1.91c0.34,0.56,0.99,1.24,1.16,1.87c0.45,1.73-1.31,3.9-0.29,5.68
	c0.08,0.14,0.16,0.2,0.25,0.29c-0.42,0.43-0.83,0.87-1.25,1.3c0.45-0.47,0.9-0.94,1.35-1.41c-0.03,0.15-0.02,0.33,0.09,0.51
	c0.24,0.39,0.45,0.46,0.76,0.58c0.42,0.15,0.52,0.15,0.77-0.03c0.05-0.03,0.11-0.07,0.19-0.12c0.42-0.25,0.51-0.33,0.68-0.53
	c0.18-0.21,0.53-0.77,0.68-1.17c0.09-0.25,0.05-0.5,0.01-0.71c-0.03-0.15-0.05-0.3-0.02-0.43c0.04-0.19,0.13-0.24,0.46-0.41
	c0.08-0.04,0.17-0.09,0.28-0.15c0.27-0.15,0.4-0.29,0.46-0.44c0.06-0.15,0.06-0.31,0.05-0.48c-0.01-0.38-0.02-0.49,0.05-0.58
	C335.74,262.52,335.43,262.26,335.22,261.82z"/>
<path class="st3" d="M278.44,227.13c0.36-0.47,0.39-1.01,0.52-1.55c0.19-0.78,0.63-1.2,1.37-1.5c0.65-0.27,1.08-0.58,1.19-1.35
	c0.08-0.6,0.02-1.37-0.07-1.97c-0.07-0.44-0.29-1.29-0.75-1.5c-0.3-0.14-0.73,0.1-1.06-0.03c-0.46-0.19-0.39-0.57-0.5-0.95
	c-0.13-0.47-0.23-0.27-0.71-0.5c-0.52-0.26-0.85-0.87-1.33-1.25c-0.82-0.65-1.78-0.03-2.69-0.23c-0.14-0.03-0.16-0.13-0.26-0.19
	c-0.05-0.07-0.13-0.13-0.15-0.2c0.09,0.3,0.5,0.59,0.74,0.74c0.41,0.26,1.55,1.1,0.7,1.67c-0.36,0.24-0.59,0.04-0.9,0.41
	c-0.25,0.31-0.8,1.06-1.29,1.05c-1.01-0.03-0.93-2.1-1.5-2.58c-1.37-1.14-0.87,1.97-1.33,2.36c-0.87,0.72-1.36-1.6-2.2-0.49
	c0.22-0.29,0.41-0.34,0.6-0.28c-0.04,0.34-0.13,0.72-0.13,1.13c0,0.61-0.05,1.85,0.45,2.36c0.61,0.63,2.14-0.18,2.22,0.68
	c0.13,1.39-2.02,1.06-2.73,1.43c-0.23,0.12-0.1,0.5-0.2,0.55c-0.37,0.19-0.81,0.04-1.24,0.1c-0.91,0.12-0.57-0.02-1.03,0.58
	c-0.29,0.38-0.19,0.58-0.37,0.73c0.18-0.15,0.09-0.35,0.36-0.72c0.1,0.12,0.22,0.19,0.31,0.34c0.34,0.57,0.64,0.98,1.09,1.47
	c0.36,0.4,1.15,0.91,1.22,1.48c0.03,0.25-0.02,0.42-0.09,0.55c0.3,0.22,0.59,0.46,1.03,0.6c0.9,0.28,1.16,0.12,1.39,1.07
	c0.13,0.55,0.08,1.13,0.48,1.58c0.54-0.39,1.68-0.24,2.17,0.19c0.36,0.32,0.36,0.64,0.48,1.13c0.24,0.98,1.47,2.53,1.92,0.95
	c0.09,0.05,0.13,0.13,0.18,0.2c0.14-0.36,0.32-0.69,0.57-0.99c0.32-0.38,0.91-0.76,0.99-1.27c0.18-1.17-0.54-2.24-0.6-3.38
	c-0.02-0.46-0.02-1.23,0.27-1.61C277.79,227.61,278.19,227.45,278.44,227.13z"/>
<path class="st2" d="M302.35,241.04c-0.51,0.67-0.08,1-0.06,1.68c0.02,0.68-0.07,0.68-0.84,0.49c-0.71-0.18-0.74-0.37-1.64-0.06
	c0.14,0.72-0.3,0.77-0.69,1.17c-0.17,0.18-0.22,0.36-0.3,0.54c-0.18-0.15-0.37-0.28-0.54-0.46c1.36,1.44,3.17,1.72,3.01,4.18
	c-0.05,0.79-0.36,1.74-0.72,2.43c-0.54,1.03-1.21,1.11-2.12,1.64h0c0.29-0.17,0.52-0.28,0.76-0.4c0.08,0.11,0.16,0.21,0.29,0.28
	c0.64,0.36,1.26-0.2,1.63-0.68c0.18-0.23,0.29-0.38,0.39-0.63c0.08-0.21-0.19-0.37-0.02-0.56c0.52-0.6,0.48,0.53,0.5,0.78
	c0.39,0.18,0.8,0.04,1.13-0.14c0.46,1.03-0.09,1.33-0.3,2.24c-0.13,0.55,0.14,1.22,0.3,1.82c-0.19-0.21-0.4-0.45-0.66-0.74
	c0.9,0.97,1.21,1.81,2.16,0.35c0.08-0.13,0.29-0.49,0.38-0.65c0.39-0.7,0.27-0.77,0.23-1.55c-0.03-0.6,0.15-1.16-0.06-1.7
	c0.02,0.06,0.01,0.13,0.02,0.19c-0.04-0.09-0.11-0.18-0.11-0.28c0.01-0.49,1.14-0.61,1.23-1.01c0.06-0.26-0.2-0.4-0.15-0.62
	c0.07-0.28,0.21-0.32,0.31-0.56c0.26-0.6,0.52-1.55-0.25-1.93c-0.68-0.33-1.9,0.55-2-0.77c-0.05-0.64,0.28-0.58,0.01-1.13
	c-0.21-0.42-0.41-0.09-0.42-0.59c-0.01-0.27,0.29-0.68,0.46-0.88c1.31-1.58,3.91-2.62,2.2-4.88c-0.54,1.14-2.14,1.65-3.18,1.95
	C302.91,240.65,302.64,240.67,302.35,241.04z"/>
<rect transform="matrix(1 0 0 1 250 350)" width="150" height="100" fill="#FFF" />
<text transform="matrix(1 0 0 1 295.8339 364.6038)" fill="#FFF"><tspan x="0" y="0" class="st4 st5 st6">WEEK OF  </tspan><tspan x="-14.63" y="18" class="st4 st5 st6">DECEMBER 8,  </tspan><tspan x="14.53" y="36" class="st4 st5 st6">1918</tspan></text>
</svg>
