<?xml version="1.0" encoding="utf-8"?>
<!-- Generator: Adobe Illustrator 24.2.3, SVG Export Plug-In . SVG Version: 6.00 Build 0)  -->
<svg version="1.1" id="Layer_1" xmlns="http://www.w3.org/2000/svg" xmlns:xlink="http://www.w3.org/1999/xlink" x="0px" y="0px"
	 viewBox="0 0 452 464.86" style="enable-background:new 0 0 452 464.86;" xml:space="preserve">
<style type="text/css">
	.st0{fill:#B70101;stroke:#242424;stroke-width:0.28;stroke-linecap:round;stroke-linejoin:round;stroke-miterlimit:10;}
	.st1{fill:#C66720;stroke:#242424;stroke-width:0.28;stroke-linecap:round;stroke-linejoin:round;stroke-miterlimit:10;}
	.st2{fill:#84130D;stroke:#242424;stroke-width:0.28;stroke-linecap:round;stroke-linejoin:round;stroke-miterlimit:10;}
	.st3{fill:#E9CA67;stroke:#242424;stroke-width:0.28;stroke-linecap:round;stroke-linejoin:round;stroke-miterlimit:10;}
	.st4{fill:#242424;}
	.st5{font-family:Roboto;font-weight:700;}
	.st6{font-size:14px;}
</style>
<g>
	<path class="st0" d="M106.72,317.89c-0.23-0.2-0.3-0.58-0.52-0.81c-0.61-0.61-1.07-0.12-1.66-0.54c-0.54-0.38-0.06-1.57-0.64-1.93
		c-0.45-0.28-0.71,0.32-1.25-0.12c-0.16-0.13-0.11-0.54-0.23-0.73c-0.12-0.18-0.45-0.23-0.6-0.45c-0.35-0.51-0.69-1.23-0.62-1.87
		c0.03-0.27,0.3-0.57,0.31-0.76c0.02-0.41-0.23-0.56-0.21-0.78c0.07-1.09,1.03-1.7,2.03-1.77c0.41-0.03,0.77,0.03,1.13,0.08
		c0.49-0.32,1.07-0.59,1.09-0.62c0.45-0.44,0.71-1.68,0.86-2.39c-0.41-0.17-0.61,0.18-1.18,0.18c-0.41,0-1.02-0.53-1.56-0.32
		c-0.53,0.21-0.33,1.11-1.11,1.25c-1,0.19-0.68-0.71-0.96-1.15c-0.24-0.39,0.1-0.51-0.55-0.52c-0.38-0.01-0.45,0.29-0.4,0.61
		c-1.41-0.05-0.35,1.16-1.07,1.74c-0.42,0.33-0.82-0.06-1.16-0.29c0.1,0.44-0.02,1.49-0.24,1.77c-0.31,0.4-0.82,0.07-1.26,0.19
		c-0.39,0.11-0.68,0.45-1,0.71c0.2,0.36,0.59,0.55,0.78,0.95c0.1,0.2,0.07,0.51,0.18,0.75c0.14,0.31,0.31,0.58,0.43,0.85
		c0.18,0.4,0.2,0.98,0.69,1.22c0.52,0.26,1.14-0.06,1.69,0.3c0.45,0.29,0.55,0.6,0.75,1.05c0.21,0.47,0.38,1.11,0.75,1.47
		c0.24,0.24,0.59,0.21,0.72,0.51c0.05,0.12-0.11,0.44-0.09,0.6c0.06,0.46,0.41,0.84,0.47,1.23c0.08,0.56-0.04,0.71-0.24,0.77
		c0.29,0.21,0.5,0.45,0.77,0.66c0.33,0.25,0.88,0.48,1.18,0.85c0.49,0.6,0.11,0.95,0.95,1.37c0.61,0.3,1.09,0.03,1.4,0.9
		c0.07-1.36,1.29-1.96,1.45-3.17c0.07-0.51,0.04-1.1-0.34-1.54C107.33,317.94,106.93,318.07,106.72,317.89z"/>
	<path class="st1" d="M149.04,282.45c-0.03-0.48-0.55-0.91-0.6-1.46c-0.11-1.1,0.58-2.71-0.41-3.55l-0.08-0.15
		c-0.38-0.08-0.62-0.21-1.12-0.46c-0.3-0.15-0.84-0.45-1.18-0.14c-0.3,0.27,0,0.72-0.22,1c-0.3,0.39-1.02,0.17-1.25,0.84
		c-0.2,0.58,0.12,1.93-1.04,1.87c-0.45-0.02-0.76-0.91-1.4-0.31c-0.32,0.3-0.02,0.94-0.52,1.07c-0.17,0.05-0.28-0.03-0.39-0.13
		c-0.02,0.05-0.03,0.12-0.06,0.17c-0.41,0.8-1.95,0.79-1.95,1.59c1.74,0.3-0.1,0.94-0.52,1.53c-0.13,0.19-0.2,0.4-0.27,0.61
		c0.01,0,0.02,0,0.02,0c0.98,0.37-0.11,0.6-0.19,1.23c-0.03,0.28,0.17,0.54,0.1,0.86c-0.12,0.57-0.64,0.86-0.23,1.53
		c0.56,0.92,2.96-0.09,2.81,1.02c-0.04,0.26-0.43,0.25-0.48,0.44c-0.03,0.1,0.04,0.37,0.04,0.38c0.01-0.04-0.08,0.59-0.08,0.62
		c-0.09,0.9-0.21,0.72-1.02,0.99c1.04,1.27-0.48,1.1-1.18,1.08c-0.1,1.08,0.64,1.14,1.27,1.62c0.62,0.48,0.96,1.26,1.94,1.01
		c0.38-0.1,0.63-0.05,0.6-0.62c0.51,0.44,1.21,0.16,1.68-0.23c-0.21-0.82,0.52-1.64,1.26-1c0.47,0.41,0.26,1.06,1.25,0.92
		c-0.1-0.03-0.45,0.01-0.63,0.01c-0.23,0.87,1.11,1.39,1.74,1.53c-0.23-0.05-0.54-0.17-0.84-0.31c0.02-0.04,0-0.09,0.02-0.14
		c0.25-0.55,0.77-0.95,0.86-1.56c0.1-0.64-0.17-2.02-0.3-2.67c0.63-0.26,1.06,0.07,1.51-0.53c0.64-0.85-0.05-1.02-0.49-1.45
		c-0.26-0.26-0.48-0.18-0.63-0.53c-0.23-0.5,0.22-1.12,0.21-1.6c-0.01-0.58-0.48-0.8,0.17-1.16c0.82-0.46,1.63,0.7,1.59-1.03
		c-0.02-0.65-0.58-1.04-0.53-1.68C148.57,283.11,149.09,283.1,149.04,282.45z"/>
	<g>
		<path class="st2" d="M120.09,283.21c0.28,0.27,0.91,0.59,1.09,0.92c0.12,0.22-0.06,0.56,0.03,0.79c0.11,0.29,0.27,0.26,0.43,0.46
			c0.3,0.37,0.61,0.67,0.72,1.12c0.04-0.95-0.5-1.51,0.73-1.61c0.58-0.05,1.04,0.15,1.48-0.46c0.1-0.14,0.42-0.94,0.43-1.08
			c0.02-0.93-1.03-0.94-1.29-1.64c-0.21-0.57,0.31-0.8,0.14-1.32c-0.21-0.63-0.85-0.69-0.78-1.47c0.07-0.79,0.64-1.37,1.39-1.3
			c0.7,0.06,0.59,0.29,1.24-0.09c0.33-0.19,0.28-0.35,0.69-0.47c0.18-0.06,0.55,0.1,0.71,0.01c0.45-0.28,0.18-0.93,0.32-1.33
			c0.2-0.58,0.52-0.89,0.66-1.41c-0.37-0.3-0.69-0.66-1.03-1.05c-0.59-0.67-1.11-0.44-1.8-0.74c-0.21-0.09-0.46-0.46-0.84-0.55
			c-0.46-0.11-0.96-0.03-1.41-0.07c0.01-1.13-0.81-1.07-1.59-0.75c-0.43,0.17-1.35,0.9-1.83,0.54c-0.29-0.22-0.11-0.61-0.31-0.85
			c-0.42-0.52-1.1-0.26-1.01-1.18c0.08-0.76,1.19-1.18,0.62-2.06c-0.21-0.32-0.52-0.4-0.85-0.42c-0.91-0.04-1.24,0.67-1.31,1.31
			c-0.06,0.58,0.32,1.21-0.45,1.62c-0.35,0.19-0.21-0.01-0.43,0.02c-2.68,0.36-0.77-2.75-2.45-3.67c-0.17,0.57-0.15,1.16-0.34,1.72
			c-0.23-0.23-0.64-0.92-1.09-0.72c-0.15,0.07-0.25,0.61-0.37,0.78c-0.95-0.43-1.49,0-2.11,0.7c0.5,0.32,0.56,1,0.72,1.56
			c0.12,0.42,0.45,1.04,0.46,1.46c-0.95-0.03-1.18,0.91-0.38,1.34c0.28,0.15,1.05,0.19,1.4,0.3c0.3,0.09,0.95,0.32,1.26,0.22
			c0.3-0.09,0.57-0.61,0.89-0.76c1.35-0.61,1.87,0.72,0.49,1.23c-0.36,0.13-0.83-0.06-1.16,0.1c-0.27,0.12-0.27,0.49-0.52,0.6
			c-0.18,0.08-0.46-0.04-0.65,0.01c-0.66,0.15-0.45,0.01-0.82,0.51c-0.23,0.32-0.21,0.43-0.47,0.65c-0.09,0.08-0.32-0.05-0.43,0.05
			c-0.7,0.61-0.14,1.13-1.25,0.88c-0.42-0.1-3.18-0.28-2.42,0.94c0.17,0.27,1.67,0.22,2.03,0.32c-0.57,0.29-0.23,0.8,0.15,1.07
			c0.43,0.31,0.86,0.2,1.35,0.27c1.7,0.23,0.6,1.19,1.01,2.13c0.1,0.24,0.28,0.34,0.42,0.48c0.31-0.06,0.62-0.13,0.94-0.16
			c0.86-0.08,1.18,0.05,1.95,0.25c0.92,0.24,2-0.27,2.98-0.1c0.55,0.1,0.93,0.07,1.47,0.15
			C119.44,282.59,119.67,282.81,120.09,283.21z"/>
		<path class="st2" d="M122.74,288.64c-0.12-0.49-0.06-1-0.23-1.48c-0.15-0.45-0.11-0.96-0.2-1.42c0.03,0.22,0.06,0.47,0.05,0.77
			c-0.11-0.46-0.42-0.75-0.72-1.12c-0.16-0.2-0.32-0.17-0.43-0.46c-0.09-0.24,0.09-0.57-0.03-0.79c-0.18-0.33-0.81-0.64-1.09-0.92
			c-0.41-0.4-0.64-0.62-1.22-0.72c-0.54-0.09-0.92-0.06-1.47-0.15c-0.98-0.17-2.06,0.34-2.98,0.1c-0.77-0.2-1.08-0.33-1.95-0.25
			c-0.32,0.03-0.63,0.1-0.94,0.16l0,0c0.09,0.09,0.19,0.18,0.2,0.41c0.01,0.22-0.29,1.15-0.52,1.26c-0.33,0.16-0.76-0.21-1.29-0.04
			c-1.23,0.38-0.06,1.95-1.75,2.16c-0.02-0.76-0.12-1.06-0.79-1.24c-0.73-0.2-0.76,0.07-1.2-0.69c-0.17-0.29-0.72-1.44-1.29-0.65
			c-0.16,0.22,0.11,0.66,0.01,0.96c-0.09,0.3-0.44,0.54-0.56,0.89c-0.21,0.59-0.19,1.31-0.04,1.91c0.1,0.41,1.36,2.65,0,2.41
			c-0.06,0.91,0,1.75-1.29,1.37c-0.66-0.19-1.34-0.89-1.82,0.32c-0.29,0.73,0.43,0.33,0.6,1c0.04,0.14-0.06,0.32-0.16,0.51
			c0.11-0.02,0.21-0.04,0.32-0.02c0.29,0.03,0.54,0.23,0.7,0.26c0.46,0.08,2.51-0.67,2.01,0.56c-0.18,0.44-0.98,0.38-0.38,0.95
			c0.62,0.59,1.37-0.22,1.21,0.84c-0.06,0.44-0.57,0.84-0.43,1.36c0.08,0.29,0.31,0.31,0.49,0.55c0.26,0.33,0.27,0.47,0.45,0.82
			c0.14,0.27-0.03,0.26,0.19,0.49c0.16,0.17,0.57,0.12,0.77,0.28c0.42,0.33,0.4,1.01,0.88,1.28c-0.11-0.94,0.69-1.15,1.32-1.53
			c0.59-0.35,0.42-1.04,1.1-1.27c1-0.33,0.88,0.76,1.53,1.02c0.45,0.18,1.11-0.3,1.53-0.4c0.47-0.12,0.98-0.12,1.45-0.31
			c-0.16-0.26-0.45-0.56-0.45-0.9c0.54-0.11,1.39-0.02,1.86-0.32c0.65-0.41,0.92-1.32-0.14-1.26c0.12-1.11-1.06-0.46-1.19-1.19
			c-0.24-1.25,2.66-0.27,2.99-0.19c0.35,0.09,0.6,0.17,0.98,0.15c0.24-0.01,0.8-0.24,1-0.16c0.47,0.19,0.38,0.86,0.71,1.17
			c0.1,0.09,0.23,0.11,0.34,0.17c-0.02-0.13-0.04-0.27-0.03-0.41c0.03-0.72,0.66-1.26,0.69-1.94c0.03-0.65-0.58-0.94-0.31-1.65
			c0.23-0.62,0.73-0.77,1.32-0.69c-0.1-0.42,0.34-0.9,0.79-0.69c0.51,0.23,0.07,1.69,0.87,1.61c-0.1-0.38-0.12-0.76-0.41-1.14
			C123.38,289.85,122.89,289.24,122.74,288.64z"/>
		<path class="st2" d="M132.07,310.69c0.44,0.03,0.62-0.26,0.26-0.54c-0.18-0.14-0.59,0.07-0.81-0.09c-0.64-0.47-0.47-2.2-1.77-1.82
			c-0.02,0.8,0.03,1.23-0.72,1.52c-0.23,0.09-0.89,0.35-1.08,0.39c-0.41,0.09-2.19,0.14-2.45-0.08c-0.38-0.31-0.16-1.09-0.73-1.45
			c-0.7-0.44-1.47,0.19-1.76-0.9c-0.37-1.38,1.2-0.14,1.98-0.56c-0.23-0.5-1.15-2.53-0.25-2.61c0.05-0.01,0.42,0.36,0.6,0.38
			c0.21,0.03,0.38-0.1,0.57-0.1c0.34,0,0.41-0.14,0.81,0.09c0.71,0.41,0.73,1.39,1.81,1.06c0.3-0.09,0.6-0.27,0.84-0.43
			c0.46-0.3,1.39-0.51,1.24-1.39c0.35,0.21,1.25,0.22,1.54-0.08c0.21-0.22,0.15-0.44,0.15-0.78c0.01-0.69-0.23-1.36-0.38-2.01
			c-0.63,0.04-1.15,0.46-1.7-0.01c-0.53-0.45-0.5-1.17-1.14-1.56c-0.41-0.25-1.23-0.67-1.73-0.7c-0.77-0.04-0.88,0.32-1.49-0.15
			c-0.61-0.48-0.86-1.28-1.81-1c-0.88,0.26-0.73,0.42-1.67,0.22c-1.39-0.29-2.17-0.55-2.11-2.08c0.68,0.02,0.62-0.35,0.56-0.77
			c-0.11-0.07-0.24-0.08-0.34-0.17c-0.34-0.31-0.24-0.98-0.71-1.17c-0.2-0.08-0.76,0.15-1,0.16c-0.37,0.01-0.62-0.06-0.98-0.15
			c-0.32-0.08-3.22-1.06-2.99,0.19c0.14,0.73,1.32,0.08,1.19,1.19c1.06-0.06,0.78,0.84,0.14,1.26c-0.47,0.3-1.31,0.21-1.86,0.32
			c0,0.35,0.29,0.64,0.45,0.9c-0.46,0.19-0.98,0.19-1.45,0.31c-0.42,0.11-1.08,0.58-1.53,0.4c-0.64-0.26-0.53-1.35-1.53-1.02
			c-0.68,0.22-0.51,0.92-1.1,1.27c-0.63,0.38-1.43,0.59-1.32,1.53c-0.03-0.02-0.03-0.06-0.06-0.08c0.01,0.03,0.02,0.04,0.04,0.08
			c0.23,0.6,0.24,1.67,0.89,2.01c0.55-0.65,1.35-0.53,1.96-0.3c0.81,0.31,1.7,0.2,1.77,1.28c0.03,0.38-0.23,0.61,0.08,0.89
			c0.5,0.45,1.28-0.39,1.82-0.24c1.19,0.32,0.58,2.1-0.5,2.11c0.07,0.88,1.22,0.75,1.69,1.25c0.54,0.57,0.06,1.43,0.51,1.98
			c0.4,0.49,1.19,0.38,1.6,0.9c0.35,0.43,0.44,0.93,0.86,1.34c0.74,0.72,1.63,0.42,2.25,1.24c0.35,0.47,0.5,1.34,1.03,1.67
			c0.19,0.12,0.54-0.03,0.68,0.08c0.35,0.26,0.42,0.9,0.87,1.18c0.26,0.16,0.55,0.19,0.84,0.18c-0.25-0.52-0.22-1.07,0.48-1.27
			c0.63-0.18,0.58,0.1,1-0.41c0.09-0.11,0.31-0.52,0.42-0.7c0.52-0.84,0.91-1.57,1.37-0.24c0.31-0.21,0.47-0.5,0.85-0.52
			c0.22-0.02,0.48,0.3,0.73,0.3c0.38,0,0.62-0.38,1-0.26c0.29,0.09,0.23,0.56,0.64,0.56c0.46,0,1.23-0.9,1.14-1.22
			c-0.11-0.35-0.76-0.24-0.63-0.87C131.21,310.92,131.77,310.69,132.07,310.69z"/>
		<path class="st2" d="M95.72,279.81c-1.17-1.28,1.34-1.24,2.02-2.28c0.77-1.17,1.15-3.3-0.05-3.73c-1.49-0.53-3.47,1.42-3.83,2.61
			c-0.58,1.92,0.44,2.05,1.85,2.57V279.81z"/>
		<path class="st2" d="M100.49,284.36c-0.18,0.06-0.19,0.36-0.59,0.17c-0.26-1.05-1.31-1.74-1.94-0.62
			c-3.99,1.15,0.89-5.04,1.23-5.81c0.64-1.47,0.94-2.25,1.93-3.48c0.56-0.7,1.51-2.05,2.44-2.25c0.08,0.55-0.34,1.1-0.27,1.52
			c0.04,0.25,0.17,1.29,0.18,1.45c0.14,1.72,0.51,0.93-0.6,2.47c-0.44,0.61-1.33,1.54-1.97,2c-0.86,0.61-2.41-0.3-1.83,1.82
			c0.73,0.17,2.1,0.09,2.43,0.98C101.95,283.82,100.32,284.35,100.49,284.36z"/>
		<g>
			<path class="st2" d="M126.57,317.98c0-0.19,0.07-0.6-0.03-0.75c-0.34-0.54-0.03-0.06-0.67-0.26c-0.48-0.15-0.73-0.07-1.19-0.43
				c-0.24-0.19-0.41-0.43-0.53-0.68c-0.29,0.01-0.58-0.02-0.84-0.18c-0.46-0.28-0.52-0.92-0.87-1.18c-0.14-0.1-0.49,0.04-0.68-0.08
				c-0.52-0.32-0.67-1.2-1.03-1.67c-0.62-0.81-1.51-0.52-2.25-1.24c-0.42-0.41-0.51-0.9-0.86-1.34c-0.42-0.52-1.21-0.41-1.6-0.9
				c-0.44-0.55,0.04-1.42-0.51-1.98c-0.47-0.49-1.62-0.37-1.69-1.25c1.08-0.01,1.69-1.79,0.5-2.11c-0.54-0.15-1.32,0.69-1.82,0.24
				c-0.32-0.29-0.06-0.51-0.08-0.89c-0.07-1.08-0.96-0.98-1.77-1.28c-0.61-0.23-1.41-0.35-1.96,0.3c-0.07-0.04-0.07-0.14-0.13-0.2
				c-0.16,0.35-0.33,0.7-0.59,1.01c-0.73,0.83-1.2,0.6-1.47,1.8c-0.13,0.6-0.44,2.19-0.93,2.68c-0.06,0.06-2.98,1.39-1.26,1.64
				c-0.77,1.69,0.62,1,1.71,0.81c0.65-0.12,1.44,0.08,1.1,1.12c-0.37,1.14-1.76,0.6-2.48,0.67c-0.42,0.04-1.13,0.05-0.82,0.89
				c0.2,0.54,0.93,0.42,1.27,0.74c0.32,0.3,0.2,0.73,0.47,0.99c0.67,0.64,2.33,0.68,3.25,0.94c0.33,0.09,0.81-0.07,1.1,0.17
				c0.49,0.4,0.1,0.79,0.31,1.23c0.61,1.29,1.46,0.39,2.71,0.5c1.12,0.1,2.29,0.82,3.34,1.26c1.1,0.47,2,0.25,3.13,0.4
				c0.58,0.08,0.83,0.25,1.13,0.48c0.01-0.15,0.03-0.31,0.21-0.52c0.27,0.44,0.64,0.4,1.09,0.54c0.56,0.17,0.4,0.16,0.78,0.48
				c0.41,0.35,0.18,0.45,0.77,0.38c0.31-0.04,0.29-0.42,0.71-0.28c0.23,0.07,0.16,0.26,0.3,0.37c0.43,0.37,0.1,0.49,0.76,0.7
				c0.3,0.1,0.73,0.18,0.94-0.08c0.23-0.27,0.1-1.02,0.4-1.4C126.87,319.11,128.1,317.91,126.57,317.98z"/>
			<path class="st2" d="M124.05,315.19c0.01-0.04,0.01-0.08,0.02-0.12C124.06,315.11,124.05,315.15,124.05,315.19z"/>
		</g>
		<path class="st2" d="M97.17,303.54c0.29,0.06,0.49-0.25,0.69-0.23c0.54,0.07,0.77,0.47,0.81,1c0.03,0.37-0.08,0.66-0.03,1.05
			c0.07,0.47,0.38,0.85-0.19,1.23c0.01,0.03,0.01,0.09,0.02,0.13c0.34,0.23,0.73,0.61,1.14,0.28c0.72-0.57-0.34-1.78,1.07-1.74
			c-0.06-0.32,0.02-0.62,0.4-0.61c0.64,0.01,0.3,0.13,0.55,0.52c0.28,0.44-0.04,1.34,0.96,1.15c0.78-0.14,0.58-1.04,1.11-1.25
			c0.54-0.22,1.14,0.31,1.56,0.32c0.57,0,0.77-0.35,1.18-0.18c-0.03,0.16-0.08,0.35-0.12,0.55c0.08-0.33,0.15-0.65,0.19-0.84
			c0.27-1.2,0.74-0.97,1.47-1.8c0.26-0.29,0.42-0.63,0.57-0.96c-0.48-0.43-0.53-1.32-0.74-1.86c-0.01-0.02-0.01-0.03-0.02-0.05
			c-0.43-0.28-0.43-0.91-0.84-1.24c-0.2-0.16-0.61-0.11-0.77-0.28c-0.22-0.23-0.06-0.22-0.19-0.49c-0.18-0.35-0.18-0.48-0.45-0.82
			c-0.18-0.23-0.41-0.25-0.49-0.55c-0.14-0.52,0.37-0.92,0.43-1.36c0.16-1.06-0.59-0.24-1.21-0.84c-0.6-0.57,0.21-0.51,0.38-0.95
			c0.5-1.23-1.54-0.48-2.01-0.56c-0.16-0.03-0.42-0.23-0.7-0.26c-0.11-0.01-0.21,0.01-0.32,0.02c0.05-0.1,0.1-0.2,0.13-0.3
			c-0.09,0.23-0.31,0.51-0.26,0.76c0.06,0.33,0.19,0.38,0.39,0.6c0.47,0.51,0.96,0.4,0.47,1.34c-0.43,0.83-0.77,0.36-1.42,0.64
			c-0.51,0.23-1.48,1.8-2.02,0.62c-0.25-0.55,0.36-1.17,0.66-1.55c0.17-0.22,0.66-0.57,0.6-0.89c-0.03-0.18-0.29-0.08-0.32-0.16
			c-0.04-0.09-0.23-0.02-0.27-0.1c-0.06-0.11,0.01-0.28-0.04-0.38c-0.08-0.14-0.01-0.46-0.07-0.64c-0.48,0.48-0.83,0-0.77-0.51
			c0.05-0.4,0.52-0.54,0.44-1c-0.04-0.24-0.45-0.34-0.53-0.62c-0.2-0.69,0.48-1.58,0.7-2.19c0.23-0.64,0.25-1.24,0.21-1.92
			c-0.29,0.21-0.14,0.87-0.67,0.85c0.11,0.67-0.42,0.53-0.76,0.35c-0.56-0.3-0.5-0.73-1.27-0.65c0.11,0.32,0.15,0.95-0.08,1.27
			c-0.35,0.47-0.6,0.1-1.09,0.27c-0.53,0.19-1.05,1.01-1.02,1.62c0.03,0.57,0.5,0.8,0.14,1.4c-1.72-0.89,0.16,2.9-1.14,2.66
			c0.26,0.97-0.05,1.67,0.77,2.24c0.78,0.55,0.84,0.37,0.86,1.32c0,0.13,0.01,0.61,0,0.71c-0.02,0.41,0.07,0.53-0.14,0.97
			c-0.32,0.66-0.67,1.31-0.09,2.12c0.11-0.1,0.23-0.15,0.37-0.15c0.18,0.24,0.19,0.6,0.41,0.8c0.2,0.18,0.59,0.16,0.8,0.36
			C96.89,303.04,96.54,303.4,97.17,303.54z"/>
		<path class="st2" d="M109.12,340.74c-0.67-0.27-0.78-0.04-1.25-0.81c-0.21-0.34-0.41-0.63-0.34-1.04c0.38-0.03,0.77-0.08,1.15-0.1
			c-0.87-1.27,1.05-0.72,1.28-1.34c0.25-0.67-1.04-0.94-0.81-1.65c0.05-0.16,0.42-0.22,0.48-0.49c0.04-0.2-0.1-0.29-0.14-0.47
			c-0.12-0.6-0.11-0.73-0.08-1.32c0.03-0.73-0.64-1.19-0.33-1.86c0-0.01,0.02,0,0.02-0.01c-0.08-0.02-0.13-0.09-0.21-0.09
			c0.08-0.84-0.67-0.49-1.05-1c-0.34-0.45,0.08-0.63-0.1-1.06c-0.18-0.44-0.67-0.23-0.73-0.82c-0.05-0.53,0.44-0.77,0.71-1.12
			c-0.09-0.05-0.19-0.09-0.28-0.14c-0.32-1.13,0.94-0.72,1.51-1.22c0.56-0.49,0.61-1.28-0.38-1.06c-0.06-0.31-0.57-0.86-0.74-0.96
			c-0.52-0.32-0.33-0.14-1.13-0.17c0.28-0.6-0.14-0.84-0.3-1.24c0,0.03-0.02,0.05-0.02,0.08c-0.31-0.86-0.79-0.59-1.4-0.9
			c-0.84-0.42-0.47-0.77-0.95-1.37c-0.3-0.37-0.85-0.59-1.18-0.85c-0.27-0.21-0.49-0.45-0.77-0.66c0,0,0,0,0,0
			c-0.26,0.07-0.65-0.04-0.99,0.17c-0.33,0.21-0.22,0.8-0.67,1c-0.5,0.22-1.42-0.04-1.97,0.09c0.02,0.78-0.18,0.72,0.39,1.39
			c0.52,0.61,1.14,0.94,1.71,1.46c-0.48,0.62-0.62,1.41-0.02,1.89c0.49,0.39,0.76,0.21,0.98,0.72c0.03,0.06-0.08,0.4-0.04,0.54
			c0.09,0.39,0.42,0.39,0.4,0.88c-0.02,0.44-0.59,0.79-0.47,1.33c0.14,0.66,1,0.83,1.16,1.54c-1.7-0.29-0.26,1.42-0.11,1.88
			c0.28,0.83-0.32,1.78-0.27,2.67c0.03,0.66,0.39,1.07,0.55,1.69c0.16,0.63,0.04,1.29,0.08,1.93c0.06,0.98,0.68,1.65,0.85,2.64
			c0.13,0.72,0.11,1.74,0.57,2.27c0.28,0.32,0.93,0.46,1.24,0.91c0.13,0.19,0.19,0.41,0.28,0.62c0.36,0.83,0.17,1.16,0.09,2.03
			c-0.03,0.37-0.22,0.51,0.1,0.82c0.19,0.19,1.09,0.23,1.3,0.02c0.2-0.2,0.02-0.68,0.07-0.94c0.17-1.02,0.88-0.61,1.43-1.29
			c0.31-0.39,0.15-0.75,0.2-1.27c0.05-0.44,0.13-0.98,0.45-1.33c0.26-0.28,0.68-0.3,0.89-0.6
			C109.61,341.93,109.85,341.03,109.12,340.74z"/>
		<g>
			<path class="st2" d="M109.41,333.52c-0.02,0.52-0.02,0.72,0.06,1.16l0,0C109.39,334.24,109.39,334.04,109.41,333.52z"/>
			<path class="st2" d="M123.76,323.73c-0.24-0.09-0.63-0.11-0.86-0.24c-0.35-0.21-0.27-0.39-0.47-0.68c-0.19-0.27,0.1-0.3-0.2-0.47
				c-0.1-0.06-0.55,0.17-0.73,0.16c-0.42-0.03-0.94-0.18-0.94-0.69c0-0.46,0.55-0.46,0.66-0.87c0.19-0.78-1.35-1.04-0.5-2.04
				c-0.17,0.21-0.2,0.37-0.21,0.52c-0.3-0.23-0.55-0.4-1.13-0.48c-1.13-0.15-2.03,0.07-3.13-0.4c-1.04-0.45-2.22-1.16-3.34-1.26
				c-0.86-0.08-1.52,0.28-2.05,0.13c-0.08,0.1-0.14,0.18-0.23,0.3c-0.49,0.72-0.31,1.54-0.45,2.37c-0.54,0.11-0.62-0.37-0.99-0.43
				c-0.35-0.06-0.63,0.15-0.91,0.13c-0.15-0.01-0.31-0.07-0.46-0.1c0,0,0,0.01,0,0.01c-0.16,1.18-1.32,1.79-1.43,3.09
				c0.16,0.4,0.58,0.64,0.3,1.24c0.8,0.04,0.61-0.15,1.13,0.17c0.17,0.11,0.68,0.65,0.74,0.96c0.98-0.22,0.94,0.57,0.38,1.06
				c-0.58,0.5-1.84,0.09-1.51,1.22c0.09,0.05,0.19,0.09,0.28,0.14c-0.27,0.35-0.77,0.59-0.71,1.12c0.06,0.6,0.55,0.38,0.73,0.82
				c0.17,0.43-0.24,0.62,0.1,1.06c0.38,0.5,1.13,0.16,1.05,1c0.08,0,0.14,0.07,0.21,0.09c0,0.01-0.02,0-0.02,0.01
				c0.18-0.4,0.77,0.03,1.07,0.21c0.24,0.14,0.27,0.45,0.56,0.48c0.15,0.02,0.36-0.32,0.57-0.3c0.75,0.06,0.68,0.84,1.1,1.4
				c0.38,0.51,0.84,0.82,1.44,1.08c1.03,0.45,0.62-0.13,1.42-0.46c0.34-0.14,0.98,0.13,1.38,0.07c0.46-0.06,0.97-0.26,1.38-0.48
				c-0.01-0.08-0.04-0.14-0.06-0.21c0.49,0.34,0.39-0.14,0.67-0.17c0.1-0.01,0.17-0.2,0.32-0.22c0.22-0.02,0.57,0.49,0.8,0.55
				c0.83,0.2,0.7-0.19,0.91-0.71c0.25-0.62,0-0.62,0.85-0.87c-0.1-0.41-0.36-0.51-0.35-0.93c0.01-0.43,0.36-0.58,0.36-0.97
				c0-0.6-0.26-0.51-0.56-0.82c-0.41-0.41-0.48-0.5-0.44-1.2c0.73-0.18,1.03,0.43,1.7,0.44c0.95,0.01,0.66-0.56,0.71-1.31
				c1.14-0.02,1.1-0.7,1.25-1.5c0.11-0.58,0.64-1.21,0.51-1.77C124.09,324.21,124.15,323.87,123.76,323.73z"/>
			<polygon class="st2" points="124.78,320.88 124.78,320.88 124.78,320.88 			"/>
		</g>
		<g>
			<path class="st2" d="M140.38,279.2c-0.11-0.67-0.66-0.95-0.63-1.59c0.03-0.63,0.73-1.07,0.38-1.78
				c-0.87,0.34-0.65-0.28-0.99-0.68c-0.06-0.07-0.53-0.37-0.97-0.69c0.07-0.04,0.14-0.05,0.2-0.12c-0.46,0.61-1.32-0.07-1.94,0.09
				c-0.53,0.14-0.74,0.82-1.35,0.85c-0.38,0.02-0.57-0.22-0.9-0.3c-0.43-0.1-0.74-0.03-1.17-0.02c-0.44,0.01-0.69-0.19-1.03-0.24
				c-0.84-0.11-1.93,0.39-2.85,0.16c-0.43-0.11-0.74-0.32-1.03-0.56l0,0c-0.14,0.52-0.46,0.84-0.66,1.41
				c-0.14,0.4,0.12,1.05-0.32,1.33c-0.16,0.1-0.53-0.06-0.71-0.01c-0.41,0.13-0.36,0.28-0.69,0.47c-0.65,0.38-0.54,0.15-1.24,0.09
				c-0.75-0.06-1.31,0.51-1.39,1.3c-0.07,0.79,0.57,0.84,0.78,1.47c0.17,0.52-0.35,0.76-0.14,1.32c0.26,0.7,1.31,0.71,1.29,1.64
				c0,0.15-0.33,0.94-0.43,1.08c-0.44,0.61-0.91,0.41-1.48,0.46c-0.84,0.07-0.84,0.36-0.78,0.84c0.09,0.46,0.05,0.97,0.2,1.42
				c0.17,0.48,0.11,0.98,0.23,1.48c0.14,0.61,0.64,1.21,1.01,1.7c0.29,0.38,0.31,0.76,0.41,1.14c0.02,0,0.03,0.02,0.05,0.02
				c0.08-0.63-0.44-1.78,0.34-2.26c0.61-0.37,1.33,0.53,1.91,0.56c0.05-0.79,0.18-1.46,0.34-2.24c0.46,0.34,0.79,0.77,1.23,0.31
				c0.48-0.5,0.55-1.84,0.87-2.48c0.24,0.13,0.49,0.26,0.75,0.3c-0.02-1.79,2.45,0.85,2.57,0.84c-0.04-0.45-0.27-0.89-0.21-1.37
				c0.27,0.27,0.68,0.38,1.06,0.29c0.01-0.37,0.21-1.27,0.56-1.49c0.5-0.32,0.16-0.14,0.52,0.13c0.55,0.4,0.39,1.39,0.77,1.66
				c0.98,0.7,2.23-1.15,3.13-0.81c-0.01,0-0.02,0-0.02,0c0.07-0.21,0.14-0.42,0.27-0.61c0.42-0.59,2.26-1.23,0.52-1.53
				c0.01-0.8,1.55-0.79,1.95-1.59c0.02-0.05,0.03-0.12,0.06-0.17c0.1,0.09,0.22,0.17,0.39,0.13
				C140.4,281.39,140.46,279.64,140.38,279.2z"/>
			<path class="st2" d="M137.73,288.54c0.01,0.01,0.02,0.01,0.02,0.01l0,0C137.75,288.55,137.74,288.55,137.73,288.54z"/>
			<path class="st2" d="M123.3,289.87c0.51,0.23,0.07,1.69,0.87,1.61C123.37,291.56,123.81,290.1,123.3,289.87z"/>
			<path class="st2" d="M140.02,271.86L140.02,271.86c-0.15,0.21-0.31,0.41-0.44,0.55C139.72,272.27,139.88,272.07,140.02,271.86z"
				/>
		</g>
	</g>
	<path class="st3" d="M168.72,282.87c-0.02-0.38,0.08-0.75-0.15-1.07c-0.27-0.38-0.83-0.34-1.1-0.75c-0.28-0.43-0.13-1.03-0.38-1.5
		c-0.28-0.53-0.83-0.79-1.2-1.24c-0.59-0.72-0.18-1.14-0.44-1.87c-0.13-0.37-0.46-0.48-0.55-0.89c-0.04-0.17,0.07-0.36,0.12-0.56
		c-0.44,0.48-0.5,0.56-1.32,0.4c-0.54-0.11-1.54-0.36-1.92,0.26c-0.33-0.14-0.69-0.27-0.99-0.47c-0.36,0.3-2.11,0.82-2.33,0.13
		c-0.11-0.35,0.88-0.72,0.15-1.12c-0.59-0.33-1.4,0.7-2.08,0c-0.52-0.54-0.02-0.32,0.34-0.46c0.72-0.29,2.65,0.25,2.83-0.78
		c0.16-0.85-0.75-0.67-1.09-1.12c-0.3-0.4,0.19-0.86-0.01-1.37c-0.39-1.01-2.49,0.32-3.39,0.23c-0.08-1.01-1.34-0.3-2.07,0.06
		c-0.16,0.08-0.34,0.17-0.43,0.19c-0.61,0.13-0.93,0.06-1.32,0.47c-0.29,0.31-0.33,0.56-0.77,0.79c-0.32,0.17-0.91,0.27-1.1,0.61
		c-0.09,0.18,0.1,0.52,0.01,0.7c-0.22,0.47-0.86,0.68-1.09,1.17c-0.08,0.17,0.02,0.43-0.05,0.62c-0.08,0.2-0.38,0.27-0.44,0.44
		c-0.19,0.52,0.06,1.31,0.48,1.66c-0.26-0.01-0.37-0.06-0.52-0.09c0.1,0.09,0.2,0.18,0.3,0.28c0,0,0.01,0.01,0.01,0.01
		c0.82,0.57,1.74,1.28,2.8,0.7c0.45-0.24,0.38-0.69,0.82-0.94c0.66-0.38,0.92-0.04,1.55,0.09c0.52,0.1,0.9-0.02,1.24,0.43
		c0.52,0.69,0.2,1.97-0.2,2.59c-0.25,0.39-1.3,1.12-1.05,1.74c0.31,0.79,1.61,0.19,2.19,0.3c0.97,0.2,0.89,0.72,1.99,0.21
		c0.73-0.33,1.26-1.07,1.74-0.22c0.29,0.52-0.14,1,0.27,1.49c0.21,0.24,0.68,0.2,0.92,0.54c0.19,0.27,0.04,0.77,0.27,1.07
		c0.17,0.22,0.46,0.3,0.74,0.4c0.34,0.07,0.71,0.19,1.11,0.14c0.77-0.1,1.78-0.45,2.25-0.83c0.4-0.32,0.34-0.87,1.17-0.83
		c0.87,0.04,1.27,0.9,2.17,0.31c0.07,0.05,0.03,0.11,0.08,0.16c0.07-0.08,0.15-0.13,0.21-0.26
		C168.77,284.09,168.76,283.51,168.72,282.87z"/>
	<path class="st1" d="M274.59,294.97c-0.18-0.28-0.36-0.54-0.58-0.84c-0.71-0.99-1.84-1.7-2.65-2.62c-0.6-0.69-1.45-1.14-2.15-1.73
		c-0.37-0.32-0.71-0.8-1.08-1.08c-0.4-0.3-0.76-0.27-1.18-0.49c-0.34-0.18-0.46-0.41-0.55-0.65c-0.33,0.04-0.5,0.07-0.26,0.04
		c-0.05,0.61-0.15,1.2-0.2,1.49c-0.16,0.98-0.79,1.32-1.77,1.4c-0.16,0.01-0.44-0.02-0.73-0.05c0.06-0.06,0.03-0.09,0.11-0.16
		c-1.43,1.23,0.7,1.34,0.3,2.56c-0.1,0.3-0.8,1.2-1.02,1.22c-0.33,0.02-1.01-0.75-1.48-0.82c-0.17-0.02-0.51,0.06-0.7,0.07
		c-0.36,0.02-1.08-0.11-1.37,0.15c-0.3,0.26-0.08,0.2-0.18,0.41c-0.23,0.45-0.05,0.75-0.56,0.99c-0.77,0.36-1.73,0.1-1.35,1.47
		c0.21,0.76,0.61,0.58,1.17,0.94c0.93,0.58,0.61,1.46,0.6,2.47c-0.01,1.51,0.14,1.51,1.39,1.2c0.55-0.14,0.74-0.07,1.18-0.41
		c0.46-0.36,0.83-1,1.19-1.46c0.65-0.83,0.92-0.93,1.93-0.93c0.9,0,1.04-0.2,1.61-0.85c0.88-1.01,2.32-1.04,3.54-0.93
		c0.78,0.07,1.38-0.24,2.12-0.41c0.89-0.21,1.97-0.23,2.88-0.22C274.69,295.43,274.61,295.21,274.59,294.97z"/>
	<path class="st0" d="M283.34,282.78c-0.14-0.16-0.16-0.39-0.18-0.62c-0.73,0.57-1.4,2.22-2.54,1.73c-0.4-0.17-0.57-0.77-0.95-0.92
		c-0.19-0.08-0.52,0.06-0.75,0c-0.5-0.14-0.59-0.42-0.78-0.91c-0.22-0.58-0.47-1.37-1.16-0.53c-0.21,0.25-0.4,0.8-0.65,1.12
		c-0.13-0.1-0.3-0.31-0.46-0.37c-0.3-0.12-0.59,0.03-0.88-0.15c-0.49-0.31-0.65-0.85-0.68-1.34c-0.04-0.79-0.45-1.51-0.75-2.25
		c-0.26,0.28-0.41,0.77-0.85,0.91c-1.1,0.35-0.84-0.94-1.51-1.4c-0.82-0.55-0.56,0.16-0.68,0.62c-0.34,1.33-0.97,1-1.79,0.41
		c-0.78-0.57-1.52-1.01-2.33-0.43c-0.51,0.37-1.27,1.63-0.63,2.28c0.4,0.4,1.3,0.05,1.8,0.35c0.3,0.18,0.35,0.5,0.71,0.64
		c0.54,0.21,1.03-0.13,1.58,0.13c0.58,0.28,0.73,0.73,0.65,1.35c-0.44,0.02-0.87,0.22-1.22,0.47c0.36,0.86,0,0.88-0.64,1.22
		c-0.29,0.15-0.63,0.39-0.84,0.64c-0.39,0.49-0.08,0.86-0.31,1.32c-0.17,0.33-0.61,0.44-1.08,0.5c0.08,0.23,0.2,0.45,0.52,0.63
		c0.41,0.22,0.78,0.19,1.18,0.49c0.38,0.29,0.71,0.77,1.08,1.08c0.71,0.6,1.55,1.05,2.15,1.73c0.81,0.92,1.94,1.64,2.65,2.62
		c0.22,0.3,0.4,0.57,0.58,0.84c-0.01-0.14-0.03-0.28,0.08-0.45c0.28-0.44,0.64-0.27,1.11-0.53c0.68-0.38,0.96-1.16,1.33-1.78
		c0.51-0.84,1.17-1.34,2.07-1.73c0.31-0.14,0.91-0.2,1.06-0.54c0.1-0.23-0.2-0.44-0.14-0.65c0.15-0.51,0.71-0.52,0.97-0.99
		c0.38-0.66,0.11-1.54,0.93-2.1c0.29-0.2,0.94-0.16,1.34-0.36c0.63-0.31,1.41-0.88,1.47-1.65
		C284.94,282.85,283.86,283.37,283.34,282.78z"/>
	<g>
		<path class="st2" d="M273.17,279.09c0.14-0.19,0.26-0.39,0.4-0.54C273.43,278.71,273.31,278.9,273.17,279.09z"/>
		<path class="st2" d="M283.83,283.07c-0.18-0.06-0.35-0.13-0.49-0.29C283.48,282.94,283.65,283.01,283.83,283.07z"/>
		<path class="st2" d="M289.42,270.82c-0.38-0.44-0.49-1.28-1.02-1.58c-0.45-0.26-1.13,0.06-1.53-0.46
			c-0.39-0.5,0.14-1.29-0.81-1.62c-0.39-0.13-0.8-0.14-1.04,0.27c-0.24,0.4,0.3,0.88-0.03,1.37c-0.14,0.21-0.38,0.2-0.6,0.23
			c0.07,0.17,0.08,0.37-0.11,0.64c-0.32,0.47-0.73,0.32-0.93,0.85c-0.16,0.42-0.07,0.88-0.31,1.32c-0.11-0.09-0.22-0.08-0.33-0.22
			c-0.45,0.22-1.24,0.55-1.73,0.5c-0.41-0.04-0.62-0.42-1.16-0.44c-0.35-0.02-1.45,0.1-1.67,0.44c-0.26,0.4,0.01,0.99-0.36,1.46
			c-0.33,0.42-0.93,0.89-1.38,1.21c-0.79,0.58-0.74,0.19-1.53,0.39c-0.72,0.18-0.73,0.57-0.76,1.07c-0.03,0.57,0.07,1.41-0.03,2.1
			c-0.24-0.05-0.39,0.05-0.52,0.18c0.3,0.74,0.71,1.47,0.75,2.25c0.03,0.49,0.18,1.03,0.68,1.34c0.29,0.18,0.58,0.03,0.88,0.15
			c0.17,0.07,0.34,0.27,0.46,0.37c0.25-0.32,0.44-0.87,0.65-1.12c0.7-0.85,0.95-0.05,1.16,0.53c0.18,0.48,0.28,0.77,0.78,0.91
			c0.23,0.06,0.56-0.08,0.75,0c0.37,0.15,0.54,0.74,0.95,0.92c1.15,0.48,1.81-1.16,2.54-1.73c-0.03-0.31-0.05-0.64-0.24-0.88
			c-0.21-0.27-0.61-0.31-0.82-0.61c-0.33-0.48-0.19-1.09-0.38-1.62c-0.15-0.43-0.62-0.67-0.77-1c-0.41-0.93,0.68-2.15,1.28-2.75
			c0.6-0.6,1.61-0.75,2.42-0.74c0.35-0.91,1.74-1.51,2.68-1.46c0.39,0.02,0.94,0.3,1.28,0.09c0.19-0.11,0.25-0.63,0.51-0.69
			c0.24-0.06,0.25-0.23,0.47-0.27c0.3-0.06,0.46,0.16,0.77,0.12c0.14-0.02,0.28-0.11,0.43-0.16
			C290.41,271.76,289.95,271.42,289.42,270.82z"/>
		<path class="st2" d="M272.72,279.46c-0.32,0.1-0.51,0.05-0.65-0.06v0C272.22,279.51,272.41,279.56,272.72,279.46z"/>
	</g>
	<path class="st2" d="M103.64,249.1c-2.84,0.49-0.04-4.27,2.02-1.86c1.62,1.89-1.23,1.93-2.31,2.15c0.05-0.26-0.13-0.33-0.18-0.44"
		/>
	<path class="st2" d="M100.07,250.19c1.51-1.15,0.33-3.81-1.33-2.8C97.47,248.16,98.66,250.44,100.07,250.19"/>
	<path class="st2" d="M98.05,245.84c-0.26-2.33-4.07,0.77-1.86,1.64c0.92,0.36,2.4-1.62,1.99-2.39c-0.3-0.14-0.3,0.08-0.44,0.13"/>
	<path class="st2" d="M91.71,259.1c-0.05-0.61-0.01-1.23,0.28-1.84c0.45-0.98,1.25-1.46,2.02-1.99c0.78-0.54,1.87-1.92,2.64-2.26
		c0.74-0.33,1.45-0.13,2.1-0.49c0.13-0.07,0.22-0.16,0.31-0.24c0.2-1.05-0.57-2.3-1.55-2.56c-0.95-0.25-1.4,0.38-2.41,0.32
		c-1.17-0.07-1.21-1.07-2.62-0.12c0.13,0.17,0.19,0.57,0.28,0.71c-1.41,0.27-0.32,1.57-0.47,2.5c-1.08-0.08-2.23,0.85-3.21,0.3
		c0.38,0.21-1.57-1.89-1.42-1.46c-0.22-0.62,0.29-0.72,0.37-1c-0.12,0.41,0.68-1.03,0.55-0.85c0.73-1.02,0.27-1.05,1.84-1.34
		c0.45-1.98-1.91-0.66-2.93-0.83c-1.48-0.23-1.79-0.87-3.4,0.53c0.34,0.5,0.94,1.07,1.06,1.68c-1.37,0.35-2.12,1.52-1.11,2.72
		c0.24,0.28,0.94,0.25,1.13,0.53c0.36,0.5-0.13,0.66,0.14,1.13c0.15,0.26,0.94,1.04,1.01,1.24c0.17,0.53-0.25,1.09-0.08,1.65
		c0.33,1.08,1.6,1.09,1.22,2.52c-1.36-0.1-2.08,0.29-2.97,1.1c-0.47,0.43-0.08,0.78-0.74,1.06c-0.5,0.22-1.65-0.14-2.34,0.15
		c-1.88,0.79-1.13,1.91,0.36,2.83c1.53,0.94,2.38-0.25,3.58,0.26c1.12,0.48,0.82,2.09,2.56,1.57c0.67-0.2,2.65-1.94,3-2.49
		c0.96-1.51-0.13-3.29,0.45-4.79C91.48,259.36,91.6,259.24,91.71,259.1z"/>
	<path class="st2" d="M102,253.14c-0.84-1.12-2.15-1.24-3.15-0.21c0.14-0.19,0.17-0.42,0.21-0.64c-0.1,0.08-0.18,0.16-0.31,0.24
		c-0.64,0.36-1.36,0.16-2.1,0.49c-0.77,0.34-1.86,1.72-2.64,2.26c-0.77,0.53-1.57,1.01-2.02,1.99c-0.28,0.61-0.32,1.24-0.28,1.84
		c0.54-0.66,1.16-0.02,2.15-0.33c1.02-0.32,1.28-1.84,2.67-1.48c1.09,0.28,1.13,1.66,2.43,1.46c-0.07,1.22,0.49,2.35,0.96,3.39
		c-0.08-0.93,1.16-2.1,1.67-3.11c0.73-1.46,1.07-2.88,2.82-3.61c-0.41-0.24-1.21-0.3-1.63-0.66
		C102.36,254.41,102.38,253.64,102,253.14z"/>
	<path class="st2" d="M137.35,315.43c0.95,0.19,1.3-0.52,1.11-1.38c1.58,0.31,0.73,3.02-0.78,3.12c0.25,0.65,0.69,1.36,0.12,1.99
		c-0.04-0.01,0.96,0.46,0.94,0.56c-0.19,1.01-0.41,0.18-0.84,0.69c-0.49,0.57-1.15,0.43-0.58,1.54c-0.69-1.18-2.25-0.63-2.79-1.51
		c-1.03-0.07-2.95-0.05-1.71-1.54c-1.69-0.64-1.89-2.37,0.46-1.77c0.52-1.48-0.23-2.15,1.43-2.61c0.82-0.23,2.05-0.33,1.88,1.06
		C137.05,315.67,137.45,315.56,137.35,315.43z"/>
	<path class="st2" d="M137.5,321.64c0.54,0.74,1.8,0.76,2.61,0.49c0.22,0.42,0.58,0.72,0.68,1.19c1.44,0.3,3.59-0.66,3.06,1.98
		c-0.17,0.83-0.72,0.95-0.61,1.77c0.1,0.77,1.09,0.69,0.92,1.69c-1.53,0.2-3.03-0.51-4.56-0.29c-1.26,0.18-1.07,0.32-2.36-0.19
		c-0.75-0.29-1.87-0.77-2.85-0.44c-0.52,0.18-0.65,0.83-1.16,0.93c-0.35,0.07-1.09-0.4-1.47-0.42c0.98,0.54,1.84-1.16,1.84-1.99
		c0-0.95-0.76-3.2,1.57-1.94c0.78,0.42,0.31,1.2,1.31,1.25c1.17,0.07,0.78-0.42,0.82-1.06c0.01-0.16-0.41-0.9-0.43-1.28
		C136.85,322.97,137.14,322.35,137.5,321.64z"/>
	<path class="st2" d="M134.56,348.59c0.63-0.14,0.49-0.66,1.03-0.92c0.71-0.34,1,0.27,1.44,0.57c0.34,0.23,0.68,0.3,1.04,0.38
		c0.07-0.38,0.12-0.74,0.22-1.16c1.26-0.61,1.79,0.55,2.91,0.41c0.1-0.97,1.49-0.9,1.59-1.52c0.07-0.48-0.97-1.15-1.08-1.68
		c2.28-0.49,0.6-1.41,0.9-2.67c0.47-1.97,2.03-1.05,1.56-3.6c-0.25-1.37,0.01-1.7,0.28-3c0.21-1.01,0.04-0.95-0.2-1.69
		c0.09,0.26-0.97-1.65-0.73-1.46c-0.88-0.68-1.86-0.16-2.73-1.15c-0.58-0.67-0.91-1.78-1.31-2.59c-1.12,0.17-1.01,0.28-2.26-0.21
		c-0.75-0.29-1.87-0.77-2.85-0.44c-0.52,0.18-0.65,0.83-1.16,0.93c-0.33,0.07-1.02-0.35-1.41-0.4c-0.02,0.01-0.02,0.03-0.04,0.03
		c0.85,1.54,2.32,1.88,1.99,3.95c-0.55,3.39-2.9-0.09-4.69,1.71c0.15,0.02,0.57,0.3,0.79,0.35c-0.23,0.25-0.14,0.48-0.27,0.71
		c0.58,0.22,1.6,1.01,1.23,1.63c-0.38,0.62-2.11,0.13-2.63,0.13c-0.1,2.07-0.07,4.64,0.58,6.58c0.13,0.09,0.34,0.1,0.42,0.2
		c0.1,0.13,0.08,0.36,0.15,0.45c0.33,0.41,1.18,0.89,1.02,1.51c1.14,0.07,0.81,1.21,0.38,1.95c-0.25,0.43-0.44,0.27-0.38,0.93
		c0.03,0.32,0.03,0.61,0.3,0.83C131.18,348.19,133.59,348.79,134.56,348.59z"/>
	<path class="st2" d="M127.1,341.98c-0.66-1.06-0.89-0.73-1.73-1.51c-0.57-0.53-0.88-1.34-0.77-2.14c0.14-1.03,1.25-1.45,1.22-2.38
		c-0.21-0.05-0.36-0.15-0.57-0.21c-0.23-1.07,0.98-1.32,1.54-1.99c-0.81-1.04-2.37-0.4-2.89,0.62c-0.84,1.65,0.08,2.13-2.22,2.2
		c-0.13,0.37-0.13,0.8-0.14,1.21c1.29,0.3,2.4,2.18,1.13,3.27c0.26-0.22-1.73,0.28-1.57,0.3c-0.7-0.09-1.07-0.13-1.46-0.77
		c-0.47-0.77-0.13-2.08,0.73-2.51c0-0.01,0-0.01,0-0.01c0,0.01,0,0.01,0,0.01c-0.03,0.03-0.08,0-0.11,0.03l0.1-0.05
		c-0.19-0.96-0.68-1.68-1.8-1.16c-0.51,0.24-0.49,0.96-1.03,1.2c-0.58,0.26-1.47-0.06-2.07,0.16c0.37,0.59,1.06,0.86,1.23,1.57
		c0.13,0.55-0.36,1.12-0.31,1.71c0.16,1.79,1.14,1.48,2.62,1.58c-0.51,0.44-0.43,0.98-0.68,1.47c1.59-0.3,3.05-2.95,3.96-0.09
		c0.08,0.27,0.05,1.31,0.23,1.47c0.75,0.69,0.42-0.17,1.13-0.12c0.77,0.05,1.37,0.13,2.17-0.31c1.03-0.56,1.33-1.88,1.45-3.22
		C127.21,342.2,127.18,342.1,127.1,341.98z"/>
	<path class="st2" d="M130.38,348.51c-0.07-0.66,0.12-0.5,0.38-0.93c0.43-0.73,0.76-1.87-0.38-1.95c0.15-0.62-0.69-1.09-1.02-1.51
		c-0.07-0.09-0.05-0.32-0.15-0.45c-0.08-0.1-0.28-0.11-0.42-0.2c0,0.02,0,0.04,0.01,0.05c-1.22-0.14-1.22-0.56-1.53-1.22
		c-0.11,1.34-0.42,2.66-1.45,3.22c-0.8,0.44-1.4,0.36-2.17,0.31c0.05,0,0.09,0,0.14,0c0.07,0.17,0.26,0.27,0.32,0.49
		c0.07,0.3-0.16,0.48-0.15,0.67c0.03,0.41,0.49,0.52,0.18,0.99c-0.22,0.34-0.65,0.41-0.98,0.29c-0.31,0.64-0.55,1.57-1.3,0.74
		c-0.38-0.42-0.15-1.19-0.64-1.45c-0.51-0.28-1.35,0.32-1.87,0.12c-0.57-0.23-0.54-0.89-0.57-1.39c-0.02-0.3,0.19-0.3-0.07-0.57
		c-0.18-0.18-0.61-0.18-0.84-0.31c-0.06-0.03-0.09-0.11-0.15-0.15c0.19-0.18,0.4-0.33,0.57-0.62c-0.42,0.69-1.01,0.74-1.16,1.65
		c-1.7,0.01-5.59-0.71-4.76,2.65c1.49-0.8,3.01,2.32,3.42,4.13c0.71-0.07,1.32-0.08,1.85,0.42c0.61,0.57,1.39,2.54,2.42,1.87
		c0.4-0.26,0.81-1.2,1.44-0.64c0.09-0.86,0.1-1.59,0.75-2.23c0.48-0.47,0.77-0.57,1.4-0.66c0.9-0.12,1.69-0.69,2.6-0.77
		c0.52-0.04,1.59,0.39,2.05,0.11c0.38-0.23,0.13-0.71,0.25-1.12c0.28-0.92,1.13-0.55,1.88-0.59c0.01-0.15,0.05-0.38,0.08-0.6
		C130.48,348.77,130.39,348.66,130.38,348.51z"/>
	<path class="st3" d="M126.29,358.42c-0.6,0.22-1.18,0.69-1.85,0.57c-0.6-0.11-0.48-0.51-0.91-0.82c-0.46-0.33-0.91-0.06-0.85-0.83
		c0.06-0.74,0.72-0.82,1.06-1.34c0.45-0.69-0.71-1.22-1.23-1.28c-0.32-0.04-0.65-0.05-0.97-0.11c-0.01,0.05-0.02,0.09-0.02,0.15
		c-0.63-0.56-1.04,0.38-1.44,0.64c-1.03,0.67-1.82-1.3-2.42-1.87c-0.53-0.5-1.15-0.49-1.85-0.42c-0.05-0.23-0.16-0.5-0.25-0.76
		c0.2,0.6,0.36,1.18,0.36,1.54c0,1.08-0.68,1.75-0.61,3.06c0.06,1.1,0.56,2.22-0.61,2.92c-0.83,0.5-3.43-0.06-2.17,2.09
		c0.55,0.94,1.78,0.71,2.6,1.49c0.36,0.35,0.45,0.83,0.81,1.2c0.37,0.37,0.82,0.09,1.13,0.64c0.36,0.65-0.12,1.36-0.05,2.03
		c0.06,0.59,0.4,1.15,0.47,1.78c0.12,1.02-0.11,2.06,0.27,3.02c0.33,0.83,1.28,1.36,1.77,2.05c0.2-0.18,0.48-0.26,0.63-0.51
		c0.38-0.68-0.33-1.58,0.08-2.04c0.24-0.28,0.81-0.15,1.05-0.5c0.13-0.18,0.05-0.32,0.11-0.48c0.08-0.21,0.19-0.66,0.35-0.81
		c0.65-0.59,1.11,0.3,1.75,0.33c0.86,0.04,2.33-1.03,0.77-1.24c0.49-0.71,0.21-1.16-0.28-1.74c-0.28-0.33-0.61-1.32,0.26-1.28
		c0.3,0.01,0.89,1.49,1.43,0.7c0.12-0.18-0.2-0.71-0.18-0.93c0.02-0.22,0.08-0.31,0.18-0.49c0.46-0.83,0.47-0.79,0.12-1.71
		c-0.36-0.93,0.02-1.17,0.47-2.01c0.36-0.67-0.11-0.8-0.13-1.48C126.11,359.45,126.33,358.94,126.29,358.42z"/>
	<path class="st0" d="M137.43,357.05c0,0,0.01,0,0.01-0.01c0.12-0.37,0.4-0.97,0.38-1.24c-0.07-1.03-0.43-0.87-1.09-1.39
		c-0.51-0.4-1.25-0.23-1.25-1.09c0-1.04,1.97-1.4,2.39-2.14c0.29-0.52,0.01-1.29,0.07-1.86c0.07-0.63,0.19-1.18,0.36-1.87
		c-0.11,0.43-0.16,0.79-0.22,1.16c-0.35-0.08-0.7-0.16-1.04-0.38c-0.44-0.3-0.73-0.91-1.44-0.57c-0.54,0.26-0.4,0.78-1.03,0.92
		c-0.97,0.21-3.38-0.4-3.89,0.75c-0.14-0.11-0.12-0.28-0.15-0.43c-0.03,0.22-0.06,0.45-0.08,0.6c-0.75,0.05-1.6-0.33-1.88,0.59
		c-0.13,0.41,0.13,0.89-0.25,1.12c-0.46,0.28-1.52-0.16-2.05-0.11c-0.91,0.08-1.7,0.65-2.6,0.77c-0.63,0.09-0.92,0.19-1.4,0.66
		c-0.65,0.64-0.66,1.37-0.75,2.23c0.01-0.05,0.02-0.1,0.02-0.15c0.32,0.07,0.65,0.07,0.97,0.11c0.52,0.06,1.68,0.59,1.23,1.28
		c-0.34,0.53-1,0.6-1.06,1.34c-0.06,0.76,0.39,0.5,0.85,0.83c0.43,0.31,0.31,0.71,0.91,0.82c0.41,0.08,0.79-0.07,1.16-0.25
		c0.36-1.23,0.39-2.82,1.4-3.44c1.2-0.73,2.37,0.57,3.38,0.88c0.82,0.26,1.51-0.3,2.31-0.06c0.31,0.09,0.44,0.35,0.7,0.45
		c0.41,0.15,0.41,0.03,0.92,0.01c0.84-0.03,1.19,0.77,1.91,0.86C136.62,357.49,137.06,357.17,137.43,357.05z"/>
	<path class="st3" d="M159.07,354.42c0.91-0.32,0.81-0.49,0.46-1.1c-0.07-0.12-0.35-0.62-0.49-0.71c-0.27-0.17-0.68,0.03-0.98-0.1
		c-0.57-0.23-0.31-0.31-0.52-0.71c-0.15-0.28-0.05-0.4-0.32-0.65c-0.36-0.32-1.02-0.15-1.36-0.47c-0.95-0.88,1.18-1.34,1.76-1.61
		c0.41-0.19,1.08-0.17,1.71-0.22c-0.18-0.02-0.35-0.03-0.53-0.06c1.79-0.41,0.33-1.6-0.95-1.6c-0.4,0-1.42,0.42-1.69,0.36
		c-0.89-0.18-1.06-1.12-1.95-1.07c0.03,0-1.4,0.74-1.48,0.78c-0.81,0.43-0.81,0.25-1.36,1.09c-1,1.53-0.96,2.68-2.6,3.92
		c-1.47,1.11-2.67,2-3.96,3.26c-0.95,0.93-2.92,1.55-4.35,1.95c-0.7,0.19-1.79,0.53-2.5,0.36c-0.16,0.24-0.33,0.49-0.45,0.61
		c-0.53,0.53-1.36,0.45-1.96,1.02c-0.49,0.47-0.93,1.01-1.24,1.61c-0.08-0.07-0.1-0.18-0.16-0.26c-0.01,0.17-0.06,0.36-0.04,0.5
		c0.06,0.64,0.62,1.84,0.91,2.41c0.6,1.18,1.67,0.82,2.31,1.75c0.45,0.65,0.32,0.86,1.28,0.89c1.06,0.03,0.68-0.18,1.08-0.74
		c0.21-0.3,0.73-0.45,0.89-0.74c0.09-0.16-0.02-0.37,0.04-0.54c0.25-0.74,0.15-1.04,1.05-1.01c0.41,0.01,0.76,0.13,1.17,0.12
		c1.18-0.02,0.94-0.35,1.12,0.74c0.15,0.9,1.78,1.86,2.47,0.85c0.21-0.3,0.24-0.82,0.5-1.18c0.19-0.26,0.65-0.6,0.78-0.85
		c0.4-0.84-1.22-2.78,0.46-3.24c0.4-0.11,1.53,0.05,1.68,0.43c0.14,0.34-0.26,0.55-0.26,0.76c0,0.22,0.21,0.35,0.23,0.55
		c0.03,0.36,0.06,0.65-0.07,1.01c-0.24,0.66-1.01,0.9-1.24,1.54c-0.11,0.3-0.06,1.37,0.3,1.53c0.42,0.18,0.57-0.45,0.9-0.62
		c0.58-0.32,1.34-0.06,1.95-0.15c1.23-0.17,0.45-0.82,0.99-1.7c0.26-0.42,1.03-0.8,1.55-0.54c0.5,0.24,0.4,0.84,0.85,1.06
		c0.09,0.04,0.38-0.23,0.52-0.21c0.15,0.03,0.42,0.38,0.62,0.44c0.52,0.18,1.65,0.05,2.1-0.22c-0.15-0.48-0.33-0.81-0.45-1.32
		c-0.15-0.65-0.1-0.7-0.77-0.96c-0.22-0.09-1.03-0.08-1.18-0.27c-0.14-0.17,0.03-0.43-0.07-0.59c-0.27-0.41,0.07-0.25-0.48-0.44
		c-0.27-0.1-0.89-0.01-1.17,0c-0.51,0.02-2.4,0.51-2.21-0.39c0.04-0.21,0.34-0.3,0.46-0.42c0.34-0.34,0.33-0.11,0.53-0.5
		c0.32-0.63-0.07-1,0.98-1.21c0.59-0.12,1.07,0.2,1.65,0.11c0.11-0.61,0.27-1.05,0.92-1.22c0.41-0.11,1.15-0.08,1.19,0.43
		c0-0.21,0.06-0.52,0-0.72c-0.07-0.22-0.38-0.44-0.39-0.68C157.25,354.52,158.46,354.63,159.07,354.42z"/>
	<path class="st0" d="M135.01,363.73c-0.29-0.57-0.84-1.77-0.91-2.41c-0.01-0.14,0.03-0.33,0.04-0.5c0.06,0.08,0.08,0.19,0.16,0.26
		c-0.48-0.42-0.49-1.22-1.08-1.62c-0.49-0.33-1.24-0.33-1.75-0.62c-0.29-0.17-0.5-0.49-0.8-0.66c-0.97-0.54-2.22-0.23-3.26-0.77
		c-0.59-0.31-0.96-0.47-1.39-0.51c0.18-0.67,0.44-1.27,0.97-1.6c-1.01,0.62-1.04,2.21-1.4,3.44c-0.37,0.18-0.75,0.32-1.16,0.25
		c0.67,0.12,1.26-0.35,1.85-0.57c0.04,0.52-0.18,1.03-0.17,1.54c0.01,0.68,0.49,0.81,0.13,1.48c-0.45,0.84-0.83,1.08-0.47,2.01
		c0.1,0.25,0.09,0.34,0.13,0.48c0.57,0.03,1.19,0.02,1.57,0.28c0.47,0.31,0.45,1.56,1.32,1.14c0.19-0.76,0.78-1.91,1.74-1.6
		c0.95,0.31,0.29,1.06-0.31,1.47c-0.51,0.34-0.86,0.21-0.87,1.04c-0.01,0.43,0.15,0.91,0.38,1.22c0.6,0.81,2.43,3.37,2.8,1.4
		c0.15-0.8,0.05-1.52,0.85-1.83c0.18-0.07,0.4,0.14,0.66-0.01c0.28-0.16,0.33-0.75,0.54-0.97c0.57-0.61,1.4-0.35,1.81-1.18
		c0.01-0.02,0.01-0.04,0.02-0.05C135.91,364.61,135.37,364.45,135.01,363.73z"/>
	<path class="st3" d="M201.31,342.97c-0.99-1.3-1.64-2.67-3.04-3.63c-0.67-0.46-1.44-0.77-2.21-0.93c-0.46-0.09-1.9,0.09-2.26-0.15
		c-0.99-0.66,0.03-2.88-1.35-3.23c-1.94-0.49-0.68,2.93-2.46,2.54c-0.45-0.1-0.74-1.08-1.2-1.22c-0.98-0.29-0.9,0.38-1.58,0.74
		c-0.62,0.34-0.51,0.33-1.49,0.38c-0.31,0.02-0.71-0.08-1,0c-0.69,0.19-0.66,0.7-1.14,0.95c-0.74,0.39-1.6-0.03-2.29,0.32
		c-1.02,0.51-0.89,2.12-0.93,3.02c-0.03,0.69,0.18,1.66-0.53,1.99c0.08,0.29,0.26,0.54,0.91,0.65c1.29,0.21,2.18-0.52,2.95-1.35
		c2.25-2.41,2.2,1.72,1.04,2.96c0.89,0.01,1.77-0.39,2.6-0.05c0.28,0.12,0.35,0.33,0.71,0.45c0.25,0.08,0.55,0.07,0.83,0.07
		c0.01-0.06,0.07-0.12,0.08-0.18c0.05-0.64-0.62-1.32-0.34-2c0.15-0.36,0.24-0.5,0.64-0.53c0.82-0.06,0.46,0.55,0.75,0.95
		c0.53,0.75,1.02-0.19,1.77-0.18c1.91,0.03,0.89,3.24-0.83,3.28c-0.24,0-0.46,0.01-0.65,0.02c0,0,0,0,0,0
		c0.09,0.3,0.18,0.61,0.26,0.84c0.32,0.85,0.91,1.4,1.35,2.2c0.47,0.84,1.09,1.49,1.6,2.28c0.1,0.15,0.19,0.2,0.28,0.32
		c0.27-1,0.31-2.03,1-2.95c0.7-0.93,1.8-1.52,2.75-2.08c1.04-0.61,2.12-1.13,3.33-0.55c1.62,0.77,1.11,1.7,1.25,3.11
		C204.14,348.89,202.87,345.02,201.31,342.97z"/>
	<path class="st0" d="M194.77,380.86c-0.08-0.36-0.03-0.58,0.04-0.77l0,0c-0.98,0.17-1.81-0.31-2.78-1.06
		c-0.04-0.03-0.07-0.09-0.11-0.12c0,0,0,0,0,0c-0.05,0.19-0.1,0.38-0.16,0.54c-0.27,0.77-0.67,1.11-1.46,1.39
		c-0.56,0.2-1.05,0.26-1.51,0.68c-0.29,0.26-0.31,0.37-0.64,0.49c-0.2,0.07-0.27,0.04-0.34,0.03c0.01,0.48-0.15,1.09-0.14,1.28
		c0.02,0.82,1.11,0.79,0.87,1.84c-0.17,0.77-0.77,0.96-1.4,1.24c-0.53,0.24-0.52,0.49-0.94,1c-0.46,0.55-0.74,0.2-1.39,0.46
		c-0.2,0.08-0.51,0.23-0.48,0.5c0.11,1,3.11-0.2,2.14,1.84c-0.37,0.78-0.56,0.81,0.26,1.32c0.32,0.2,0.44,0.32,0.53,0.66
		c0.14,0.5-0.05,0.57,0.33,0.89c0.24,0.21,0.32-0.16,0.43,0.26c0.1,0.41-0.19,0.31-0.29,0.51c-0.18,0.34-0.36,0.41-0.05,0.79
		c0.18,0.22,0.65,0.38,0.88,0.61c0.18,0.18,0.33,0.4,0.5,0.58c0.39,0.44,0.24,0.24,0.84,0.41c0.15,0.04,0.28,0.15,0.42,0.22
		c1.54-0.29,2.79-3.29,3.12-4.27c0.65-1.96,0.54-3.86,1.09-5.79c0.27-0.95,1.1-1.32,1.36-2.17
		C196.36,382.76,195.02,382.01,194.77,380.86z"/>
	<path class="st0" d="M175.18,404.65c-0.18-0.25-0.25-0.59-0.29-0.89c-0.05-0.35,0.11-0.49-0.2-0.68c-0.4-0.24-1.02,0.21-1.38,0.33
		c-0.54-0.87-0.59-1.36,0.09-2.16c0.47-0.56,0.47-1,0.75-1.62c0.21-0.46,0.31-0.9,0.44-1.33c-0.02-0.01-0.03,0.01-0.05-0.01
		c-0.11-0.12-0.15-0.14-0.24-0.27c-0.24-0.38-0.22-0.96-0.45-1.39c-0.4-0.78-1.25-1.06-1.73-1.81c-0.42-0.65-1.2-0.6-1.63-1.12
		c-0.48-0.58,0.11-1.42-0.11-2.05c-0.13-0.38-0.25-0.6-0.28-0.87c-0.14,0.06-0.3,0.16-0.42,0.19c-0.89,0.21-1.68-0.72-2.24-1.57
		c0.11,0.04,0.21,0.16,0.32,0.16c-0.78-0.03-1.43-0.99-2.1-1.34c-0.21-0.11-0.54-0.03-0.78-0.16c-0.3-0.16-0.47-0.58-0.83-0.75
		c-2.74-1.24-2.04,2.12-2.71,3.38c-0.62,0.05-0.86-0.93-1.51-0.48c0.09-0.06-0.67,1.71-0.67,1.72c-0.65,1.59,0.39,3.24,0.74,4.84
		c0.15,0.02,0.21-0.04,0.45-0.08c0.71-0.11,1.34,0.02,1.49,0.85c0.11,0.57-0.26,1.57-0.66,1.94c-0.63,0.6-1.36,0.64-0.89,1.8
		c0.13,0.32,0.38,0.54,0.61,0.77c0.26,0.27,0.34,0.53,0.53,0.8c0.15,0.21,0.36,0.25,0.46,0.5c0.14,0.35-0.14,0.62-0.16,0.88
		c-0.01,0.18,0.18,0.47,0.16,0.61c-0.05,0.33-0.52,0.49-0.67,0.79c-0.24,0.45-0.04,0.6,0.07,1.06c0.11,0.44,0,0.88,0.07,1.32
		c0.15,0.94,1.14,0.44,1.51,1.31c0.32,0.75,0.44,1.52,0.49,2.32c1.37-1.08,2.53-0.34,3.91,0.09c0.78,0.24,1.97,0.21,2.8,0.15
		c-0.29-0.58-0.37-2-0.04-2.6c0.23-0.41,0.84-0.4,1.04-0.84c0.16-0.36-0.4-1.4,0.24-1.4c0.84,0,0.11,1.87,1.1,1.87
		c1.31,0,0.44-1.54,0.77-2.05c0.52-0.82,0.99,0.53,1.25,0.61c0.51,0.16,0.5-0.57,0.56-0.89c0.09-0.44,0.61-0.95,0.63-1.33
		C175.66,404.89,175.36,404.9,175.18,404.65z"/>
	<path class="st1" d="M189.23,415.06c-0.33-0.64-1.24-0.66-1.25-1.63c-0.01-1.08,0.74-0.65,1.06-1.28c0.28-0.56,0.16-1.17,0.19-1.83
		c0.03-0.74,0.64-3.68-0.61-3.17c-0.05,0.08-0.08,0.17-0.14,0.24c-0.31,0.36-0.36,0.35-0.91,0.41c-0.63,0.07-0.91,0.26-1.28,0.84
		c-0.6,0.96-0.69,1.5-1.92,1.81c-0.5,0.13-0.94,0.15-1.35,0.52c-0.42,0.38-0.65,0.93-1.11,1.29c-0.75,0.6-1.75,0.81-2.51,1.39
		c-0.26,0.2-0.34,0.37-0.66,0.46c-0.28,0.08-0.73,0.01-1.01,0.04c-0.56,0.07-1.12,0.23-1.68,0.26c-0.29,0.01-0.61-0.06-0.91,0
		c0.47,0.29,0.95,0.68,1.33,1.1c0.53,0.59,0.1,0.57,0.17,1.18c0.07,0.59,0.65,0.39,0.94,0.77c0.24,0.32,0.05,0.96,0.69,0.91
		c0.13,0.49,0.41,1.26,1.06,0.85c0.59-0.37,0.03-1.37,0.53-1.62c0.33,0.34,0.24,0.82,0.35,1.24c0.09,0.37,0.28,0.71,0.34,1.09
		c0.15,0.96-0.64,1.38-1.48,1.69c-0.38,0.14-0.83,0.14-1.14,0.45c-0.38,0.38-0.13,0.64-0.32,1.06c-0.04,0.08-0.35,0.33-0.45,0.5
		c-0.12,0.21-0.21,0.41-0.21,0.64c0.39-0.19,0.68,0.19,0.93,0.48c0.28,0.33,0.18,0.63,0.39,0.93c0.19,0.28,0.51,0.29,0.72,0.65
		c0.1,0.17,0.17,0.28,0.24,0.41c0.78-0.59,1.87-0.8,2.21-1.88c0.37-1.2-0.85-2.36,0.65-3.11c0.87-0.43,6.67,0.19,7.3,0.82
		c0.86-1,0.28-4.02,0.15-5.33C189.47,416.6,189.52,415.63,189.23,415.06z"/>
	<path class="st2" d="M175.64,405.26c0,0.06-0.06,0.13-0.09,0.19c0.12-0.04,0.24-0.08,0.38-0.1c0.23-0.03,0.51-0.14,0.68,0.11
		c0.17,0.23-0.2,0.67-0.11,0.83c0.17,0.3,0.45,0.06,0.7,0.18c0.27,0.12,0.34,0.45,0.55,0.58c0.62,0.38,1.21-0.62,1.97-0.44
		c0.75,0.17,0.69,0.69,1.54,0.6c1.03-0.1,1.28,0.18,1.97,0.92c0.26,0.28,0.58,0.37,0.85,0.62c0.39,0.35,0.27,0.42,0.38,0.93
		c0.04,0.19,0.13,0.43,0.25,0.65c0.86-0.33,1.03-0.84,1.56-1.68c0.37-0.59,0.64-0.77,1.28-0.84c0.54-0.06,0.59-0.05,0.91-0.41
		c0.06-0.07,0.1-0.16,0.14-0.24c0.57-0.23,0.73,0.27,0.76,0.93c0.01-0.01,0.01-0.02,0.02-0.02c0.01-0.01,0.02-0.03,0.03-0.04
		c-0.02-0.76-0.22-1.31-0.95-0.86c0.27-1.04-1.27-1.85-0.91-3.32c0.12-0.49,0.78-1.06,0.74-1.58c-0.07-0.99-0.78-0.8-1.1-1.32
		c-0.44-0.73-0.84-0.38,0.04-1.13c0.44-0.38,1.53-0.29,2.02-0.61c0.94-0.62,1.83-2.55,0.18-2.85c0.28,0.16,0.55,0.13,0.82,0.09
		c-0.11-0.07-0.22-0.15-0.34-0.18c-0.6-0.17-0.45,0.03-0.84-0.41c-0.17-0.19-0.32-0.41-0.5-0.58c-0.23-0.23-0.71-0.4-0.88-0.61
		c-0.31-0.38-0.14-0.44,0.05-0.79c0.1-0.19,0.39-0.09,0.29-0.51c-0.1-0.42-0.18-0.06-0.43-0.26c-0.07-0.06-0.06-0.1-0.1-0.15
		c-0.08,0.11-0.16,0.25-0.24,0.49c-0.35,0.98-0.69,1.74-1.8,1.11c-0.17-0.09-0.21-0.25-0.42-0.29c-0.41-0.07-0.56,0.28-0.89,0.3
		c-0.9,0.07-0.66-0.81-0.96-1.19c-0.33-0.43-1.58-0.37-1.95,0.09c-0.55,0.69,0.2,1.46,0.05,2.13c-0.05,0.22-0.41,0.23-0.31,0.57
		c0.11,0.41,0.51,0.31,0.5,0.88c-0.02,0.92-0.73,1.38-1.45,1.03c-0.08,0.24-0.08,0.5-0.08,0.75c-0.72,0.03-1.31-0.11-1.93-0.27
		c-0.86-0.23-0.81,0.41-1.53,0.63c-0.57,0.17-1.1-0.11-1.58-0.5c-0.09-0.07-0.02-0.24-0.12-0.32c-0.06-0.05-0.19,0.04-0.27-0.04
		c0.01,0.01,0.03,0,0.05,0.01c-0.13,0.44-0.23,0.88-0.44,1.33c-0.28,0.62-0.28,1.06-0.75,1.62c-0.67,0.81-0.63,1.3-0.09,2.16
		c0.36-0.13,0.97-0.57,1.38-0.33c0.31,0.18,0.15,0.33,0.2,0.68c0.04,0.3,0.11,0.64,0.29,0.89
		C175.36,404.9,175.66,404.89,175.64,405.26z"/>
	<path class="st2" d="M175.14,414.42c0.31-0.05,0.62,0.01,0.91,0c0.57-0.03,1.13-0.19,1.68-0.26c0.28-0.03,0.73,0.03,1.01-0.04
		c0.32-0.08,0.4-0.26,0.66-0.46c0.75-0.58,1.76-0.79,2.51-1.39c0.45-0.36,0.69-0.91,1.11-1.29c0.41-0.37,0.85-0.4,1.35-0.52
		c0.15-0.04,0.24-0.09,0.36-0.14c-0.11-0.23-0.2-0.46-0.25-0.65c-0.11-0.5,0.01-0.58-0.38-0.93c-0.27-0.24-0.59-0.34-0.85-0.62
		c-0.69-0.74-0.94-1.02-1.97-0.92c-0.86,0.08-0.79-0.43-1.54-0.6c-0.76-0.18-1.35,0.82-1.97,0.44c-0.21-0.13-0.28-0.46-0.55-0.58
		c-0.26-0.11-0.53,0.12-0.7-0.18c-0.09-0.16,0.28-0.6,0.11-0.83c-0.18-0.24-0.45-0.14-0.68-0.11c-0.14,0.02-0.26,0.06-0.38,0.1
		c0.02-0.06,0.08-0.13,0.09-0.19c-0.02,0.38-0.54,0.89-0.63,1.33c-0.07,0.32-0.05,1.05-0.56,0.89c-0.26-0.08-0.73-1.43-1.25-0.61
		c-0.33,0.52,0.54,2.05-0.77,2.05c-0.99,0-0.26-1.87-1.1-1.87c-0.64,0-0.07,1.04-0.24,1.4c-0.2,0.44-0.81,0.43-1.04,0.84
		c-0.33,0.59-0.25,2.02,0.04,2.6c-0.83,0.06-2.02,0.09-2.8-0.15c-1.39-0.43-2.55-1.17-3.91-0.09c0-0.01,0-0.01,0-0.02
		c-0.02,0.05-0.02,0.09-0.16,0.16c-0.15,0.07-0.39-0.05-0.55-0.01c-0.16,0.05-0.33,0.3-0.46,0.31c-0.44,0.05-0.47-0.38-0.82-0.08
		c-0.48,0.42-0.03,1.03,0.28,1.29c0.69,0.57,0.6,0.61,0.6,1.4c0,0.64,0.14,0.29,0.52,0.65c0.28,0.27,0.24,0.62,0.25,0.97
		c0.56,0.05,1.18-0.21,1.75-0.28c0.52-0.07,0.96-0.22,1.39-0.54c0.3-0.23,0.73-0.48,1.01-0.73c0.01,0.51-0.07,0.85-0.47,1.2
		c-0.18,0.16-1.17,0.55-1.18,0.83c0,0.39,0.47,0.16,0.72,0.25c0.64,0.21,0.52,0.67,0.57,1.23c0.08,0.83,0.94,1.41,1.52,2
		c0.41,0.41,1.11,0.55,1.49,0.95c0.28,0.3,0.34,0.76,0.68,1.06c0.42-0.92-0.46-2.07,0.85-2.42c0.71-0.19,2.3-0.44,1.07-1.27
		c-0.6-0.4-1.79-1.28-0.78-2.05c0.78-0.6,2.12-0.35,2.44-1.59c0.58-0.21,0.91-0.33,1.26-0.36
		C175.27,414.54,175.21,414.47,175.14,414.42z"/>
	<path class="st2" d="M150.51,405.1c-0.16-0.2-0.28-0.41-0.42-0.61c-0.76-0.3-1.15-0.64-2.15-0.63c-1.25,0-1.67-0.32-2.67-0.72
		c-0.24-0.1-0.53-0.12-0.78-0.21c-0.16-0.05-0.18-0.17-0.21-0.28c-0.12,0.13-0.3,0.19-0.36,0.38c-0.31,0.92,0.87,1.41-0.28,1.81
		c-0.67,0.23-3.2-1.54-2.57,1.19c1.19,0.66,3.69-0.14,3.4,2.07c0.53-0.04,0.77,0.24,1.06,0.35c-0.53,0.41-1.83,0.22-2.04,0.75
		c-0.34,0.88,1.16,1.03,1.71,0.96c2.14-0.27,1.57-2.52,3.38-0.44c0.81-1.6,1.81-1.18,2.83-2.28
		C152.61,406.15,151.27,406.06,150.51,405.1z"/>
	<path class="st2" d="M170.55,422.04c-0.02,0.08-0.01,0.17-0.04,0.25c-0.34-0.3-0.4-0.76-0.68-1.06c-0.38-0.4-1.08-0.54-1.49-0.95
		c-0.58-0.59-1.45-1.16-1.52-2c-0.05-0.56,0.07-1.02-0.57-1.23c-0.25-0.08-0.72,0.15-0.72-0.25c0-0.28,1-0.67,1.18-0.83
		c0.4-0.35,0.48-0.69,0.47-1.2c-0.28,0.25-0.7,0.5-1.01,0.73c-0.01,0.01-0.01,0-0.02,0.01c-0.49,0.49-0.99,0.96-1.45,1.18
		c-0.65,0.31-2.09,0.62-2.81,0.54c-0.88-0.1-1.44-0.85-2.48-0.47c-1.82,0.66-2.02,3.15-3.49,4.28c-0.37,0.28-0.65,0.46-0.94,0.66
		c0.14,0.2,0.32,0.32,0.39,0.66c0.3,1.55-1.55,2.16-1.7,3.57c-0.11,1.01,0.79,1.29,0.79,2.1c0.01,0.79-1.1,1.36-0.79,2.33
		c0.23,0.72,2.64,1.23,3.71,1.11c-0.05,0.19-0.16,0.32-0.23,0.49c1.39-0.95,2.19-2.72,3.98-2.84c1.16-0.08,1.6,0.79,2.64,0.94
		c1.65,0.24,2-0.95,2.92-1.99c1.08-1.23,3.06-1.07,4-2.36c0.79-1.08,0.34-2.47-0.04-3.46C170.6,422.17,170.58,422.11,170.55,422.04z
		"/>
	<path class="st2" d="M148.23,409.41c-0.03,0.27-0.06,0.57-0.12,0.77c-0.24,0.73-0.83,0.51-0.79,1.36c0.44,0.1,0.75,0.42,1.19,0.52
		c-0.05,0.44,0.05,0.94-0.11,1.34c0.86,0.1,1.66,0.29,1.35,1.4c-0.69,0.14-0.86,0.79-0.89,1.55c-0.17-0.07-0.36-0.13-0.63-0.14
		c2.55,0.06-0.06,3.24,1.21,3.92c0.05,0.78-0.17,1.95,0.34,2.62c1,1.31,1,0.22,1.71-0.48c0.87-0.86,2.8-1.84,3.59-0.65
		c0.25-0.17,0.51-0.34,0.84-0.59c1.48-1.12,1.67-3.62,3.49-4.28c1.05-0.38,1.6,0.37,2.48,0.47c0.71,0.08,2.15-0.23,2.81-0.54
		c0.47-0.22,0.95-0.68,1.44-1.18c-0.42,0.31-0.86,0.46-1.36,0.52c-0.57,0.07-1.19,0.33-1.75,0.28c-0.01-0.35,0.03-0.7-0.25-0.97
		c-0.38-0.36-0.52-0.01-0.52-0.65c0.01-0.79,0.09-0.83-0.6-1.4c-0.31-0.26-0.76-0.88-0.28-1.29c0.35-0.3,0.38,0.13,0.82,0.08
		c0.13-0.02,0.31-0.27,0.46-0.31c0.16-0.05,0.4,0.08,0.55,0.01c0.14-0.07,0.14-0.11,0.16-0.16c0,0.01,0,0.01,0,0.02
		c-0.05-0.81-0.18-1.57-0.49-2.32c-0.36-0.87-1.36-0.37-1.51-1.31c-0.07-0.44,0.04-0.88-0.07-1.32c-0.11-0.46-0.31-0.6-0.07-1.06
		c0.15-0.29,0.62-0.46,0.67-0.79c0.02-0.14-0.17-0.43-0.16-0.61c0.01-0.26,0.3-0.53,0.16-0.88c-0.1-0.25-0.31-0.29-0.46-0.5
		c-0.19-0.27-0.27-0.53-0.53-0.8c-0.23-0.24-0.48-0.45-0.61-0.77c-0.46-1.16,0.26-1.2,0.89-1.8c0.39-0.37,0.76-1.38,0.66-1.94
		c-0.16-0.83-0.78-0.96-1.49-0.85c-0.23,0.04-0.3,0.1-0.45,0.08c0.01,0.04,0.02,0.07,0.03,0.11c-0.84-0.47-2.19-0.23-2.95-0.81
		c-0.5-0.38-0.47-1.02-0.98-1.43c-0.51-0.41-1.85-0.83-2.39-0.21c-0.55,0.63,0.42,2-0.49,2.48c-0.83,0.44-2.16-0.86-2.32,0.77
		c-0.15,1.47,2.13,0.88,3,1.71c0.7,0.67,0.85,1.68,0.31,2.55c-0.71,1.13-0.86,0.38-1.76,0.09c-0.62-0.2-1.86-0.24-2.28,0.36
		c-0.41,0.58,0.1,1.57,0.2,2.16c-0.07-0.02-0.11-0.05-0.17-0.07c0.13,0.2,0.25,0.41,0.41,0.61c0.76,0.96,2.1,1.05,0.91,2.33
		c-1.02,1.11-2.03,0.68-2.83,2.28L148.23,409.41z"/>
	<g>
		<path class="st0" d="M177.89,433.31c-1.17-0.69-1.77-0.89-1.09-2.49c0.27-0.64,0.94-1.08,1.25-1.7c0.35-0.69,0.29-1.43,0.78-2.03
			c0.18-0.23,0.45-0.35,0.69-0.5c-0.09,0.06-0.2,0.1-0.29,0.17c-0.07-0.13-0.14-0.24-0.24-0.41c-0.21-0.36-0.52-0.37-0.72-0.65
			c-0.21-0.31-0.11-0.6-0.39-0.93c-0.23-0.26-0.5-0.55-0.83-0.47c-0.09,0.03-0.2,0.13-0.29,0.13c-1.12,0.08-0.93-0.83-1.7-1.19
			c-0.43-0.2-1.31,0.24-1.68-0.01c-0.57-0.37-0.09-1.05-0.69-1.41c-0.63-0.39-1.43-0.08-2.13,0.24c0.03,0.07,0.04,0.12,0.07,0.19
			c0.38,0.99,0.83,2.37,0.04,3.46c-0.94,1.29-2.92,1.13-4,2.36c-0.92,1.05-1.27,2.23-2.92,1.99c-1.04-0.15-1.48-1.02-2.64-0.94
			c-1.79,0.13-2.59,1.89-3.98,2.84c0.07-0.17,0.18-0.3,0.23-0.49c-0.22,0.81-0.67,1.4-1.16,1.94c0,0,0,0,0,0
			c0.5,0.4,1.09,0.74,1.8,0.95c0.4,0.12,1.46,0.11,1.72,0.22c0.49,0.21,0.63,0.9,1.15,1.14c0.71,0.33,1.3-0.35,1.95-0.1
			c0.6,0.23,0.37,1.21,1.16,1.25c1.18,0.07,1.13-1.5,0.37-2.02c0.65-0.45,0.62-1.26,1.25-1.56c1.58-0.75,2.35,0.57,2.85,1.68
			c0.45,1.03,1.21,1.69,1.92,2.41c0.21-0.11,0.43-0.23,0.68-0.31c1.21-0.42,2.27-0.18,3.49-0.74c1-0.46,1.65-1.03,2.87-1.16
			c0.61-0.06,3.8,0.72,3.42-0.63C180.74,434.16,178.43,433.63,177.89,433.31z"/>
		<path class="st0" d="M154.86,434.88c-0.01,0.01-0.01,0.02-0.02,0.03C154.84,434.9,154.85,434.89,154.86,434.88z"/>
	</g>
</g>
<rect transform="matrix(1 0 0 1 250 350)" width="150" height="100" fill="#FFF" />
<text transform="matrix(1 0 0 1 295.8339 364.6038)" fill="#FFF"><tspan x="0" y="0" class="st4 st5 st6">WEEK OF  </tspan><tspan x="-14.08" y="18" class="st4 st5 st6">OCTOBER 13,  </tspan><tspan x="14.53" y="36" class="st4 st5 st6">1918</tspan></text>
</svg>
