<?xml version="1.0" encoding="utf-8"?>
<!-- Generator: Adobe Illustrator 24.2.3, SVG Export Plug-In . SVG Version: 6.00 Build 0)  -->
<svg version="1.1" id="Layer_1" xmlns="http://www.w3.org/2000/svg" xmlns:xlink="http://www.w3.org/1999/xlink" x="0px" y="0px"
	 viewBox="0 0 452 464.86" style="enable-background:new 0 0 452 464.86;" xml:space="preserve">
<style type="text/css">
	.st0{fill:#E9CA67;stroke:#242424;stroke-width:0.28;stroke-linecap:round;stroke-linejoin:round;stroke-miterlimit:10;}
	.st1{fill:#C66720;stroke:#242424;stroke-width:0.28;stroke-linecap:round;stroke-linejoin:round;stroke-miterlimit:10;}
	.st2{fill:#242424;}
	.st3{font-family:Roboto;font-weight:700;}
	.st4{font-size:14px;}
</style>
<g>
	<path class="st0" d="M126.57,317.98c0-0.19,0.07-0.6-0.03-0.75c-0.34-0.54-0.03-0.06-0.67-0.26c-0.48-0.15-0.73-0.07-1.19-0.43
		c-0.24-0.19-0.41-0.43-0.53-0.68c-0.29,0.01-0.58-0.02-0.84-0.18c-0.46-0.28-0.52-0.92-0.87-1.18c-0.14-0.1-0.49,0.04-0.68-0.08
		c-0.52-0.32-0.67-1.2-1.03-1.67c-0.62-0.81-1.51-0.52-2.25-1.24c-0.42-0.41-0.51-0.9-0.86-1.34c-0.42-0.52-1.21-0.41-1.6-0.9
		c-0.44-0.55,0.04-1.42-0.51-1.98c-0.47-0.49-1.62-0.37-1.69-1.25c1.08-0.01,1.69-1.79,0.5-2.11c-0.54-0.15-1.32,0.69-1.82,0.24
		c-0.32-0.29-0.06-0.51-0.08-0.89c-0.07-1.08-0.96-0.98-1.77-1.28c-0.61-0.23-1.41-0.35-1.96,0.3c-0.07-0.04-0.07-0.14-0.13-0.2
		c-0.16,0.35-0.33,0.7-0.59,1.01c-0.73,0.83-1.2,0.6-1.47,1.8c-0.13,0.6-0.44,2.19-0.93,2.68c-0.06,0.06-2.98,1.39-1.26,1.64
		c-0.77,1.69,0.62,1,1.71,0.81c0.65-0.12,1.44,0.08,1.1,1.12c-0.37,1.14-1.76,0.6-2.48,0.67c-0.42,0.04-1.13,0.05-0.82,0.89
		c0.2,0.54,0.93,0.42,1.27,0.74c0.32,0.3,0.2,0.73,0.47,0.99c0.67,0.64,2.33,0.68,3.25,0.94c0.33,0.09,0.81-0.07,1.1,0.17
		c0.49,0.4,0.1,0.79,0.31,1.23c0.61,1.29,1.46,0.39,2.71,0.5c1.12,0.1,2.29,0.82,3.34,1.26c1.1,0.47,2,0.25,3.13,0.4
		c0.58,0.08,0.83,0.25,1.13,0.48c0.01-0.15,0.03-0.31,0.21-0.52c0.27,0.44,0.64,0.4,1.09,0.54c0.56,0.17,0.4,0.16,0.78,0.48
		c0.41,0.35,0.18,0.45,0.77,0.38c0.31-0.04,0.29-0.42,0.71-0.28c0.23,0.07,0.16,0.26,0.3,0.37c0.43,0.37,0.1,0.49,0.76,0.7
		c0.3,0.1,0.73,0.18,0.94-0.08c0.23-0.27,0.1-1.02,0.4-1.4C126.87,319.11,128.1,317.91,126.57,317.98z"/>
	<path class="st0" d="M124.05,315.19c0.01-0.04,0.01-0.08,0.02-0.12C124.06,315.11,124.05,315.15,124.05,315.19z"/>
</g>
<path class="st1" d="M106.72,317.89c-0.23-0.2-0.3-0.58-0.52-0.81c-0.61-0.61-1.07-0.12-1.66-0.54c-0.54-0.38-0.06-1.57-0.64-1.93
	c-0.45-0.28-0.71,0.32-1.25-0.12c-0.16-0.13-0.11-0.54-0.23-0.73c-0.12-0.18-0.45-0.23-0.6-0.45c-0.35-0.51-0.69-1.23-0.62-1.87
	c0.03-0.27,0.3-0.57,0.31-0.76c0.02-0.41-0.23-0.56-0.21-0.78c0.07-1.09,1.03-1.7,2.03-1.77c0.41-0.03,0.77,0.03,1.13,0.08
	c0.49-0.32,1.07-0.59,1.09-0.62c0.45-0.44,0.71-1.68,0.86-2.39c-0.41-0.17-0.61,0.18-1.18,0.18c-0.41,0-1.02-0.53-1.56-0.32
	c-0.53,0.21-0.33,1.11-1.11,1.25c-1,0.19-0.68-0.71-0.96-1.15c-0.24-0.39,0.1-0.51-0.55-0.52c-0.38-0.01-0.45,0.29-0.4,0.61
	c-1.41-0.05-0.35,1.16-1.07,1.74c-0.42,0.33-0.82-0.06-1.16-0.29c0.1,0.44-0.02,1.49-0.24,1.77c-0.31,0.4-0.82,0.07-1.26,0.19
	c-0.39,0.11-0.68,0.45-1,0.71c0.2,0.36,0.59,0.55,0.78,0.95c0.1,0.2,0.07,0.51,0.18,0.75c0.14,0.31,0.31,0.58,0.43,0.85
	c0.18,0.4,0.2,0.98,0.69,1.22c0.52,0.26,1.14-0.06,1.69,0.3c0.45,0.29,0.55,0.6,0.75,1.05c0.21,0.47,0.38,1.11,0.75,1.47
	c0.24,0.24,0.59,0.21,0.72,0.51c0.05,0.12-0.11,0.44-0.09,0.6c0.06,0.46,0.41,0.84,0.47,1.23c0.08,0.56-0.04,0.71-0.24,0.77
	c0.29,0.21,0.5,0.45,0.77,0.66c0.33,0.25,0.88,0.48,1.18,0.85c0.49,0.6,0.11,0.95,0.95,1.37c0.61,0.3,1.09,0.03,1.4,0.9
	c0.07-1.36,1.29-1.96,1.45-3.17c0.07-0.51,0.04-1.1-0.34-1.54C107.33,317.94,106.93,318.07,106.72,317.89z"/>
<g>
	<path class="st0" d="M273.17,279.09c0.14-0.19,0.26-0.39,0.4-0.54C273.43,278.71,273.31,278.9,273.17,279.09z"/>
	<path class="st0" d="M283.83,283.07c-0.18-0.06-0.35-0.13-0.49-0.29C283.48,282.94,283.65,283.01,283.83,283.07z"/>
	<path class="st0" d="M289.42,270.82c-0.38-0.44-0.49-1.28-1.02-1.58c-0.45-0.26-1.13,0.06-1.53-0.46c-0.39-0.5,0.14-1.29-0.81-1.62
		c-0.39-0.13-0.8-0.14-1.04,0.27c-0.24,0.4,0.3,0.88-0.03,1.37c-0.14,0.21-0.38,0.2-0.6,0.23c0.07,0.17,0.08,0.37-0.11,0.64
		c-0.32,0.47-0.73,0.32-0.93,0.85c-0.16,0.42-0.07,0.88-0.31,1.32c-0.11-0.09-0.22-0.08-0.33-0.22c-0.45,0.22-1.24,0.55-1.73,0.5
		c-0.41-0.04-0.62-0.42-1.16-0.44c-0.35-0.02-1.45,0.1-1.67,0.44c-0.26,0.4,0.01,0.99-0.36,1.46c-0.33,0.42-0.93,0.89-1.38,1.21
		c-0.79,0.58-0.74,0.19-1.53,0.39c-0.72,0.18-0.73,0.57-0.76,1.07c-0.03,0.57,0.07,1.41-0.03,2.1c-0.24-0.05-0.39,0.05-0.52,0.18
		c0.3,0.74,0.71,1.47,0.75,2.25c0.03,0.49,0.18,1.03,0.68,1.34c0.29,0.18,0.58,0.03,0.88,0.15c0.17,0.07,0.34,0.27,0.46,0.37
		c0.25-0.32,0.44-0.87,0.65-1.12c0.7-0.85,0.95-0.05,1.16,0.53c0.18,0.48,0.28,0.77,0.78,0.91c0.23,0.06,0.56-0.08,0.75,0
		c0.37,0.15,0.54,0.74,0.95,0.92c1.15,0.48,1.81-1.16,2.54-1.73c-0.03-0.31-0.05-0.64-0.24-0.88c-0.21-0.27-0.61-0.31-0.82-0.61
		c-0.33-0.48-0.19-1.09-0.38-1.62c-0.15-0.43-0.62-0.67-0.77-1c-0.41-0.93,0.68-2.15,1.28-2.75c0.6-0.6,1.61-0.75,2.42-0.74
		c0.35-0.91,1.74-1.51,2.68-1.46c0.39,0.02,0.94,0.3,1.28,0.09c0.19-0.11,0.25-0.63,0.51-0.69c0.24-0.06,0.25-0.23,0.47-0.27
		c0.3-0.06,0.46,0.16,0.77,0.12c0.14-0.02,0.28-0.11,0.43-0.16C290.41,271.76,289.95,271.42,289.42,270.82z"/>
	<path class="st0" d="M272.72,279.46c-0.32,0.1-0.51,0.05-0.65-0.06v0C272.22,279.51,272.41,279.56,272.72,279.46z"/>
</g>
<rect transform="matrix(1 0 0 1 250 350)" width="150" height="100" fill="#FFF" />
<text transform="matrix(1 0 0 1 295.8339 364.604)" fill="#FFF"><tspan x="0" y="0" class="st2 st3 st4">WEEK OF  </tspan><tspan x="-22.66" y="18" class="st2 st3 st4">SEPTEMBER 29,  </tspan><tspan x="14.53" y="36" class="st2 st3 st4">1918</tspan></text>
</svg>
