<svg id="Layer_1" data-name="Layer 1" xmlns="http://www.w3.org/2000/svg" viewBox="0 0 129.95 47.91"><defs><style>.cls-1,.cls-3{fill:#fff;}.cls-2{fill:#091f41;}.cls-3,.cls-4{fill-rule:evenodd;}.cls-4{fill:#e12b26;}</style></defs><title>News18_logo1</title><rect class="cls-1" y="12.01" width="105.62" height="35.9"/><rect class="cls-2" x="1" y="13.01" width="103.62" height="33.9"/><polygon class="cls-3" points="6.45 19.2 6.45 40.29 11.54 40.29 11.54 27.24 19.07 40.3 24.08 40.29 24.08 19.2 18.94 19.2 18.93 31.5 11.71 19.2 6.45 19.2"/><polygon class="cls-3" points="27.04 19.2 27.02 40.3 43.49 40.3 43.48 35.67 32.26 35.67 32.27 31.41 42.1 31.42 42.1 26.95 32.26 26.95 32.27 23.85 43 23.87 43 19.2 27.04 19.2"/><polygon class="cls-3" points="44.49 19.2 50.47 40.3 55.78 40.29 58.55 26.73 61.41 40.3 66.16 40.29 72.18 19.2 66.78 19.2 63.88 31.62 61.34 19.2 55.69 19.2 53.28 30.93 50.56 19.2 44.49 19.2"/><path class="cls-3" d="M84.32,26.15s.7-2.62-3.43-3c-2.84-.28-3.42,1.71-3,2.46.86,1.52,7.4,1.53,10.53,4.16,2.68,2.26,2,7.43-.81,9.33-3.4,2.28-8.76,1.89-11.13.82a6.57,6.57,0,0,1-4-6.86h5s-.27,3.25,3.7,3.26c4.16,0,4.17-2.18,3.31-3.06s-8.79-1.3-10.94-4.56a6.36,6.36,0,0,1,2.19-8.83c3.82-2.29,9.49-1.16,11.56,1a6.82,6.82,0,0,1,2.09,5.33Z" transform="translate(-0.05)"/><polygon class="cls-3" points="93.09 0 129.95 0 129.93 36.86 93.12 36.86 93.09 0"/><polygon class="cls-4" points="94.09 1 128.95 1 128.93 35.86 94.12 35.86 94.09 1"/><polygon class="cls-3" points="98.55 7.64 107.04 7.64 107.04 29.23 101.99 29.23 101.99 12.62 98.55 12.62 98.55 7.64"/><path class="cls-3" d="M116.93,29.6c4.46-.08,7.22-3.18,7.55-6.08.44-3.95-1.66-5.3-2.89-6.05a4.68,4.68,0,0,0,2.19-4.73c-.39-3.63-3.44-5.46-7-5.49s-6.34,2.13-6.84,5.34a4.76,4.76,0,0,0,2.2,4.88,6.22,6.22,0,0,0-2.94,6A7.45,7.45,0,0,0,116.93,29.6Z" transform="translate(-0.05)"/><path class="cls-4" d="M119,13.64a2.15,2.15,0,0,1-2.1,2.2,2.11,2.11,0,0,1-2.16-2.22,2.15,2.15,0,0,1,2.16-2.08A2,2,0,0,1,119,13.64Z" transform="translate(-0.05)"/><path class="cls-4" d="M119.38,22.12a2.45,2.45,0,0,1-2.4,2.55,2.51,2.51,0,0,1-2.5-2.54A2.37,2.37,0,0,1,117,19.65,2.45,2.45,0,0,1,119.38,22.12Z" transform="translate(-0.05)"/></svg>