<?xml version="1.0" encoding="utf-8"?>
<!-- Generator: Adobe Illustrator 24.2.1, SVG Export Plug-In . SVG Version: 6.00 Build 0)  -->
<svg version="1.1" id="Layer_1" xmlns="http://www.w3.org/2000/svg" xmlns:xlink="http://www.w3.org/1999/xlink" x="0px" y="0px"
	 viewBox="0 0 900 1024.59" style="enable-background:new 0 0 900 1024.59;" xml:space="preserve">
<style type="text/css">
	.st0{fill:#242424;}
	.st1{font-family:Roboto;font-weight: 400;}
	.st2{font-size:16px;}
	.st3{fill:none;}
	.st4{font-family:Merriweather;font-weight:900;}
	.st5{font-size:16px;}
	.st6{fill:none;stroke:#242424;stroke-width:3;stroke-linecap:round;stroke-linejoin:round;stroke-miterlimit:10;}
	.st7{opacity:0.25;fill:#242424;}
	.st8{font-family:Roboto;font-weight: 300;}
	.st9{opacity:0.15;fill:none;}
	.st10{opacity:0.15;fill:none;stroke:#242424;stroke-width:3;stroke-linecap:round;stroke-linejoin:round;stroke-miterlimit:10;}
	.st11{fill:none;stroke:#000000;stroke-width:0.5;stroke-miterlimit:10;}
	.st12{opacity:0.25;fill:#7C9952;}
	.st13{fill:none;stroke:#7C9952;stroke-width:5;stroke-linecap:round;stroke-linejoin:round;stroke-miterlimit:10;}
	.st14{opacity:0.25;fill:none;}
	.st15{fill:#F2F2F2;}
	.st16{font-family:Roboto;font-weight: 900;}
	.st17{font-size:28px;}
	.st18{fill:none;stroke:#DD6E6E;stroke-width:3;stroke-linecap:round;stroke-linejoin:round;stroke-miterlimit:10;}
	.st19{fill:none;stroke:#2FC0D3;stroke-width:3;stroke-linecap:round;stroke-linejoin:round;stroke-miterlimit:10;}
	.st20{fill:none;stroke:#7C9952;stroke-width:3;stroke-linecap:round;stroke-linejoin:round;stroke-miterlimit:10;}
	.st21{fill:none;stroke:#A38C43;stroke-width:3;stroke-linecap:round;stroke-linejoin:round;stroke-miterlimit:10;}
	.st22{fill-rule:evenodd;clip-rule:evenodd;fill:#4D4D4D;}
</style>
<text transform="matrix(1 0 0 1 362.0753 61.7586)" class="st0 st1 st2">Hover on graph for specifics</text>
<rect x="192" y="25.24" class="st3" width="516" height="17.27"/>
<text transform="matrix(1 0 0 1 230.9913 38.1368)" class="st0 st4 st5">How delaying isolation measures meant higher peaks</text>
<path class="st6" d="M213.9,148.3c0,0,12.07,4.02,16.09-6.03s5.03-61.35,10.06-53.3s5.03,43.25,10.06,42.24
	c5.03-1.01,10.06-6.03,14.08,0c4.02,6.03,9.05,12.07,14.08,9.05c5.03-3.02,6.03,3.02,14.08,3.02"/>
<rect x="501.18" y="95.88" class="st7" width="47.89" height="47.89"/>
<rect x="302.99" y="101.21" class="st3" width="166.27" height="46.29"/>
<text transform="matrix(1 0 0 1 302.986 111.708)"><tspan x="0" y="0" class="st0 st8 st2">Weekly deaths per 100,000 </tspan><tspan x="0" y="16" class="st0 st8 st2">from 1918 pandemic </tspan><tspan x="0" y="32" class="st0 st8 st2">above the expected rate</tspan></text>
<text transform="matrix(1 0 0 1 558.3773 127.708)"><tspan x="0" y="0" class="st0 st8 st2">Duration of social  </tspan><tspan x="0" y="16" class="st0 st8 st2">distancing measures</tspan></text>
<g>
	<rect x="238.36" y="535.64" class="st9" width="192.01" height="378.07"/>
	<path class="st10" d="M47.55,906.29c0,0,70.2-1,84.23-1s57.56,0,75.81-24.94c18.25-24.94,21.06-78.81,26.67-106.75
		c5.62-27.93,15.44-108.74,28.08-150.64c12.64-41.9,23.87-89.79,33.69-75.82c9.83,13.97,32.29,140.66,37.91,163.61
		s30.89,125.7,64.58,153.63c33.69,27.93,75.81,32.92,99.68,16.96c23.87-15.96,51.94-51.88,74.41-53.87
		c22.46-2,35.1-11.97,42.12-21.95c7.02-9.98,43.52-53.87,64.58-46.89c21.06,6.98,25.27,60.85,35.1,78.81s35.1,46.89,47.73,52.87
		c12.64,5.99,40.71,13.97,57.56,15.96c16.85,2,40.71,1,40.71,1"/>
</g>
<g>
	<line class="st11" x1="24.28" y1="782.04" x2="36.22" y2="782.04"/>
</g>
<g>
	<line class="st11" x1="24.28" y1="649.67" x2="36.22" y2="649.67"/>
</g>
<g>
	<line class="st11" x1="24.28" y1="517.3" x2="36.22" y2="517.3"/>
</g>
<g>
	<line class="st11" x1="24.28" y1="384.93" x2="36.22" y2="384.93"/>
</g>
<g>
	<line class="st11" x1="24.28" y1="252.56" x2="36.22" y2="252.56"/>
</g>
<g>
	<rect x="160.13" y="251.21" class="st9" width="133.69" height="662.5"/>
	<path class="st10" d="M47.55,907.21c0,0,38,3,56.29-5s29.55-35,43.63-73s40.81-267,45.03-305s30.96-275,36.59-267
		c5.63,8,39.4,266,43.63,304c4.22,38,19.7,167,26.74,184s22.52,72,22.52,85s28.15,59,56.29,67c28.15,8,74.58,8,85.84,9
		c11.26,1,57.7-5,73.18-5s45.03,0,53.48,1s38-1,52.07-5c14.07-4,26.74-6,42.22-7s33.77-3,45.03-6c11.26-3,14.07-5,36.59-2
		c22.52,3,32.37,4,52.07,7c19.7,3,43.63,10,43.63,10"/>
</g>
<text transform="matrix(1 0 0 1 12.4916 247.1641)"><tspan x="0" y="0" class="st0 st1 st2">250</tspan><tspan x="0" y="132" class="st0 st1 st2">200</tspan><tspan x="0" y="264" class="st0 st1 st2">150</tspan><tspan x="0" y="396" class="st0 st1 st2">100</tspan><tspan x="7.86" y="528" class="st0 st1 st2">50</tspan><tspan x="15.72" y="660" class="st0 st1 st2">0</tspan></text>
<text transform="matrix(1 0 0 1 31.0756 960.6175)" class="st0 st1 st2">Sep 11, 1918</text>
<text transform="matrix(1 0 0 1 427.2902 940.6649)" class="st0 st1 st2">WEEKS</text>
<text transform="matrix(1 0 0 1 47.796 940.6651)" class="st0 st1 st2">1</text>
<text transform="matrix(1 0 0 1 296.9801 940.6651)" class="st0 st1 st2">8</text>
<text transform="matrix(1 0 0 1 568.837 940.6651)" class="st0 st1 st2">16</text>
<text transform="matrix(1 0 0 1 852.6071 940.6651)" class="st0 st1 st2">24</text>
<text transform="matrix(1 0 0 1 794.3107 960.6175)" class="st0 st1 st2">Feb 19, 1919</text>
<g>
	<line class="st11" x1="34.88" y1="913.71" x2="34.88" y2="924.71"/>
	<line class="st11" x1="69.95" y1="913.71" x2="69.95" y2="924.71"/>
	<line class="st11" x1="105.01" y1="913.71" x2="105.01" y2="924.71"/>
	<line class="st11" x1="140.08" y1="913.71" x2="140.08" y2="924.71"/>
	<line class="st11" x1="175.14" y1="913.71" x2="175.14" y2="924.71"/>
	<line class="st11" x1="210.2" y1="913.71" x2="210.2" y2="924.71"/>
	<line class="st11" x1="245.27" y1="913.71" x2="245.27" y2="924.71"/>
	<line class="st11" x1="280.33" y1="913.71" x2="280.33" y2="924.71"/>
	<line class="st11" x1="315.4" y1="913.71" x2="315.4" y2="924.71"/>
	<line class="st11" x1="350.46" y1="913.71" x2="350.46" y2="924.71"/>
	<line class="st11" x1="385.53" y1="913.71" x2="385.53" y2="924.71"/>
	<line class="st11" x1="420.59" y1="913.71" x2="420.59" y2="924.71"/>
	<line class="st11" x1="455.65" y1="913.71" x2="455.65" y2="924.71"/>
	<line class="st11" x1="490.72" y1="913.71" x2="490.72" y2="924.71"/>
	<line class="st11" x1="525.78" y1="913.71" x2="525.78" y2="924.71"/>
	<line class="st11" x1="560.85" y1="913.71" x2="560.85" y2="924.71"/>
	<line class="st11" x1="595.91" y1="913.71" x2="595.91" y2="924.71"/>
	<line class="st11" x1="630.97" y1="913.71" x2="630.97" y2="924.71"/>
	<line class="st11" x1="666.04" y1="913.71" x2="666.04" y2="924.71"/>
	<line class="st11" x1="701.1" y1="913.71" x2="701.1" y2="924.71"/>
	<line class="st11" x1="736.17" y1="913.71" x2="736.17" y2="924.71"/>
	<line class="st11" x1="771.23" y1="913.71" x2="771.23" y2="924.71"/>
	<line class="st11" x1="806.3" y1="913.71" x2="806.3" y2="924.71"/>
	<line class="st11" x1="841.36" y1="913.71" x2="841.36" y2="924.71"/>
	<line class="st11" x1="876.42" y1="913.71" x2="876.42" y2="924.71"/>
</g>
<g>
	<line class="st11" x1="24.28" y1="913.28" x2="878.46" y2="913.28"/>
</g>
<g>
	<rect x="87.67" y="675.53" class="st12" width="373.83" height="238.18"/>
	<path class="st13" d="M47.55,907.28c0,0,54.28,10.64,87.98-14.63s48.67-65.18,54.28-81.14c5.62-15.96,26.21-82.47,46.8-107.74
		c20.59-25.27,35.57-29.26,48.67-9.31c13.1,19.95,37.44,85.13,44.93,106.41c7.49,21.28,28.08,67.84,56.16,79.81
		c28.08,11.97,44.93,17.29,69.26,18.62c24.33,1.33,52.41,1.33,71.13,0c18.72-1.33,46.8-3.99,76.75-10.64
		c29.95-6.65,63.64-1.33,86.11-11.97s35.57-13.3,67.39-3.99c31.82,9.31,76.75,19.95,106.7,15.96"/>
</g>
<g>
	<rect x="186.88" y="765.77" class="st14" width="207.32" height="147.93"/>
	<rect x="443.33" y="765.77" class="st14" width="176.49" height="147.93"/>
	<path class="st10" d="M47.55,907.28c0,0,80.49,9.31,127.29-14.63c46.8-23.94,50.54-45.23,80.49-54.54s44.93-9.31,61.77-2.66
		c16.85,6.65,22.46,1.33,43.05,6.65c20.59,5.32,44.93,13.3,61.77,6.65c16.85-6.65,56.16-61.19,69.26-70.5
		c13.1-9.31,24.33-5.32,37.44,18.62c13.1,23.94,39.31,74.49,61.77,90.45c22.46,15.96,28.08,9.31,44.93,7.98
		c16.85-1.33,43.05,2.66,59.9,5.32s31.82-3.99,48.67-1.33c16.85,2.66,29.95,7.98,54.28,6.65c24.33-1.33,59.9-5.32,59.9-5.32"/>
</g>
<rect x="27.64" y="981.77" class="st3" width="854.81" height="30.29"/>
<text transform="matrix(1 0 0 1 27.642 992.2706)"><tspan x="0" y="0" class="st0 st8 st2">SOURCE: MARKEL H, LIPMAN HB, NAVARRO JA, ET AL. NONPHARMACEUTICAL INTERVENTIONS IMPLEMENTED BY US CITIES DURING </tspan><tspan x="0" y="16" class="st0 st8 st2">THE 1918-1919 INFLUENZA PANDEMIC. JAMA</tspan></text>
<rect x="353.05" y="292.75" class="st0" width="450" height="186.35"/>
<text transform="matrix(1 0 0 1 379.4757 318.6609)" class="st15 st1 st2">NEW YORK</text>
<rect x="379.48" y="344.62" class="st3" width="95.95" height="120.79"/>
<text transform="matrix(1 0 0 1 379.476 365.6249)"><tspan x="0" y="0" class="st15 st16 st17">452  </tspan><tspan x="0" y="24" class="st15 st1 st2">Deaths per </tspan><tspan x="0" y="48" class="st15 st1 st2">100,000 after </tspan><tspan x="0" y="72" class="st15 st1 st2">24 weeks of </tspan><tspan x="0" y="96" class="st15 st1 st2">pandemic</tspan></text>
<rect x="492.05" y="355.12" class="st3" width="239.43" height="110.29"/>
<text transform="matrix(1 0 0 1 492.0504 365.6249)"><tspan x="0" y="0" class="st15 st1 st2">New York City began quarantine </tspan><tspan x="0" y="24" class="st15 st1 st2">measures very early—11 days before </tspan><tspan x="0" y="48" class="st15 st1 st2">the death rate spiked. The city had the </tspan><tspan x="0" y="72" class="st15 st1 st2">lowest death rate on the Eastern </tspan><tspan x="0" y="96" class="st15 st1 st2">Seaboard</tspan></text>
<g>
	<g>
		<line class="st18" x1="69.57" y1="181.68" x2="207.31" y2="181.68"/>
		<line class="st19" x1="277.28" y1="181.68" x2="415.02" y2="181.68"/>
		<line class="st20" x1="484.98" y1="181.68" x2="622.72" y2="181.68"/>
		<line class="st21" x1="692.69" y1="181.68" x2="830.43" y2="181.68"/>
	</g>
	<text transform="matrix(1 0 0 1 68.3961 198.5572)" class="st0 st8 st2">PHILADELPHIA</text>
	<text transform="matrix(1 0 0 1 274.5714 198.5572)" class="st0 st8 st2">SAN FRANCISCO</text>
	<text transform="matrix(1 0 0 1 485.4025 198.5572)" class="st0 st8 st2">NEW YORK</text>
	<text transform="matrix(1 0 0 1 688.9176 198.5572)" class="st0 st8 st2">ST. LOUIS</text>
</g>
<rect x="0" y="-0.03" class="st22" width="900" height="7.89"/>
</svg>
