<?xml version="1.0" encoding="utf-8"?>
<!-- Generator: Adobe Illustrator 24.2.1, SVG Export Plug-In . SVG Version: 6.00 Build 0)  -->
<svg version="1.1" id="Layer_1" xmlns="http://www.w3.org/2000/svg" xmlns:xlink="http://www.w3.org/1999/xlink" x="0px" y="0px"
	 viewBox="0 0 900 1024.59" style="enable-background:new 0 0 900 1024.59;" xml:space="preserve">
<style type="text/css">
	.st0{fill:none;}
	.st1{fill:#242424;}
	.st2{font-family:Merriweather;font-weight:900;}
	.st3{font-size:16px;}
	.st4{fill:none;stroke:#242424;stroke-width:3;stroke-linecap:round;stroke-linejoin:round;stroke-miterlimit:10;}
	.st5{opacity:0.25;fill:#242424;}
	.st6{font-family:Roboto;font-weight: 300;}
	.st7{font-size:16px;}
	.st8{opacity:0.15;fill:none;}
	.st9{opacity:0.15;fill:none;stroke:#242424;stroke-width:3;stroke-linecap:round;stroke-linejoin:round;stroke-miterlimit:10;}
	.st10{fill:none;stroke:#000000;stroke-width:0.5;stroke-miterlimit:10;}
	.st11{font-family:Roboto;font-weight: 400;}
	.st12{opacity:0.25;fill:none;}
	.st13{fill:none;stroke:#DD6E6E;stroke-width:3;stroke-linecap:round;stroke-linejoin:round;stroke-miterlimit:10;}
	.st14{fill:none;stroke:#2FC0D3;stroke-width:3;stroke-linecap:round;stroke-linejoin:round;stroke-miterlimit:10;}
	.st15{fill:none;stroke:#7C9952;stroke-width:3;stroke-linecap:round;stroke-linejoin:round;stroke-miterlimit:10;}
	.st16{fill:none;stroke:#A38C43;stroke-width:3;stroke-linecap:round;stroke-linejoin:round;stroke-miterlimit:10;}
	.st17{fill-rule:evenodd;clip-rule:evenodd;fill:#4D4D4D;}
	.st18{fill:none;stroke:#242424;stroke-miterlimit:10;}
</style>
<rect x="192" y="25.24" class="st0" width="516" height="17.27"/>
<text transform="matrix(1 0 0 1 230.9919 38.1368)" class="st1 st2 st3">How delaying isolation measures meant higher peaks</text>
<path class="st4" d="M213.9,148.3c0,0,12.07,4.02,16.09-6.03c4.02-10.06,5.03-61.35,10.06-53.3s5.03,43.25,10.06,42.24
	s10.06-6.03,14.08,0s9.05,12.07,14.08,9.05s6.03,3.02,14.08,3.02"/>
<rect x="501.18" y="95.88" class="st5" width="47.89" height="47.89"/>
<rect x="302.99" y="101.21" class="st0" width="166.27" height="46.29"/>
<text transform="matrix(1 0 0 1 302.9863 111.7077)"><tspan x="0" y="0" class="st1 st6 st7">Weekly deaths per 100,000 </tspan><tspan x="0" y="16" class="st1 st6 st7">from 1918 pandemic </tspan><tspan x="0" y="32" class="st1 st6 st7">above the expected rate</tspan></text>
<text transform="matrix(1 0 0 1 558.3779 127.7077)"><tspan x="0" y="0" class="st1 st6 st7">Duration of social  </tspan><tspan x="0" y="16" class="st1 st6 st7">distancing measures</tspan></text>
<g>
	<rect x="238.36" y="535.64" class="st8" width="192.01" height="378.07"/>
	<path class="st9" d="M47.55,906.29c0,0,70.2-1,84.23-1s57.56,0,75.81-24.94c18.25-24.94,21.06-78.81,26.67-106.75
		c5.62-27.93,15.44-108.74,28.08-150.64c12.64-41.9,23.87-89.79,33.69-75.82c9.83,13.97,32.29,140.66,37.91,163.61
		c5.62,22.95,30.89,125.7,64.58,153.63c33.69,27.93,75.81,32.92,99.68,16.96c23.87-15.96,51.94-51.88,74.41-53.87
		c22.46-2,35.1-11.97,42.12-21.95c7.02-9.98,43.52-53.87,64.58-46.89c21.06,6.98,25.27,60.86,35.1,78.81s35.1,46.89,47.73,52.87
		c12.64,5.99,40.71,13.97,57.56,15.96c16.85,2,40.71,1,40.71,1"/>
</g>
<g>
	<line class="st10" x1="24.28" y1="782.04" x2="36.22" y2="782.04"/>
</g>
<g>
	<line class="st10" x1="24.28" y1="649.67" x2="36.22" y2="649.67"/>
</g>
<g>
	<line class="st10" x1="24.28" y1="517.3" x2="36.22" y2="517.3"/>
</g>
<g>
	<line class="st10" x1="24.28" y1="384.93" x2="36.22" y2="384.93"/>
</g>
<g>
	<line class="st10" x1="24.28" y1="252.56" x2="36.22" y2="252.56"/>
</g>
<g class='phil'>
	<rect x="160.13" y="251.21" class="st8" width="133.69" height="662.5"/>
	<path class="st9" d="M47.55,907.21c0,0,38,3,56.29-5s29.55-35,43.63-73s40.81-267,45.03-305s30.96-275,36.59-267
		c5.63,8,39.4,266,43.63,304c4.22,38,19.7,167,26.74,184s22.52,72,22.52,85s28.15,59,56.29,67c28.15,8,74.58,8,85.84,9
		c11.26,1,57.7-5,73.18-5s45.03,0,53.48,1s38-1,52.07-5c14.07-4,26.74-6,42.22-7s33.77-3,45.03-6c11.26-3,14.07-5,36.59-2
		c22.52,3,32.37,4,52.07,7c19.7,3,43.63,10,43.63,10"/>
</g>
<text transform="matrix(1 0 0 1 12.4918 247.1647)"><tspan x="0" y="0" class="st1 st11 st7">250</tspan><tspan x="0" y="132" class="st1 st11 st7">200</tspan><tspan x="0" y="264" class="st1 st11 st7">150</tspan><tspan x="0" y="396" class="st1 st11 st7">100</tspan><tspan x="7.86" y="528" class="st1 st11 st7">50</tspan><tspan x="15.72" y="660" class="st1 st11 st7">0</tspan></text>
<text transform="matrix(1 0 0 1 31.0757 960.6176)" class="st1 st11 st7">Sep 11, 1918</text>
<text transform="matrix(1 0 0 1 427.2905 940.6649)" class="st1 st11 st7">WEEKS</text>
<text transform="matrix(1 0 0 1 47.7962 940.6652)" class="st1 st11 st7">1</text>
<text transform="matrix(1 0 0 1 296.9803 940.6652)" class="st1 st11 st7">8</text>
<text transform="matrix(1 0 0 1 568.8375 940.6652)" class="st1 st11 st7">16</text>
<text transform="matrix(1 0 0 1 852.6066 940.6652)" class="st1 st11 st7">24</text>
<text transform="matrix(1 0 0 1 794.3099 960.6176)" class="st1 st11 st7">Feb 19, 1919</text>
<g>
	<line class="st10" x1="34.88" y1="913.71" x2="34.88" y2="924.71"/>
	<line class="st10" x1="69.95" y1="913.71" x2="69.95" y2="924.71"/>
	<line class="st10" x1="105.01" y1="913.71" x2="105.01" y2="924.71"/>
	<line class="st10" x1="140.08" y1="913.71" x2="140.08" y2="924.71"/>
	<line class="st10" x1="175.14" y1="913.71" x2="175.14" y2="924.71"/>
	<line class="st10" x1="210.2" y1="913.71" x2="210.2" y2="924.71"/>
	<line class="st10" x1="245.27" y1="913.71" x2="245.27" y2="924.71"/>
	<line class="st10" x1="280.33" y1="913.71" x2="280.33" y2="924.71"/>
	<line class="st10" x1="315.4" y1="913.71" x2="315.4" y2="924.71"/>
	<line class="st10" x1="350.46" y1="913.71" x2="350.46" y2="924.71"/>
	<line class="st10" x1="385.53" y1="913.71" x2="385.53" y2="924.71"/>
	<line class="st10" x1="420.59" y1="913.71" x2="420.59" y2="924.71"/>
	<line class="st10" x1="455.65" y1="913.71" x2="455.65" y2="924.71"/>
	<line class="st10" x1="490.72" y1="913.71" x2="490.72" y2="924.71"/>
	<line class="st10" x1="525.78" y1="913.71" x2="525.78" y2="924.71"/>
	<line class="st10" x1="560.85" y1="913.71" x2="560.85" y2="924.71"/>
	<line class="st10" x1="595.91" y1="913.71" x2="595.91" y2="924.71"/>
	<line class="st10" x1="630.97" y1="913.71" x2="630.97" y2="924.71"/>
	<line class="st10" x1="666.04" y1="913.71" x2="666.04" y2="924.71"/>
	<line class="st10" x1="701.1" y1="913.71" x2="701.1" y2="924.71"/>
	<line class="st10" x1="736.17" y1="913.71" x2="736.17" y2="924.71"/>
	<line class="st10" x1="771.23" y1="913.71" x2="771.23" y2="924.71"/>
	<line class="st10" x1="806.3" y1="913.71" x2="806.3" y2="924.71"/>
	<line class="st10" x1="841.36" y1="913.71" x2="841.36" y2="924.71"/>
	<line class="st10" x1="876.42" y1="913.71" x2="876.42" y2="924.71"/>
</g>
<g>
	<line class="st10" x1="24.28" y1="913.28" x2="878.46" y2="913.28"/>
</g>
<g>
	<rect x="87.67" y="675.53" class="st12" width="373.83" height="238.18"/>
	<path class="st9" d="M47.55,907.28c0,0,54.28,10.64,87.98-14.63c33.69-25.27,48.67-65.18,54.28-81.14
		c5.62-15.96,26.21-82.47,46.8-107.74c20.59-25.27,35.57-29.26,48.67-9.31c13.1,19.95,37.44,85.13,44.93,106.41
		c7.49,21.28,28.08,67.84,56.16,79.81c28.08,11.97,44.93,17.29,69.26,18.62c24.33,1.33,52.41,1.33,71.13,0
		c18.72-1.33,46.8-3.99,76.75-10.64c29.95-6.65,63.64-1.33,86.11-11.97c22.46-10.64,35.57-13.3,67.39-3.99
		c31.82,9.31,76.75,19.95,106.7,15.96"/>
</g>
<g>
	<rect x="186.88" y="765.77" class="st12" width="207.32" height="147.93"/>
	<rect x="443.33" y="765.77" class="st12" width="176.49" height="147.93"/>
	<path class="st9" d="M47.55,907.28c0,0,80.49,9.31,127.29-14.63c46.8-23.94,50.54-45.23,80.49-54.54s44.93-9.31,61.77-2.66
		c16.85,6.65,22.46,1.33,43.05,6.65c20.59,5.32,44.93,13.3,61.77,6.65c16.85-6.65,56.16-61.19,69.26-70.5
		c13.1-9.31,24.33-5.32,37.44,18.62c13.1,23.94,39.31,74.49,61.77,90.45c22.46,15.96,28.08,9.31,44.93,7.98
		c16.85-1.33,43.05,2.66,59.9,5.32s31.82-3.99,48.67-1.33c16.85,2.66,29.95,7.98,54.28,6.65c24.33-1.33,59.9-5.32,59.9-5.32"/>
</g>
<rect x="27.64" y="981.77" class="st0" width="854.81" height="30.29"/>
<text transform="matrix(1 0 0 1 27.6422 992.2705)"><tspan x="0" y="0" class="st1 st6 st7">SOURCE: MARKEL H, LIPMAN HB, NAVARRO JA, ET AL. NONPHARMACEUTICAL INTERVENTIONS IMPLEMENTED BY US CITIES DURING </tspan><tspan x="0" y="16" class="st1 st6 st7">THE 1918-1919 INFLUENZA PANDEMIC. JAMA</tspan></text>
<g>
	<g>
		<line class="st13" x1="69.57" y1="181.68" x2="207.31" y2="181.68"/>
		<line class="st14" x1="277.28" y1="181.68" x2="415.02" y2="181.68"/>
		<line class="st15" x1="484.98" y1="181.68" x2="622.72" y2="181.68"/>
		<line class="st16" x1="692.69" y1="181.68" x2="830.43" y2="181.68"/>
	</g>
	<text transform="matrix(1 0 0 1 68.3961 198.5577)" class="st1 st6 st7" id="PHIL">PHILADELPHIA</text>
	<text transform="matrix(1 0 0 1 274.5715 198.5577)" class="st1 st6 st7" id="SF">SAN FRANCISCO</text>
	<text transform="matrix(1 0 0 1 485.4026 198.5577)" class="st1 st6 st7" id="NY">NEW YORK</text>
	<text transform="matrix(1 0 0 1 688.9177 198.5577)" class="st1 st6 st7" id="StL">ST. LOUIS</text>
</g>
<rect y="-0.03" class="st17" width="900" height="7.89"/>
<text transform="matrix(1 0 0 1 375.1814 416.9427)" class="st1 st11 st7">Tap on city names</text>
<rect x="371.5" y="397.53" class="st18" width="158" height="28.93"/>
</svg>
