<?xml version="1.0" encoding="utf-8"?>
<!-- Generator: Adobe Illustrator 24.3.0, SVG Export Plug-In . SVG Version: 6.00 Build 0)  -->
<svg version="1.1" id="Layer_1" xmlns="http://www.w3.org/2000/svg" xmlns:xlink="http://www.w3.org/1999/xlink" x="0px" y="0px"
	 viewBox="0 0 364 1200" style="enable-background:new 0 0 364 1200;" xml:space="preserve">
<style type="text/css">
	.st0{fill:none;}
	.st1{fill:#242424;}
	.st2{font-family:'Roboto-Light';}
	.st3{font-size:16px;}
	.st4{fill:#C1272D;}
</style>
<rect x="0.1" y="334.46" class="st0" width="363.51" height="16.34"/>
<text transform="matrix(1 0 0 1 10.0816 346.4617)" class="st1 st2 st3">SUPPORTED A QUARANTINE OF AIDS PATIENTS</text>
<g>
	<path class="st1" d="M149.65,319.29c1.22-0.62,2.19-1.43,2.89-2.45c0.7-1.02,1.05-2.1,1.05-3.25c0-1.41-0.36-2.39-1.09-2.95
		c-0.73-0.56-1.8-0.84-3.21-0.84c-0.74,0-1.53,0.09-2.37,0.27c-0.84,0.18-1.54,0.38-2.09,0.61l-1.41-0.98l1.59-12.93h11.7l0.33-0.65
		h2.66l-0.86,5.28h-9.73l-1.23,5.88c0.09-0.04,0.41-0.2,0.97-0.46c0.56-0.26,1.24-0.48,2.05-0.66s1.62-0.27,2.44-0.27
		c2.49,0,4.35,0.58,5.58,1.74s1.84,2.75,1.84,4.76c0,2.21-0.64,4.14-1.93,5.79c-1.29,1.64-3.05,2.9-5.28,3.78
		c-2.23,0.87-4.73,1.31-7.5,1.31c-0.92,0-1.71-0.08-2.37-0.23l0.02-2.89c0.56,0.04,1.21,0.07,1.93,0.07
		C147.09,320.21,148.43,319.9,149.65,319.29z"/>
	<path class="st1" d="M165.56,300.9c0.94-1.68,2.2-2.91,3.77-3.69c1.57-0.78,3.33-1.17,5.26-1.17c1.89,0,3.53,0.38,4.91,1.13
		c1.38,0.75,2.45,1.91,3.21,3.48c0.76,1.57,1.14,3.53,1.14,5.88c0,2.58-0.47,4.71-1.4,6.39c-0.94,1.69-2.19,2.93-3.76,3.72
		c-1.57,0.79-3.33,1.19-5.26,1.19c-1.88,0-3.51-0.38-4.9-1.15s-2.46-1.93-3.22-3.49c-0.76-1.57-1.15-3.53-1.15-5.89
		C164.15,304.71,164.62,302.58,165.56,300.9z M176.61,301.86c-0.19-1.25-0.5-2.12-0.91-2.62c-0.42-0.5-0.98-0.75-1.7-0.75
		c-0.93,0-1.65,0.67-2.15,2c-0.5,1.33-0.76,3.41-0.76,6.23c0,2.22,0.11,3.96,0.32,5.21c0.21,1.25,0.54,2.13,0.97,2.64
		s1,0.76,1.71,0.76c0.92,0,1.62-0.66,2.09-1.98c0.48-1.32,0.71-3.41,0.71-6.25C176.9,304.85,176.81,303.1,176.61,301.86z"/>
	<path class="st1" d="M187.8,296.01c0.64-1.14,1.51-2,2.63-2.6c1.12-0.6,2.39-0.89,3.82-0.89c2.4,0,4.13,0.67,5.2,2
		c1.06,1.33,1.59,3.12,1.59,5.35c0,1.56-0.32,2.9-0.97,4.03c-0.65,1.13-1.53,1.98-2.66,2.57c-1.12,0.58-2.39,0.88-3.79,0.88
		c-1.46,0-2.7-0.32-3.72-0.97c-1.02-0.65-1.78-1.52-2.29-2.62c-0.51-1.1-0.76-2.33-0.76-3.68
		C186.85,298.5,187.17,297.15,187.8,296.01z M195.54,296.41c-0.24-0.96-0.74-1.45-1.5-1.45c-0.79,0-1.32,0.42-1.59,1.25
		c-0.28,0.83-0.42,2.05-0.42,3.65c0,1.38,0.14,2.58,0.41,3.58c0.27,1,0.78,1.5,1.52,1.5c0.54,0,0.95-0.19,1.24-0.58
		c0.28-0.39,0.47-0.91,0.56-1.57c0.09-0.66,0.14-1.5,0.14-2.52C195.9,298.66,195.78,297.37,195.54,296.41z M211.5,292.52
		l-10.89,25.28h-3.93l10.89-25.28H211.5z M219.89,304.54c1.07,1.38,1.6,3.22,1.6,5.53c0,1.61-0.32,3-0.97,4.17
		c-0.65,1.17-1.53,2.05-2.66,2.65c-1.12,0.61-2.39,0.91-3.79,0.91c-1.46,0-2.7-0.34-3.72-1.01s-1.78-1.58-2.29-2.71
		s-0.76-2.4-0.76-3.79c0-1.62,0.32-3.02,0.95-4.2c0.64-1.18,1.51-2.07,2.63-2.69c1.12-0.62,2.39-0.92,3.82-0.92
		C217.1,302.48,218.83,303.17,219.89,304.54z M215.96,313.98c0.26-0.81,0.39-2.01,0.39-3.6c0-1.64-0.12-2.96-0.36-3.97
		c-0.24-1.01-0.74-1.51-1.5-1.51c-0.79,0-1.32,0.43-1.6,1.29c-0.28,0.86-0.42,2.11-0.42,3.75c0,1.43,0.14,2.66,0.42,3.69
		c0.28,1.03,0.78,1.55,1.51,1.55C215.18,315.2,215.7,314.79,215.96,313.98z"/>
</g>
<g>
	<g>
		<path class="st1" d="M178.6,85.25c-11.55,0-20.95-9.4-20.95-20.95v-8.38c0-11.55,9.4-20.95,20.95-20.95s20.95,9.4,20.95,20.95
			v8.38C199.55,75.85,190.15,85.25,178.6,85.25z M178.6,43.35c-6.93,0-12.57,5.64-12.57,12.57v8.38c0,6.93,5.64,12.57,12.57,12.57
			c6.93,0,12.57-5.64,12.57-12.57v-8.38C191.17,48.99,185.53,43.35,178.6,43.35z"/>
		<path class="st1" d="M203.74,177.43c-2.31,0-4.19-1.88-4.19-4.19c0-2.31,1.88-4.19,4.19-4.19c6.93,0,12.57-4.89,12.57-10.89
			v-30.17c0-14.32-13.16-25.98-29.33-25.98h-16.76c-16.17,0-29.33,11.65-29.33,25.98v30.17c0,6.01,5.64,10.89,12.57,10.89
			c2.31,0,4.19,1.88,4.19,4.19c0,2.31-1.88,4.19-4.19,4.19c-11.55,0-20.95-8.65-20.95-19.27v-30.17c0-18.95,16.92-34.36,37.71-34.36
			h16.76c20.79,0,37.71,15.41,37.71,34.36v30.17C224.69,168.79,215.29,177.43,203.74,177.43z"/>
		<path class="st1" d="M203.74,269.61h-16.76c-2.17,0-3.98-1.65-4.17-3.81l-4.21-46.28l-4.21,46.28c-0.2,2.16-2.01,3.81-4.17,3.81
			h-16.76c-2.31,0-4.19-1.88-4.19-4.19v-125.7c0-2.31,1.88-4.19,4.19-4.19s4.19,1.88,4.19,4.19v121.51h8.74l8.03-88.37
			c0.2-2.16,2.01-3.81,4.17-3.81c2.17,0,3.98,1.65,4.17,3.81l8.03,88.37h8.74V139.72c0-2.31,1.88-4.19,4.19-4.19
			s4.19,1.88,4.19,4.19v125.7C207.93,267.74,206.05,269.61,203.74,269.61z"/>
	</g>
	<g>
		<path class="st1" d="M267.78,176.91c1.02-2.16,2.02-4.33,3-6.51v-18.19c-0.87-0.08-1.75-0.14-2.67-0.14
			c-2.03,0-3.92,0.23-5.71,0.63v11.27c0.27,0.8,0.53,1.57,0.8,2.3C264.55,169.99,266.17,173.58,267.78,176.91z"/>
		<path class="st1" d="M267.84,223.68c-0.9,1.2-1.79,2.4-2.69,3.6c-0.91,1.22-1.84,2.43-2.75,3.65v34.49c0,2.31,1.88,4.19,4.19,4.19
			s4.19-1.88,4.19-4.19v-37.75C269.8,226.35,268.82,225.03,267.84,223.68z"/>
		<path class="st1" d="M280.71,102.01h-14.12c-2.31,0-4.19,1.88-4.19,4.19v21.65c1.78-0.38,3.62-0.6,5.54-0.6
			c0.33,0,0.66,0,0.99,0.02c0.63,0.02,1.24,0.07,1.85,0.13v-17.01h20.95c1.74,0,3.3-1.07,3.92-2.7c0.62-1.63,0.17-3.46-1.13-4.62
			L181.38,2.51c-1.59-1.41-3.98-1.41-5.57,0L62.68,103.07c-1.3,1.16-1.75,3-1.13,4.62c0.62,1.63,2.18,2.7,3.92,2.7h20.95v155.03
			c0,2.31,1.88,4.19,4.19,4.19c2.31,0,4.19-1.88,4.19-4.19V106.2c0-2.31-1.88-4.19-4.19-4.19H76.48L178.6,11.24L280.71,102.01z"/>
	</g>
	<g>
		<path class="st4" d="M254.68,154.93c0.4,1.77,0.69,3.42,1.16,5.02c0.8,2.7,1.65,5.4,2.61,8.04c2.01,5.54,4.57,10.84,7.25,16.07
			c3.51,6.84,7.32,13.51,11.34,20.05c6.4,10.41,13.16,20.58,20.72,30.19c0.73,0.92,1.49,1.81,2.26,2.7
			c0.77,0.88,1.57,1.73,2.42,2.66c-0.89,0.6-1.75,1.19-2.63,1.77c-2.39,1.58-4.8,3.14-7.18,4.73c-0.43,0.29-0.67,0.28-1-0.14
			c-3.53-4.38-7.18-8.68-10.61-13.14c-4.03-5.23-7.97-10.54-11.82-15.91c-5.14-7.19-9.97-14.6-14.16-22.4
			c-2.08-3.87-3.86-7.88-5.14-12.09c-0.85-2.8-1.67-5.62-2.27-8.48c-0.54-2.57-0.83-5.19-1.08-7.8c-0.06-0.67,0.41-1.42,0.71-2.1
			c1.25-2.83,2.82-5.45,5.23-7.46C253.19,156.07,253.92,155.53,254.68,154.93z"/>
		<path class="st4" d="M288.08,155.1c-5.49-5.66-12.32-8.1-20.02-8.09c-7.71,0.01-14.52,2.5-20.1,8.1c0.23-0.97,0.46-1.95,0.7-2.92
			c0.66-2.63,1.47-5.24,1.96-7.9c0.86-4.67,3.84-7.56,7.76-9.7c3.23-1.76,6.74-2.41,10.38-2.29c4.57,0.15,8.77,1.44,12.32,4.45
			c1.49,1.26,2.78,2.72,3.63,4.48c0.43,0.88,0.6,1.9,0.84,2.86c0.86,3.39,1.7,6.78,2.54,10.17c0.06,0.24,0.08,0.5,0.13,0.75
			C288.18,155.05,288.13,155.08,288.08,155.1z"/>
		<path class="st4" d="M257.22,206.46c0.7,1.08,1.34,2.08,1.99,3.07c1.89,2.84,3.78,5.68,5.71,8.49c0.33,0.47,0.29,0.76-0.03,1.18
			c-3.67,4.88-7.27,9.81-11.01,14.64c-3.17,4.09-6.51,8.04-9.75,12.07c-0.42,0.53-0.72,0.54-1.27,0.17
			c-2.99-2.01-6.01-3.98-9.02-5.97c-0.2-0.13-0.39-0.27-0.59-0.41C242.41,229.45,249.79,218,257.22,206.46z"/>
		<path class="st4" d="M278.37,198.49c-1.25-2.18-2.46-4.24-3.61-6.32c-1.46-2.62-2.86-5.26-4.31-7.88
			c-0.24-0.43-0.21-0.77-0.01-1.2c1.88-4,3.83-7.98,5.59-12.04c1.97-4.52,3.55-9.19,4.54-14.04c0.08-0.38,0.12-0.77,0.18-1.16
			c0.06-0.38,0.14-0.77,0.23-1.24c0.47,0.31,0.9,0.58,1.31,0.87c2.93,2.05,4.92,4.83,6.45,8.03c0.53,1.11,0.4,2.19,0.32,3.3
			c-0.38,4.76-1.34,9.41-2.73,13.97c-1.46,4.83-3.43,9.46-5.79,13.92c-0.58,1.09-1.2,2.16-1.8,3.24
			C278.66,198.09,278.55,198.23,278.37,198.49z"/>
	</g>
</g>
<rect x="4.76" y="731.35" class="st0" width="354.2" height="68.34"/>
<text transform="matrix(1 0 0 1 22.7056 743.3469)"><tspan x="0" y="0" class="st1 st2 st3">APPROVED OF IDENTITY CARDS FOR THOSE </tspan><tspan x="-7.93" y="26" class="st1 st2 st3">WHO TEST POSITIVE FOR ANTIBODIES TO THE </tspan><tspan x="64.39" y="52" class="st1 st2 st3">VIRUS THAT CAUSES AIDS</tspan></text>
<g>
	<path class="st1" d="M145.3,703.15c1.87-4.48,3.43-8.36,4.71-11.65h1.23l5.38,2.71c-0.59,1.13-1.6,3.05-3.04,5.75
		c-1.44,2.71-2.81,5.27-4.1,7.68l-0.76,1.44l-1.63,2.39l6.59-0.49l0.65-6.15h4.83v5.76l3.72-0.27v4.37h-3.72v5.45h-5.53v-5.45H142.5
		l-1.46-2.14C142.02,710.77,143.44,707.63,145.3,703.15z"/>
	<path class="st1" d="M167.11,699.88c-0.67-1.04-1.01-2.3-1.01-3.77c0-1.38,0.38-2.57,1.15-3.58c0.77-1.01,1.83-1.79,3.17-2.32
		c1.34-0.53,2.86-0.8,4.56-0.8c1.77,0,3.27,0.25,4.5,0.74c1.23,0.5,2.15,1.17,2.77,2.02s0.93,1.81,0.93,2.88
		c0,1.19-0.37,2.25-1.1,3.18s-1.82,1.69-3.25,2.26c1.16,0.64,2.16,1.29,3,1.95c0.84,0.66,1.52,1.45,2.04,2.36
		c0.53,0.92,0.79,1.96,0.79,3.14c0,1.38-0.41,2.58-1.24,3.6c-0.82,1.02-2,1.8-3.53,2.35c-1.53,0.55-3.33,0.82-5.4,0.82
		c-1.74,0-3.32-0.22-4.76-0.66c-1.43-0.44-2.58-1.13-3.45-2.07c-0.87-0.94-1.3-2.14-1.3-3.59c0-1.22,0.42-2.34,1.27-3.35
		c0.85-1.01,2.06-1.81,3.64-2.41C168.71,701.85,167.78,700.92,167.11,699.88z M170.63,705.39c-0.29,0.63-0.43,1.32-0.43,2.06
		c0,0.9,0.17,1.7,0.5,2.4s0.82,1.25,1.48,1.65c0.65,0.4,1.44,0.6,2.36,0.6c0.61,0,1.18-0.13,1.72-0.38
		c0.54-0.25,0.97-0.62,1.29-1.09c0.33-0.47,0.49-1.03,0.49-1.68c0-0.65-0.21-1.24-0.63-1.75s-0.95-0.96-1.59-1.34
		c-0.64-0.38-1.5-0.85-2.6-1.4l-1.38-0.7C171.32,704.23,170.91,704.77,170.63,705.39z M177.97,697.71c0.32-0.63,0.47-1.26,0.47-1.9
		c0-1.29-0.29-2.26-0.85-2.93c-0.57-0.67-1.43-1-2.57-1c-0.54,0-1.05,0.11-1.51,0.32c-0.46,0.21-0.84,0.53-1.13,0.96
		s-0.43,0.94-0.43,1.55c0,0.65,0.21,1.25,0.61,1.77c0.41,0.53,0.93,1.01,1.57,1.44c0.64,0.43,1.48,0.92,2.53,1.48
		C177.22,698.9,177.66,698.34,177.97,697.71z"/>
	<path class="st1" d="M188.22,692.91c0.64-1.14,1.51-2,2.63-2.6c1.12-0.6,2.39-0.89,3.82-0.89c2.4,0,4.13,0.67,5.2,2
		c1.06,1.33,1.59,3.12,1.59,5.35c0,1.56-0.32,2.9-0.97,4.03c-0.65,1.13-1.53,1.98-2.66,2.57c-1.12,0.58-2.39,0.88-3.79,0.88
		c-1.46,0-2.7-0.32-3.72-0.97c-1.02-0.65-1.78-1.52-2.29-2.62c-0.51-1.1-0.76-2.33-0.76-3.68
		C187.26,695.4,187.58,694.05,188.22,692.91z M195.95,693.3c-0.24-0.96-0.74-1.45-1.5-1.45c-0.79,0-1.32,0.42-1.59,1.25
		c-0.28,0.83-0.42,2.05-0.42,3.65c0,1.38,0.14,2.58,0.41,3.58c0.27,1,0.78,1.5,1.52,1.5c0.54,0,0.95-0.19,1.24-0.58
		c0.28-0.39,0.47-0.91,0.56-1.57c0.09-0.66,0.14-1.5,0.14-2.52C196.31,695.56,196.19,694.27,195.95,693.3z M211.92,689.42
		l-10.89,25.28h-3.93l10.89-25.28H211.92z M220.31,701.44c1.07,1.38,1.6,3.22,1.6,5.53c0,1.61-0.32,3-0.97,4.17
		c-0.65,1.17-1.53,2.05-2.66,2.65c-1.12,0.61-2.39,0.91-3.79,0.91c-1.46,0-2.7-0.34-3.72-1.01s-1.78-1.58-2.29-2.71
		s-0.76-2.4-0.76-3.79c0-1.62,0.32-3.02,0.95-4.2c0.64-1.18,1.51-2.07,2.63-2.69c1.12-0.62,2.39-0.92,3.82-0.92
		C217.51,699.38,219.24,700.07,220.31,701.44z M216.37,710.88c0.26-0.81,0.39-2.01,0.39-3.6c0-1.64-0.12-2.96-0.36-3.97
		c-0.24-1.01-0.74-1.51-1.5-1.51c-0.79,0-1.32,0.43-1.6,1.29c-0.28,0.86-0.42,2.11-0.42,3.75c0,1.43,0.14,2.66,0.42,3.69
		c0.28,1.03,0.78,1.55,1.51,1.55C215.59,712.09,216.11,711.69,216.37,710.88z"/>
</g>
<g>
	<path class="st1" d="M114.56,454.31c-13.36,0-24.22-10.87-24.22-24.22v-9.69c0-13.36,10.87-24.22,24.22-24.22
		s24.22,10.87,24.22,24.22v9.69C138.79,443.45,127.92,454.31,114.56,454.31z M114.56,405.87c-8.01,0-14.53,6.52-14.53,14.53v9.69
		c0,8.01,6.52,14.53,14.53,14.53s14.53-6.52,14.53-14.53v-9.69C129.1,412.39,122.58,405.87,114.56,405.87z"/>
	<path class="st1" d="M143.63,560.89c-2.68,0-4.84-2.17-4.84-4.84s2.17-4.84,4.84-4.84c8.01,0,14.53-5.65,14.53-12.6v-34.88
		c0-16.56-15.21-30.04-33.91-30.04h-19.38c-18.7,0-33.91,13.47-33.91,30.04v34.88c0,6.95,6.52,12.6,14.53,12.6
		c2.68,0,4.84,2.17,4.84,4.84s-2.17,4.84-4.84,4.84c-13.36,0-24.22-10-24.22-22.28v-34.88c0-21.9,19.56-39.73,43.6-39.73h19.38
		c24.04,0,43.6,17.82,43.6,39.73v34.88C167.85,550.9,156.99,560.89,143.63,560.89z"/>
	<path class="st1" d="M143.63,667.47h-19.38c-2.51,0-4.6-1.91-4.82-4.41l-4.86-53.51l-4.86,53.51c-0.23,2.5-2.32,4.41-4.82,4.41
		H85.5c-2.68,0-4.84-2.17-4.84-4.84V517.29c0-2.68,2.17-4.84,4.84-4.84s4.84,2.17,4.84,4.84v140.49h10.11l9.29-102.17
		c0.23-2.5,2.32-4.41,4.82-4.41s4.6,1.91,4.82,4.41l9.29,102.17h10.11V517.29c0-2.68,2.17-4.84,4.84-4.84s4.84,2.17,4.84,4.84
		v145.34C148.47,665.3,146.31,667.47,143.63,667.47z"/>
	<g>
		<path class="st4" d="M203.52,504.84c0.56,2.48,0.96,4.79,1.62,7.02c1.12,3.78,2.31,7.55,3.66,11.26
			c2.82,7.75,6.39,15.18,10.15,22.51c4.91,9.57,10.24,18.91,15.88,28.08c8.96,14.58,18.42,28.81,29.01,42.27
			c1.02,1.29,2.09,2.54,3.17,3.78c1.08,1.23,2.2,2.43,3.38,3.73c-1.24,0.83-2.46,1.66-3.69,2.47c-3.35,2.21-6.72,4.39-10.05,6.63
			c-0.61,0.41-0.93,0.4-1.41-0.19c-4.95-6.14-10.05-12.16-14.86-18.4c-5.65-7.32-11.16-14.76-16.54-22.28
			c-7.2-10.07-13.96-20.44-19.82-31.36c-2.91-5.42-5.4-11.04-7.19-16.92c-1.19-3.92-2.34-7.87-3.18-11.88
			c-0.76-3.59-1.17-7.27-1.52-10.93c-0.09-0.94,0.58-1.99,1-2.94c1.75-3.96,3.94-7.63,7.33-10.44
			C201.43,506.45,202.44,505.69,203.52,504.84z"/>
		<path class="st4" d="M250.29,505.09c-7.68-7.92-17.24-11.34-28.04-11.32c-10.8,0.01-20.33,3.5-28.15,11.34
			c0.33-1.36,0.64-2.73,0.98-4.09c0.92-3.69,2.06-7.33,2.75-11.06c1.2-6.54,5.37-10.58,10.87-13.58c4.52-2.46,9.44-3.38,14.53-3.21
			c6.4,0.21,12.28,2.02,17.26,6.24c2.08,1.77,3.89,3.81,5.08,6.27c0.6,1.24,0.84,2.66,1.18,4.01c1.2,4.75,2.38,9.5,3.56,14.25
			c0.09,0.34,0.12,0.7,0.18,1.05C250.42,505.02,250.35,505.05,250.29,505.09z"/>
		<path class="st4" d="M207.07,576.99c0.98,1.51,1.87,2.91,2.79,4.29c2.65,3.97,5.29,7.95,7.99,11.89c0.46,0.66,0.41,1.06-0.04,1.66
			c-5.14,6.83-10.18,13.74-15.42,20.5c-4.44,5.72-9.11,11.25-13.65,16.9c-0.59,0.74-1.01,0.76-1.78,0.24
			c-4.19-2.82-8.41-5.58-12.62-8.36c-0.27-0.18-0.54-0.37-0.83-0.57C186.33,609.2,196.66,593.15,207.07,576.99z"/>
		<path class="st4" d="M236.69,565.84c-1.75-3.06-3.44-5.94-5.06-8.85c-2.04-3.66-4.01-7.37-6.04-11.03
			c-0.33-0.6-0.3-1.08-0.01-1.68c2.64-5.61,5.36-11.18,7.83-16.86c2.75-6.33,4.98-12.86,6.35-19.66c0.11-0.54,0.16-1.08,0.25-1.62
			c0.09-0.54,0.19-1.07,0.32-1.74c0.65,0.43,1.26,0.82,1.84,1.22c4.1,2.87,6.89,6.77,9.03,11.25c0.75,1.56,0.57,3.06,0.44,4.63
			c-0.53,6.66-1.88,13.17-3.82,19.56c-2.05,6.76-4.8,13.24-8.1,19.49c-0.81,1.53-1.68,3.03-2.52,4.54
			C237.08,565.28,236.94,565.47,236.69,565.84z"/>
	</g>
	<path class="st1" d="M236.2,459.45h-28.5c-1.75,0-3.17-1.42-3.17-3.17v-59.64c0-1.75,1.42-3.17,3.17-3.17h28.5
		c1.75,0,3.17,1.42,3.17,3.17v59.64C239.37,458.03,237.95,459.45,236.2,459.45z M210.87,453.11h22.17V399.8h-22.17V453.11z"/>
	<circle class="st1" cx="221.95" cy="439.65" r="5.28"/>
	<g>
		<path class="st1" d="M141.46,461.1c2.18,0.75,4.31,1.61,6.33,2.62V450.2c0-5.09,4.08-9.22,9.09-9.22h51.87v-6.33h-51.87
			c-8.51,0-15.43,6.98-15.43,15.56V461.1z"/>
		<path class="st1" d="M287.02,434.64h-53.98v6.33h53.98c5.02,0,9.09,4.14,9.09,9.22v197.89c0,5.12-4.08,9.29-9.09,9.29H156.89
			c-0.9,0-1.76-0.18-2.58-0.43v5.68c0,0.28-0.06,0.54-0.08,0.81c0.87,0.15,1.75,0.27,2.66,0.27h130.13
			c8.51,0,15.43-7.01,15.43-15.62V450.2C302.44,441.62,295.52,434.64,287.02,434.64z"/>
	</g>
</g>
<rect x="18.72" y="1138.75" class="st0" width="326.27" height="16.34"/>
<text transform="matrix(1 0 0 1 49.9527 1150.6655)" class="st1 st2 st3">FAVORED TATTOOING AIDS VICTIMS</text>
<g>
	<path class="st1" d="M149.72,1119.2v-12.5c-0.41,0.1-1.09,0.23-2.03,0.38c-0.95,0.15-1.61,0.23-2,0.23l-0.43-3.05
		c1.33-0.24,2.75-0.72,4.25-1.43s2.68-1.42,3.52-2.14h0.02l3.6,0.43v18.06l3.39,0.43v2.49H146v-2.49L149.72,1119.2z"/>
	<path class="st1" d="M169.38,1123.59c1.22-0.62,2.19-1.43,2.89-2.45c0.7-1.02,1.05-2.1,1.05-3.25c0-1.41-0.36-2.39-1.09-2.95
		c-0.73-0.56-1.8-0.84-3.21-0.84c-0.74,0-1.53,0.09-2.37,0.27c-0.84,0.18-1.54,0.38-2.09,0.61l-1.41-0.98l1.59-12.93h11.7l0.33-0.65
		h2.66l-0.86,5.28h-9.73l-1.23,5.88c0.09-0.04,0.41-0.2,0.97-0.46c0.56-0.26,1.24-0.48,2.05-0.66s1.62-0.27,2.44-0.27
		c2.49,0,4.35,0.58,5.58,1.74s1.84,2.75,1.84,4.76c0,2.21-0.64,4.14-1.93,5.79c-1.29,1.64-3.05,2.9-5.28,3.78
		c-2.23,0.87-4.73,1.31-7.5,1.31c-0.92,0-1.71-0.08-2.37-0.23l0.02-2.89c0.56,0.04,1.21,0.07,1.93,0.07
		C166.82,1124.52,168.16,1124.21,169.38,1123.59z"/>
	<path class="st1" d="M184.52,1100.32c0.64-1.14,1.51-2,2.63-2.6c1.12-0.6,2.39-0.89,3.82-0.89c2.4,0,4.13,0.67,5.2,2
		c1.06,1.33,1.59,3.12,1.59,5.35c0,1.56-0.32,2.9-0.97,4.03c-0.65,1.13-1.53,1.98-2.66,2.57c-1.12,0.58-2.39,0.88-3.79,0.88
		c-1.46,0-2.7-0.32-3.72-0.97c-1.02-0.65-1.78-1.52-2.29-2.62c-0.51-1.1-0.76-2.33-0.76-3.68
		C183.57,1102.81,183.89,1101.46,184.52,1100.32z M192.26,1100.71c-0.24-0.96-0.74-1.45-1.5-1.45c-0.79,0-1.32,0.42-1.59,1.25
		c-0.28,0.83-0.42,2.05-0.42,3.65c0,1.38,0.14,2.58,0.41,3.58c0.27,1,0.78,1.5,1.52,1.5c0.54,0,0.95-0.19,1.24-0.58
		c0.28-0.39,0.47-0.91,0.56-1.57c0.09-0.66,0.14-1.5,0.14-2.52C192.62,1102.97,192.5,1101.68,192.26,1100.71z M208.22,1096.82
		l-10.89,25.28h-3.93l10.89-25.28H208.22z M216.62,1108.85c1.07,1.38,1.6,3.22,1.6,5.53c0,1.61-0.32,3-0.97,4.17
		c-0.65,1.17-1.53,2.05-2.66,2.65c-1.12,0.61-2.39,0.91-3.79,0.91c-1.46,0-2.7-0.34-3.72-1.01s-1.78-1.58-2.29-2.71
		s-0.76-2.4-0.76-3.79c0-1.62,0.32-3.02,0.95-4.2c0.64-1.18,1.51-2.07,2.63-2.69c1.12-0.62,2.39-0.92,3.82-0.92
		C213.82,1106.79,215.55,1107.47,216.62,1108.85z M212.68,1118.29c0.26-0.81,0.39-2.01,0.39-3.6c0-1.64-0.12-2.96-0.36-3.97
		c-0.24-1.01-0.74-1.51-1.5-1.51c-0.79,0-1.32,0.43-1.6,1.29c-0.28,0.86-0.42,2.11-0.42,3.75c0,1.43,0.14,2.66,0.42,3.69
		c0.28,1.03,0.78,1.55,1.51,1.55C211.9,1119.5,212.42,1119.1,212.68,1118.29z"/>
</g>
<g>
	<g>
		<path class="st4" d="M141.82,1007.72c-0.72,1.14-1.43,2.15-2.02,3.24c-1,1.84-1.96,3.69-2.85,5.59
			c-1.85,3.96-3.29,8.08-4.63,12.23c-1.75,5.43-3.25,10.92-4.57,16.46c-2.1,8.82-3.89,17.69-4.97,26.7c-0.1,0.86-0.17,1.73-0.23,2.6
			c-0.06,0.86-0.09,1.73-0.13,2.66c-0.78-0.15-1.54-0.3-2.31-0.45c-2.08-0.43-4.16-0.87-6.25-1.28c-0.38-0.08-0.5-0.2-0.45-0.6
			c0.45-4.15,0.79-8.32,1.32-12.46c0.63-4.86,1.35-9.71,2.15-14.54c1.07-6.47,2.42-12.88,4.32-19.17c0.94-3.12,2.11-6.16,3.64-9.03
			c1.02-1.92,2.07-3.82,3.26-5.64c1.06-1.63,2.28-3.16,3.52-4.66c0.32-0.39,0.96-0.53,1.48-0.73c2.14-0.83,4.33-1.38,6.65-1.17
			C140.44,1007.54,141.11,1007.64,141.82,1007.72z"/>
		<path class="st4" d="M159.25,1025.33c0.09-5.84-2.21-10.7-6.26-14.74c-4.05-4.04-8.92-6.3-14.79-6.29
			c0.63-0.39,1.26-0.78,1.9-1.16c1.73-1.03,3.52-1.97,5.17-3.11c2.9-2,5.98-1.95,9.16-1.01c2.61,0.77,4.8,2.27,6.65,4.24
			c2.32,2.48,3.84,5.36,4.13,8.8c0.12,1.44,0.03,2.88-0.44,4.25c-0.24,0.69-0.68,1.31-1.06,1.94c-1.33,2.23-2.67,4.45-4,6.67
			c-0.1,0.16-0.22,0.31-0.33,0.46C159.33,1025.35,159.29,1025.34,159.25,1025.33z"/>
		<path class="st4" d="M116.13,1036.08c-0.2,0.93-0.39,1.79-0.56,2.65c-0.5,2.48-1,4.96-1.46,7.45c-0.08,0.42-0.24,0.55-0.64,0.61
			c-4.48,0.63-8.96,1.33-13.45,1.9c-3.8,0.48-7.63,0.8-11.44,1.22c-0.5,0.05-0.66-0.1-0.76-0.58c-0.51-2.62-1.06-5.24-1.6-7.86
			c-0.03-0.17-0.06-0.34-0.1-0.52C96.3,1040.37,106.18,1038.23,116.13,1036.08z"/>
		<path class="st4" d="M131.4,1042.99c0.49-1.8,0.94-3.51,1.42-5.21c0.61-2.14,1.26-4.26,1.87-6.39c0.1-0.35,0.29-0.51,0.63-0.63
			c3.09-1.11,6.19-2.18,9.24-3.38c3.4-1.34,6.68-2.95,9.74-4.98c0.24-0.16,0.47-0.34,0.7-0.51c0.23-0.17,0.47-0.33,0.77-0.53
			c0.08,0.41,0.16,0.78,0.23,1.15c0.46,2.61,0.05,5.12-0.83,7.59c-0.31,0.86-0.94,1.36-1.57,1.9c-2.69,2.3-5.64,4.23-8.76,5.9
			c-3.3,1.76-6.76,3.16-10.33,4.26c-0.88,0.27-1.76,0.51-2.64,0.75C131.76,1042.93,131.63,1042.95,131.4,1042.99z"/>
	</g>
	<g>
		<g>
			<path class="st1" d="M134.15,1083.76c-0.93,0-1.87-0.36-2.58-1.07c-1.42-1.42-1.42-3.73,0-5.16l53.55-53.55
				c3.95-3.95,9.88-5.48,15.47-3.99c6.62,1.76,17.88-3.25,23.53-8.9l73.41-73.48c1.68-1.69,2.61-3.93,2.59-6.31
				c-0.01-2.38-0.96-4.62-2.66-6.28c-3.46-3.39-9.05-3.36-12.47,0.06l-28.69,28.69c-1.43,1.42-3.73,1.42-5.16,0
				c-1.42-1.42-1.42-3.73,0-5.16l28.69-28.69c6.24-6.24,16.44-6.29,22.74-0.11c3.1,3.04,4.82,7.11,4.85,11.45
				c0.02,4.34-1.66,8.43-4.73,11.5l-73.41,73.48c-6.05,6.05-16.74,11.38-25.73,11.38c-1.69,0-3.31-0.19-4.83-0.59
				c-3.14-0.83-6.29-0.05-8.44,2.1l-53.55,53.55C136.01,1083.41,135.08,1083.76,134.15,1083.76z"/>
			<path class="st1" d="M253.72,954.85c-0.93,0-1.87-0.36-2.58-1.07c-1.42-1.42-1.42-3.73,0-5.16l45.39-45.39
				c1.88-1.88,2.92-4.38,2.92-7.04c0-2.66-1.04-5.16-2.92-7.04c-3.88-3.88-10.19-3.88-14.07,0l-45.4,45.4
				c-1.42,1.42-3.73,1.42-5.16,0c-1.42-1.42-1.42-3.73,0-5.16l45.4-45.4c6.72-6.72,17.66-6.72,24.39-0.01
				c3.26,3.26,5.06,7.59,5.06,12.2c0,4.61-1.79,8.94-5.05,12.2l-45.39,45.39C255.59,954.49,254.65,954.85,253.72,954.85z"/>
			<path class="st1" d="M234.48,935.62c-0.93,0-1.87-0.36-2.58-1.07c-1.42-1.42-1.42-3.73,0-5.16l55.96-55.96
				c1.81-1.81,2.8-4.21,2.8-6.76c0-2.55-1-4.96-2.8-6.76c-3.73-3.72-9.79-3.72-13.52,0l-55.97,55.97c-1.43,1.42-3.73,1.42-5.16,0
				c-1.42-1.42-1.42-3.73,0-5.16l55.97-55.97c6.57-6.57,17.26-6.57,23.83-0.01c3.19,3.18,4.94,7.42,4.94,11.92
				c0,4.5-1.75,8.74-4.94,11.92l-55.96,55.96C236.34,935.27,235.41,935.62,234.48,935.62z"/>
			<path class="st1" d="M69.89,1045.79c-0.93,0-1.87-0.36-2.58-1.07c-1.42-1.42-1.42-3.73,0-5.16l68.24-68.24
				c1.21-1.21,2.02-2.79,2.37-4.52c-0.07-0.29-0.1-0.59-0.09-0.9c0-0.01,0-0.02,0-0.03c0-0.12,0-0.28,0.01-0.51
				c0-0.49,0.01-1.22,0.03-2.27c-1.25-8.49,0.67-48.86,0.94-54.3c-0.08-2.45,0.49-4.88,1.65-7.06l12.59-34.21
				c2.84-7.86,11.59-12.05,19.52-9.31c3.83,1.33,6.93,4.12,8.72,7.87c1.83,3.82,2.06,8.27,0.63,12.22
				c-1.17,3.24-3.72,10.12-5.98,16.18c-1.88,5.07-3.66,9.85-4.34,11.72c-0.16,0.43-0.13,0.92,0.08,1.34l2.13,4.2l65.95-66.02
				c3.25-3.26,7.58-5.05,12.19-5.05c0,0,0.01,0,0.01,0c4.6,0,8.93,1.79,12.18,5.04c3.26,3.26,5.05,7.59,5.06,12.19
				c0,4.61-1.79,8.94-5.05,12.19l-45.78,45.78c-1.42,1.42-3.73,1.42-5.16,0c-1.42-1.42-1.42-3.73,0-5.16l45.78-45.78
				c1.88-1.88,2.91-4.38,2.91-7.04c0-2.66-1.04-5.16-2.92-7.03c-1.88-1.88-4.37-2.91-7.03-2.91c0,0,0,0,0,0
				c-2.66,0-5.15,1.04-7.03,2.92l-69.51,69.58c-0.83,0.83-2,1.21-3.15,1.02c-1.15-0.18-2.15-0.91-2.68-1.95l-4.41-8.69
				c-1.12-2.2-1.28-4.79-0.44-7.11c0.69-1.91,2.47-6.71,4.36-11.79c2.25-6.05,4.8-12.9,5.95-16.11c0.77-2.12,0.64-4.53-0.35-6.6
				c-0.94-1.97-2.55-3.44-4.53-4.12c-4.17-1.44-8.78,0.76-10.28,4.92l-12.69,34.49c-0.07,0.18-0.15,0.36-0.25,0.53
				c-0.62,1.1-0.92,2.35-0.86,3.6c0.01,0.12,0.01,0.23,0,0.35c-0.88,17.95-1.87,46.11-1.08,52.6c0.04,0.09,0.07,0.18,0.1,0.28
				c0.06,0.2,0.11,0.4,0.14,0.61c0.71,5.21-0.99,10.45-4.54,14l-68.24,68.24C71.76,1045.43,70.83,1045.79,69.89,1045.79z"/>
			<path class="st1" d="M191.49,992.11c-0.71,0-1.44-0.21-2.07-0.65c-1.66-1.14-2.07-3.42-0.93-5.07
				c16.1-23.32,1.65-40.58-9.95-54.46c-3.93-4.69-7.32-8.75-9.03-12.56c-0.83-1.84-0.01-4,1.83-4.82c1.84-0.83,4-0.01,4.82,1.83
				c1.3,2.89,4.39,6.59,7.97,10.87c11.79,14.09,29.61,35.39,10.36,63.28C193.78,991.56,192.64,992.11,191.49,992.11z"/>
		</g>
	</g>
</g>
<rect x="150.86" y="1194.99" class="st4" width="62" height="4"/>
</svg>
