<?xml version="1.0" encoding="utf-8"?>
<!-- Generator: Adobe Illustrator 24.2.3, SVG Export Plug-In . SVG Version: 6.00 Build 0)  -->
<svg version="1.1" id="Layer_1" xmlns="http://www.w3.org/2000/svg" xmlns:xlink="http://www.w3.org/1999/xlink" x="0px" y="0px"
	 viewBox="0 0 600 800" style="enable-background:new 0 0 600 800;" xml:space="preserve">
<style type="text/css">
	.st0{fill:none;stroke:#878787;stroke-width:2.33;stroke-miterlimit:10;}
	.st1{fill:#878787;}
	.st2{font-family:Roboto;font-weight:400;}
	.st3{font-size:13px;}
</style>
<g id="August">
	<path class="st0" d="M141.81,504.43c0,0,19.95,1.33,38.13-6.21s28.38-16.85,35.03-21.73s14.19-9.31,20.4-1.77
		s5.76,13.3,12.86,15.96c7.09,2.66,11.97-3.1,16.41,5.32s4.88,19.07-3.99,26.16c-8.87,7.09-27.49,9.31-37.24,12.86
		s-14.63,7.09-19.95,13.75c-5.32,6.65-7.54,15.52-20.84,18.62s-27.05-0.89-27.05-0.89"/>
	<path class="st0" d="M30.97,625.92c0,0,13.3,6.21,24.83,3.1c11.53-3.1,12.86-10.64,10.2-15.52c-2.66-4.88-19.95-10.2-19.95-10.2"/>
	<text transform="matrix(1 0 0 1 114.1274 514.2158)" class="st1 st2 st3">AUG</text>
	<text transform="matrix(1 0 0 1 207.239 518.8711)" class="st1 st2 st3">AUG</text>
	<text transform="matrix(1 0 0 1 128.0942 570.0825)" class="st1 st2 st3">AUG</text>
	<text transform="matrix(1 0 0 1 17.6906 607.3271)" class="st1 st2 st3">AUG</text>
</g>
</svg>
