<?xml version="1.0" encoding="utf-8"?>
<!-- Generator: Adobe Illustrator 24.2.3, SVG Export Plug-In . SVG Version: 6.00 Build 0)  -->
<svg version="1.1" xmlns="http://www.w3.org/2000/svg" xmlns:xlink="http://www.w3.org/1999/xlink" x="0px" y="0px"
	 viewBox="0 0 600 800" style="enable-background:new 0 0 600 800;" xml:space="preserve">
<style type="text/css">
	.st0{fill:#242424;}
	.st1{fill:none;stroke:#686868;stroke-width:0.5;stroke-linecap:round;stroke-linejoin:round;stroke-miterlimit:10;}
	.st2{fill:none;}
	.st3{fill:#FFFFFF;}
	.st4{font-family:Merriweather;font-weight:900;}
	.st5{font-size:16px;}
	.st6{fill:#FFFDFD;}
	.st7{font-family:Roboto;font-weight:400}
	.st8{font-size:13px;}
</style>
<g id="Layer_7">
	<rect y="-0.5" class="st0" width="600" height="800"/>
</g>
<g id="Countries">
	<path class="st1" d="M89.83,602.36c-2.49-2-1.5-1.83-2.16-4.99c-0.67-3.16-5.49-2-8.81-1c-3.33,1-4.32-1.5-7.81-1.66
		s-5.15-1-5.65-2.49c-0.5-1.5,1.66-0.17,3.16-1.83c1.5-1.66-2.16-1.83-7.15-1.5c-1.56,0.1-2.98,0.35-4.21,0.65
		c-0.32,1.21-0.39,2.45-0.53,3.09c-0.25,1.16-2.33,4.66-2.83,6.98c-0.5,2.33-0.08,9.23-0.08,10.23s-0.42,1.75-1.91,3.66
		c-1.5,1.91-3.57,9.23-5.49,12.39c-1.91,3.16-5.49,5.15-6.9,8.31c-1.41,3.16-4.57,5.49-4.9,5.74c-0.33,0.25,0.08,5.4,1,8.15
		s5.65,4.66,5.65,4.66s-0.42,1.66-0.75,4.07c-0.33,2.41-1.33,5.49-2.58,6.82c-1.25,1.33-0.5,2.91,0,3.99
		c0.5,1.08-2.08,3.41-3.82,4.66c-1.75,1.25-2.33,3.57-1.75,4.49c0.58,0.91,4.16,0.83,5.9,0.91s7.4,3.33,9.39,3.74
		c2,0.42,7.98-0.75,9.39-1.25c0.2-0.07,0.46-0.11,0.75-0.12c-0.73-1.92-1.41-4.35-1.16-6.37c0.5-3.99,3.99-5.82,5.49-6.98
		c1.5-1.16,2.83-0.33,5.15-2.16c2.33-1.83,1-3.99,1-3.99s-1.66,1-3.49,0.67c-1.83-0.33-2-2.99-0.67-5.99
		c1.33-2.99,4.49-3.99,5.82-7.15c1.33-3.16-2.66-4.49-2.83-6.15c-0.17-1.66,0.17-3.49-0.83-4.82c-1-1.33-0.17-1.5,5.15-1.33
		c5.32,0.17,3.49-2,4.16-5.65c0.67-3.66,1-4.32,3.66-8.15c2.66-3.82,0.83-7.98,1.66-10.31c0.83-2.33,6.32-2.49,8.48-3.66
		C91.49,606.85,92.32,604.36,89.83,602.36z"/>
	<path class="st1" d="M203.39,605.02c0,0-0.33-1.83-1.16-2.99c-0.72-1.01-2.59-0.01-4.04-0.06c0.02,0.15,0.02,0.3,0.05,0.46
		c0.19,1.03,0.78,2.37,1.83,2.68c1.1,0.32,2.32,0.41,3.43,0.11C203.43,605.1,203.39,605.02,203.39,605.02z"/>
	<path class="st1" d="M222.01,607.35c-0.54-1.08-1.15-1.07-1.51-0.93l-0.32,0.19c0,0-1,0.91-3.49,1.75
		c-2.49,0.83-5.32-0.17-6.32-1.66c-1-1.5-1.33,0.83-3.82,0.33c-1.96-0.39-2.78-1.39-3.05-1.8l0,0c-1.12,0.3-2.34,0.21-3.43-0.11
		c-1.05-0.31-1.64-1.65-1.83-2.68c-0.03-0.16-0.03-0.31-0.05-0.46c-0.21-0.01-0.42-0.04-0.61-0.1c-1.5-0.5-3.33-3.99-5.99-4.32
		c-2.66-0.33-2,0-3.82,1.33c-1.83,1.33-8.65-0.17-10.14-2c-1.5-1.83-2.66-1.16-3.82-1c-1.16,0.17-2.16-0.33-2.83-2
		c-0.67-1.66-3.33-1.66-6.48-3.16s-2.66-2.66-2.66-2.66s0,0,0.67-1.66c0.67-1.66-3.82-1.5-3.82-1.5s0,0-2.83-0.17
		s-5.82-2.49-8.81-3.66c-2.99-1.16-6.32-1-8.65-1.83c-2.33-0.83-4.57-1.75-7.9-1.91c-3.33-0.17-12.39-1.66-17.29-3.49
		c-4.91-1.83-6.15-3.91-6.82-4.82c-0.67-0.91-2.74-0.17-4.9,0.08s-13.14-2.08-14.96-2.91s-0.67-0.91-2-2.41
		c-1.33-1.5-4.74-2.58-7.23-2.16c-2.49,0.42-4.32,1.58-5.9,3.49c-1.58,1.91-2.83,0.91-4.49,0.83c-1.66-0.08-6.98,0.42-9.06,2.99
		s0.67,5.65,0.67,6.9c0,1.25,1.16,3.24,1.58,2.49c0.42-0.75,1.83,0.5,1.83,1.66c0,1.16-0.58,1.16-1.75,2.91
		c-1.16,1.75,0.25,2.74-1.5,4.07c-1.53,1.16-1.71,3.5-1.47,2.56c1.23-0.29,2.65-0.54,4.21-0.65c4.99-0.33,8.65-0.17,7.15,1.5
		c-1.5,1.66-3.66,0.33-3.16,1.83c0.5,1.5,2.16,2.33,5.65,2.49s4.49,2.66,7.81,1.66c3.33-1,8.15-2.16,8.81,1
		c0.67,3.16-0.33,2.99,2.16,4.99c2.49,2,1.66,4.49-0.5,5.65c-2.16,1.16-7.65,1.33-8.48,3.66c-0.83,2.33,1,6.48-1.66,10.31
		c-2.66,3.82-2.99,4.49-3.66,8.15c-0.67,3.66,1.16,5.82-4.16,5.65c-5.32-0.17-6.15,0-5.15,1.33c1,1.33,0.67,3.16,0.83,4.82
		c0.17,1.66,4.16,2.99,2.83,6.15c-1.33,3.16-4.49,4.16-5.82,7.15c-1.33,2.99-1.16,5.65,0.67,5.99c1.83,0.33,3.49-0.67,3.49-0.67
		s1.33,2.16-1,3.99c-2.33,1.83-3.66,1-5.15,2.16c-1.5,1.16-4.99,2.99-5.49,6.98c-0.25,2.01,0.43,4.45,1.16,6.37c0,0,0,0,0,0
		c1.75-0.08,4.86,0.82,6.07,1.53c1.41,0.83,7.9,9.56,8.48,10.31c0.58,0.75,0.42,7.73,1.83,9.23c1.41,1.5,4.9,1.75,7.65,0.58
		c2.74-1.16,4.32-0.33,9.06-1.66c4.74-1.33,11.06-2.41,14.71-2c3.66,0.42,15.96,3.08,17.29,3.41c1.33,0.33,1.5,0,2.41-0.91
		s2.49-0.5,3.99,0.33c1.5,0.83,2.91,0.08,3.91-1s7.57-7.07,8.73-7.73c1.16-0.67,7.4-2.83,8.48-2.16c1.08,0.67,3.74,1.08,4.32,0.42
		c0.58-0.67-0.75-1.83-1.25-2.24c-0.5-0.42-0.25-1.75,2.08-5.07c2.33-3.33,8.23-7.57,9.89-8.15c1.66-0.58,4.74-1.75,5.82-2.74
		s0.75-1.41-0.5-2.41c-1.25-1-5.32-3.99-4.49-10.97c0.83-6.98,7.65-13.05,8.98-14.22c1.33-1.16,9.48-7.15,11.31-8.48
		c1.83-1.33,0.42-0.83-0.08-1.33c-0.5-0.5-1.33-1.41,1.75-3.66c3.08-2.24,14.05-2.66,14.96-2.83s4.07-1.58,4.9-2.99
		c0.83-1.41,7.57-3.33,9.56-3.99c2-0.67,4.24-3.74,4.32-5.74s-1.91-2.41-1.25-2.91c0.67-0.5,2.41-0.83,2.49-2.08
		S222.84,609.02,222.01,607.35z"/>
	<path class="st1" d="M286.69,490.63c-2.33-0.83-8.98-0.83-11.81-2.49c-2.83-1.66-2.16-4.41-2.16-4.41s-0.91-0.33-2.66-0.25
		c-1.75,0.08-4.16-0.58-4.16-0.58s-1,0.25-2.58,0.25c-1.58,0-1.5-0.58-2.49-1.83s-3.82-2.99-4.57-3.74s-4.16-3.49-4.82-3.57
		s-4.16,0.08-5.74,0s-0.91-0.75-0.58-1.83c0.33-1.08,1.25-1.41,1.58-2.58c0.33-1.16-1.5-1.08-2.99-2.91
		c-1.5-1.83-8.23-4.66-8.23-4.66s0.08-3.74,0.08-3.99c0-0.25-1.83,1-3.24,1.08c-1.41,0.08-3.08-1.25-3.24-2.74
		c-0.17-1.5,0.42-3.82,0.42-3.82s-6.32-0.17-10.31,0.5s-2.49,7.15-2.16,9.14c0.33,2-0.33,4.32-4.16,6.48
		c-3.82,2.16-8.15,2.16-10.14,2.49c-2,0.33-0.83,1.5-2.49,1.83c-1.66,0.33-1.66-0.17-2.33,1.5c-0.67,1.66-2.33,1.66-2.33,4.66
		s-2.83,1.33-4.66,0c-1.83-1.33-4.82-1.66-6.82-1.83s-3.33-2-2.33-2.66s1-3.33-0.5-3.49c-1.5-0.17-2.16,1.16-4.16,0.33
		s-3.16-2.66-4.82-1c-1.66,1.66,2,6.32,3.33,11.31c1.33,4.99-1,6.32-3.99,6.48c-2.99,0.17-7.15-1.16-8.65-0.5
		c-1.5,0.67-1,1.66-2.49,1c-1.5-0.67-0.83-2.16-1.5-4.49c-0.67-2.33-2.83-1.66-7.15-0.83c-4.32,0.83-8.65,0-12.3,0
		c-3.66,0-4.66,3.49-3.99,3.99c0.67,0.5,4.32-0.33,4.99,2.16c0.67,2.49-5.82,2.66-6.65,3.33c-0.83,0.67,2,3.49,3.66,5.15
		c1.66,1.66,3.16-0.33,4.16-1s2.33,2,3.66,2c1.33,0,5.32,1.16,5.82,2.66c0.5,1.5,3.33,3.82,4.49,3.82c1.16,0,3.16,2.33,3.82,3.99
		c0.67,1.66,2,2.33,3.16,3.16c1.16,0.83,3.16,2.99,0.67,5.32c-2.49,2.33,2.16,4.16,2.49,6.15c0.33,2,2.33,3.49,4.32,6.65
		c2,3.16,2.49,5.15,1.83,5.82c-0.67,0.67-1.5,4.16-1.16,5.32c0.33,1.16,4.82,4.16,6.15,5.65c1.33,1.5-1.5,2.49-2.33,1.66
		s-2.66-2.83-4.16-2c-1.5,0.83-1,6.98-1.33,8.15c-0.33,1.16-1,7.48-1.16,8.31c-0.17,0.83-2.66,2.16-2.99,6.15
		c-0.33,3.99-6.32,14.96-6.32,14.96s4.49-0.17,3.82,1.5c-0.67,1.66-0.67,1.66-0.67,1.66s-0.5,1.16,2.66,2.66s5.82,1.5,6.48,3.16
		c0.67,1.66,1.66,2.16,2.83,2c1.16-0.17,2.33-0.83,3.82,1c1.5,1.83,8.31,3.33,10.14,2c1.83-1.33,1.16-1.66,3.82-1.33
		c2.66,0.33,4.49,3.82,5.99,4.32c1.5,0.5,3.82-1,4.66,0.17s1.16,2.99,1.16,2.99s0.67,1.5,3.16,2c2.49,0.5,2.83-1.83,3.82-0.33
		c1,1.5,3.82,2.49,6.32,1.66c2.49-0.83,3.49-1.75,3.49-1.75s-0.17-1.5,0.25-3.57c0.42-2.08,1.5-4.49,2.33-6.07
		c0.83-1.58,1.91-2.83,3.66-3.16c1.75-0.33,2.16-0.17,3.74-1.5c1.58-1.33,2.41-2.24,3.99-3.08c1.58-0.83,1.91,0.83,2.74,1.91
		c0.83,1.08,3.33,0.17,3.91,0.25c0.58,0.08,1.16,1.58,2.24,1.83c1.08,0.25,4.16,0.17,7.07,0.5c2.91,0.33,8.4,5.57,9.56,6.4
		s6.4-0.25,6.98-1.16c0.58-0.91,7.9-5.99,10.97-7.98s3.49-4.32,3.49-4.32s-0.75-0.91,0.25-1.91s3.49-2.16,2.66-3.66
		c-0.83-1.5-2.66,0.33-5.15-0.33c-2.49-0.67-3.82-2.16-5.82-4.49c-2-2.33,1.5-4.32,2.83-5.49s1-3.16-0.33-2.66
		c-1.33,0.5-3.82-1.33-4.66-2.99s-0.33-2.83,1.83-2.49c2.16,0.33,4.49-1,5.49-3.99s-3.33-4.32-4.49-6.32
		c-1.16-2,2.33-4.32,2.33-4.32s-2.16-6.65-2.49-8.98c-0.33-2.33-2.16-1.66-3.99-1s-3.33,5.99-4.82,5.49c-1.5-0.5-0.5-5.49,2.16-9.81
		c2.66-4.32,10.64-9.48,11.47-10.48c0.83-1-1.16-1.16-1.5-2.16s0.83-2.99,3.33-1.16c2.49,1.83,4.99-1.83,4.99-1.83s0-2.49-0.33-3.66
		c-0.33-1.16-0.17-4.16,1.16-6.48c1.33-2.33,1.83-6.82,2.33-8.81c0.5-2,2.49-1.5,3.33-3.82
		C292.51,492.96,289.02,491.46,286.69,490.63z"/>
	<path class="st1" d="M283.03,423.96c2.44-4.21,0.67-5.54-1.11-7.09c-1.77-1.55-0.72-3.05-0.72-3.05s-6.65-1.83-9.48-1.83
		s-4.16,1.5-6.82,3.66c-2.66,2.16-2.66,3.99-1,6.82s1.83,3.82-0.17,6.82s-3.66,1.16-4.16-0.17c-0.5-1.33,0.83-5.99,0.5-7.98
		c-0.33-2-2.83-2.49-4.49,0.33c-1.66,2.83-1.66,8.48-3.16,10.81c-1.5,2.33-8.98,9.14-9.98,11.81c-0.57,1.53-1.1,2.12-2.25,2.54
		c0.78,1.03,1.91,1.93,2.68,2.45c0.31,0.21,0.82,0.34,1.07,0.61c0.22,0.23,0.13,0.68,0.36,0.89c0.63,0.6,1.27,0.51,2.05,0.11
		c1.58-0.82,3.16-2.66,4.96-3c2.05-0.38,4.55,1.31,6.29,2.13c1.2,0.57,2.56,1.39,3.83,1.75c1.36,0.39,2.31,0.04,3.12,1.38
		c0.44,0.74,0.74,1.78,0.73,2.7c-0.01,1.01-1,2.42-0.67,3.35c0.38,1.08,1.75,0.75,2.66,0.78c0.49,0.01,0.93,0.09,1.37,0.18
		c-0.1-0.71-0.23-1.47-0.47-2.29c-0.67-2.22,1.77-4.43,3.33-9.98c1.55-5.54-2-3.55-2.22-5.99c-0.22-2.44,2.88-0.44,5.76-0.89
		c2.88-0.44,5.99-4.88,6.65-8.2c0.67-3.33-4.43-2.44-3.99-3.99C278.15,427.06,280.59,428.17,283.03,423.96z"/>
	<path class="st1" d="M269.51,463.2c-0.56-0.98-0.68-2.05-0.86-3.26c-0.43-0.09-0.88-0.17-1.37-0.18c-0.91-0.02-2.28,0.3-2.66-0.78
		c-0.33-0.93,0.66-2.34,0.67-3.35c0.01-0.92-0.29-1.95-0.73-2.7c-0.8-1.34-1.75-0.99-3.12-1.38c-1.27-0.36-2.62-1.18-3.83-1.75
		c-1.74-0.82-4.24-2.51-6.29-2.13c-1.8,0.34-3.38,2.17-4.96,3c-0.78,0.4-1.42,0.49-2.05-0.11c-0.23-0.22-0.15-0.66-0.36-0.89
		c-0.25-0.26-0.76-0.4-1.07-0.61c-0.76-0.52-1.9-1.42-2.68-2.45c-0.86,0.31-2.06,0.53-3.9,0.95c-4.32,1-6.82,4.99-6.82,4.99
		s-0.58,2.33-0.42,3.82c0.17,1.5,1.83,2.83,3.24,2.74c1.41-0.08,3.24-1.33,3.24-1.08c0,0.25-0.08,3.99-0.08,3.99
		s6.73,2.83,8.23,4.66c1.5,1.83,3.33,1.75,2.99,2.91c-0.33,1.16-1.25,1.5-1.58,2.58c-0.33,1.08-1,1.75,0.58,1.83s5.07-0.08,5.74,0
		s4.07,2.83,4.82,3.57s3.57,2.49,4.57,3.74s0.91,1.83,2.49,1.83c1.07,0,1.87-0.11,2.27-0.19c0.03-3.08,0.03-6.57-0.08-8.24
		c-0.22-3.33,1.77-1.77,4.21-4.43C272.17,467.63,270.4,464.75,269.51,463.2z"/>
	<path class="st1" d="M348.54,515.85c1.88,0,1.66,2.77,2.88,2.99s0.67-5.1,0.44-6.54c-0.22-1.44-3.1-0.78-3.66-2
		c-0.55-1.22,2.88-2.66,5.54-4.77c2.66-2.11,2.66-2.77,3.55-4.43s1.33-0.11,3.33-1.11s1-3.55,1-3.55s-12.86-9.53-15.08-12.75
		c-2.22-3.21-2.22-5.99-1.66-7.87s-1.22-0.33-2.99-0.89c-1.77-0.55-0.22-1.55-0.44-2.99c-0.22-1.44-1.33-2-1.33-2s0,0-1.11-0.67
		c-1.11-0.67-4.43,0-6.32-0.44c-1.88-0.44-2.88-1-3.77-2.33c-0.89-1.33-0.55,0.55-1.77,1.33c-1.22,0.78-1.33,0.67-3.77,1.44
		c-2.44,0.78-2.22-0.67-3.33-1.55s-2,2.44-3.44,1.11c-1.44-1.33-1.88-7.09-2.22-9.09c-0.33-2,0.78-1.55,2-3.44s-0.44-1.55-2-2.99
		c-1.55-1.44,0-2.11,4.1-5.32c4.05-3.17,1.55-7.43,1.88-8.76c0.33-1.33,3.1,0.11,4.54-0.11c1.44-0.22,0.67-0.78,0.67-2.11
		c0-1.33-1.44-1.33-1.11-1.77c0.33-0.44,0.67-0.33,1.11-2.33c0.44-2-2.44-4.1-2.88-5.21c-0.44-1.11,0.55-2.22,1.44-2.88
		c0.89-0.67,3.88-0.89,5.43-1c1.55-0.11,1.77-1.77,1.66-2.88c-0.11-1.11-1.22-0.11-2.33-0.11s-3.99-1.55-4.77-3.44s-3.21-1.22-3.1-2
		s1.11-0.78,1.77-1.88c0.67-1.11-0.11-3.21-0.22-4.66c-0.11-1.44-0.22-2.22,1.33-3.1c0.44-0.25,0.79-0.6,1.07-0.97
		c-0.43-0.14-2.21-0.82-2.07-2.13c0.17-1.5,3.16-1.33,3.66-2.83c0.5-1.5-1.11-2.05-1.11-2.05c-1.11-0.78-1.33,0.67-2.22,1.22
		s-8.31-1.88-9.09-2.99c-0.71-1.02-0.77-5.09-0.26-6.2l-17.42,0.05c0.5,2.99,4.16,2,3.66,4.32c-0.5,2.33,1,2.16,0.5,3.49
		c-0.5,1.33,1.33,2.33,2.16,2.83c0.83,0.5-0.83,2.83-0.83,3.33c0,0.5,1,1.83,0.83,3.49c-0.17,1.66-2.33-1-4.32-0.33
		c-2,0.67,0,2.33-1.66,4.66c-1.66,2.33-3.49-0.67-4.66-1.83c-1.16-1.16-3.16-2.66-6.15-1.66c-2.99,1-4.82,5.65-4.82,5.65
		s-1.05,1.5,0.72,3.05c1.77,1.55,3.55,2.88,1.11,7.09c-2.44,4.21-4.88,3.1-5.32,4.66c-0.44,1.55,4.66,0.67,3.99,3.99
		c-0.67,3.33-3.77,7.76-6.65,8.2c-2.88,0.44-5.99-1.55-5.76,0.89c0.22,2.44,3.77,0.44,2.22,5.99c-1.55,5.54-3.99,7.76-3.33,9.98
		c0.25,0.82,0.37,1.58,0.47,2.29c0.18,1.21,0.3,2.28,0.86,3.26c0.89,1.55,2.66,4.43,0.22,7.09c-2.44,2.66-4.43,1.11-4.21,4.43
		c0.11,1.66,0.11,5.16,0.08,8.24c0.19-0.03,0.3-0.06,0.3-0.06s2.41,0.67,4.16,0.58c1.75-0.08,2.66,0.25,2.66,0.25
		s-0.67,2.74,2.16,4.41c2.83,1.66,9.48,1.66,11.81,2.49c2.33,0.83,5.82,2.33,4.99,4.66c-0.83,2.33-2.83,1.83-3.33,3.82
		c-0.5,2-1,6.48-2.33,8.81c-1.33,2.33-1.5,5.32-1.16,6.48c0.33,1.16,0.33,3.66,0.33,3.66s10.03,0.33,10.92-0.11
		c0.89-0.44,2.44-0.22,1.55-0.55c-0.89-0.33-1.88-2.22-0.89-2.88c1-0.67,1.88,0.33,3.88,1.88c2,1.55,3.44,1.22,4.99,1.22
		c1.55,0,2.44,1.88,2.44,1.88s0.22-0.55,1-1.66s3.55-1.22,5.54-0.55c2,0.67,3.99,3.77,5.54,4.43c1.55,0.67,1.11-2.77,1.88-3.21
		c0.78-0.44,3.55-0.44,8.31-0.67S346.66,515.85,348.54,515.85z"/>
	<path class="st1" d="M293.01,373.74c-0.83,2.49-0.33,6.65,1.66,7.65s1.33,5.49,1.83,8.48l17.42-0.05c0.05-0.1,0.1-0.19,0.15-0.23
		c0.67-0.55,0.89-2.33,0.22-3.21c-0.67-0.89-2.66-1.44-4.32-0.55s-2.66,0.11-2.33-1c0.33-1.11,2-1.55,2.77-2.55
		c0.78-1,0.33-3.55,0.55-4.99c0.22-1.44,1.22-3.99,3.33-5.99c2.11-2,1.88-4.1,2.11-5.76c0.22-1.66,2.55-0.33,4.32-0.67
		c1.77-0.33,2.22-3.88,1.66-4.88c-0.55-1-2.99-0.44-4.21-0.33c-1.22,0.11-1.88-1.22-2.22-5.21c-0.33-3.99,1.33-5.99,2.22-8.76
		c0.89-2.77,0.55-7.87-0.78-7.65c-1.33,0.22-3.88,1.55-6.32,2.88c-2.44,1.33-1.55,2.11-1.55,3.88c0,1.77-1.44,1.77-3.77,2
		c-2.33,0.22-6.1,1.33-8.76,3.66c-2.66,2.33-2.44,4.66-0.11,4.21c2.33-0.44,3.88-3.44,5.1-4.32c1.22-0.89,3.99,0.11,3.99,0.11
		c-1,0.22-1,1.44-0.33,3.21c0.67,1.77-0.44,2.88-1.33,2.22c-0.89-0.67-2-0.22-4.43,2c-2.44,2.22-5.76-1.11-5.76-1.11
		s-1.44,2.16-1.61,5.65c-0.17,3.49,2.83,5.15,2.99,6.48S293.84,371.25,293.01,373.74z"/>
	<path class="st1" d="M372.6,451.45c-0.22-2.22-0.67-3.33-2.66-5.32c-2-2-1.77-4.43-2-6.65c-0.22-2.22,1.11-5.76,0-5.99
		c-1.11-0.22-2.44-2-1.77-3.77c0.67-1.77-0.67-2.66-3.1-3.77c-2.44-1.11-2.88-3.77-2.88-3.77s1.33-0.89,2.66-3.99
		c1.33-3.1,0.44-4.43-1.11-7.09s-0.39-5.43-0.39-5.43s-1-0.83-2.16-2.66s-3.99-1.83-5.99-1.83s-3.49-0.5-2.99-1.16
		c0.5-0.67,2.66-2,2.49-3.33c-0.17-1.33-1.5-3.66-4.32-3.49s-0.17,1.83,0.83,3.66s-2,1-4.49,0.83c-2.49-0.17-6.82,3.66-8.48,2.83
		c-1.66-0.83-2.83-0.83-4.32,0.17c-1.5,1-0.5,3.16-1.83,3.66c-1.33,0.5-4.99,0.5-4.99,0.5s-0.04-0.01-0.09-0.03l0,0
		c-0.28,0.37-0.63,0.72-1.07,0.97c-1.55,0.89-1.44,1.66-1.33,3.1c0.11,1.44,0.89,3.55,0.22,4.66c-0.67,1.11-1.66,1.11-1.77,1.88
		s2.33,0.11,3.1,2s3.66,3.44,4.77,3.44s2.22-1,2.33,0.11c0.11,1.11-0.11,2.77-1.66,2.88c-1.55,0.11-4.54,0.33-5.43,1
		c-0.89,0.67-1.88,1.77-1.44,2.88c0.44,1.11,3.33,3.21,2.88,5.21c-0.44,2-0.78,1.88-1.11,2.33c-0.33,0.44,1.11,0.44,1.11,1.77
		c0,1.33,0.78,1.88-0.67,2.11c-1.44,0.22-4.21-1.22-4.54,0.11c-0.33,1.33,2.16,5.58-1.88,8.76c-4.1,3.21-5.65,3.88-4.1,5.32
		c1.55,1.44,3.21,1.11,2,2.99s-2.33,1.44-2,3.44c0.33,2,0.78,7.76,2.22,9.09c1.44,1.33,2.33-2,3.44-1.11s0.89,2.33,3.33,1.55
		c2.44-0.78,2.55-0.67,3.77-1.44c1.22-0.78,0.89-2.66,1.77-1.33c0.89,1.33,1.88,1.88,3.77,2.33c1.87,0.44,5.13-0.2,6.28,0.43
		c1.49-1.13,3.26,0.16,4.36,0.79c1.55,0.89,2.66-2,5.54-3.33c2.88-1.33,10.2-4.66,12.86-6.65s4.43-4.88,4.43-4.88
		s1.11,2.44,3.33,3.1c2.22,0.67,3.55-2.66,3.55-2.66S372.82,453.66,372.6,451.45z"/>
	<path class="st1" d="M477.46,453c1.33-2,0.44-3.77-0.89-5.76c-1.33-2-1.77-3.77-2.88-4.88c-1.11-1.11-3.77-2.44-3.77-4.43
		s-0.44-2-2-3.77c-1.55-1.77,0.67-6.65-0.44-9.53s-5.76-0.67-5.32-2.22c0.44-1.55,4.21-3.1,5.99-9.31
		c1.77-6.21-4.88-13.52-6.87-15.96s-0.89-3.77-2.22-7.98c-1.33-4.21-9.53-2.22-12.64-1.33c-3.1,0.89-15.3,2.66-19.51,2.22
		c-2-0.21-3.74-1.02-5.03-1.81c-0.37,0.45-1.47,1.74-3.34,3.47c-2.33,2.16-9.64,0.33-11.81-0.67c-2.16-1-1-4.66-2.83-5.82
		c-1.83-1.16-4.66,0.17-6.48,1.66s-6.82,1.5-7.65,2.66c-0.83,1.16-2.16,2.33-3.49,2c-1.33-0.33-2,0.83-4.99,4.32
		c-2.99,3.49-11.14,5.15-13.97,5.82c-2.83,0.67-5.99,3.99-5.99,3.99s-1.16,2.77,0.39,5.43s2.44,3.99,1.11,7.09
		c-1.33,3.1-2.66,3.99-2.66,3.99s0.44,2.66,2.88,3.77c2.44,1.11,3.77,2,3.1,3.77c-0.67,1.77,0.67,3.55,1.77,3.77
		c1.11,0.22-0.22,3.77,0,5.99c0.22,2.22,0,4.66,2,6.65c2,2,2.44,3.1,2.66,5.32c0.18,1.83,0.36,3.49,0.42,4.02
		c2.26,1.57,4.82,3.27,6.89,4.41c4.88,2.66,6.65,0.89,9.53,1.77s0.22,1.55-1.11,3.1c-1.33,1.55,5.32,6.21,7.09,5.54
		c1.77-0.67,0-2.44,1.11-4.88c1.11-2.44,5.99,0.22,8.42,1.77c2.44,1.55,1.11,5.1,2,4.66c0.89-0.44,2.88-1.11,5.99-0.89
		s2.22,2,4.66,4.66s5.1,4.88,6.87,3.1s2.88-1.77,5.1-0.22c2.22,1.55,4.88,3.55,5.32,2.22c0.44-1.33,2.88-1.11,5.32-2.44
		c2.44-1.33,3.99,2.22,4.88,1.11s1.33-2.88,5.54-3.99c4.21-1.11,7.09,1.77,9.31,3.55c2.22,1.77,6.21,2.66,6.43,0
		c0.22-2.66-2.22-5.99-2.66-8.42c-0.44-2.44,2.88-3.55,5.76-5.99c2.88-2.44,0.44-3.33,2-6.65
		C473.02,454.55,476.13,454.99,477.46,453z"/>
	<path class="st1" d="M464.84,480.57c-1.42,0.24-3.51-0.52-4.9-1.63c-2.22-1.77-5.1-4.66-9.31-3.55c-4.21,1.11-4.66,2.88-5.54,3.99
		s-2.44-2.44-4.88-1.11c-2.44,1.33-4.88,1.11-5.32,2.44c-0.44,1.33-3.1-0.67-5.32-2.22c-2.22-1.55-3.33-1.55-5.1,0.22
		s-4.43-0.44-6.87-3.1s-1.55-4.43-4.66-4.66s-5.1,0.44-5.99,0.89c-0.89,0.44,0.44-3.1-2-4.66c-2.44-1.55-7.32-4.21-8.42-1.77
		c-1.11,2.44,0.67,4.21-1.11,4.88c-1.77,0.67-8.42-3.99-7.09-5.54c1.33-1.55,3.99-2.22,1.11-3.1s-4.66,0.89-9.53-1.77
		c-2.08-1.13-4.64-2.83-6.89-4.41c0.01,0.11,0.02,0.19,0.02,0.19s-1.33,3.33-3.55,2.66c-2.22-0.67-3.33-3.1-3.33-3.1
		s-1.77,2.88-4.43,4.88s-9.98,5.32-12.86,6.65c-2.88,1.33-3.99,4.21-5.54,3.33c-1.1-0.63-2.87-1.92-4.36-0.79
		c0.01,0.01,0.03,0.01,0.04,0.02c1.11,0.67,1.11,0.67,1.11,0.67s1.11,0.55,1.33,2c0.22,1.44-1.33,2.44,0.44,2.99
		c1.77,0.55,3.55-1,2.99,0.89s-0.55,4.66,1.66,7.87c2.22,3.21,15.08,12.75,15.08,12.75s0.02,0.06,0.05,0.16
		c0.66,0.23,1.29,0.6,1.83,1.17c2.33,2.49,5.99,2.83,9.31-0.83c3.33-3.66,4.66-5.99,9.31-4.16c4.66,1.83,7.81,3.49,11.31,3.33
		c3.49-0.17,6.65,1.33,7.81,4.66c1.16,3.33,1.66,6.15,5.82,8.48c4.16,2.33,10.14,2.83,13.3,0.83c3.16-2,1-3.99,3.16-4.49
		c2.16-0.5,6.15-1.16,7.48-3.33c1.33-2.16,5.49-0.83,7.98-2c2.49-1.16,2.49-5.15,3.16-6.65c0.67-1.5,8.81-3.49,10.97-2.49
		c2.16,1,3.33,3.49,6.32,3.16c2.99-0.33,3.33-1.66,3.33-1.66S462.47,484.43,464.84,480.57z"/>
	<path class="st1" d="M318.5,530.7c-1.44,0.67-1.88,1.33-4.21-0.11c-2.33-1.44-1.77-2.77-1.77-2.77s0,0-1.22,0
		c-1.22,0-3.21-0.55-3.55-1.44c-0.33-0.89,2.66-3.44,2.66-3.44s0,0-0.44-2c-0.44-2-1.88-1.44-1.88-1.44s-0.89-1.88-2.44-1.88
		c-1.55,0-2.99,0.33-4.99-1.22c-2-1.55-2.88-2.55-3.88-1.88c-1,0.67,0,2.55,0.89,2.88c0.89,0.33-0.67,0.11-1.55,0.55
		c-0.89,0.44-10.92,0.11-10.92,0.11s-2.49,3.66-4.99,1.83c-2.49-1.83-3.66,0.17-3.33,1.16s2.33,1.16,1.5,2.16
		c-0.83,1-8.81,6.15-11.47,10.48c-2.66,4.32-3.66,9.31-2.16,9.81c1.5,0.5,2.99-4.82,4.82-5.49s3.66-1.33,3.99,1
		c0.33,2.3,2.44,8.8,2.49,8.96c1.12,0.26,2.48,0.54,4,0.79c3.99,0.67,10.09-2.33,10.42-3.1c0.33-0.78-0.67-1.55,0.44-2.11
		s2-4.1,2.44-4.88c0.44-0.78,1.22,2,2.33,4.54c1.11,2.55,2.77,2.11,3.99,3.44c1.22,1.33,0.78,3.44,2.11,4.1
		c1.33,0.67,1.11-0.89,0.89-1.66c-0.22-0.78,0.11-1.66,0.78-4.21c0.67-2.55,1.66-2.11,2.33-3.77c0.67-1.66-1.11-1.33-0.67-2.77
		c0.44-1.44,0.89-0.55,3.55,2.55c2.66,3.1,1.88,2.99,2,2s1.69-3.19,3.21-2c3.55,2.77,4.77,0.33,1.44-1.11
		c-0.63-0.27-0.92-1.63-0.78-2.11c0.55-1.77,1.77-0.78,3.1-0.33c1.33,0.44,2.22-0.44,3.21-1.77c1-1.33-0.33-2.44-0.33-4.21
		S319.94,530.04,318.5,530.7z"/>
	<path class="st1" d="M307.75,526.38c0.33,0.89,2.33,1.44,3.55,1.44c1.22,0,1.22,0,1.22,0s-0.04,0.09-0.05,0.25
		c0.22-0.18,0.42-0.36,0.56-0.54c0.45-0.6,0.24-1.41,0-2.05c-0.29-0.78-0.98-1.65-1.73-2.07c-0.32-0.18-0.67-0.27-1.03-0.33
		C309.67,523.59,307.46,525.61,307.75,526.38z"/>
	<path class="st1" d="M431.43,645.76c-1.66-2.49-6.65-6.9-8.15-7.15c-1.5-0.25-3.57-0.17-4.16-0.75c-0.58-0.58-0.83-2.41-3.41-3.41
		s-5.74-1.75-7.48-2.41s-8.9-2.99-10.48-3.99s-1.5-1.83-1.25-3.82c0.25-2,3.24-2.24,2.91-3.82c-0.33-1.58-3.74-1.83-5.24-1.33
		c-1.5,0.5-6.15,1.83-8.4,1.41c-2.24-0.42-7.23-3.41-9.14-5.82c-1.91-2.41-10.06-9.64-10.39-10.31c-0.33-0.67-0.25-1.33-0.42-3.91
		c-0.17-2.58-2.33-7.65-3.08-9.06c-0.75-1.41-1.25-1-2.49-1.08c-1.25-0.08-1.5-0.33-2.41-1.75c-0.91-1.41-1.91-0.67-3.57-1.41
		s-2.74-1.33-3.99-2.41c-1.25-1.08-3.33-3.82-4.41-5.32s-1.66-4.41-2.16-6.4c-0.5-2,2.49-4.24,2.91-5.57
		c0.42-1.33-0.91-2.33-2.58-3.16s-1.41-2.33-0.91-4.24c0.5-1.91,2.08-2.83,3.99-3.24c1.91-0.42,1.91-0.83,2.58-1.83
		s2.58-0.67,3.16-1.33c0.58-0.67,0.67-1.58,1.5-2.49s2.74-0.08,4.57,0.08s3.16,2.58,3.16,2.58s0.75-0.06,1.64,0.06
		s2.11,0.11,0.44-1.55c-1.66-1.66-1.88-3.66-2.99-5.65s1.66-2.88-0.33-3.99s-2.33-2.66-1.88-3.66c0.44-1,0.44-1,0.44-1
		s-1.55-1.11-4.1-1.22s-10.64-1.55-12.19-4.77c-1.55-3.21,0-3.55-1.66-4.54c-1.66-1-3.66-1.33-6.43,0.11
		c-2.77,1.44-3.44,4.32-7.09,4.99c-2.56,0.46-5.7-0.15-7.37-0.57c0.25,1.41,1.14,2.4,0.27,3.56c-1,1.33-1.88,2.22-3.21,1.77
		c-1.33-0.44-2.55-1.44-3.1,0.33c-0.15,0.48,0.15,1.83,0.78,2.11c3.33,1.44,2.11,3.88-1.44,1.11c-1.53-1.19-3.1,1-3.21,2
		s0.67,1.11-2-2c-2.66-3.1-3.1-3.99-3.55-2.55c-0.44,1.44,1.33,1.11,0.67,2.77c-0.67,1.66-1.66,1.22-2.33,3.77
		c-0.67,2.55-1,3.44-0.78,4.21c0.22,0.78,0.44,2.33-0.89,1.66c-1.33-0.67-0.89-2.77-2.11-4.1c-1.22-1.33-2.88-0.89-3.99-3.44
		c-1.11-2.55-1.88-5.32-2.33-4.54c-0.44,0.78-1.33,4.32-2.44,4.88s-0.11,1.33-0.44,2.11c-0.33,0.78-6.43,3.77-10.42,3.1
		c-1.51-0.25-2.88-0.54-4-0.79c0,0,0,0.01,0,0.01s-3.49,2.33-2.33,4.32c1.16,2,5.49,3.33,4.49,6.32s-3.33,4.32-5.49,3.99
		c-2.16-0.33-2.66,0.83-1.83,2.49s3.33,3.49,4.66,2.99c1.33-0.5,1.66,1.5,0.33,2.66s-4.82,3.16-2.83,5.49
		c2,2.33,3.33,3.82,5.82,4.49c2.49,0.67,4.32-1.16,5.15,0.33c0.83,1.5-1.66,2.66-2.66,3.66s-0.25,1.91-0.25,1.91s1.5,0.17,4.32,0.25
		s3.91-1.58,5.32-3.66c1.41-2.08,3.66-4.99,5.24-6.15c1.58-1.16,5.24-0.42,7.48,1c2.24,1.41,8.23,4.07,9.64,4.66
		c1.41,0.58,4.24,3.41,4.24,4.16s0.42,3.41,1,5.57s2.08,3.91,2.66,5.15c0.58,1.25-0.83,3.16-0.25,3.99c0.58,0.83,5.82,5.82,7.07,6.9
		s0.08,0.91-0.33,2.49c-0.42,1.58,2.08,1.58,2.74,0.33c0.67-1.25,1.83-0.25,2.74,0.67s17.29,17.54,17.96,18.37
		c0.67,0.83,1.83,0.42,2.91,0.08c1.08-0.33,1.83,0.5,2.24,1.91c0.42,1.41,1.75,1.83,2.74,0.5c1-1.33,2.91-0.75,4.9-0.17
		c2,0.58,4.24,1.75,4.57,2.91c0.33,1.16,1.41,3.99,2.83,5.32c1.41,1.33,1.91,0.42,3.82,0.58s2.49,2.24,2.99,2.24
		c0.5,0,2.99-0.5,4.41,0.5c1.41,1,1.66,3.24,1.66,5.15s1.08,2.91,1.75,2.58c0.67-0.33,1.5,0,2.49,1.08s2.08,1.5,3.33,1.41
		c1.25-0.08,3.82,1.58,5.07,2.66c1.25,1.08,0.67,1.75-0.5,2.08c-1.16,0.33,0.42,2.08,1.75,2.83c1.33,0.75,2.58,3.74,2.49,5.49
		c-0.08,1.75,3.24,5.99,3.82,7.57c0.58,1.58-0.75,2.24-3.08,2.24c-2.33,0-1.41,1.25-0.58,2.74c0.83,1.5-1.91,4.32-3.24,5.9
		c-1.33,1.58-0.42,4.57,2.16,5.32c2.58,0.75,4.99-2.08,7.32-5.82c2.33-3.74,3.41-10.48,3.82-11.89c0.42-1.41,2.41-0.91,3.91-1.75
		c1.5-0.83,2.66-3.74,2.16-6.32c-0.5-2.58-1.58-3.57-3.41-3.33c-1.83,0.25-4.24,0.17-4.24-1.66s-2.08-2.08-3.33-3.99
		c-1.25-1.91,0-3.49,0.91-4.41c0.91-0.91,2.16-3.08,3.66-6.57c1.5-3.49,3.82-2.58,4.49-1.25c0.67,1.33,3.99,1.83,6.15,2.33
		c2.16,0.5,4.32,0.33,5.74,1.41c1.41,1.08,3.33,4.99,3.41,5.9s2.08,0.33,3.24-1.41C434.5,650.83,433.09,648.26,431.43,645.76z"/>
	<path class="st1" d="M401.25,500.77c-1.16-3.33-4.32-4.82-7.81-4.66c-3.49,0.17-6.65-1.5-11.31-3.33c-4.66-1.83-5.99,0.5-9.31,4.16
		c-3.33,3.66-6.98,3.33-9.31,0.83c-0.54-0.58-1.17-0.94-1.83-1.17c0.18,0.56,0.65,2.54-1.05,3.39c-2,1-2.44-0.55-3.33,1.11
		s-0.89,2.33-3.55,4.43c-2.66,2.11-6.1,3.55-5.54,4.77c0.55,1.22,3.44,0.55,3.66,2c0.22,1.44,0.78,6.76-0.44,6.54s-1-2.99-2.88-2.99
		s-13.41,1.77-18.18,2s-7.54,0.22-8.31,0.67c-0.78,0.44-0.33,3.88-1.88,3.21c-1.55-0.67-3.55-3.77-5.54-4.43
		c-2-0.67-4.77-0.55-5.54,0.55s-1,1.66-1,1.66s1.44-0.55,1.88,1.44c0.44,2,0.44,2,0.44,2s-0.06,0.05-0.15,0.13
		c0.36,0.06,0.71,0.15,1.03,0.33c0.74,0.41,1.43,1.28,1.73,2.07c0.24,0.65,0.46,1.46,0,2.05c-0.14,0.18-0.34,0.37-0.56,0.54
		c-0.04,0.45,0.1,1.46,1.82,2.52c2.33,1.44,2.77,0.78,4.21,0.11c1.44-0.67,2-1.11,2,0.67c0,0.23,0.02,0.44,0.06,0.65
		c1.67,0.41,4.81,1.03,7.37,0.57c3.66-0.67,4.32-3.55,7.09-4.99c2.77-1.44,4.77-1.11,6.43-0.11c1.66,1,0.11,1.33,1.66,4.54
		c1.55,3.21,9.64,4.66,12.19,4.77s4.1,1.22,4.1,1.22s2.94-2,4.43-1.83c1.5,0.17,1.66,1.5,4.16,1.66c2.49,0.17,6.98-0.33,6.98-0.33
		s0.67-3.66,4.66-4.16c3.99-0.5,8.81,0.83,9.81-1.33s-0.5-2.99,1.33-3.16c1.83-0.17,3.16,0.17,3.16,0.17s1.5-0.17,2.49-2.99
		s-1.66-2.49-0.67-4.82c1-2.33,3.99-1.16,2.16-3.16s-4.32-4.49-2.99-5.32c1.33-0.83,2.99,0.83,3.33,1.33
		c0.33,0.5,2.83,1.66,3.66-0.83c0.53-1.58,1.18-4.88,1.6-7.1C402.4,504.53,401.94,502.74,401.25,500.77z"/>
	<path class="st1" d="M473.41,498.45l-10.64-5.95c0,0.08,0,0.13,0,0.13s-0.33,1.33-3.33,1.66c-2.99,0.33-4.16-2.16-6.32-3.16
		c-2.16-1-10.31,1-10.97,2.49c-0.67,1.5-0.67,5.49-3.16,6.65c-2.49,1.16-6.65-0.17-7.98,2c-1.33,2.16-5.32,2.83-7.48,3.33
		c-2.16,0.5,0,2.49-3.16,4.49c-3.16,2-9.14,1.5-13.3-0.83c-1.7-0.95-2.78-1.99-3.56-3.11c-0.41,2.22-1.07,5.52-1.6,7.1
		c-0.83,2.49-3.33,1.33-3.66,0.83c-0.33-0.5-2-2.16-3.33-1.33c-1.33,0.83,1.16,3.33,2.99,5.32s-1.16,0.83-2.16,3.16
		c-1,2.33,1.66,2,0.67,4.82s-2.49,2.99-2.49,2.99s8.15,8.15,12.47,12.14c4.32,3.99,14.63,6.48,16.13,5.32c1.5-1.16,1-2.16,2.66-2.99
		s5.32-1.16,7.98-4.16c2.66-2.99,5.15-2.99,7.81-3.16s5.99,1.83,8.48-0.17c2.49-2,2.16-3.49,3.82-3.33c1.66,0.17,2.33-0.5,4.49-3.82
		c2.16-3.33,3.66-4.82,2.99-5.82s0.33-4.32,1.33-7.32c1-2.99,1.16-6.32,3.49-8.98c2.33-2.66,2.66-2.49,5.32-4.66
		C473.58,499.94,473.41,498.45,473.41,498.45z"/>
	<path class="st1" d="M601.61,65.31c0,0-1.83,0.17-2.99,0.17s-2,0.91-3.08,2.99c-1.08,2.08-0.33,3.16-2.24,6.07s-3.91,1.5-3.49,3.24
		c0.42,1.75,2.99,1.16,1.08,3.82c-1.91,2.66-4.41,4.41-2.99,6.32c1.41,1.91,2.33,5.15,2.24,9.31c-0.08,4.16-3.16,6.15-6.73,7.32
		s-5.15-0.33-6.4-2.66c-1.25-2.33-3.82-2.33-6.07-2.74c-2.24-0.42-4.07-1.5-3.33-4.9s7.73-7.4,9.14-8.06
		c1.41-0.67,1.08-1.58-0.75-2.49s-5.49-2.99-7.73-4.74c-2.24-1.75-2.08-1.91-4.49-2.41c-2.41-0.5-4.57,1.16-6.73,2.99
		s-2.66,1.41-5.07,0.5c-2.41-0.91-4.41,0.33-4.16,1.91s8.23,2.74,10.89,5.24c2.66,2.49,2.33,13.47,2.91,16.63
		c0.58,3.16,5.4,0.67,9.73,4.9c4.32,4.24,2.74,10.64,2.66,11.56s1.58-0.33,1.75,1.75c0.17,2.08,1.66,4.24,1.66,4.24
		s-2.49-1.58-6.57-3.49c-4.07-1.91-11.06-2.24-11.81-1.83c-0.75,0.42-1.5,4.24-2.33,9.64c-0.83,5.4-2.41,4.99-3.91,5.57
		c-1.5,0.58-0.5,0.33-0.5,2.24s-2.58,3.99-3.57,7.4c-1,3.41,3.49,6.48,7.15,9.56c3.66,3.08,3.08,3.74,0.08,6.57
		s-6.4,2.41-11.97,2.33s-8.23-2.41-11.31-3.74c-3.08-1.33-3.57,4.99-4.24,6.73c-0.67,1.75,0.42,2.08,4.41,3.82
		c3.99,1.75,10.06,1.66,11.39,2.99c1.33,1.33,1.08,6.57-0.67,8.81c-1.75,2.24-8.81,0.42-10.31,0.42c-1.5,0-4.16-1.58-5.4-3.66
		c-1.25-2.08-2.08,0-5.4,0.83c-3.33,0.83-4.99-0.25-6.65-0.33s-2.16-3.16-1.33-5.15c0.83-2,1-3.91-0.25-4.07
		c-1.25-0.17-1.16-1.41-1.25-3.49c-0.08-2.08-1.66-1.08-2.58-2s-1.33-9.48-2.58-12.3c-1.25-2.83-7.73-3.57-10.31-3.91
		c-2.58-0.33-5.15-3.57-7.32-4.99c-2.16-1.41-2-0.42-4.07-1.41c-2.08-1-1.58-2.99-1.16-3.41c0.42-0.42,4.74,0.91,8.06,1.83
		s22.2,2.33,27.02,2.08s7.32-0.67,13.14-2.24c5.82-1.58,8.81-4.24,9.14-5.32c0.33-1.08,2.41-5.15,4.41-7.73s1.66-7.73,1.16-9.98
		c-0.5-2.24-3.49-6.48-5.07-7.9c-1.58-1.41-1.66-3.41-3.33-4.49s-10.06-2.91-12.3-2.99c-2.24-0.08-3.41-1.41-4.99-2.08
		c-1.58-0.67-3.57-0.25-4.99,0.08c-1.41,0.33-4.16-2.16-5.57-3.24c-1.41-1.08-1.83-1-3.74-1.5c-1.91-0.5-3.74-1.5-5.74-2.08
		c-2-0.58-2.24-1.41-4.91-1.91c-2.66-0.5-4.57-0.08-5.49,0.83s-4.24,0.33-5.24,0.67s-2.91-0.25-4.41-1.08
		c-1.5-0.83-1.25-0.33-2.74,1.25c-1.5,1.58-1.16-0.42-2.41-1.5s-0.33,0.83-1.91,2.08s-1-0.42-2.74-0.42s-2.74,0.17-4.24-0.25
		c-1.5-0.42-1.33-1.66-0.75-2.41c0.58-0.75,2.16-0.17,3.66,0.33c1.5,0.5,2.41-0.67,2.83-1.83c0.42-1.16-2.41-1.83-4.32-2.24
		c-1.91-0.42-2.58-1.5-3.41-2.41c-0.83-0.91-1.75-0.91-2.41,0.25c-0.67,1.16,1,1.83,0.5,3.49c-0.5,1.66-0.67,1.91-2.49,4.16
		c-1.83,2.24-2.91,2.24-2.91,2.24s-4.16-1.88-5.04,0.78s0.44,3.77-1.33,5.54c-1.77,1.77-3.1,1.33-2.88,3.33s0.22,3.77-2,3.77
		c0,0-2,0.44-0.89,1.77s2.66,1.33,2,3.77s-0.67,4.66,0.89,6.87c1.55,2.22,2.22,3.99,3.55,3.99c1.33,0,2.88-1.55,5.54,2
		c2.66,3.55,5.76,4.21,4.43,7.98c-1.33,3.77-3.1,5.54-3.33,7.98c-0.22,2.44-0.44,5.32,2.88,8.65c3.33,3.33,10.86,11.31,10.86,13.52
		s-1.33,6.65-1.11,8.2c0.22,1.55-0.22,10.2,1.33,11.08c1.55,0.89,3.55-1.77,4.66,0.89c1.11,2.66,0,6.21,2.88,6.65
		c2.88,0.44,3.55,0.44,4.21,3.1s-2,4.88-1.55,7.76c0.44,2.88,3.1,5.1,4.88,5.1c1.77,0,2.88,0,2.88,0s7.54,5.54,7.98,9.75
		c0.44,4.21-2.22,6.65-3.55,10.86c-1.33,4.21-5.54,9.53-6.21,13.52c-0.67,3.99-1.77,6.87-4.66,11.53
		c-2.52,4.06-6.72,10.15-8.48,13.99c2.72-0.15,3.7-1.99,4.49-2.63c0.83-0.67,3.66,2.49,4.16,4.82c0.5,2.33,10.81-0.67,11.81-0.67
		s2.16,1.83,1.83,2.33c-0.33,0.5-2,1.33-3.33,1.66c-1.33,0.33-4.16,1.5-5.32,3.33s-1.83,1.33-4.66,2.16s-4.16,5.15-4.82,7.81
		c-0.67,2.66-1.5,1.16-4.16,1.16s-11.47,0-15.46,1.16c-3.99,1.16-2.83,2.99-4.82,2.66c-2-0.33-4.82-0.17-7.32,1.83
		c-2.49,2-5.99,4.49-6.98,4.49s-1.33,1.66,0,4.32s1,5.15,1.66,7.15s2.16,1,2.16,1s-0.17,1.33,0.17,2.83
		c0.33,1.5,4.16,2.16,5.99,1.66c1.83-0.5,1.16-2,2.49-1.83c1.33,0.17,1.5,2.66-0.33,5.32s0.33,3.99,2.66,11.31
		c2.33,7.32-4.32,9.98-7.32,9.14s-3.82-3.49-5.82-5.82c-2-2.33-2.66-2.66-4.66-3.33s-1.66-2.66-1.66-2.66s-5.49,2.49-8.15,6.15
		c-2.66,3.66-1.5,9.81-2.49,10.48s-2,3.33-2,7.81s3.66,10.31,4.99,14.13s0,10.48,0,10.48s1.5,1,1.16,2.49
		c-0.33,1.5-4.16,1-7.48,0.67c-3.33-0.33-3.99,0.83-4.49,2.66c-0.5,1.83,6.65,3.82,6.65,3.82l-3.66,2.66c0,0-0.06,0.07-0.15,0.19
		c0,0,0,0,0,0c1.29,0.79,3.03,1.6,5.03,1.81c4.21,0.44,16.41-1.33,19.51-2.22c3.1-0.89,11.31-2.88,12.64,1.33
		c1.33,4.21,0.22,5.54,2.22,7.98s8.65,9.75,6.87,15.96c-1.77,6.21-5.54,7.76-5.99,9.31c-0.44,1.55,4.21-0.67,5.32,2.22
		s-1.11,7.76,0.44,9.53c1.55,1.77,2,1.77,2,3.77s2.66,3.33,3.77,4.43c1.11,1.11,1.55,2.88,2.88,4.88c1.33,2,2.22,3.77,0.89,5.76
		c-1.33,2-4.43,1.55-5.99,4.88c-1.55,3.33,0.89,4.21-2,6.65c-2.88,2.44-6.21,3.55-5.76,5.99c0.44,2.44,2.88,5.76,2.66,8.42
		c-0.08,0.99-0.69,1.49-1.53,1.63c-2.37,3.86-2.07,12.06-2.07,12.06s0-0.05,0-0.13l10.64,5.95c0,0,2.83-1.83,5.15-1
		c2.33,0.83,8.98,1.16,11.31,0c2.33-1.16,2.49-3.16,3.33-1.33s3.16,5.65,5.82,3.66c2.66-2,5.49-7.48,7.81-7.48
		c2.33,0,3.49,1.16,4.32-0.83s2.33-4.99,4.82-5.82c2.49-0.83,4.66-1.5,5.82,1.16c1.16,2.66,7.65,8.65,11.47,10.97
		c3.82,2.33,9.48,7.65,9.81,10.48s-0.33,11.64,1.5,14.8c1.83,3.16,1.83,5.82,2.49,7.15c0.67,1.33,5.32,4.66,7.15,2.49
		c1.83-2.16,3.49-5.65,6.82-5.65c3.33,0,4.99-1.83,4.99-1.83l-3.25-3.49c0,0,4.36-1.29,6.46-3.39s3.39-5.65,2.74-8.07
		c-0.65-2.42-1.45-2.91-0.16-3.71c1.29-0.81,6.78-6.62,10.33-7.59c3.55-0.97,5.49-1.61,6.94-0.65c1.45,0.97,3.39,0.97,3.39,0.97
		s-2.91,2.42-5.49,1.78c-2.58-0.65-4.04,0.32-3.39,2.1s3.71,4.04,7.26,3.07c2.61-0.71,7.04-2.37,10.74-2.96"/>
	<path class="st1" d="M601.61,503.28c-3.71,0.58-8.14,2.24-10.74,2.96c-3.55,0.97-6.62-1.29-7.26-3.07s0.81-2.74,3.39-2.1
		c2.58,0.65,5.49-1.78,5.49-1.78s-1.94,0-3.39-0.97c-1.45-0.97-3.39-0.32-6.94,0.65c-3.55,0.97-9.04,6.78-10.33,7.59
		c-1.29,0.81-0.48,1.29,0.16,3.71c0.65,2.42-0.65,5.97-2.74,8.07s-6.46,3.39-6.46,3.39l3.25,3.49c0,0,1.66,5.82,1,8.48
		c-0.67,2.66-1.11,5.1-4.43,6.65c-3.33,1.55-5.76,5.1-5.32,9.09c0.44,3.99,1.33,9.31,1.33,12.19s-0.22,2.88-1.77,4.66
		c-1.55,1.77-3.99,4.66-3.55,8.87c0.44,4.21,1.55,4.43-0.89,7.09c-2.44,2.66-0.22,4.21,0.89,5.32s4.66,1.77,4.66,3.77s0,2,0,2
		s0.89-1.55,1.33,1.11c0.44,2.66,1.55,5.99,3.99,6.21c2.44,0.22,10.86,3.1,12.41,2.66c1.55-0.44,1.55-0.44,1.55-0.44
		s8.87-1.33,12.64-2.66c2.42-0.85,8.04-0.34,11.75,0.14"/>
	<path class="st1" d="M558.54,560.11c-0.21-3-0.89-7.3-1.27-10.67c-0.44-3.99,2-7.54,5.32-9.09c3.33-1.55,3.77-3.99,4.43-6.65
		c0.67-2.66-1-8.48-1-8.48s-1.66,1.83-4.99,1.83c-3.33,0-4.99,3.49-6.82,5.65c-1.83,2.16-6.48-1.16-7.15-2.49
		c-0.67-1.33-0.67-3.99-2.49-7.15c-1.83-3.16-1.16-11.97-1.5-14.8s-5.99-8.15-9.81-10.48c-3.82-2.33-10.31-8.31-11.47-10.97
		c-1.16-2.66-3.33-2-5.82-1.16c-2.49,0.83-3.99,3.82-4.82,5.82s-2,0.83-4.32,0.83c-2.33,0-5.15,5.49-7.81,7.48
		c-2.66,2-4.99-1.83-5.82-3.66s-1,0.17-3.33,1.33c-2.33,1.16-8.98,0.83-11.31,0c-2.33-0.83-5.15,1-5.15,1s0.17,1.5-2.49,3.66
		c-2.66,2.16-2.99,2-5.32,4.66c-2.33,2.66-2.49,5.99-3.49,8.98c-1,2.99-2,6.32-1.33,7.32s-0.83,2.49-2.99,5.82
		c-2.16,3.33-2.83,3.99-4.49,3.82c-1.66-0.17-1.33,1.33-3.82,3.33c-0.98,0.79-2.09,0.95-3.24,0.87c0.14,0.5,0.92,2.88,3.3,3.67
		c2.66,0.89,2.88,0,2.88,3.55c0,3.55,2.88,5.99,5.54,6.21s3.77,1.77,4.21,3.99c0.44,2.22-0.22,4.21-0.22,4.21s0.67,1.33,3.1,1.55
		c2.44,0.22,2.22-0.44,3.99,0.89c1.77,1.33,2.88,2.22,4.21,0.67c1.33-1.55,2.66-3.77,4.21-3.1c1.55,0.67,1.77,2.22,0.89,2.88
		s-0.89,1.33-0.22,2.44c0.67,1.11,3.55,3.77,3.55,3.77s3.55,0.22,4.21,0.67c0.67,0.44-0.89,2-0.44,3.33c0.44,1.33,3.55,2,5.99,0.22
		c2.44-1.77,3.99-0.44,6.43,0.22c2.44,0.67,9.31,0.89,12.64-0.67c3.33-1.55,6.65-1.11,9.09-1.33c2.44-0.22,4.66-4.21,6.87-6.43
		c2.22-2.22,5.54-4.21,8.65-5.32c3.1-1.11,5.76-2.88,8.87-2.66s4.88,1.77,5.99,3.1C550.93,559.92,553.29,561.43,558.54,560.11z"/>
	<path class="st1" d="M557.93,591.34c0-2-3.55-2.66-4.66-3.77s-3.33-2.66-0.89-5.32c2.44-2.66,1.33-2.88,0.89-7.09
		c-0.44-4.21,2-7.09,3.55-8.87c1.55-1.77,1.77-1.77,1.77-4.66c0-0.45-0.03-0.97-0.06-1.52c-5.25,1.32-7.61-0.19-8.58-1.36
		c-1.11-1.33-2.88-2.88-5.99-3.1s-5.76,1.55-8.87,2.66c-3.1,1.11-6.43,3.1-8.65,5.32c-2.22,2.22-4.43,6.21-6.87,6.43
		c-2.44,0.22-5.76-0.22-9.09,1.33c-3.33,1.55-10.2,1.33-12.64,0.67c-2.44-0.67-3.99-2-6.43-0.22c-2.44,1.77-5.54,1.11-5.99-0.22
		c-0.44-1.33,1.11-2.88,0.44-3.33c0,0-4.21-0.44-6.87,2.44s-2,4.21-1.11,5.76s1.33,3.33,3.33,4.66c2,1.33,2.22-1.33,3.99,1.77
		c1.77,3.1,2.22,4.21,2.22,4.21s-2.44,3.1-3.77,4.21s-2.66,0.67-2,2.88c0.67,2.22,2.22,2.66,1.11,4.88s-1.11,3.77,1.11,4.88
		c2.22,1.11,2.88,1.77,4.43,1.33c1.55-0.44,2.44-1.55,2.88,1.77c0.44,3.33-0.22,2.88-0.44,5.32c-0.22,2.44,1.11,0.44,1.55,2.44
		c0.44,2,0.44,2,0.44,2s2.88,1.33,6.21-1.33c3.33-2.66,4.43-5.1,5.76-5.1c1.33,0,1.77,1.77,3.99,0.89c2.22-0.89,1.77-0.89,7.09,0
		s11.08,1.11,14.85-0.44c3.77-1.55,5.54-3.77,4.88-4.21c-0.67-0.44-3.77-1.77-2.22-3.99c1.55-2.22,3.55-2.88,4.88-2.22
		c1.33,0.67,1.55-3.77,3.77-4.21c2.22-0.44,2,0,4.21-2c2.22-2,5.1-1.33,5.76,0c0.67,1.33,2.66,1.55,3.99,0.44
		c0.33-0.27,1.07-0.89,2-1.66C557.93,592.73,557.93,592.25,557.93,591.34z"/>
	<path class="st1" d="M541.52,609.02c-2.44,2.09-1.79,3.24-1.99,6.54c-0.13,2.15-0.73,3.77-1.44,5.54c0.92,0.54,1.49,1.05,1.82,1.38
		c0.97,0.97,1.46-0.81,2.11-1.62c0.65-0.81,2.92-0.32,2.92,0.97s-3.73,6.65-3.73,6.65s7.14-5.68,9.74-7.79
		c2.6-2.11,2.6-1.79,2.76-2.43s2.27-4.54,2.76-5.68c0.49-1.14,0.97-0.97,2.11-0.65c1.14,0.32,1.95-0.49,2.92-1.62
		s2.27-0.81,3.41-1.62c1.14-0.81,5.19-0.65,8.6-0.32c2.23,0.21,3.27-0.68,3.73-1.33c-0.03-0.58-0.18-1.2-0.25-1.93
		c-0.07-0.68-0.04-1.42,0.01-2.17c-0.2,0.06-0.58,0.17-1.33,0.38c-1.55,0.44-9.98-2.44-12.41-2.66c-2.44-0.22-3.55-3.55-3.99-6.21
		c-0.44-2.66-1.33-1.11-1.33-1.11s0-0.01,0-0.33c-0.92,0.77-1.67,1.39-2,1.66c-1.33,1.11-3.33,0.89-3.99-0.44
		c-0.67-1.33-3.55-2-5.76,0c-2.22,2-2,1.55-4.21,2c-2.03,0.41-2.39,4.14-3.45,4.27c0.09,0.31,0.2,0.59,0.34,0.84
		c0.49,0.87,1.61,1.76,2.25,2.51C542.9,605.91,543.77,607.09,541.52,609.02z"/>
	<path class="st1" d="M461.05,651.64c2.66-0.44,0.44-2.44-0.44-4.21s0.22-1.77,2.22-2.66s2-3.77,2.44-5.99
		c0.44-2.22,2.88-3.77,3.55-4.66c0.67-0.89-1.77-2.88-1.77-2.88s-2.66-1.33-4.66-3.33c-2-2-4.66-8.65-5.1-12.19
		c-0.44-3.55,0.89-9.53-0.44-9.53c-1.33,0-3.33-3.55-9.53-4.43c-6.21-0.89-6.1,12.86-6.1,12.86c4.66,1.33,3.1,4.77,2.99,6.65
		s0.22,3.1,1.11,6.87s0.11,8.31-0.44,12.41c-0.55,4.1,4.43,6.1,6.1,6.54c1.66,0.44,5.53,4.85,5.53,4.85S458.39,652.08,461.05,651.64
		z"/>
	<path class="st1" d="M492.31,614.83c-0.44-2-1.77,0-1.55-2.44c0.22-2.44,0.89-2,0.44-5.32c-0.44-3.33-1.33-2.22-2.88-1.77
		c-1.55,0.44-2.22-0.22-4.43-1.33c-2.22-1.11-2.22-2.66-1.11-4.88s-0.44-2.66-1.11-4.88c-0.67-2.22,0.67-1.77,2-2.88
		s3.77-4.21,3.77-4.21s-0.44-1.11-2.22-4.21c-1.77-3.1-2-0.44-3.99-1.77c-2-1.33-2.44-3.1-3.33-4.66s-1.55-2.88,1.11-5.76
		s6.87-2.44,6.87-2.44c-0.67-0.44-4.21-0.67-4.21-0.67s-2.88-2.66-3.55-3.77c-0.67-1.11-0.67-1.77,0.22-2.44s0.67-2.22-0.89-2.88
		c-1.55-0.67-2.88,1.55-4.21,3.1c-1.33,1.55-2.44,0.67-4.21-0.67c-1.77-1.33-1.55-0.67-3.99-0.89c-2.44-0.22-3.1-1.55-3.1-1.55
		s0.67-2,0.22-4.21c-0.44-2.22-1.55-3.77-4.21-3.99s-5.54-2.66-5.54-6.21c0-3.55-0.22-2.66-2.88-3.55c-2.38-0.79-3.16-3.18-3.3-3.67
		c0,0,0,0,0,0c-1.77-0.12-3.62-0.81-5.24-0.71c-2.66,0.17-5.15,0.17-7.81,3.16c-2.66,2.99-6.32,3.33-7.98,4.16s-1.16,1.83-2.66,2.99
		c-1.5,1.16-11.81-1.33-16.13-5.32c-4.32-3.99-12.47-12.14-12.47-12.14s-1.33-0.33-3.16-0.17c-1.83,0.17-0.33,1-1.33,3.16
		s-5.82,0.83-9.81,1.33c-3.99,0.5-4.66,4.16-4.66,4.16s-4.49,0.5-6.98,0.33c-2.49-0.17-2.66-1.5-4.16-1.66
		c-1.5-0.17-4.43,1.83-4.43,1.83s0,0-0.44,1c-0.44,1-0.11,2.55,1.88,3.66s-0.78,2,0.33,3.99s1.33,3.99,2.99,5.65
		c1.66,1.66,0.44,1.66-0.44,1.55s-1.64-0.06-1.64-0.06s0,0.67-0.42,0.83c-0.42,0.17-0.91,0.25-1.25,3.99
		c-0.33,3.74,2.49,5.9,2.49,5.9s0.25,1.91,0.83,3.33c0.58,1.41,1.41,0.33,3.24-0.91c1.83-1.25,2.24-3.08,2.24-4.9
		s1.91-3.66,3.16-2.91c1.25,0.75,2.58,2.33,4.41,5.49c1.83,3.16,1.75,5.07,2,6.82c0.25,1.75,2.16,1.16,2.24,2.33
		s-0.08,1.66,1.41,3.66c1.5,2,7.23,8.9,7.9,8.98c0.67,0.08,2.83,0.17,2.91,0.58c0.08,0.42,0.17,1.08,0.67,1.5
		c0.5,0.42,0,1.08,0.25,1.66c0.25,0.58,8.15-0.17,9.64,0c1.5,0.17,2.41,2.58,2.66,3.08c0.25,0.5,1.16-0.08,2.08-0.08
		c0.91,0,1.66,0.83,2.41,1.41s5.99,6.57,6.73,6.15c0.75-0.42,2.99,0.17,4.41,1c1.41,0.83,2.16,4.32,5.82,4.9
		c3.66,0.58,3.57,0.83,3.99,1.83c0.42,1,1.41,1.16,2.99,1c1.58-0.17,1.75,1.25,2.49,3.16s3.8,2.02,3.8,2.02s-0.11-13.74,6.1-12.86
		c6.21,0.89,8.2,4.43,9.53,4.43c1.33,0,0,5.99,0.44,9.53c0.44,3.55,3.1,10.2,5.1,12.19c1.4,1.4,3.12,2.47,4.03,2.98
		c1.46-0.98,3.06-1.79,4.4-1.87c3.55-0.22,4.43,2.88,6.87-0.89c2.44-3.77,0.67-6.21,4.88-5.54c4.21,0.67,7.54,1.55,7.54-0.89
		c0-2.44-0.89-3.33,0.89-3.77c0.49-0.12,1.09-0.67,1.71-1.39C492.64,616.29,492.53,615.8,492.31,614.83z"/>
	<path class="st1" d="M538.1,621.09c0.7-1.77,1.31-3.4,1.44-5.54c0.2-3.29-0.45-4.45,1.99-6.54c2.25-1.92,1.37-3.11-0.41-5.18
		c-0.65-0.75-1.77-1.64-2.25-2.51c-0.14-0.25-0.25-0.54-0.34-0.84c0,0,0,0,0,0c-0.1,0.01-0.2,0-0.31-0.05
		c-1.33-0.67-3.33,0-4.88,2.22c-1.55,2.22,1.55,3.55,2.22,3.99c0.67,0.44-1.11,2.66-4.88,4.21c-3.77,1.55-9.53,1.33-14.85,0.44
		s-4.88-0.89-7.09,0c-2.22,0.89-2.66-0.89-3.99-0.89c-1.33,0-2.44,2.44-5.76,5.1c-3.33,2.66-6.21,1.33-6.21,1.33s0-0.02-0.06-0.28
		c-0.62,0.72-1.22,1.27-1.71,1.39c-1.77,0.44-0.89,1.33-0.89,3.77c0,2.44-3.33,1.55-7.54,0.89c-4.21-0.67-2.44,1.77-4.88,5.54
		c-2.44,3.77-3.33,0.67-6.87,0.89c-1.34,0.08-2.93,0.9-4.4,1.87c0.39,0.22,0.63,0.34,0.63,0.34s2.44,2,1.77,2.88
		c-0.67,0.89-3.1,2.44-3.55,4.66c-0.44,2.22-0.44,5.1-2.44,5.99s-3.1,0.89-2.22,2.66s3.1,3.77,0.44,4.21
		c-2.66,0.44-4.55,0.3-4.55,0.3s1.01,1.72,1.72,3.04c0.71,1.32,2.03,4.16,5.17,6.7c3.14,2.54,7.41,1.72,8.72,1.22
		s1.83,0.91,1.42,2.54s-2.13,0.71-3.45,0.91s-0.51,0.71-0.41,2.33s3.75,5.48,4.87,6.49s1.83,0.91,3.04,0.3s8.62-1.22,11.77-1.22
		s12.58-0.91,14.51-0.51s1.01,1.93-0.3,3.55c-1.32,1.62-5.07,2.13-7,1.93s-5.88-2.33-8.22-2.74s-8.01,2.13-9.84,3.45
		s-3.04,3.14-2.33,4.67s9.23,6.39,9.94,7.1s0,1.42-1.01,2.23c-1.01,0.81,0.41,1.12,0.81,1.83s-1.22,0.51-1.22,1.72
		s1.83,1.93,2.13,2.64s1.22,3.55,2.33,4.16s1.72-0.91,1.62-1.72s-0.71-3.45,0.1-4.46c0.81-1.01,2.54,0.1,3.14,0.71
		c0.61,0.61,2.84,3.85,3.25,5.58s2.03,2.33,2.54,1.93s0.81-2.23,0.71-3.25s0.2-3.14,1.22-3.14s4.46,3.96,5.68,4.87
		s1.93,0.51,2.03-0.81s-1.52-1.83-2.23-2.94s1.22-0.71,1.12-2.13c-0.1-1.42-3.35-3.96-4.56-4.97s-2.74-3.55-3.65-5.07
		s0.2-1.72,2.23-2.13s3.55,1.83,5.58,3.35s2.54,0.41,4.56-0.1s0.1-1.72-1.32-3.65s-1.62-1.32-2.84-0.61s-1.62-0.41-2.33-2.33
		c-0.71-1.93,0.1-4.16,1.83-5.07c1.72-0.91,4.97,0,6.9,0.81s3.14,3.35,4.77,3.96s2.33-1.62,2.33-2.33s-3.85-4.36-4.26-4.77
		s0.1-1.93-0.1-3.04s-2.13-1.12-3.75-1.72s-5.38-2.54-8.01-3.65c-2.64-1.12-6.9-5.27-7.91-6.7s-2.84-5.78-2.94-7.1
		s0.1-1.93,1.52-1.83s3.45,3.04,4.36,3.65s1.32-0.81,1.32-1.52s-7.61-8.52-9.13-10.14s-3.35-8.12-3.04-9.33
		c0.3-1.22,0.2-2.54,0.1-4.06s1.62-1.01,3.04-0.61s0,1.42-0.51,2.64s2.03,3.35,3.25,3.85s3.35,0.1,4.46,0.51s0.91,1.62,1.01,2.43
		s1.72,1.93,3.14,2.64s1.52,0.3,1.42-0.71c-0.1-1.01-1.62-1.93-2.84-2.54s-1.62-1.52-1.22-2.23s0.71-1.22,1.72-0.41
		s1.22,0,2.54,0.41c1.32,0.41,3.04,2.23,3.85,3.25s1.12,0.3,1.22-0.51s0.2-1.42-0.81-1.72s-2.64-1.12-2.64-1.12
		s-0.71-1.42-0.71-1.93c0-0.51,1.22-0.81,2.94-0.71s1.42,0.71,2.54,1.83c1.12,1.12,2.23,0.61,2.64,0s-1.22-1.42-3.25-2.23
		s-2.33-0.1-4.67-0.3c-2.33-0.2-1.45-2.16,0.34-3.29c1.79-1.14,5.03-0.81,6.49-0.81c1.46,0,0.81-1.62,1.95-3.08
		c1.14-1.46,3.73-7.3,11.85-7.14C533.13,618.85,536.29,620.03,538.1,621.09L538.1,621.09z"/>
	<path class="st1" d="M601.61,600.35c-3.71-0.48-9.33-1-11.75-0.14c-3.77,1.33-12.64,2.66-12.64,2.66s-0.42,0.12-0.22,0.06
		c-0.06,0.76-0.08,1.49-0.01,2.17c0.07,0.73,0.23,1.35,0.25,1.93c0.24-0.34,0.33-0.62,0.33-0.62s0,0,0.49,0.65
		c0.49,0.65,3.41,2.11,3.25,3.25s-1.3,2.11-2.6,3.57s0,0,1.3,0.49c1.3,0.49-0.65,1.95-1.46,2.11c-0.81,0.16-3.89,2.43-5.36,3.08
		c-1.46,0.65-4.87,0.81-6.98,0.65c-2.11-0.16-2.27,0.16-3.89,1.3c-1.62,1.14-5.52,0.65-7.63,0.32c-2.11-0.32-7.3,4.54-10.39,6.82
		c-3.08,2.27-2.94,6.2-3.21,8.2s2.22,4.6,3.77,4.99c1.55,0.39,3.27-0.5,4.27-1.39s1.77-0.89,3.16-0.72
		c1.39,0.17,1.44,0.78,0.89,1.72c-0.55,0.94,0.17,1.72,0.39,2.22c0.22,0.5-0.83,0.33-1.72,0.44c-0.89,0.11-1.22,0.67-1.39,1.44
		s0.89,1.27,2.49,1c1.61-0.28,1.33,0.11,1.05,0.72c-0.28,0.61,0,2.16,0,2.16s1.55,1.22,2.83,1.61c1.27,0.39,0.78,0.67,0.44,1.05
		s-0.39,1.5,1.22,2.11c1.61,0.61,1.88,3.55,0.22,4.88c-1.66,1.33-0.67,3.16-0.67,3.16s-1.66,0.33-2.66,0.33s-0.83-0.5-1-2
		s-1.33-2.49-2.16-2.83s-2.33,0.17-2.49,1.33c-0.17,1.16,2.33,2.33,1.33,2.99c-1,0.67-1.83,0.67-1,2.99
		c0.83,2.33,2.83,0.17,4.49-0.67s1.33,2,3.16,2.16c1.83,0.17,4.49-0.33,5.65,1c1.16,1.33,1.5,6.82,1.83,8.65
		c0.33,1.83,3.66,1.5,5.49,1.5s0.83,1.66-0.33,2.66s-3.82,1.5-2.49,3.33c1.33,1.83,4.82-1.66,6.48-2.83
		c1.66-1.16,8.31-0.67,8.31-0.67s-0.5,0.83-1.83,3.33c-1.33,2.49-3.16,2.49-5.32,2.66c-2.16,0.17-3.66,2-1.5,2
		c2.16,0,4.49-0.5,6.82-0.17s1.5-1.5,1.5-2.66c0-1.16,2.49-2,7.81-0.33s11.47,6.32,11.47,6.32"/>
	<path class="st1" d="M267.74,290.44c1.16,0.5,2.66-0.17,3.66,0.83s1.66,0.83,3.16,0.5c1.5-0.33,2.33,0.33,1.5,1.83
		c-0.83,1.5-1.5,1.16-2.49,3.33c-1,2.16-0.83,2.33-2.66,2.33s-3.16,1.33-3.49,3.99c-0.33,2.66,3.16,4.16,4.99,3.33s3.33-1,4.16,0
		s-0.83,2.16-2.33,2.99c-1.5,0.83-2.33,1-0.33,2.33c2,1.33,1,2.66,0,2c-1-0.67-2.33-1.83-2.99-1c-0.67,0.83-1,1.5-1.16,2.99
		c-0.17,1.5,0.67,1.5-0.17,1.83c-0.83,0.33,0.17,2.49,2.66,4.82c2.49,2.33,2.99,3.66,4.32,3.16c1.33-0.5,2.16,1,3.66,2.49
		c1.5,1.5,3.82,3.49,7.98,3.33c4.16-0.17,9.98-4.49,11.97-6.48c2-2,6.98-7.15,8.48-8.65c1.5-1.5,2.49-2.16,5.32-2.83
		c2.83-0.67,2.83-3.99,2.66-5.32c-0.17-1.33,0.17-5.32,0.83-6.65c0.67-1.33,1.33,0,1.33,2s0.5,2.66,2.49,3.66s2.33,3.66,2.33,3.66
		c3.16-1.83,3.99,3.33,5.15,3.49s0.17-1.66,1.16-3.49c1-1.83,0.5-4.99-0.17-7.81s2.16-3.49,2.16-3.49s-1.33-0.33-1.83-2
		c-0.5-1.66,2.83-1.33,4.99-2c2.16-0.67,1.83-2.99,2.83-9.14c1-6.15-2.33-4.99-3.82-7.48c-1.5-2.49,0.5-3.16,2.83-3.33
		c2.33-0.17,2.66-1.5,2-2.16c-0.67-0.67-0.17-1.83,1-4.16c1.16-2.33-4.49-2.83-6.48-4.99c-2-2.16,0.5-6.65,0.17-11.47
		s-1.5-14.3-1.5-20.12s1.66-6.48,3.66-11.31s10.97-2.16,12.64-2.83c1.66-0.67-0.33-2.83-0.33-2.83s0.83-0.17,1.66-1.33
		c0.83-1.16-1.33-3.82-2.33-4.16s-2.33-2.33-1.66-4.82s4.66-8.81,5.82-10.14c1.16-1.33-1.16-0.83-0.83-2.83
		c0.33-2,0.33-5.15,0.17-8.48c-0.17-3.33-0.33-1.5-0.17-3.33s7.32-4.99,7.32-4.99s0.5-4.49,1.16-7.15s3.82-6.65,5.49-8.15
		c1.66-1.5,0.17-2.16-0.33-3.66c-0.5-1.5-4.49-2-2.83-2.99c1.66-1,3.33-5.32,4.16-7.48s0.83-4.82,2.99-4.49
		c2.16,0.33,3.66,0,5.99-2.16c2.33-2.16,0.17-5.15,0.67-6.98c0.5-1.83,5.82-1.33,9.31-0.5s4.16-0.33,4.66-1.5
		c0.5-1.16-1.33-1.66-0.17-3.16c1.16-1.5,1.16-2.66,0.67-4.82c-0.5-2.16-2.99-2-2.99-2s1.66-1.83,3.33-2.83s3.82-1,3.82-1
		c0-1.5,0.83-4.16,2.49-3.99c1.66,0.17,4.82,3.82,5.99,6.98s4.66,4.16,8.98,3.33c4.32-0.83,2.33-2.83,3.16-3.99
		c0.83-1.16,2.83,1.16,5.82,2.16s2.83-0.83,3.33-2.33c0.5-1.5,1-3.16,2.49-3.66c1.5-0.5,1-1,0-2.83s0.17-1.83-0.17-6.32
		c-0.33-4.49,1.66-10.48,2.99-11.64c1.33-1.16,1.33,0,3.16-1c1.83-1,1.66-1.5,2.16-3.49c0.5-2,1-0.83,2.83,0.67
		c1.83,1.5,5.82,2.16,9.98,5.99c4.16,3.82,0.83,3.82-1,7.81s1.39,3.94,1.39,3.94c2.22,0,2.22-1.77,2-3.77s1.11-1.55,2.88-3.33
		c1.77-1.77,0.44-2.88,1.33-5.54s5.04-0.78,5.04-0.78s-0.08-0.5-0.17-2.41c-0.08-1.91-1-1.25-2.91-1.66
		c-1.91-0.42-3.33,0.5-3.99,1.41c-0.67,0.91-1.25,0.5-2.24-0.75c-1-1.25-0.83-2.83,0-3.66c0.83-0.83,2.33-1.66,2.66-3.08
		c0.33-1.41-0.25-2.16,1-2.08c1.25,0.08,2.16-0.58,2.41-2.49c0.25-1.91-2.58-3.33-4.9-4.82c-2.33-1.5-5.82-3.66-7.73-3.91
		s-2.16,0.58-4.24,2.49c-2.08,1.91-1.66,4.82-2.66,6.48c-1,1.66-1.33,0.67-1.41-0.91c-0.08-1.58,0.91-3.74,0.91-5.24
		s-1.75-3.99-5.15-2.58c-3.41,1.41-1.5,4.32-1,6.98c0.5,2.66-1.16,4.49-2.33,4.66c-1.16,0.17-1.75-1.83-1.66-3.91
		c0.08-2.08,0.67-4.07-0.42-4.57c-1.08-0.5-2.41,2.83-2.58,4.41c-0.17,1.58,0.67,3.16-0.75,4.91c-1.41,1.75-1.75,1.08-2.58-0.58
		c-0.83-1.66,0.08-4.49,1.25-6.57s0.25-4.32-1.91-4.32s-3.49,2.49-2.91,3.24c0.58,0.75-1.58,2.41-3.08,3.24
		c-1.5,0.83-1.58,2.33-1.83,3.16c-0.25,0.83-4.41,1.08-6.57,0.5c-2.16-0.58-3.24-0.25-4.16,0.5c-0.91,0.75-0.75,3.91-1,5.49
		c-0.25,1.58-1.16,2.24-2,3.24s-2.24,2.33-3.57,2.66c-1.33,0.33-1.33,1.5-0.75,1.91c0.58,0.42,3.82,2.24,3.33,2.24
		s-1.58,1.25-3.08,2.49c-1.5,1.25-2.99,0.25-4.74-0.58s-1.41-0.17-2.24,1.5c-0.83,1.66-2.83,1-4.32,1.08c-1.5,0.08-1.75,1-2.49,3.41
		c-0.75,2.41-1.91,3.24-3.08,3.91c-1.16,0.67-0.83,1.58,0.08,2.49s0.25,1.66-1.16,3.33c-1.41,1.66-3.16,4.16-6.82,8.73
		c-3.66,4.57-6.98,8.9-7.48,9.39c-0.5,0.5,0.25,1.58,1,1.91c0.75,0.33-0.17,0.83-1.83,2.24c-1.66,1.41-3.41,1.75-4.07,2.08
		c-0.67,0.33,0.67,1.5,1.5,2.41s-1.16,1.25-2.74,1.33c-1.58,0.08-1.83-0.17-1.33,1.25c0.5,1.41,0.75,2.99-0.25,4.74
		s-0.67,0.83-1,1.91c-0.33,1.08-0.25,1.25-1.5,3.49c-1.25,2.24-2.16,3.41-3.33,3.91c-1.16,0.5-0.91,0.75-0.91,2.24
		c0,1.5-0.5,1.08-1.33,1s-0.91,0.83-0.67,2.08c0.25,1.25,0,1.08-0.83,1.5s-2.83,3.24-3.24,4.66c-0.42,1.41,0.58,4.99-0.91,6.07
		c-1.5,1.08-3.57,7.23-3.82,8.98s0.67,7.65,0.33,8.56c-0.33,0.91-7.07,6.4-7.73,7.32s1.66,1.16,1.5,1.75
		c-0.17,0.58-5.82,5.49-8.56,8.06c-2.74,2.58-5.15,4.24-6.15,4.66s0,1.91-0.25,3.66c-0.25,1.75-2.08,2.91-3.16,3.74
		s0.83,3.99,2.16,5.15c1.33,1.16,4.57-0.25,5.07-0.91c0.5-0.67,4.41-2.83,4.82-3.99c0.42-1.16-0.91-1.41-1.16-2.08
		s1.5-1.41,2.16-2.08l0.83,1.58c-0.83,0.58,0.42,1.08,1,2.41c0.58,1.33-1.25,1.16-2.99,2.83s-2.08,2.41-1.66,3.66
		c0.42,1.25-0.83,0.83-2.49,0.58c-1.66-0.25-1.91,1-4.49,1s-2.58-2.74-3.41-3.16c-0.83-0.42-2.66-0.58-2.99,0.67
		s-0.75,1.66-2.41,1.58c-1.66-0.08-1.5,0.83-2.58,3.16c-1.08,2.33-0.83,0.91-2.41,0.91s-2,0.08-3.49,1.66
		c-1.5,1.58-2.49,1-4.07,0.67c-1.58-0.33-1.16,0.42-1.83,1.5c-0.67,1.08-3.49,4.24-8.31,8.73c-4.82,4.49-10.89,5.99-12.47,7.73
		c-1.58,1.75-1.16,3.33-0.5,3.74c0.67,0.42,0.5,1.41,0,3.49c-0.5,2.08,0.67,1.41,1.33,2s-0.17,0.42-1.25,1.08
		c-1.08,0.67-1.08,1.33-1.83,2c-0.75,0.67,0.17,1.16,1,1.91c0.83,0.75-0.75,1.41-1.75,2.08c-1,0.67-0.67,0.75,0.17,1.41
		s0.58,2.83,0.5,3.41c-0.08,0.58-0.67,0.58-1,1.58c-0.33,1-0.25,2.33,0,2.99c0.25,0.67,1,0.91,0.5,2c-0.5,1.08,0.08,0.83,0.42,1.5
		c0.33,0.67-1,1-1.83,2.16C265.41,288.45,266.57,289.94,267.74,290.44z"/>
	<path class="st1" d="M421.37,161.25c-0.22-3.55-0.67-3.99-2.66-5.99s-1.55-2.22-1.11-4.88c0.44-2.66-1.11-5.99-3.55-14.19
		c-2.44-8.2-6.65-7.32-10.42-8.65c-3.77-1.33-5.1-1.55-5.76-3.1s-4.21-3.77-4.21-3.77l0.28-3.82c0,0-2.16,0-3.82,1
		s-3.33,2.83-3.33,2.83s2.49-0.17,2.99,2c0.5,2.16,0.5,3.33-0.67,4.82c-1.16,1.5,0.67,2,0.17,3.16c-0.5,1.16-1.16,2.33-4.66,1.5
		s-8.81-1.33-9.31,0.5c-0.5,1.83,1.66,4.82-0.67,6.98c-2.33,2.16-3.82,2.49-5.99,2.16c-2.16-0.33-2.16,2.33-2.99,4.49
		s-2.49,6.48-4.16,7.48c-1.66,1,2.33,1.5,2.83,2.99c0.5,1.5,2,2.16,0.33,3.66c-1.66,1.5-4.82,5.49-5.49,8.15s-1.16,7.15-1.16,7.15
		s-7.15,3.16-7.32,4.99s0,0,0.17,3.33c0.17,3.33,0.17,6.48-0.17,8.48c-0.33,2,2,1.5,0.83,2.83c-1.16,1.33-5.15,7.65-5.82,10.14
		s0.67,4.49,1.66,4.82s3.16,2.99,2.33,4.16c-0.83,1.16-1.66,1.33-1.66,1.33s2,2.16,0.33,2.83c-1.66,0.67-10.64-2-12.64,2.83
		s-3.66,5.49-3.66,11.31s1.16,15.3,1.5,20.12s-2.16,9.31-0.17,11.47c2,2.16,7.65,2.66,6.48,4.99c-1.16,2.33-1.66,3.49-1,4.16
		c0.67,0.67,0.33,2-2,2.16c-2.33,0.17-4.32,0.83-2.83,3.33c1.5,2.49,4.82,1.33,3.82,7.48c-1,6.15-0.67,8.48-2.83,9.14
		c-2.16,0.67-5.49,0.33-4.99,2c0.5,1.66,1.83,2,1.83,2s-2.83,0.67-2.16,3.49s1.16,5.99,0.17,7.81c-1,1.83,0,3.66-1.16,3.49
		s-2-5.32-5.15-3.49c0,0,0,0-0.17,1.5c-0.17,1.5,1.33,1.33,1.83,4.32c0.5,2.99-0.17,7.48,0.5,9.14c0.67,1.66,3.82,4.32,2.83,4.66
		c-1,0.33-1.16,1.66,0.17,3.99c1.33,2.33,4.16,3.33,3.33,4.49c-0.83,1.16-1.16,2,0.5,3.66s1.83,2.66,2.16,4.82
		c0.33,2.16,2,2,2.99,5.15c1,3.16,5.82,3.99,6.65,4.49c0.83,0.5-0.83,2.49-0.83,5.82c0,3.33,2.66,5.65,3.82,7.65
		c1.16,2-0.33,1.83-1.83,2.49c-1.5,0.67,0.17,3.33,2.83,4.66c2.66,1.33,7.48,0.33,8.48-0.33s0.67-1,0.33-3.66s-0.33-5.65,0.83-7.32
		c1.16-1.66,2-3.82,3.82-3.66c1.83,0.17,6.82-0.17,11.81-4.16c4.99-3.99,2.99-7.98,4.49-10.97c1.5-2.99,1.83-11.81,2.33-16.13
		c0.5-4.32-2.16-12.8-0.83-13.47c1.33-0.67,15.3-10.31,15.8-11.64c0.5-1.33-0.5-4.49-0.33-6.32s2.16-5.32,2.33-7.81
		c0.17-2.49-0.67-2.16-2.16-2.33c-1.5-0.17-2.66-1.5-2.49-2.83c0.17-1.33-0.67-1.5-2.16-2.66c-1.5-1.16-9.81-4.16-10.64-4.82
		c-0.83-0.67-0.33-2.33-0.17-6.15s-0.67-7.81-1-9.64s0.67-0.83,1.83-1.16c1.16-0.33,1.16-2.33,0.5-3.16
		c-0.67-0.83-1.5-2.66-1.16-5.82c0.33-3.16,0-3.66,0-5.32c0-1.66,2.16-2.83,3.82-3.82s0-2.83,2.16-5.49c2.16-2.66,1.83-2.16,2-2.83
		c0.17-0.67,0.83-2.99,3.49-5.49c2.66-2.49,7.32-6.15,8.48-6.65c1.16-0.5,5.49-8.65,6.48-9.64s-0.17-3.66,0.83-5.15
		s2-1.33,2.33-3.99c0.33-2.66-2.16-2.99-2.83-5.65c-0.67-2.66,1-7.32,2.49-11.14c1.5-3.82,3.33-6.15,4.49-6.15s0-1.33-0.17-2.33
		s3.33-5.15,5.65-6.98c1-0.79,2.29-1.12,3.64-1.15c0.37-2.23,0.59-4.49,0.07-5.33C421.81,164.8,421.59,164.8,421.37,161.25z"/>
	<path class="st1" d="M396.43,112.86c-1.66-0.17-2.49,2.49-2.49,3.99l-0.28,3.82c0,0,3.55,2.22,4.21,3.77s2,1.77,5.76,3.1
		c3.77,1.33,7.98,0.44,10.42,8.65c2.44,8.2,3.99,11.53,3.55,14.19c-0.44,2.66-0.89,2.88,1.11,4.88s2.44,2.44,2.66,5.99
		s0.44,3.55,1.55,5.32c0.52,0.84,0.3,3.1-0.07,5.33c1.8-0.04,3.73,0.47,5.34,1.32c2.83,1.5,5.32,4.66,7.65,6.15
		c2.33,1.5,5.65,5.49,5.49,6.82c-0.17,1.33-2.66,0.5-4.16,0.83c-1.5,0.33-1.5,1.5-2.83,1.83c-1.33,0.33,0.17,3.66,0.17,3.66
		s0,0-0.83,4.66s-5.32,8.15-5.49,9.48c-0.17,1.33,0.33,3.49-0.17,3.82c-0.5,0.33-2,0.17-2,2s-0.5,2.16-2.16,2.16
		c-1.66,0-2,0.67-2.66,3.16s-2,6.15-2.83,7.98s-2.99,2-4.66,1.83s-1,1.66,0.17,2.83c1.16,1.16,0.5,2.99-0.67,4.49
		c-1.16,1.5-2,7.65-0.33,8.98c1.66,1.33,1.5,4.49,2.49,7.32s3.33,10.81,2.49,13.8s-0.5,10.64-0.17,11.47
		c0.33,0.83,3.49,1.16,7.65,2.49c4.16,1.33,9.14,5.99,10.64,6.65c1.5,0.67,4.32,0.5,5.65-0.67c1.33-1.16,3.49-1.33,5.49-1.5
		c2-0.17,1.66,0.5,2.83-1.5c1.16-2,3.82-4.49,7.48-5.82c3.66-1.33,9.81-5.82,10.48-7.15c0.67-1.33,5.49-1.5,8.48-1.5
		c2.99,0,3.99-2,4.82-2.66c-0.8,0.64-1.77,2.49-4.49,2.63c1.77-3.84,5.97-9.93,8.48-13.99c2.88-4.66,3.99-7.54,4.66-11.53
		c0.67-3.99,4.88-9.31,6.21-13.52c1.33-4.21,3.99-6.65,3.55-10.86c-0.44-4.21-7.98-9.75-7.98-9.75s-1.11,0-2.88,0
		c-1.77,0-4.43-2.22-4.88-5.1c-0.44-2.88,2.22-5.1,1.55-7.76s-1.33-2.66-4.21-3.1c-2.88-0.44-1.77-3.99-2.88-6.65
		c-1.11-2.66-3.1,0-4.66-0.89c-1.55-0.89-1.11-9.53-1.33-11.08c-0.22-1.55,1.11-5.99,1.11-8.2s-7.54-10.2-10.86-13.52
		c-3.33-3.33-3.1-6.21-2.88-8.65c0.22-2.44,2-4.21,3.33-7.98c1.33-3.77-1.77-4.43-4.43-7.98c-2.66-3.55-4.21-2-5.54-2
		c-1.33,0-2-1.77-3.55-3.99c-1.55-2.22-1.55-4.43-0.89-6.87s-0.89-2.44-2-3.77s0.89-1.77,0.89-1.77s-3.21,0.06-1.39-3.94
		s5.15-3.99,1-7.81c-4.16-3.82-8.15-4.49-9.98-5.99c-1.83-1.5-2.33-2.66-2.83-0.67c-0.5,2-0.33,2.49-2.16,3.49
		c-1.83,1-1.83-0.17-3.16,1c-1.33,1.16-3.33,7.15-2.99,11.64c0.33,4.49-0.83,4.49,0.17,6.32s1.5,2.33,0,2.83
		c-1.5,0.5-2,2.16-2.49,3.66c-0.5,1.5-0.33,3.33-3.33,2.33s-4.99-3.33-5.82-2.16c-0.83,1.16,1.16,3.16-3.16,3.99
		c-4.32,0.83-7.81-0.17-8.98-3.33S398.09,113.03,396.43,112.86z"/>
	<path class="st1" d="M149.68,323.03c0,0,1,0.17,1.5-1.16c0.5-1.33,1.66-0.67,1.66,0.5c0,1.16,0.17,3.82,1.83,2.49
		c1.66-1.33,0.5-1.16,2.33-3.82c1.83-2.66,3.66-2.99,5.65-5.15c2-2.16,3.66-3.66,3.99-5.65c0.33-2,1.33-4.16,4.16-2.66
		s3.66,2.33,6.48,1.83s8.81-1.33,9.64,0.67c0.83,2-1.83,4.66-4.82,6.32c-2.99,1.66-4.32,1.66-5.32,3.82c-1,2.16-0.67,3.16-1.66,3.99
		c-1,0.83-2.49,1.16-1.16,2.49c1.33,1.33,2.66,2.49,2.83,1.5c0.17-1,1.33-2.49,3.99-2.33c2.66,0.17,5.32,1.66,7.81,1.66
		c2.49,0,6.32,0.67,7.81,2.83c1.5,2.16-3.16,5.49-4.82,7.98c-1.66,2.49-4.49,8.48-7.65,11.14c-3.16,2.66-3.49,6.32-3.49,6.32
		s6.32,3.33,8.15,5.49c1.83,2.16,4.66,5.49,3.16,9.14s-3.49,7.98-2.33,8.98s2.16,1.66,3.49,1.33s1.83-0.17,2,1.5
		c0.17,1.66-0.33,2.33,1.5,2.83s4.32,2.33,4.66,3.49c0.33,1.16,1.16,2.16,2,3.16c0.83,1,4.82,6.32,4.49,7.81s-1.33,1.16-0.83,2.66
		c0.5,1.5,0.83,4.99,1.16,6.48c0.33,1.5,0.83,3.33-0.5,4.82c-1.33,1.5-3.66,1.83-2.99,3.16c0.67,1.33,2.49,2.16,4.99,1
		c2.49-1.16,6.65-1,8.65,1c2,2,4.16,2.99,4.49,5.32c0.33,2.33-1.66,8.15-3.16,10.14s-3.16,1.33-4.16,2.83c-1,1.5-1.5,2.33-2.16,1.66
		c-0.67-0.67-0.5,0-2,1.5s-3.49,1.16-2.99,2.16c0.5,1,2.49,0.83,2.83,2.16c0.33,1.33,2,1,2.99,0.33c1-0.67,2.66-1,2.33,1
		c-0.33,2,0.83,3.99-1.5,3.82s-2.66,0.67-3.66,1.66c-1,1-4.16,3.16-6.65,2.49c-2.49-0.67-10.31-0.33-12.3-0.33
		c-2,0-4.82,0.83-6.15,1.66c-1.33,0.83-3.16,0.33-4.32-1c-1.16-1.33-4.66-1.16-7.15-0.67c-2.49,0.5-6.82,1.33-7.98-0.33
		c-1.16-1.66-1.83-3.66-3.66-2.66c-1.83,1-6.65,1.83-6.98,3.16c-0.33,1.33,1,2.99-1.16,3.66c-2.16,0.67-3.33-2.49-5.49-2.66
		c-2.16-0.17-5.82-0.67-7.48,0.33s-4.49,4.49-5.65,3.99s-3.82-1.5-4.82-2c-1-0.5-2.16-1.83,2.66-3.33
		c4.82-1.5,11.81-6.32,12.14-7.48c0.33-1.16-1.5-2.16,0.33-2.33c1.83-0.17,4.32-1.5,5.15-2.66c0.83-1.16,0.83-2,2.16-1.5
		c1.33,0.5,3.49,1.83,5.99,2c2.49,0.17,4.99-0.67,5.99-2.33c1-1.66,1.16-3.49,1.16-3.49s-5.15,3.16-6.65,1.5
		c-1.5-1.66-4.99-4.16-4.99-4.16s-2.16,0-2.99-1.66c-0.83-1.66-4.32-1.66-4.32-1.66s-3.82,2.33-4.66,0.17
		c-0.83-2.16-2.33-4.82,2.83-6.32s10.97-2.66,11.31-6.32c0.33-3.66-1-6.15-2.33-6.15c-1.33,0-4.82,0-4.16-1.5
		c0.67-1.5,1-0.83,2.83-1.16s3.16-1.16,2-2.49c-1.16-1.33-2.99-5.32-0.83-5.15c2.16,0.17,5.99,1.5,7.48,2.83
		c1.5,1.33,4.32,1.16,6.48-0.17c2.16-1.33,3.33-3.16,3.33-5.65c0-2.49-2.49-10.14-3.16-12.8c-0.67-2.66-0.33-2.99,0.83-4.82
		s2.66-4.49,1-4.66s-6.48,2.16-10.81,1c-4.32-1.16-12.3-4.16-8.81-6.82c3.49-2.66,7.48-3.66,8.31-6.32c0.83-2.66-1.5-7.15-3.82-7.15
		s-2.66,3.66-3.49,5.15c-0.83,1.5-3.16,4.49-3.99,2.99c-0.83-1.5,2.16-4.99,3.16-7.48c1-2.49,1.16-3.99-0.17-5.32
		c-1.33-1.33-3.33-4.32-3.33-4.32s-2.33,1.33-3.49,0.83s-0.67-2.16,0-2.49c0.67-0.33,0.17-2.33,0.5-3.82c0.33-1.5,1.33-1,1.16-2
		c-0.17-1-1-2.33,0.17-2.16c1.16,0.17,5.65-0.17,6.98-2.33c1.33-2.16,0.5-4.66,0.5-4.66s-3.49-1.5-4.99-3.33
		c-1.5-1.83-2.83-3.33-1.66-4.49C148.19,321.7,149.52,321.53,149.68,323.03z"/>
	<path class="st1" d="M133.22,381.39c-0.67-1.5-0.83-2.49-2.49-1.33s-3.33,2-5.65,0.83c-2.33-1.16-4.66-4.66-4.49-6.15
		c0.17-1.5,3.49,0,4.32,0.67s1.5-1.33,0.67-2.66c-0.83-1.33-1.5-1.33,0.5-2.66c1.32-0.88,5.7-4.68,8.51-7.14
		c-0.13-0.11-0.2-0.18-0.2-0.18s-0.5-2.16-2.49-2.33s-5.82,0.67-8.15,0.83c-2.33,0.17-3.16-0.5-3.99,2.16
		c-0.83,2.66,0.5,3.49-1.16,3.99c-1.66,0.5-4.49,0.17-3.82,1.16c0.67,1,2.83,1.33,3.82,1.66c1,0.33,1,2.66-0.83,3.33
		s-2.33,1.33-2.99,2c-0.67,0.67-3.33,1-5.15-0.5c-1.83-1.5-3.49-2.99-5.32-2.49c-1.83,0.5-4.99,3.33-6.15,4.82
		c-1.16,1.5-2.83,3.49-1.5,3.99c1.33,0.5,2.49,0,2.33,1c-0.17,1-1.33,2-2.99,2.49c-1.66,0.5-1.66,2.83,0,3.99
		c1.66,1.16,2.83,3.49,4.49,3.66s3.33,0.5,4.82,0.5c1.5,0,1.5,1,1.5,1s-2.49,0.33-3.16,1.66c-0.67,1.33-2,3.16-4.16,4.49
		c-2.16,1.33-5.65,1-4.82,2s2.49,0.83,2.49,1.5s-1.83,2.83-2.99,2.33c-1.16-0.5-6.15-1.16-6.82,0c-0.67,1.16,0.67,2.16,2,2
		c1.33-0.17,2.49,0.33,1.66,1.16s-4.49,3.16-4.66,3.66c-0.17,0.5-0.5,1.83,1.33,2c1.83,0.17,3.66,0,2.66,0.83
		c-1,0.83-3.49,1.83-2.99,2.99c0.5,1.16,1.83,1.16,2.83,0.33s2.33-1.33,2,0c-0.33,1.33-1,0.67-0.33,1.33
		c0.67,0.67,1.5,3.49,6.15,3.49s9.31-2.49,12.8-3.66c3.49-1.16,4.82-0.83,8.81-2c3.99-1.16,6.32-3.33,8.15-1.83
		c1.83,1.5,2.83,1.16,4.99-1.66c2.16-2.83,6.48-8.65,6.65-14.13c0.17-5.49-1.16-11.97-1.16-11.97
		C133.89,387.71,133.89,382.89,133.22,381.39z"/>
	<path class="st1" d="M147.02,376.57c0.33-1.33,1.66-5.82-0.33-6.65s-0.33-1.83-2.49-3.16c-2.16-1.33-4.32-1.83-6.48-2.33
		c-1.65-0.38-2.71-1.14-3.13-1.49c-2.81,2.46-7.19,6.26-8.51,7.14c-2,1.33-1.33,1.33-0.5,2.66c0.83,1.33,0.17,3.33-0.67,2.66
		s-4.16-2.16-4.32-0.67c-0.17,1.5,2.16,4.99,4.49,6.15c2.33,1.16,3.99,0.33,5.65-0.83s1.83-0.17,2.49,1.33
		c0.67,1.5,0.67,6.32,4.99,7.15c0,0,4.99-3.99,6.98-5.15c2-1.16,3.82-1.5,2.33-2.99C146.03,378.9,146.69,377.9,147.02,376.57z"/>
	<path class="st1" d="M50.3,164.76c0,0,4.39,0.42,5.43-3.97c1.04-4.39,1.46-8.36-1.04-9.61c-2.51-1.25-6.27-4.39-7.1-3.55
		c-0.84,0.84-2.72,2.09-3.34,1.04c-0.63-1.04-0.63-2.72,1.46-3.55c2.09-0.84,6.48-0.84,8.15-0.42c1.67,0.42,3.34,1.88,3.34,1.88
		s6.06-2.09,4.39-6.27c-1.67-4.18-3.76-3.97-6.27-4.18s-5.22-0.42-6.06-1.25c-0.84-0.84-1.46-3.55,1.67-5.64
		c3.13-2.09,4.39-3.13,5.85-4.81s2.51-2.51,3.34-1.46s2.09,3.13,3.34,3.76c1.25,0.63,1.46,1.46,2.09,2.09
		c0.63,0.63,1.88-1.88,0.42-3.13s-2.51-3.55-1.04-4.6s2.51-0.21,3.76,1.04s2.72,4.6,2.93,6.06c0.21,1.46-1.25,2.09,0,3.13
		s2.09,1.88,1.04,3.76c-1.04,1.88-4.18,2.51-3.34,5.85c0.84,3.34,0,4.18,1.88,2.51c1.88-1.67,3.55-3.34,4.81-1.88
		s1.67,1.88,2.72-0.21s0.63-4.18,2.3-5.85c1.67-1.67,1.67,0.42,2.09,2.72c0.42,2.3-1.46,3.34,0.63,4.39
		c2.09,1.04,3.97,0.84,3.34-0.84c-0.63-1.67,0.21-4.6,4.81-4.18c4.6,0.42,6.69,0.42,8.15,2.51c1.46,2.09-1.04,2.72,1.25,3.34
		c2.3,0.63,1.88-1.04,3.76-2.09c1.88-1.04,2.09-0.63,2.93,1.25c0.84,1.88,4.18,2.3,4.6,0.42c0.42-1.88-1.46-3.34,0.42-4.39
		c1.88-1.04,3.76,1.25,4.81,3.13s-1.67,2.51-0.21,3.34c1.46,0.84,1.04,2.09,2.51,1.04c1.46-1.04,2.93-2.72,2.72-0.21
		s-2.72,2.09-2.72,3.13s0,1.46,2.09,1.46c2.09,0,1.25,2.09,0.42,2.93c-0.84,0.84-2.3,1.88-0.84,2.93c1.46,1.04,2.72,0.42,2.72,2.09
		c0,1.67,0.42,2.3,2.3,3.76c1.88,1.46,1.25,4.81,0,6.9c-1.25,2.09-2.3,4.39-4.6,5.43c-2.3,1.04-3.97,2.72-6.48,4.6
		c-2.51,1.88-10.24,3.13-12.33,2.72s-2.3-0.63-3.13,0.63c-0.84,1.25-2.3,1.25-7.31,1.67c-5.02,0.42-8.99-1.25-10.24,0.84
		s-4.81,3.55-8.36,1.88c-3.55-1.67-6.9-7.1-8.36-7.1s-1.46-2.3-3.76-3.97c-2.3-1.67-2.09-4.6-7.31-6.27s-5.22-3.13-7.31-2.72
		c-2.09,0.42-2.09-4.6-0.84-4.6S49.05,164.76,50.3,164.76z"/>
	<path class="st1" d="M50.3,164.76c0,0,4.39,0.42,5.43-3.97c1.04-4.39,1.46-8.36-1.04-9.61c-2.51-1.25-6.27-4.39-7.1-3.55
		c-0.84,0.84-2.72,2.09-3.34,1.04c-0.63-1.04-0.63-2.72,1.46-3.55c2.09-0.84,6.48-0.84,8.15-0.42c1.67,0.42,3.34,1.88,3.34,1.88
		s6.06-2.09,4.39-6.27c-1.67-4.18-3.76-3.97-6.27-4.18s-5.22-0.42-6.06-1.25c-0.84-0.84-1.46-3.55,1.67-5.64
		c3.13-2.09,4.39-3.13,5.85-4.81s2.51-2.51,3.34-1.46s2.09,3.13,3.34,3.76c1.25,0.63,1.46,1.46,2.09,2.09
		c0.63,0.63,1.88-1.88,0.42-3.13s-2.51-3.55-1.04-4.6s2.51-0.21,3.76,1.04s2.72,4.6,2.93,6.06c0.21,1.46-1.25,2.09,0,3.13
		s2.09,1.88,1.04,3.76c-1.04,1.88-4.18,2.51-3.34,5.85c0.84,3.34,0,4.18,1.88,2.51c1.88-1.67,3.55-3.34,4.81-1.88
		s1.67,1.88,2.72-0.21s0.63-4.18,2.3-5.85c1.67-1.67,1.67,0.42,2.09,2.72c0.42,2.3-1.46,3.34,0.63,4.39
		c2.09,1.04,3.97,0.84,3.34-0.84c-0.63-1.67,0.21-4.6,4.81-4.18c4.6,0.42,6.69,0.42,8.15,2.51c1.46,2.09-1.04,2.72,1.25,3.34
		c2.3,0.63,1.88-1.04,3.76-2.09c1.88-1.04,2.09-0.63,2.93,1.25c0.84,1.88,4.18,2.3,4.6,0.42c0.42-1.88-1.46-3.34,0.42-4.39
		c1.88-1.04,3.76,1.25,4.81,3.13s-1.67,2.51-0.21,3.34c1.46,0.84,1.04,2.09,2.51,1.04c1.46-1.04,2.93-2.72,2.72-0.21
		s-2.72,2.09-2.72,3.13s0,1.46,2.09,1.46c2.09,0,1.25,2.09,0.42,2.93c-0.84,0.84-2.3,1.88-0.84,2.93c1.46,1.04,2.72,0.42,2.72,2.09
		c0,1.67,0.42,2.3,2.3,3.76c1.88,1.46,1.25,4.81,0,6.9c-1.25,2.09-2.3,4.39-4.6,5.43c-2.3,1.04-3.97,2.72-6.48,4.6
		c-2.51,1.88-10.24,3.13-12.33,2.72s-2.3-0.63-3.13,0.63c-0.84,1.25-2.3,1.25-7.31,1.67c-5.02,0.42-8.99-1.25-10.24,0.84
		s-4.81,3.55-8.36,1.88c-3.55-1.67-6.9-7.1-8.36-7.1s-1.46-2.3-3.76-3.97c-2.3-1.67-2.09-4.6-7.31-6.27s-5.22-3.13-7.31-2.72
		c-2.09,0.42-2.09-4.6-0.84-4.6S49.05,164.76,50.3,164.76z"/>
	<path class="st1" d="M4.36,762.48c0,0,10.86-15.52,19.51-18.4c8.65-2.88,20.84-3.1,28.38-10.2c7.54-7.09,13.3-20.17,14.85-21.5
		s1.77-2.44,2.44-4.21c0.67-1.77,1.55,0,5.99-1.55c4.43-1.55,8.2-2.22,8.42,1.11c0.22,3.33-0.22,7.32,0.89,8.87
		c1.11,1.55,6.43,7.32,8.2,8.2s54.98,3.55,56.98,2c2-1.55,3.55-4.21,6.43-6.65c2.88-2.44,3.99-3.1,5.1-0.67
		c1.11,2.44,3.33,1.11,4.43,0.22s1.77-3.1,5.76-3.99c3.99-0.89,7.98-1.77,11.08-2c3.1-0.22,17.74,0.22,19.95,0
		c2.22-0.22,2.88-0.44,3.99-2.22c1.11-1.77,1.55-0.44,3.55-0.22c2,0.22,10.86-0.89,13.52-1.33c2.66-0.44,8.2,0.44,12.41,1.55
		s4.66,4.43,7.09,4.43c2.44,0,5.1-2.88,8.42-3.1c3.33-0.22,5.76,0,6.43-1.55c0.67-1.55,2.22-3.55,2.88-1.77
		c0.67,1.77-0.44,2.22,3.1,2.66c3.55,0.44,6.43,0.89,8.2-1.33c1.77-2.22,3.55,0,5.99,0.67s9.09,4.21,13.75,2.22s5.32-4.88,9.98-5.99
		c4.66-1.11,8.87-3.1,13.08-2.88s1.77,3.77,2,5.54c0.22,1.77,1.33,1.55,0.44,3.1s-0.44,3.77,1.55,3.1c2-0.67,6.87-5.76,7.76-7.09
		c0.89-1.33,3.1,1.33,3.33,2.66c0.22,1.33-2.22,7.09-4.66,8.42c-2.44,1.33-6.87,4.21-6.87,5.99s3.1,5.99,6.65,7.76
		c3.55,1.77,4.88,2,4.88,3.55s-0.22,5.99-1.11,7.98c-0.89,2-2.66,3.33-2.66,4.43s1.55,1.11-0.67,3.33
		c-2.22,2.22-3.33,8.87-3.33,8.87"/>
	<path class="st1" d="M305.74,602.55c-1.98-0.54-1.38,3.18-1.64,4.2c-0.46,1.8-3.41,2.47-5.11,2.8c-1.09,0.21-2.33,0.09-3.15,0.86
		c-0.84,0.79-0.97,2.14-0.94,3.24c0.06,2.32,0.56,4.49,0.34,6.85c-0.09,0.95-0.41,1.41,0.19,2.25c0.49,0.68,1.22,0.62,0.86,1.58
		c-0.39,1.07-1.25,0.49-0.18,1.74c0.97,1.12,1.93,2.27,2.91,3.39c1.1,1.25,3.03,2.55,4.75,1.43c1.12-0.73,1.89-3.27,2.19-4.49
		c0.81-3.33,0.88-6.79,1.38-10.16c0.19-1.3,0.5-2.62,0.42-3.94c-0.09-1.47-0.4-3.19-0.67-4.54
		C306.69,605.69,306.17,602.72,305.74,602.55z"/>
	<path class="st1" d="M291.72,663.43c0.72-1.43,0.38-2.68-0.06-4.22c-0.3-1.03-0.57-2.09-0.53-3.14c0.03-0.99,0.23-1.89,0.34-2.87
		c0.14-1.35-0.39-2.45-0.92-3.65c-0.87-1.97-1.91-3.62-1.75-5.87c0.18-2.56,1.4-2.79,3.65-2.68c1.58,0.07,2.93,0.01,4.11-1.11
		c1.55-1.46,2.98-3.17,4.66-4.49c0.81-0.63,2.16-1.63,3.21-1.37c1.47,0.37,2.66,2.53,2.97,3.86c0.28,1.18-0.06,2.65,0.38,3.77
		c0.28,0.73,0.92,1.03,1.36,1.61c1.39,1.83,1.72,4.56,0.61,6.63c-1.01,1.89-2.13,1.75-1.41,4.04c0.4,1.27,0.74,2.44,0.75,3.85
		c0.01,1.54-0.16,2.95-0.55,4.38c-0.19,0.7-0.54,1.33-0.75,1.99c-0.16,0.51-0.14,1.06,0,1.58c0.75,2.72-0.14,3.43-1.18,5.35
		c-0.31,0.57-0.44,1.76-1.23,1.96c-0.8,0.2-1.42-0.77-2.03-1.14c-2.28-1.35-3.14,2.4-4.52,3.71c-1.87,1.79-3.96,1.5-6.17,0.52
		c-2.64-1.17-3.7-2.74-3.44-5.55c0.2-2.17,1.23-3.45,1.88-5.5C291.14,664.97,291.63,663.6,291.72,663.43z"/>
	<path class="st1" d="M392.31,694.36c-1,2.03-2.03,4.34-2.41,6.61c-0.37,2.26,0.19,3.34,1.33,5.18c0.87,1.41,2.14,2.65,2.04,4.41
		c-0.11,2.03-2.13,2.76-2.79,4.58c-0.51,1.41,0.43,2.96-1.57,3.13c-1.03,0.09-1.87-0.91-2.81-1.22c-0.82-0.27-1.62-0.29-2.47-0.25
		c-0.81,0.04-1.59,0.42-2.32,0.09c-1.09-0.49-1.17-1.73-2.04-2.5c-2.06-1.82-6.42-2.53-8.97-3.44c-3.79-1.35-7.35-2.61-10.95-4.42
		c-2.47-1.24-5.19-1.89-7.69-3.03c-2.62-1.19-6.82-5.9-5.9-9.03c1.44-4.9,7.63-1.36,10.72-3.52c0.5-0.35,0.79-1.28,1.2-1.67
		c0.94-0.86,1.85-1.08,3.15-1.13c3.47-0.12,4.97,3.46,8.32,4c3.04,0.49,11.93,0.46,12.33-3.64c1.25-0.59,1.91,0.02,3.12,0.14
		c1.95,0.18,3.11-1.04,4.74-1.73C400.59,682.17,392.58,693.81,392.31,694.36z"/>
	<path class="st1" d="M231.32,651.25c-0.59-0.74-2.43-2.56-1.01-3.33c0.82-0.44,2.87,0.8,3.33,1.34c0.53,0.62,1.33,3.15,0.38,3.7
		c-0.87,0.51-2.71-1.59-3.2-2.21"/>
	<path class="st1" d="M218.96,656.68c0.8,0.01,0.95-0.25,0.78-0.93c0.66-0.15,1.36-0.08,1.49,0.72c0.04,0.23-0.14,0.5-0.11,0.69
		c0.03,0.22,0.13,0.24,0.19,0.41c0.18,0.51,0.14,0.77,0.03,1.42c-0.21,1.24-0.77,1.72-1.86,2.3c-1.14,0.61-1.65,1.57-2.56,2.42
		c-0.54,0.51-1.13,0.93-1.67,1.44c-1.59,1.49-2.96-0.89-4-1.98c-0.62-0.65-1.19-1.29-1.75-1.99c-0.3-0.37-0.7-0.91-1.19-1.05
		c-0.38-0.11-0.73,0.06-1,0.32c-0.51,0.47-0.65,0.71-1.35,0.19c-1.74-1.27,0.33-2.57,1.42-3.19c1.73-1,2.46-2.91,4.47-3.54
		c0.8-0.25,1.45-0.4,2.27-0.22c0.62,0.14,1.15,0.39,1.8,0.32c0.49-0.05,1.08-0.29,1.1,0.45c0.01,0.66-0.63,1.14-1.21,1.12
		c-0.15,0.29-0.2,0.62,0.05,0.81c0.21,0.15,0.57-0.04,0.77,0.07c0.13,0.06,0.17,0.26,0.27,0.31
		C217.55,657.09,219.1,656.61,218.96,656.68z"/>
	<path class="st1" d="M194.02,670.76c-0.99-0.17-1.78-0.78-1.44-1.83c0.4-1.23,1.66-1.13,2.59-1.72c0.41-0.26,0.7-0.68,1.23-0.67
		c0.63,0.01,0.83,0.47,0.78,1.04c-0.1,1.1-1.06,1.56-1.76,2.24c-0.26,0.25-0.48,0.57-0.81,0.71
		C194.28,670.69,193.91,670.59,194.02,670.76z"/>
	<path class="st1" d="M381.8,729.78c-1.07-0.07-1.57,1.4-0.93,2.09c0.95,1.03,2.98,0.24,3.49-0.88c0.77-1.67-1.59-2-2.67-1.33
		L381.8,729.78z"/>
	<path class="st1" d="M453.96,657.84c0.8,0.91,1.74,0.32,1-0.69c-0.8-1.1-1.74-1.03-1.65-2.48c0.05-0.87,0.57-1.89-0.62-2.15
		c-1.34-0.3-1.86,1.52-2.92,1.79c-0.23,1.08,1.19,1.32,1.87,1.73c0.56,0.33,1.03,1.06,1.64,1.16
		C453.39,657.58,453.63,657.61,453.96,657.84z"/>
	<path class="st1" d="M465.49,670.92c0-0.83,0.02-1.19,0.75-1.88c0.69-0.66,0.95-0.98,1.47,0.16c0.38,0.84,0.45,2.84-0.61,3.28
		c-0.85,0.36-1.56-1.64-1.72-1.66L465.49,670.92z"/>
	<path class="st1" d="M467.81,675.8c-0.55,1.16,2.28,3.07,2.66,4.22c0.51,1.55-1.06,1.85-2.44,1.63c-2.5-0.4-4.85-3.91-2.78-6.06
		C466.04,674.79,467.99,674.35,467.81,675.8z"/>
	<path class="st1" d="M470.25,687.66c1.06,0.34,2.39,2.82,3.3,1.11c0.54-1.02-0.41-2.39-1.13-3.06c-0.91-0.84-5.71-1.88-4.72,0.74
		c0.36,0.95,2.13,0.74,2.78,1.32"/>
	<path class="st1" d="M507.33,710.02c-0.37-0.59-0.78-1.78,0.04-2.2c0.47-0.24,1.74,0.24,2.12,0.6c0.39,0.37,0.82,1.55,0.83,2.1
		c0.02,1.21-0.73,1-1.54,0.62L507.33,710.02z"/>
	<path class="st1" d="M528.45,698.72c1.14-0.22,1.31-3.01-0.42-1.95c-1.36,0.83-0.73,3.04,0.5,1.79L528.45,698.72z"/>
	<path class="st1" d="M538.32,690.45c-0.87,0.15-1.74-0.28-1.81-0.97c-0.11-1,1.8-1.74,2.46-1.31
		C541.33,689.66,538.32,690.45,538.32,690.45z"/>
	<path class="st1" d="M541.92,686.16c-0.56,1.34-0.31,4.54,1.91,3.99c0.54-0.13,0.46-0.27,0.67-0.71c0.15-0.31,0.35-0.7,0.51-1.04
		c0.42-0.91-0.01-1.84-0.92-2.27C543.27,685.76,542.36,685.68,541.92,686.16z"/>
	<path class="st1" d="M549.98,677.93c0.74-0.31,1.91-1.08,2.23-1.85c0.36-0.86-0.21-1.21-1.02-1.06c-0.68,0.12-1.72,0.88-1.86,1.62
		C549.22,677.21,549.57,678.04,549.98,677.93z"/>
	<path class="st1" d="M557.63,673.69c1.14-0.02,2.18,0.19,3.2-0.45c1.01-0.63,0.69-1.46-0.37-1.9c-0.78-0.32-1.98-0.38-2.81-0.17
		c-0.54,0.13-1.96,0.55-2.18,1.05C554.91,673.48,557.15,673.27,557.63,673.69z"/>
	<g>
		<path class="st1" d="M567.52,688.33c-0.59,0.99-1.96,1.39-2.17-0.07c-0.18-1.28,1.21-1.87,2.21-2.22c0.91-0.32,1.51-0.11,1.2,0.95
			c-0.21,0.72-1.07,1.04-1.33,1.5"/>
	</g>
	<path class="st1" d="M571.76,708.61c0.01-0.43-0.63-3.64,0.6-3.02c0.86,0.44,0.06,3.11,0.69,4.01c0.31,0.45,0.76,0.49,0.94,1
		c0.16,0.45,0.08,1.42-0.13,1.83c-0.79,1.55-1.62-0.45-1.77-1.25C571.93,710.33,571.36,709.26,571.76,708.61z"/>
	<path class="st1" d="M578.99,697.89c0-1.11,0.18-1.78,0.75-2.73c0.41-0.68,0.9-1.28,1.08-2.09c0.18-0.78,0.25-1.49,1.31-1.65
		c0.82-0.13,1.45,0.96,1.75,1.64c0.66,1.48-1.67,10.02-3.73,8.72c-0.65-0.41-0.81-1.49-0.93-2.17
		C579.14,699.17,579.19,697.99,578.99,697.89z"/>
	<path class="st1" d="M551.39,720.67c0.47,1.92,1.55,1.45,2.83,0.67c0.99-0.61,2.18-0.22,3.2-1.12c0.76-0.67,1.58-2.57,2.95-1.99
		c1.51,0.64,0.83,3.21,0.26,4.26c-0.92,1.71-2.98,2.11-4.76,2.34c-1.45,0.19-2.88,0.83-4.17,1.48c-0.63,0.32-1.08,0.7-1.76,0.69
		c-1.03-0.01-2.01-0.6-3.16-0.5c-2.42,0.22-4.05,2.33-6.52,2.41c-0.85,0.03-1.7,0-2.55,0c-0.44,0-1.44,0.19-1.85,0
		c-0.64-0.29-0.37-0.87-0.65-1.42c-0.82-1.58-4.97-0.15-6.35,0.01c-1.62,0.19-2.84,0.39-4.33-0.26c-0.67-0.29-1.34-0.63-2.05-0.76
		c-1.68-0.31-3.72-0.96-3.91-2.97c-0.15-1.58,0.82-3.52,2.16-4.4c1.57-1.04,2.65,0.82,3.99,1.13c1.53,0.35,2.45-2.29,3.91-1.57
		c1.42,0.71,0.48,2.86,1.98,3.65c0.74,0.39,1.67,0.3,2.42,0.02c1.27-0.47,2.53-1.25,3.77-1.81c1.96-0.89,3.95-1.95,6.12-0.8
		c0.79,0.42,1.41,1.31,2.33,1.45c1.01,0.15,1.74-0.44,2.49-0.96c0.51-0.35,1.51-1.16,2.17-1.21c0.67-0.05,0.66,0.22,1.02,0.65
		C551.2,719.98,551.52,720.04,551.39,720.67z"/>
	<path class="st1" d="M507.58,661.73c1.14,0.68,2.19,0.89,3.49,1.07c2.26,0.32,4.77,0.35,6.57,1.8c1.31,1.05,1.98,2.81,2.99,4.17
		c1.04,1.41,2.35,2.57,3.44,3.93c1.25,1.56,0.31,3.12-1.72,1.97c-1.88-1.07-2.59-3.55-4.46-4.69c-3.05-1.86-6.84-1.94-9.92-3.72
		c-1.93-1.11-4.3-2.78-5.71-4.52c-0.94-1.16-2.54-2.82-0.19-3.02c1.56-0.13,2.71,0.17,3.86,1.14
		C505.82,659.98,506.84,661.29,507.58,661.73z"/>
	<path class="st1" d="M534.43,680.23c0.83-0.26,1.93,0.1,2.32-0.94c0.36-0.96-0.41-1.38-1.32-1.39c-1.73-0.01-2.34,2.72-0.78,2.33
		H534.43z"/>
	<path class="st1" d="M531,677.02c1.88,0.41,0.66-3.55-1.44-2.99c-2.41,0.64-0.01,2.73,1.33,2.88L531,677.02z"/>
	<path class="st1" d="M546.29,666.93c-1.94,1-2.59-0.33-2.06-2.05c0.49-1.58-0.16-1.9-1.48-2.97c-1.53-1.24-1.11-2.71,1.11-2.62
		c2,0.08,3.52,1.32,3.96,3.25c0.24,1.06,0.23,2.78-0.39,3.73C546.98,666.97,546.62,666.89,546.29,666.93z"/>
	<path class="st1" d="M541.86,650.53c1.77,0.27,1.75-1.95,3.09-1.76c0.28,1.21-0.93,1-1.09,1.81c-0.2,1.01,1.56,1.38,2.23,1.53
		c1.08,0.23,3.26,0.23,4.23-0.5c0.89-0.67,0.45-1.37,0.1-2.16c-0.76-1.71-2.38-5.41-4.69-5.24c-1.32,0.1-1.41,0.99-2.21,1.75
		c-0.86,0.82-1.89,0.21-2.88,0.71C538.64,647.67,540.19,650.32,541.86,650.53z"/>
	<path class="st1" d="M527.89,640.11c2.15,0.11,2.74-0.9,2.77-2.85c0.03-1.72-0.59-2.09-2.21-1.56
		C525.67,636.61,523.8,639.98,527.89,640.11z"/>
	<path class="st1" d="M536.54,633.12c1.68-0.19,2.52-3.14-0.17-2.17c-1.93,0.7-1.14,3.2,0.28,1.94L536.54,633.12z"/>
	<path class="st1" d="M520.24,628.8c0.89,1.18,3.66-1.52,0.8-1.77c-2.03-0.18-2.85,1.12-0.8,1.88V628.8z"/>
	<path class="st1" d="M521.35,658.07c-0.29,0.57,1.3,2.08,1.86,2.34c0.95,0.44,1.99-0.01,1.58-1.25c-0.21-0.65-1.66-1.69-2.39-1.75
		c-0.54-0.05-1.6,0.47-1.05,0.89V658.07z"/>
	<path class="st1" d="M322.72,204.15c1.92-0.04,1.15-2.58-0.95-2.29c0,0-0.96-0.09-1.13,1.02
		C320.47,203.98,322.72,204.15,322.72,204.15z"/>
	<path class="st1" d="M303.77,226.97c1.38-0.9,0.21-2.8-1.46-1.75c-1.69,1.07,0.55,3.7,1.17,1.95L303.77,226.97z"/>
	<path class="st1" d="M300.16,232.41c0.93-0.6,2.71-1.04,2.3-2.47c-1.61-0.66-3.31,0.02-4.87,0.55c-0.79,0.27-1.13,1.43-0.34,1.71
		C298.29,232.57,300.16,232.41,300.16,232.41z"/>
	<path class="st1" d="M293.76,233.9c-1.88,0.54-1.06,1.69,0.2,2.07c0.69,0.21,2.8-0.47,2.87-1.19
		C296.91,234.04,295.29,233.47,293.76,233.9z"/>
	<path class="st1" d="M208.04,284.95c1.51,0.29,0.56,2.21,1.45,2.71c1.3,0.73,0.97-1.66,1.04-2.29c0.25-2.15,1.36-3.69,0-5.63
		c-0.68-0.97-2.69-4.83-3.5-2.6c-0.62,1.72,1.68,2.35,1.89,3.66c0.31,1.95-1.13,0.43-2.04,0.49c-0.96,0.07-2.68,1.52-1.84,2.55
		C205.76,284.72,207.19,283.69,208.04,284.95z"/>
	<path class="st1" d="M211.37,277.64c1.58-0.45,1.73-3.1,1.64-4.47c-1.49-0.33-1.3,1.1-1.64,1.97c-0.32,0.81-0.87,1.38-0.64,2.47
		C211.25,277.76,211.37,277.64,211.37,277.64z"/>
	<path class="st1" d="M186.47,303.66c1.08,0.96,3.87,1.78,3.46-0.09c-0.17-0.76-1.28-0.31-1.64-0.69c-0.51-0.54-0.23-1.05-0.37-1.71
		c-0.14-0.66,0.23-1.21-0.49-1.59c-0.71-0.37-1.71,0.43-2.05,0.97C184.18,302.43,186.47,303.66,186.47,303.66z"/>
	<path class="st1" d="M165.56,237.15c0.82,1.18,1.96,2.14,1.83,3.66c-0.14,1.61-0.77,2.65-2.29,1.67c-1.8-1.17-4.99-5.13-1.51-6.4
		c0.66-0.24,1.62-0.01,1.64,0.81C165.45,236.86,165.44,236.99,165.56,237.15z"/>
	<path class="st1" d="M350.32,138.3c0.82-0.49,3.4-2.75,3.33-3.88c-0.11-1.67-2.7,0.26-3.24,0.61c-1.64,1.06-3.19,2.14-4.77,3.27
		c-1.03,0.73-3.01,2.48-3.51,3.64c1.72,0.34,3.83-1.69,5.16-2.54C348.23,138.8,349.49,138.56,350.32,138.3z"/>
	<path class="st1" d="M353.25,132.1c-0.34-0.12-0.64-0.45-0.66-0.8c-0.04-0.51,0.45-0.67,0.5-1.14c0.04-0.37-0.2-0.69-0.41-0.97
		c-0.38-0.49-1.1-0.71-1.43-1.14c-0.33-0.43,0.08-1.07,0.36-1.49c0.43-0.64,0.92-0.73,1.56-1.05c1.46-0.73,1.55-2.26,2-3.67
		c0.39-1.21,0.61-2.51,2.06-2.87c1.85-0.46,1.74,1.69,1.49,2.82c-0.09,0.42-0.39,1.32-0.11,1.7c0.29,0.4,1.04,0.33,1.46,0.45
		c1.49,0.45,1.54,2.64,1,3.86c-0.46,1.03-1.3,2.11-2.22,2.76c-0.89,0.63-2.01,1.48-3.03,1.88
		C355.07,132.72,353.7,132.75,353.25,132.1z"/>
	<path class="st1" d="M364.89,117.69c-0.22-0.79-0.28-2.52,0.33-3.16c0.56-0.59,1.53-0.45,1.89-1.31c0.36-0.86-0.23-2.05,0.88-2.51
		c1.17-0.49,2.41,0.25,2.83,1.33c0.14,0.36,0.14,0.62,0.46,0.9c0.36,0.32,0.89,0.37,1.09,0.81c0.43,0.96-0.73,2.4-1.26,3.08
		c-0.97,1.26-2.37,1.98-3.34,3.21c-0.56,0.71-0.81,1.55-1.87,1.58c-1.33,0.04-0.93-1.76-0.76-2.61c0.13-0.61-0.02-0.62-0.23-1.11
		C364.81,117.68,364.68,117.55,364.89,117.69z"/>
	<path class="st1" d="M375.31,101.93c1.05-0.32,2.03-1.58,2.74-2.37c0.53-0.59,1.34-1.31,1.24-2.2c-0.63-0.1-1.32,0.49-1.77,0.87
		c-0.65,0.54-1.27,1.07-1.76,1.77c-0.15,0.21-1.26,1.66-0.5,1.65C375.28,101.76,375.37,101.8,375.31,101.93z"/>
	<path class="st1" d="M372.19,108.33c-0.61,0.07-0.48-0.96-0.33-1.29c0.32-0.69,1.18-0.86,1.66-1.39c0.47-0.51,0.99-1.05,1.66-1.29
		c0.22-0.08,0.52-0.18,0.76-0.09c0.18,0.07,0.27,0.31,0.43,0.37c0.37,0.14,0.66-0.21,0.83,0.23c0.17,0.46-0.35,1.22-0.62,1.53
		c-0.58,0.65-1.42,0.83-2.03,1.38c-0.38,0.35-0.54,0.66-1.07,0.75c-0.25,0.04-0.83,0.16-1.06,0.08
		C372.22,108.55,372.21,108.33,372.19,108.33z"/>
	<path class="st1" d="M398.76,81.19c0.18-1.1,3.05-1.69,2.23-3.08c-1.02-1.72-3.63,0.66-4.42,1.35c-1.05,0.91-0.98,2.21,0.46,2.63
		C398.25,82.45,398.16,81.18,398.76,81.19z"/>
	<path class="st1" d="M405.32,78.36l-0.96-0.96c-0.75-1.14,0.76-1.95,1.6-2.35c1.01-0.48,2.91-2.51,3.63-0.53
		c0.55,1.51-0.96,3.3-2.35,3.59c-0.57,0.12-1.56,0.6-1.91,0.09C405.28,78.29,405.37,78.28,405.32,78.36z"/>
	<path class="st1" d="M432.75,307.64c-4.84-2.02,1.12-5.86,3.7-3.89c3.69,2.82-1.13,4.73-3.7,3.69"/>
	<path class="st1" d="M434.42,319.04c-0.98,0.38-0.03,1.57-1.15,1.91c-1.12,0.35-2.05-0.85-2.55-1.7c-1.51-2.57-0.58-5.81,2.16-7.1
		c1.58-0.74,3.3-1.09,4.78-2.03c1.06-0.68,1.82-1.08,3.1-1.15c1.32-0.07,2.27,0.59,2.46,2.01c0.31,2.37-2.12,3.23-3.72,4.3
		c-1.28,0.85-2.8,1.81-3.81,2.94C435.38,318.58,434.86,319.6,434.42,319.04z"/>
	<path class="st1" d="M400.59,329.1c0.56-1.59,2.11-0.95,2.58,0.39c0.66,1.89-0.66,2.8-1.27,4.38c-0.58,1.49,0.57,3.48,0.77,5.01
		c0.14,1.1,0.23,2.29-0.34,3.28c-0.58,0.99-1.57,1.61-2.41,2.32c-0.63,0.53-1.53,2.86-2.25,2.67c-1.22-0.31-1.28-3.56-1.65-4.54
		c-0.6-1.61-0.68-3.15-0.66-4.86c0.01-1.71,0.87-2.94,1.79-4.33C397.95,332.22,399.22,329.53,400.59,329.1z"/>
	<path class="st1" d="M380.72,349.97c0.17-1.12,1.25-5.15,2.46-2.53c0.59,1.26,0.46,2.97,0.26,4.31c-0.24,1.67-0.38,3.53-0.89,5.14
		c-0.33,1.04-1.82,4.04-3.21,2.89c-1.48-1.22-0.02-4.67,0.21-6.23C379.7,352.56,379.87,350.36,380.72,349.97z"/>
	<path class="st1" d="M364.5,383.47c0.93,0.79,3.21,2.97,4.39,1.66c0.83-0.93-0.38-2.7-1.1-3.46c-0.98-1.04-3.6-1.44-4.54-0.1
		C362.39,382.81,363.93,383.22,364.5,383.47z"/>
	<path class="st1" d="M335.32,393.86c0.03-0.65-0.2-1.31-0.04-1.95c0.15-0.61,0.59-0.95,0.89-1.47c0.24-0.41,0.18-1.12,0.48-1.44
		c0.3-0.32,1-0.16,1.37-0.22c0.7-0.11,2.93-0.88,2.12-1.83c-0.77-0.91-3.04,0.05-3.93,0.29c-1.39,0.36-2.48,0.43-3.89,0.56
		c-0.56,0.05-1.07,0.28-1.62,0.33c-0.94,0.09-1.86-0.29-2.79-0.33c-1.72-0.08-2.88-0.14-3.9,1.35c-1.29,1.91,0.7,2.38,2.34,2.99
		c2.08,0.77,4.34,0.49,6.37,1.48C333.29,393.89,334.77,394.61,335.32,393.86z"/>
	<path class="st1" d="M312.71,383.64c1.33-0.03,2.62,0.23,3.49,1.27c0.74,0.88,1.22,1.26,2.41,1.32c1.15,0.06,2.57-0.41,3.47-1.16
		c1.39-1.15,0.33-2.97,0.26-4.43c-0.05-1.07,0.02-2.01-0.52-2.96c-0.44-0.78-1.25-2.12-2.19-2.33c-0.93-0.21-1.56,0.58-2.17,1.11
		c-0.64,0.55-1.36,1.02-2.02,1.56c-0.68,0.56-1.41,0.98-1.99,1.64C312.89,380.29,311.23,383.71,312.71,383.64z"/>
	<path class="st1" d="M328.59,383.22c-0.68-0.94-1.99-0.95-2.24-2.24c-0.23-1.18-0.04-2.25-0.4-3.42c-0.8-2.6,0.37-6.48,3.08-7.48
		c0.68-0.25,1.58-0.46,2.31-0.31c0.93,0.19,1.22,1.26,1.91,1.48c1.51,0.49,0.81-1.67,0.69-2.31c-0.24-1.32-0.13-2.11,0.97-2.93
		c1.94-1.46,3.46-4.66,6.17-2.43c1.33,1.1,1.72,3.93,1.32,5.41c-0.53,1.96-1.43,3.67-2.33,5.4c-0.54,1.04-1.27-0.02-2,0.83
		c-0.26,0.3-0.8,1.36-0.58,1.83c0.15,0.32,0.29,0.97,0.58,1.16c0.39,0.26,0.37,0.53,0.73,0.84c0.71,0.6,1.46,1.82,0.76,2.74
		c-0.39,0.51-1.42,0.38-1.93,0.58c-0.53,0.21-0.57,0.31-0.84,0.91c-0.59,1.31-0.83,2.23-2.45,2.42c-1.06,0.12-1.96-0.12-2.66-0.9
		c-0.35-0.39-0.66-1.1-1.18-1.33c-0.63-0.29-1.35-0.05-2.01-0.37C328.38,383,328.55,383.1,328.59,383.22z"/>
	<path class="st1" d="M159.8,386.43c0.8-0.81,2.41-2.23,1.11-3.15c-1.56-1.1-2.68,1.38-3.57,2.36c-0.65,0.71-3.02,2.41-1.17,3.21
		c1.21,0.52,3.02-0.3,3.08-1.63C159.41,387.19,159.9,386.31,159.8,386.43z"/>
	<path class="st1" d="M155.11,362.94c0.07-0.86-0.81-1.04-0.93-1.83c-0.17-1.09,0.24-1.42,0.93-1.94c0.33-0.25,0.22-0.35,0.73-0.15
		c0.51,0.2,0.72,0.53,0.83,1.05c0.15,0.67,0.54,1.48,0.26,2.19c-0.25,0.64-1.5,1.42-1.76,0.5
		C155.13,362.87,155.1,362.8,155.11,362.94z"/>
	<path class="st1" d="M147.36,353.4c0.38,0.64-0.38,0.58-0.7,0.78c-0.39,0.23-0.41,0.63-0.02,0.91c0.38,0.27,0.55-0.09,0.68,0.52
		c0.07,0.32-0.02,0.67-0.02,1c-0.74,0.17-0.9,0.77-1.42,1.12c-0.32,0.22-1.55,0.52-1.9,0.33c-0.54-0.29-0.45-1.15-0.73-1.67
		c-0.23-0.41-0.68-0.54-0.98-0.88c-0.66-0.74-0.43-1.46,0.61-1.61c0.39-0.06,0.76,0.1,1.11-0.16c0.32-0.24,0.43-0.74,0.67-1.06
		c0.3-0.38,0.8-0.87,1.27-1.01c0.22-0.07,0.45-0.02,0.67-0.09c0.23-0.07,0.37-0.27,0.6-0.28c0.58-0.03,0.94,0.77,0.72,1.27
		C147.73,353,147.44,353,147.36,353.4z"/>
	<path class="st1" d="M138.49,325.97c0.12-0.22,0.33-0.34,0.45-0.55c0.14-0.25,0.11-0.53,0.3-0.75c0.28-0.32,0.76-0.36,0.99-0.75
		c0.46-0.76,0.52-2.15-0.58-2.16c-0.43-0.01-1.07,0.18-1.39,0.46c-0.41,0.37-0.31,0.88-0.61,1.26c-0.19,0.24-0.63,0.3-0.8,0.62
		c-0.21,0.39-0.09,0.89,0.13,1.24C137.22,325.68,138.23,326.27,138.49,325.97z"/>
	<path class="st1" d="M139.21,318.54c0.21,0.59,0.83,0.67,1.31,0.39c0.23-0.13,0.39-0.39,0.63-0.51c0.16-0.08,0.42-0.03,0.57-0.16
		c0.82-0.72-0.39-2.11-1.29-1.83c-0.4,0.13-0.53,0.68-0.88,0.83c-0.34,0.15-0.72-0.15-1.06,0.16
		C138.03,317.85,138.6,318.48,139.21,318.54z"/>
	<path class="st1" d="M147.3,314.99c-0.46,0.54-2.07,0.8-2.22-0.09c-0.21-1.26,1.43-0.97,1.8-1.67c0.37-0.7-0.37-1.69-0.96-2.04
		c-0.39-0.23-0.64-0.09-0.86-0.55c-0.25-0.54,0.07-1.16,0.3-1.65c0.55-1.12,2.28-1.54,3.32-2.2c0.65-0.41,1.28-0.77,1.89-1.23
		c0.41-0.31,0.88-0.61,1.4-0.73c0.92-0.2,2.46,0.02,3,0.9c0.4,0.65,0.03,1.66-0.24,2.31c-0.41,1-1.34,1.59-2.13,2.27
		c-1.25,1.07-2.15,2.43-3.41,3.48c-0.39,0.32-0.84,0.81-1.32,1c-0.21,0.09-0.5,0.05-0.73,0.11
		C147.16,314.96,147.2,314.94,147.3,314.99z"/>
	<path class="st1" d="M397.26,593.39c-0.09,3.14,7.31,2.45,6.46-0.47c-0.83-0.48-2.15-0.8-3.13-0.69c-1.15,0.12-2.01,1.18-3.16,1
		L397.26,593.39z"/>
	<path class="st1" d="M372.49,564.62c-1.88-0.8,1.42,6.11,3.03,3.03c1.26-2.4-1.45-3.35-3.2-3.36L372.49,564.62z"/>
	<path class="st1" d="M495.41,252.37c-2.01-2.13-3.58-2.64-1.77-5.1c0.22-0.29,0.91-0.28,1.09-0.57c0.35-0.58,0.04-1.19,0.24-1.76
		c0.55-1.55,0.52-1.48,1.77-2.55c1.82-1.55,3.41-3.43,5.99-2.71c1.38,0.39,1.9,1.29,2.93,2.06c1.9,1.41,3.47,1.14,5.67,1.54
		c5.84,1.05,10.89,4.16,10.23,10.54c-0.12,1.14-0.51,1.97-0.38,3.21c0.1,0.99,1.02,2.14,1.2,3.1c0.55,2.96-1.8,3.73-4.8,2.62
		c-1.62-0.6-1.93-1.71-3.3-0.04c-0.96,1.18-0.29,1.98-0.3,3.02c-0.03,1.69,0.41,1.27-1.05,2.33c-0.01,0.01-0.02,0.01-0.03,0.02
		c-1.28,0.91-3.08,0.4-3.8-1c-1.51-2.93-3.15-5.16-6.15-7.62C500.42,257.39,497.31,253.19,495.41,252.37z"/>
	<path class="st1" d="M529.14,222.95c-0.38-2.27,1.26-3.02,2.9-2.04c1.23,0.73,2.37,2.45,3.6,1.13c1.21-1.31,0.85-5.36,0.19-6.76
		c-0.99-2.09-2.6-1.76-4.64-1.86c-1.84-0.09-4.86-0.7-5.66-2.73c-1.15-2.9,3.08-1.8,4.49-1.36c2.38,0.75,6.23,0.5,7.95,2.39
		c0.42,0.46,1.18,1.83,1.22,2.46c0.07,1.1-0.62,1.11-0.85,1.95c-0.63,2.35,1.89,4.89,3.07,6.62c1.06,1.55,3.62,2.82,3.44,4.95
		c2.84-0.13,5.21,1.47,5.57,4.38c0.19,1.54-0.28,4.23-1.16,5.5c-0.54,0.78-3.46,3.49-4.43,3.57c-1.45,0.12-1.94-1.79-2.2-3.03
		c-0.38-1.8-0.26-3.14-1.8-4.43c-2.69-2.26-7.02-1.01-9.12-4.24c-0.79-1.21-0.66-2.51-1.22-3.74
		C530.01,224.71,528.84,224.21,529.14,222.95z"/>
	<path class="st1" d="M149.68,323.03c0,0,1,0.17,1.5-1.16c0.5-1.33,1.66-0.67,1.66,0.5c0,1.16,0.17,3.82,1.83,2.49
		c1.66-1.33,0.5-1.16,2.33-3.82c1.83-2.66,3.66-2.99,5.65-5.15c2-2.16,3.66-3.66,3.99-5.65c0.33-2,1.33-4.16,4.16-2.66
		s3.66,2.33,6.48,1.83s8.81-1.33,9.64,0.67c0.83,2-1.83,4.66-4.82,6.32c-2.99,1.66-4.32,1.66-5.32,3.82c-1,2.16-0.67,3.16-1.66,3.99
		c-1,0.83-2.49,1.16-1.16,2.49c1.33,1.33,2.66,2.49,2.83,1.5c0.17-1,1.33-2.49,3.99-2.33c2.66,0.17,5.32,1.66,7.81,1.66
		c2.49,0,6.32,0.67,7.81,2.83c1.5,2.16-3.16,5.49-4.82,7.98c-1.66,2.49-4.49,8.48-7.65,11.14c-3.16,2.66-3.49,6.32-3.49,6.32
		s6.32,3.33,8.15,5.49c1.83,2.16,4.66,5.49,3.16,9.14s-3.49,7.98-2.33,8.98s2.16,1.66,3.49,1.33s1.83-0.17,2,1.5
		c0.17,1.66-0.33,2.33,1.5,2.83s4.32,2.33,4.66,3.49c0.33,1.16,1.16,2.16,2,3.16c0.83,1,4.82,6.32,4.49,7.81s-1.33,1.16-0.83,2.66
		c0.5,1.5,0.83,4.99,1.16,6.48c0.33,1.5,0.83,3.33-0.5,4.82c-1.33,1.5-3.66,1.83-2.99,3.16c0.67,1.33,2.49,2.16,4.99,1
		c2.49-1.16,6.65-1,8.65,1c2,2,4.16,2.99,4.49,5.32c0.33,2.33-1.66,8.15-3.16,10.14s-3.16,1.33-4.16,2.83c-1,1.5-1.5,2.33-2.16,1.66
		c-0.67-0.67-0.5,0-2,1.5s-3.49,1.16-2.99,2.16c0.5,1,2.49,0.83,2.83,2.16c0.33,1.33,2,1,2.99,0.33c1-0.67,2.66-1,2.33,1
		c-0.33,2,0.83,3.99-1.5,3.82s-2.66,0.67-3.66,1.66c-1,1-4.16,3.16-6.65,2.49c-2.49-0.67-10.31-0.33-12.3-0.33
		c-2,0-4.82,0.83-6.15,1.66c-1.33,0.83-3.16,0.33-4.32-1c-1.16-1.33-4.66-1.16-7.15-0.67c-2.49,0.5-6.82,1.33-7.98-0.33
		c-1.16-1.66-1.83-3.66-3.66-2.66c-1.83,1-6.65,1.83-6.98,3.16c-0.33,1.33,1,2.99-1.16,3.66c-2.16,0.67-3.33-2.49-5.49-2.66
		c-2.16-0.17-5.82-0.67-7.48,0.33s-4.49,4.49-5.65,3.99s-3.82-1.5-4.82-2c-1-0.5-2.16-1.83,2.66-3.33
		c4.82-1.5,11.81-6.32,12.14-7.48c0.33-1.16-1.5-2.16,0.33-2.33c1.83-0.17,4.32-1.5,5.15-2.66c0.83-1.16,0.83-2,2.16-1.5
		c1.33,0.5,3.49,1.83,5.99,2c2.49,0.17,4.99-0.67,5.99-2.33c1-1.66,1.16-3.49,1.16-3.49s-5.15,3.16-6.65,1.5
		c-1.5-1.66-4.99-4.16-4.99-4.16s-2.16,0-2.99-1.66c-0.83-1.66-4.32-1.66-4.32-1.66s-3.82,2.33-4.66,0.17
		c-0.83-2.16-2.33-4.82,2.83-6.32s10.97-2.66,11.31-6.32c0.33-3.66-1-6.15-2.33-6.15c-1.33,0-4.82,0-4.16-1.5
		c0.67-1.5,1-0.83,2.83-1.16s3.16-1.16,2-2.49c-1.16-1.33-2.99-5.32-0.83-5.15c2.16,0.17,5.99,1.5,7.48,2.83
		c1.5,1.33,4.32,1.16,6.48-0.17c2.16-1.33,3.33-3.16,3.33-5.65c0-2.49-2.49-10.14-3.16-12.8c-0.67-2.66-0.33-2.99,0.83-4.82
		s2.66-4.49,1-4.66s-6.48,2.16-10.81,1c-4.32-1.16-12.3-4.16-8.81-6.82c3.49-2.66,7.48-3.66,8.31-6.32c0.83-2.66-1.5-7.15-3.82-7.15
		s-2.66,3.66-3.49,5.15c-0.83,1.5-3.16,4.49-3.99,2.99c-0.83-1.5,2.16-4.99,3.16-7.48c1-2.49,1.16-3.99-0.17-5.32
		c-1.33-1.33-3.33-4.32-3.33-4.32s-2.33,1.33-3.49,0.83s-0.67-2.16,0-2.49c0.67-0.33,0.17-2.33,0.5-3.82c0.33-1.5,1.33-1,1.16-2
		c-0.17-1-1-2.33,0.17-2.16c1.16,0.17,5.65-0.17,6.98-2.33c1.33-2.16,0.5-4.66,0.5-4.66s-3.49-1.5-4.99-3.33
		c-1.5-1.83-2.83-3.33-1.66-4.49C148.19,321.7,149.52,321.53,149.68,323.03z"/>
	<path class="st1" d="M138.21,388.54c0,0,4.99-3.99,6.98-5.15c2-1.16,3.82-1.5,2.33-2.99c-1.5-1.5-0.83-2.49-0.5-3.82
		c0.33-1.33,1.66-5.82-0.33-6.65c-2-0.83-0.33-1.83-2.49-3.16c-2.16-1.33-4.32-1.83-6.48-2.33c-2.16-0.5-3.33-1.66-3.33-1.66
		s-0.5-2.16-2.49-2.33c-2-0.17-5.82,0.67-8.15,0.83c-2.33,0.17-3.16-0.5-3.99,2.16c-0.83,2.66,0.5,3.49-1.16,3.99
		s-4.49,0.17-3.82,1.16c0.67,1,2.83,1.33,3.82,1.66c1,0.33,1,2.66-0.83,3.33c-1.83,0.67-2.33,1.33-2.99,2
		c-0.67,0.67-3.33,1-5.15-0.5c-1.83-1.5-3.49-2.99-5.32-2.49c-1.83,0.5-4.99,3.33-6.15,4.82s-2.83,3.49-1.5,3.99
		c1.33,0.5,2.49,0,2.33,1c-0.17,1-1.33,2-2.99,2.49c-1.66,0.5-1.66,2.83,0,3.99c1.66,1.16,2.83,3.49,4.49,3.66
		c1.66,0.17,3.33,0.5,4.82,0.5c1.5,0,1.5,1,1.5,1s-2.49,0.33-3.16,1.66c-0.67,1.33-2,3.16-4.16,4.49s-5.65,1-4.82,2
		c0.83,1,2.49,0.83,2.49,1.5c0,0.67-1.83,2.83-2.99,2.33s-6.15-1.16-6.82,0c-0.67,1.16,0.67,2.16,2,2c1.33-0.17,2.49,0.33,1.66,1.16
		c-0.83,0.83-4.49,3.16-4.66,3.66c-0.17,0.5-0.5,1.83,1.33,2c1.83,0.17,3.66,0,2.66,0.83c-1,0.83-3.49,1.83-2.99,2.99
		c0.5,1.16,1.83,1.16,2.83,0.33c1-0.83,2.33-1.33,2,0s-1,0.67-0.33,1.33c0.67,0.67,1.5,3.49,6.15,3.49c4.66,0,9.31-2.49,12.8-3.66
		c3.49-1.16,4.82-0.83,8.81-2c3.99-1.16,6.32-3.33,8.15-1.83c1.83,1.5,2.83,1.16,4.99-1.66s6.48-8.65,6.65-14.13
		S138.21,388.54,138.21,388.54z"/>
</g>
<g id="Graphic_Title">
	<g>
		<rect x="122.18" y="36.77" class="st2" width="230.03" height="64.42"/>
		<text transform="matrix(1 0 0 1 122.1746 49.6625)"><tspan x="0" y="0" class="st3 st4 st5">Diffusion of Influenza </tspan><tspan x="0" y="24" class="st3 st4 st5">Within &amp; From Europe</tspan><tspan x="0" y="48" class="st6 st7 st8">Autumn 1918</tspan></text>
	</g>
</g>
</svg>
