<?xml version="1.0" encoding="utf-8"?>
<!-- Generator: Adobe Illustrator 24.2.3, SVG Export Plug-In . SVG Version: 6.00 Build 0)  -->
<svg version="1.1" id="Layer_1" xmlns="http://www.w3.org/2000/svg" xmlns:xlink="http://www.w3.org/1999/xlink" x="0px" y="0px"
	 viewBox="0 0 600 800" style="enable-background:new 0 0 600 800;" xml:space="preserve">
<style type="text/css">
	.st0{fill:none;stroke:#878787;stroke-width:2.33;stroke-miterlimit:10;}
	.st1{fill:none;stroke:#878787;stroke-width:2.33;stroke-miterlimit:10;stroke-dasharray:12;}
	.st2{fill:none;stroke:#878787;stroke-width:3.33;stroke-miterlimit:10;}
	.st3{fill:#878787;}
	.st4{font-family:Roboto;font-weight:400;}
	.st5{font-size:13px;}
</style>
<g id="Sep">
	<path class="st0" d="M278.82,396.24c0,0,23.94,4.88,31.04,5.76s14.19,0.89,30.59-3.55c16.41-4.43,35.47-12.86,41.68-20.4
		s14.63-36.8,8.87-55.42s-20.4-36.8-43.01-50.1s-67.84-11.97-104.2-7.98"/>
	<path class="st1" d="M243.79,264.56c-36.36,3.99-74.93,11.53-101.09,19.07s-89.56,26.16-89.56,26.16"/>
	<path class="st0" d="M235.37,429.5c0,0-0.92,12.09,7.52,19.57s21.74,14.57,28.4,27.87s13.75,18.18,4.88,36.36
		s-11.53,23.94-3.99,32.81s19.29,10.64,29.6,4.66s27.16-24.61,42.23-28.6c15.08-3.99,25.27-2.22,35.91,7.09s28.38,33.25,33.25,39.02
		c4.88,5.76,8.42,15.08,17.74,17.74c9.31,2.66,24.39,5.76,39.9,25.27c15.52,19.51,35.03,37.69,40.35,40.79"/>
	<g>
		<g>
			<path class="st2" d="M123.19,531.03c0,0-15.96-1.77-26.16-7.09s-21.73-13.75-33.7-15.08c-8.33-0.93-18.17-3.36-23.38-4.75"/>
			<g>
				<polygon class="st3" points="47.82,500.31 40.92,504.32 44.94,511.22 40.31,510 36.29,503.1 43.19,499.08 				"/>
			</g>
		</g>
	</g>
	<g>
		<g>
			<path class="st2" d="M189.59,448.56c0,0-7.98-5.99-6.32-12.64c1.54-6.17,3.37-26.66-1.95-42.34"/>
			<g>
				<polygon class="st3" points="188.92,397.8 181.64,394.52 178.36,401.8 176.66,397.32 179.94,390.04 187.22,393.32 				"/>
			</g>
		</g>
	</g>
	<g>
		<g>
			<path class="st2" d="M212.2,381.39c0,0,26.27,3.66,35.58-2.99s56.86-48.88,72.83-54.87c15.96-5.99,21.28-7.65,26.94-1.66
				c4.87,5.15,7.51,17.2,6.46,25.55"/>
			<g>
				<polygon class="st3" points="349.81,339.76 354.18,346.44 360.86,342.07 359.88,346.76 353.2,351.13 348.83,344.45 				"/>
			</g>
		</g>
	</g>
	<g>
		<g>
			<path class="st2" d="M71.76,618.83c0,0,3.09-2.04,9.75,2.66c3.01,2.13,6.31,3.69,8.73,4.68"/>
			<g>
				<polygon class="st3" points="82.07,629.14 89.32,625.81 85.99,618.55 90.48,620.22 93.82,627.47 86.56,630.81 				"/>
			</g>
		</g>
	</g>
	<g>
		<g>
			<path class="st2" d="M196.24,581.25c0,0-12.3,11.31-15.63,17.96s-10.64,17.96-20.62,24.28c-8.94,5.66-17.61,8.65-28.17,7.3"/>
			<g>
				<polygon class="st3" points="139.28,626.25 132.79,630.91 137.46,637.39 132.73,636.62 128.07,630.13 134.55,625.47 				"/>
			</g>
		</g>
	</g>
	<g>
		<g>
			<path class="st2" d="M246.78,542.34c0,0,10.01,3.58,7.65,13.97c-1.66,7.32-2,6.65-1.33,14.96c0.39,4.86,3.05,8.69,5.19,11.04"/>
			<g>
				<polygon class="st3" points="249.62,581.83 257.61,581.61 257.39,573.63 260.87,576.93 261.08,584.91 253.1,585.12 				"/>
			</g>
		</g>
	</g>
	<g>
		<g>
			<path class="st2" d="M308.97,561.3c0,0,19.62-0.67,21.95,9.98c1.95,8.93,6.01,17.15,9.43,23.3"/>
			<g>
				<polygon class="st3" points="332.2,591.53 339.88,593.7 342.05,586.01 344.39,590.19 342.22,597.88 334.54,595.71 				"/>
			</g>
		</g>
	</g>
	<g>
		<g>
			<path class="st2" d="M401.42,643.1c0,0,25.94,40.57,7.65,50.21c-12.86,6.78-24.4,8.63-30.12,9.13"/>
			<g>
				<polygon class="st3" points="385.26,696.41 379.93,702.36 385.88,707.69 381.09,707.95 375.15,702.63 380.47,696.68 				"/>
			</g>
		</g>
	</g>
	<g>
		<g>
			<path class="st2" d="M492.2,726.24l23.61-6.32c0,0,6.65-7.32,8.65-10.97c0.89-1.63-1.8-8.73-3.98-13.54"/>
			<g>
				<polygon class="st3" points="528.43,698.92 520.89,696.3 518.27,703.84 516.18,699.53 518.8,691.98 526.34,694.61 				"/>
			</g>
		</g>
	</g>
	<text transform="matrix(1 0 0 1 153.1458 349.2759)" class="st3 st4 st5">SEP</text>
	<text transform="matrix(1 0 0 1 104.373 408.4683)" class="st3 st4 st5">SEP</text>
	<text transform="matrix(1 0 0 1 224.5311 259.2681)" class="st3 st4 st5">SEP</text>
	<text transform="matrix(1 0 0 1 255.79 402.2607)" class="st3 st4 st5">SEP</text>
	<text transform="matrix(1 0 0 1 225.1962 426.2036)" class="st3 st4 st5">SEP</text>
	<text transform="matrix(1 0 0 1 109.4719 667.6284)" class="st3 st4 st5">SEP</text>
	<text transform="matrix(1 0 0 1 219.8755 674.9443)" class="st3 st4 st5">SEP</text>
	<text transform="matrix(1 0 0 1 76.2178 744.7778)" class="st3 st4 st5">SEP</text>
	<text transform="matrix(1 0 0 1 255.1249 734.1362)" class="st3 st4 st5">SEP</text>
	<text transform="matrix(1 0 0 1 290.3743 652.3311)" class="st3 st4 st5">SEP</text>
	<text transform="matrix(1 0 0 1 299.6854 624.3979)" class="st3 st4 st5">SEP</text>
	<text transform="matrix(1 0 0 1 354.8872 627.7231)" class="st3 st4 st5">SEP</text>
	<text transform="matrix(1 0 0 1 390.1366 584.4932)" class="st3 st4 st5">SEP</text>
</g>
</svg>
