<?xml version="1.0" encoding="utf-8"?>
<!-- Generator: Adobe Illustrator 24.2.3, SVG Export Plug-In . SVG Version: 6.00 Build 0)  -->
<svg version="1.1" id="Layer_1" xmlns="http://www.w3.org/2000/svg" xmlns:xlink="http://www.w3.org/1999/xlink" x="0px" y="0px"
	 viewBox="0 0 600 800" style="enable-background:new 0 0 600 800;" xml:space="preserve">
<style type="text/css">
	.st0{fill:none;stroke:#878787;stroke-width:2.33;stroke-miterlimit:10;stroke-dasharray:12;}
	.st1{fill:#878787;}
	.st2{font-family:Roboto;font-weight:400;}
	.st3{font-size:13px;}
	.st4{fill:none;stroke:#878787;stroke-width:3.33;stroke-miterlimit:10;}
</style>
<g id="Oct-Nov">
	<path class="st0" d="M558.15,111.59c0,0,20.4,23.94,12.86,130.36s-10.64,180.46-7.98,209.72s12.86,53.21,18.18,58.97"/>
	<text transform="matrix(1 0 0 1 510.2947 155.0723)" class="st1 st2 st3">OCT-NOV</text>
	<text transform="matrix(1 0 0 1 542.2188 536.8291)" class="st1 st2 st3">OCT-NOV</text>
	<text transform="matrix(1 0 0 1 546.8743 427.7559)" class="st1 st2 st3">?</text>
	<text transform="matrix(1 0 0 1 554.8552 320.0122)" class="st1 st2 st3">?</text>
	<text transform="matrix(1 0 0 1 582.7887 551.4609)" class="st1 st2 st3">?</text>
	<g>
		<g>
			<path class="st4" d="M531.55,176.77c0,0-14.19,22.61-15.08,35.03c-0.41,5.77,1.77,10.64,9.31,25.27
				c6.97,13.54,7.87,32.01,0.6,45.93"/>
			<g>
				<polygon class="st1" points="524.77,274.42 526.85,282.13 534.56,280.05 532.17,284.21 524.46,286.28 522.38,278.58 				"/>
			</g>
		</g>
	</g>
</g>
</svg>
