<?xml version="1.0" encoding="utf-8"?>
<!-- Generator: Adobe Illustrator 24.2.1, SVG Export Plug-In . SVG Version: 6.00 Build 0)  -->
<svg version="1.1" id="Layer_1" xmlns="http://www.w3.org/2000/svg" xmlns:xlink="http://www.w3.org/1999/xlink" x="0px" y="0px"
	 viewBox="0 0 600 550.68" style="enable-background:new 0 0 600 550.68;" xml:space="preserve">
<style type="text/css">
	.st0{fill-rule:evenodd;clip-rule:evenodd;fill:transparent;}
	.st1{clip-path:url(#SVGID_2_);}
	.st2{fill:none;}
	
		.st3{fill-rule:evenodd;clip-rule:evenodd;fill:#9DC1CD;stroke:#FFFFFF;stroke-width:0.33;stroke-linecap:round;stroke-linejoin:round;}
	.st4{fill:#9DC1CD;stroke:#FFFFFF;stroke-width:0.33;stroke-linecap:round;stroke-linejoin:round;}
	
		.st5{fill-rule:evenodd;clip-rule:evenodd;fill:#9DC1CD;stroke:#FFFFFF;stroke-width:0.33;stroke-linecap:round;stroke-linejoin:round;stroke-miterlimit:10;}
	
		.st6{fill-rule:evenodd;clip-rule:evenodd;fill:#D3EBFA;stroke:#FFFFFF;stroke-width:0.33;stroke-linecap:round;stroke-linejoin:round;}
	.st7{fill:none;stroke:#FFFFFF;stroke-width:0.33;stroke-miterlimit:10;}
	.st8{fill:#FFFFFF;}
	.st9{font-family:Roboto;font-weight:300;}}
	.st10{font-size:14px;}
	.st11{fill:#242424;}
	.st12{font-family:Roboto;font-weight:400;}
	.st13{font-size:13px;}
	.st14{font-size:9px;}
	.st15{fill:none;stroke:#FFFFFF;stroke-width:0.5;stroke-linecap:round;stroke-miterlimit:10;}
</style>
<g id="Layer_3">
	<rect y="0.41" class="st0" width="600" height="550.27"/>
</g>
<g id="Scroll3-Triple_Entente">
	<g>
		<g>
			<defs>
				<rect id="SVGID_1_" x="2" y="54.58" width="596" height="494.1"/>
			</defs>
			<clipPath id="SVGID_2_">
				<use xlink:href="#SVGID_1_"  style="overflow:visible;"/>
			</clipPath>
			<g class="st1">
				<path class="st2" d="M761.91,403.61l-11.56-5.48l-5.48,4.87l-11.37-1.39l-29.38,21.29l-3.87,1.72l-9.47,1.29l-10.76,0.43
					l-10.33-3.44l-2.15,3.01h-2.58l-5.59-5.16l-5.16,1.72l-6.88-3.44l1.72-3.87h-2.15l-6.02,4.3h-3.44l-6.02,2.58l-9.47-1.72
					l-3.87,0.43l-2.58,6.88l-6.02,6.45l-8.18,6.02l-3.87,7.31l-11.62-0.86l-5.16,2.58l-4.73,2.15l-7.74,0.43l0.86,4.73l3.01,2.15
					l6.02,0.43c0,0-4.3,2.58-6.45,3.01c-2.15,0.43-6.88,3.44-6.88,3.44l4.73,2.15l-3.87,2.58l-16.78-1.29l0.86,3.87h-6.45l-4.3,0.43
					l-5.16,3.87l-3.01,3.01h-4.3v4.73v6.45l6.45-1.72l3.44,1.72l-0.86,3.87l0.86,6.02l3.01,0.86l-2.58,3.44l1.72,3.87l1.72,3.44
					l-4.3,1.29l-3.87-5.16l-1.72,2.15l3.01,4.3l-1.29,2.58h4.73h8.61l2.15,3.44l0.43,7.31v3.87l6.02,2.15h6.45l3.44,4.3l-7.75,2.58
					l-5.16,3.44l6.45-0.43l4.3,0.43l6.88-4.73l5.16,1.29l8.18,7.31l6.45-2.15l8.61-0.86l0.86-12.05l7.31-2.15l5.59,1.29l9.9,6.02
					l9.04,7.31l10.76-2.58l5.16-4.3l6.02-11.62l5.16-4.3h6.02l4.73,2.15l5.16-9.47l4.73,1.72l-5.16,11.19l0.43,4.3l-0.43,5.16
					l2.58,12.48h24.96l0,0l60.67-49.48l3.71-98L761.91,403.61z"/>
				<g>
					<polygon class="st3" points="90.98,533.91 91.31,533.29 90.61,533.03 90.65,533.42 86.89,538.43 83.02,544.67 66.45,541.66 
						61.72,536.49 52.25,532.4 40.2,529.18 39.34,524.01 27.94,520.79 27.94,520.79 27.49,520.48 26.43,524.01 20.41,530.9 
						14.39,531.76 7.5,534.77 -0.24,539.07 -5.84,546.82 -12.72,556.72 -12.72,556.72 94.28,556.72 94.42,556.29 94.42,543.38 					
						"/>
					<polygon class="st3" points="37.84,505.08 48.85,512.27 49.23,512.05 48.38,511.11 47.52,505.08 45.8,502.93 39.77,502.93 
						37.77,505.08 					"/>
				</g>
				<polygon class="st2" points="27.94,520.79 27.94,520.79 39.34,524.01 40.2,529.18 52.25,532.4 61.72,536.49 66.45,541.66 
					83.02,544.67 86.89,538.43 90.65,533.42 90.61,533.03 83.66,530.47 81.51,527.46 80.22,523.15 76.35,525.74 73.33,524.44 
					68.17,521.86 64.73,523.15 64.73,520.14 60.86,520.14 52.25,515.41 49.23,512.05 48.85,512.27 37.84,505.08 37.77,505.08 
					33.75,509.38 29.02,515.41 27.49,520.48 				"/>
				<polygon class="st4" points="296.22,550.26 297.51,544.24 295.79,540.8 286.32,547.25 285.46,540.8 285.46,536.92 
					280.73,534.34 278.15,534.34 277.29,532.19 266.1,534.34 258.78,538.64 258.71,538.62 254.48,542.09 257.49,546.82 
					255.34,556.29 255.6,556.72 290.63,556.72 				"/>
				<path id="path13508_4_" class="st2" d="M277.29,452.16l-3.44,6.02l-5.16-0.43l-2.58-0.43l-2.15-2.58l-3.87,2.15v3.44l4.73,4.3
					l-2.58,11.62h3.44l-4.73,11.62l6.02,13.34l3.44-3.87v-5.16l3.44-0.43l2.15,0.43l3.44,4.3l3.44-19.79l-1.72-4.73l2.15-5.16
					l1.29-4.3l-2.15-3.01l-0.86-2.58v-3.01L277.29,452.16L277.29,452.16z"/>
				<path id="path14399_4_" class="st2" d="M360.55,555.64l2.15-11.83l-3.66-4.52l0.22-4.52l4.09-5.38l3.01-0.22l1.94-7.96
					l-5.38,0.22l-2.8,4.09l-2.37-3.23l-2.15,1.29l-2.8,3.01l-5.16,0.65l-4.73,0.22l-4.73-0.86l-2.15-2.15l-2.15-4.09h-2.15
					l-2.15,3.01l-1.08,1.08l-3.01-0.86l-1.72-2.58h-1.94l-2.8,3.66l0.22,6.67l4.95,2.37h2.8l9.25,11.19l3.66,1.72l6.67,1.72
					l2.37,2.37l0.22,3.01l7.96,1.72L360.55,555.64L360.55,555.64z"/>
				<path id="path14401_4_" class="st5" d="M281.8,416.38l-0.91,4.87l-3.96,0.3l-3.96,5.17c0,0-3.35,5.48-3.35,7s0,7.3,0,7.3
					l3.65,5.48l4.26,0.61l3.96-3.65l3.35-10.04v-5.17v-9.43l-1.83-4.26L281.8,416.38L281.8,416.38z"/>
				<path id="path15290_4_" class="st2" d="M155.54,469.32l-2.13,7l2.74,0.3l0.61-2.74l5.78-2.74l1.83-3.35l-4.87-0.3L155.54,469.32
					L155.54,469.32z"/>
				<path id="path15292_4_" class="st2" d="M172.57,465.07l12.78-8.21l0.3,2.74v3.65l2.74,3.04l2.74,1.52l-4.56,2.13l-4.87,3.65
					l-3.35-2.43v-3.04c0,0,2.13-1.22,0.91-1.52C178.05,466.28,172.88,465.37,172.57,465.07L172.57,465.07z"/>
				<path id="path15294_4_" class="st2" d="M195.39,458.68v3.65l6.69,4.56l4.56,0.3l-1.52-2.43l-2.74-3.65l-0.91-2.74h-4.26
					L195.39,458.68L195.39,458.68z"/>
				<path id="path15306_4_" class="st5" d="M45.86,498.24l2.29,0.2l-1.25-2.11L45.86,498.24z"/>
				<path id="path17963_4_" class="st5" d="M148.63,333.83l-4.73,13.77l2.58,0.43v3.01l-3.44-0.86l-6.88,21.51l-1.72,1.29
					l-1.72,5.16l3.44,0.43l7.31,7.75l8.18,9.04l5.16,0.43l2.58-1.29l10.76,7.75l-0.86,3.44h5.59l8.18,4.73l9.47-1.72l1.72-7.31
					l2.15-6.88l6.88-0.86l5.59-3.87l4.3-1.29l6.45,10.33h5.59l3.87,4.3l11.19,5.16l8.18-2.58l-2.15-3.01l7.31-3.87l7.31-2.15h5.59
					l-2.15-5.16l-3.87-2.58v-15.92l-3.01-1.29l4.73-6.88l3.01-3.01l-2.15-6.02l5.16-3.44l-3.44-12.48l-0.43-1.72h-9.04l3.44-6.45
					l5.16-2.58l2.15-6.45l6.02-3.87l-4.73-3.01l2.58-19.79l-7.75-5.16l-3.44-11.62l2.15-5.16l-5.59-3.01h-6.88l-2.58-4.73
					l-6.88-4.73l0.43-3.87l1.29-2.15l-1.29-0.43l-3.44,2.58h-1.72l3.01-4.73l-5.16-1.72l-4.73-4.3v-6.88l-6.88,0.43l-2.58-8.18
					l-8.18,0.86l-3.01,1.72L205,246.05l0.86,0.86l0.43,2.15h-3.01l-6.02,2.58h-6.02l-6.02,1.72l1.72,2.58l-2.58,1.72l-5.16,3.01
					l-3.44-3.01l-7.75-0.86l-0.86-12.05l-1.72,2.15l-4.3-2.58v3.44v5.16l-0.86,6.88v7.75l-3.44-1.29h-1.72l-2.58-1.72l-1.72-1.29
					h-4.73v-3.87l-8.18-3.87h-5.59h-9.47l-2.15,2.58l3.87,3.01l-2.58,1.72l1.72,1.29l1.72,1.29l-1.72,2.58l-4.3,1.72v4.73h2.15
					l5.16-2.15l6.02,6.02l1.29,3.44v3.44l3.87-0.43l-0.43,2.58l4.73,0.86l3.01,4.3l-1.29,6.02l1.29,4.3l0.43,5.59l5.59,5.16
					l2.58,5.59l-3.44,6.02l6.02,18.07L148.63,333.83L148.63,333.83z"/>
				<path class="st2" d="M524.27,351.47l-9.9-15.49l-6.88-6.45l1.29-3.01l3.01,0.86l7.75-3.87l-2.58-6.88l-1.29-3.44l1.72-5.16
					l-3.87-12.48l4.73,2.15l-4.73-20.22l-8.18-4.3l-5.16-6.45l-4.73-0.43l-2.58-5.59l-4.73-0.43l-1.29,3.87l-6.45,1.72l-6.02,1.29
					l-8.61-0.86v-6.88L458,258.1l-2.58,6.45l-4.3,1.72l-2.15,2.58l-7.75,3.01h-16.35l-2.15-5.59l0.43-5.16l-9.9-12.05l-0.43-10.76
					l-2.58-7.31l0.86-6.45h6.45l4.3-10.76l7.31-3.01l6.88,0.43l12.91-0.43l4.3-4.3l8.61-2.15l6.02-9.47l-1.72-25.82l-11.19-2.58
					l-3.01-9.9l-2.15-5.16l-3.44,1.29l0.43,8.61l2.15,7.31l-2.58,9.04l-4.73-0.43l3.44-9.47h-2.58l-0.43,3.01l-6.02,5.59l-4.73,1.72
					v6.02l5.59,1.29l-5.59,5.59l-8.18,2.15l-8.61-6.45l3.87-2.58l-0.43-3.01l-7.31-0.43l-7.75,3.01l-9.47,3.01l-8.18,6.02
					l-13.77,2.15l-3.44,5.59h-3.87l-6.88-8.18l-9.47-5.59l-6.88,1.29l-8.18,3.87l-6.02,0.43l4.3-6.02l-12.48-7.31l-1.29-7.31
					l-12.05-4.3l-1.72,5.16l3.44,2.15l0.86,3.87l-2.58,1.72v4.3l4.3,4.73v3.01l-6.88-4.3v6.45l-3.87,0.43l-2.58,1.72l-0.86-5.59
					l-8.18-1.29l-3.01,1.72l-1.29,3.01l1.29,3.87l-1.29,1.29l-1.72-0.43l-2.58-4.73l-4.3,1.29l0.43,3.87l3.44,4.73l1.72,3.87
					l-1.72,5.59l-5.16,12.05h-6.02l-4.3,0.86v3.44l1.72,5.59v3.87l-4.73,2.15v3.87v3.01l2.58,5.16l1.72,3.01l-3.87,1.72l-0.43,2.58
					l1.72,4.3l2.15,3.01l-2.92,5.41l0.33,0.18l-2.15,5.16l3.44,11.62l7.74,5.16l-2.58,19.79l4.73,3.01l-1.73,1.11l2.59,1.04
					l4.73,2.58l5.16,3.01l9.47-3.87l4.73,5.16l3.01,3.87l1.72,7.74l3.87,0.43l6.02,0.86l2.58,3.87l-3.44,5.16h-3.87l-7.31-0.43
					h-5.16l-0.43,2.58l-3.01,3.01l-2.58-2.58l-3.87-2.58h-5.16l-4.73,3.87l-4.73,1.29l-2.38-2.14l-4.5,3l2.15,6.02l-3.01,3.01
					l-4.73,6.88l3.01,1.29v15.92l3.87,2.58l1.72,4.13l0.86,0.61l4.3-3.87l1.29-4.3l5.59-2.15H282l5.59,3.01l5.59,6.02l3.01,3.87
					l2.58,7.75l1.29,3.87l0.43,6.88l-0.43,3.87l2.58,0.86l2.15,3.44l3.87,3.87l-2.15,1.72l2.15,1.29l4.3,0.86l0.86,4.3l3.44,4.3
					l7.75,8.18l8.61,8.61h4.3l8.18,1.29l2.15,5.16l3.01,5.16v2.15l3.87-1.72l2.15,0.43l3.44,5.16v4.73l6.02,4.73l2.58-2.15
					c0,0,3.01,4.3,3.44,6.45c0.43,2.15,1.29,7.31,1.72,9.04c0.43,1.72,2.15,6.45,2.15,6.45l2.15,6.02h-6.45v3.87l-1.29,3.44
					l-0.43,6.45l1.72,2.15l5.59-0.43l0.86-3.87l5.22-2l-0.86-4.3l0.43-3.44l5.16-3.44l3.01-2.58l2.15-1.72l1.29-4.3l-2.15-6.02
					l-2.58,0.86l-7.31-0.86l2.15-6.88l1.72-3.44l3.01-8.18l2.58-1.72l4.3,5.59l3.87,1.72l4.3,1.29l1.72,3.87l3.87,3.01l3.44-11.62
					l-7.31-6.02l-6.88-2.58l-7.31-4.73l-1.29-4.3h-6.02l-12.05-6.88l6.45-5.16l-11.19-4.73l-9.04-1.29l-7.31-9.9l-4.3-9.04v-9.47
					l-6.45-7.31l-14.63-12.05l-0.86-8.61l3.44-3.01l0.86-3.87l-2.58-3.44l-0.86-7.75h3.01h3.44l1.72-3.01l6.02-0.86l5.59,0.43
					l2.58-2.15v2.15l-2.58,4.73l-1.29,3.44l0.43,4.73l1.72,3.01l3.87,3.44h2.15v-3.44V376l0.86-3.01l4.3,0.43l2.58,2.58l2.15,6.02
					v6.45l3.01,3.87l4.3,3.87l1.29,2.58l-8.18-2.58l3.01,4.3l3.44,3.87l4.3,3.44l3.01,2.58l-0.86,3.44l3.01,3.44l6.02-2.58
					l3.44,2.15l3.44,1.29l4.73,7.31l4.3,3.44l-7.75-1.29l7.31,3.87l6.02,1.29l9.9,8.61l3.44-6.88l-3.87-7.74l11.19-16.78l-3.87-3.01
					v-3.87l4.3-0.43l1.72-4.3l-5.59-2.15l0.43-2.15l3.44-8.18l3.87-2.58l4.73,6.02l6.45-2.58h5.59l5.16-0.43l4.73-1.72l6.45,2.58
					l3.01-2.58l3.01-7.31l15.06-5.16l6.88-2.15l5.59-2.15l4.73-1.72l3.87,1.29l2.15,2.15l0.43,4.73l4.73-8.61l3.44,2.15l6.45-3.01
					L524.27,351.47z"/>
				<polygon class="st2" points="300.36,152.9 302.49,155.64 304.92,156.25 306.45,159.9 305.28,167.32 317.02,171.51 
					315.27,164.77 316.79,161.42 316.49,158.07 316.49,155.94 318.01,154.73 320.75,151.68 323.79,148.64 327.44,142.86 
					328.05,141.34 330.79,143.17 332.92,142.86 332.61,138.3 327.74,137.08 327.74,134.65 327.13,127.65 323.48,127.65 
					316.79,127.95 317.09,133.43 317.09,136.47 313.44,137.08 313.44,133.12 310.4,132.52 309.79,135.56 305.23,139.21 
					301.58,136.17 301.58,144.38 304.92,144.38 307.05,146.21 302.49,148.64 				"/>
				<path id="path19763_4_" class="st5" d="M146.48,119.98l-0.86,13.77l-1.72,7.31l-8.18,0.86v15.06l-3.01,9.9l-7.31,6.88l0.43,3.01
					l-3.44,0.43l-2.58-5.16l-8.61,2.58l-12.05,3.01l-9.04,1.72l-6.45-0.43l6.88-2.58c0,0-1.29-1.72-3.44-1.72s-5.16,0-5.16,0
					l4.73-1.29l-0.86-2.58h-3.44l-1.72-3.44l2.58-2.15l-3.44-4.3l5.16-2.15l4.73,1.29l-0.43-2.15h11.62l2.58-1.29l-4.3-3.44h-3.01
					l3.87-3.87l3.44-0.86l-0.43-3.44c0,0-0.43,0.86-3.01-0.86s-5.16-5.16-5.16-5.16l-0.86-3.87l6.02-1.72l-2.15-3.01l-0.43-2.58
					l0.43,0.86l3.01-0.86l-1.29-3.87l11.19-0.86v2.58l2.58-0.86l2.58,3.87l2.15-4.3l3.44-1.29l-3.44-3.87h3.44l2.58-5.59h6.88v5.16
					l3.44-2.15l2.58-5.16l2.15,3.01l3.44,3.87L146.48,119.98L146.48,119.98z"/>
				<path id="path19765_4_" class="st5" d="M163.26,59.74l-3.44,0.86l-3.01,6.88l2.15,0.86h2.15l2.58-4.3l3.87-1.72v-3.87
					L163.26,59.74z"/>
				<path id="path19767_4_" class="st5" d="M161.11,74.37v4.73l1.29,5.59l-1.29,3.01l-0.86-3.01l-1.29-5.16l-2.58-3.01l2.15-2.15
					C158.53,74.37,161.11,74.37,161.11,74.37z"/>
				<path id="path19769_4_" class="st5" d="M154.66,92.87v3.44l-6.02,5.59l5.16-1.29l3.44-2.58L154.66,92.87L154.66,92.87z"/>
				<path id="path19771_4_" class="st5" d="M199.84,67.06c-0.86-1.51-7.75-1.72-7.75-1.72l-10.76-2.58l-5.16,3.87l-2.15,6.02
					l-2.58-2.15l-3.01,4.3c0,0-5.59,1.72-3.44,4.73s4.3,3.01,4.3,3.01l-2.15,3.01c0,0-1.29,2.58-4.3,3.01
					c-3.01,0.43-5.16,2.15-5.16,2.15l2.58,2.15l1.72,2.15l5.16-2.58l2.15,3.44l-4.73,1.72l-4.73,3.87c0,0-2.58-3.44-3.44,4.73
					s-4.3,14.2-4.3,14.2l2.58-5.16l4.73-8.61l6.02-1.72l-3.01,3.44l3.01,3.01l-0.43,5.16l-3.87,9.47l-4.73,4.3l-1.72,3.01l6.88,4.73
					c0,0,2.58-2.15,4.3-2.15s9.9,2.15,9.9,2.15l-7.31,3.44l0.43,10.33l3.44,1.29v6.02l-2.15,5.16l-2.58,5.59l-4.73-4.73l-18.07,7.31
					l2.58,2.15l6.88-1.29l-2.58,7.31l-0.86,3.87l-5.59,0.86l-13.34,2.15l5.16,9.04l7.31-5.16l4.3,5.16l-3.44,3.01l9.47,6.02
					l6.88-3.44l3.44,3.01l-7.31,5.16l-13.77-3.87l-1.72,3.87l-3.87-2.58l-0.86,5.16l-11.19,6.45l-3.87-0.43l-3.44,3.87h5.59
					l-0.43,5.59l2.58-0.43v-5.16l3.87-2.58H134l3.44,1.29l4.73,6.02l3.87-4.3l6.02-1.72h5.59v4.73l7.75,0.86l4.73-2.15l11.62,1.29
					c0,0,6.02,2.15,7.75,2.15c1.72,0,8.61,0.43,8.61,0.43l8.18-1.72l-3.01-4.3l-8.61-4.3l3.87-1.72l3.01-2.58l5.59-1.72l6.02-3.87
					l2.15-6.45V197l-3.01-5.59l-2.58-3.01h-5.59h-5.59l1.72-4.73l0.43-5.16l-2.15-4.73h-3.44l-2.58-5.16h3.87l3.01,3.01l3.87-3.87
					l-1.72-9.04l-3.01-5.16l-3.87-7.31l-1.72-3.87l2.15-6.88l-0.43-9.9l-1.72-5.16l-3.44-4.3h-5.59h-5.59l-3.44-4.73h5.59l2.58,1.29
					l3.87-0.86v-3.87l2.58-2.15l3.01-1.72l6.45-6.45l3.01-6.45v-4.73l-4.73-2.58l-6.02-0.86h-6.88h-4.73l3.01-3.01h4.73l-1.29-2.58
					v-2.15l6.02-1.72l3.44-2.15C195.53,71.36,200.7,68.56,199.84,67.06L199.84,67.06z"/>
				<polygon class="st2" points="259.65,241.75 264.38,239.6 264.38,235.73 262.66,230.13 262.66,226.69 266.96,225.83 
					272.98,225.83 278.15,213.78 279.87,208.19 278.15,204.32 274.7,199.58 274.4,196.82 273.84,196.14 269.97,194.42 
					262.23,197.43 260.94,201.74 263.95,203.46 262.23,209.48 259.21,212.49 256.63,212.49 254.48,208.62 258.78,208.62 
					259.21,206.47 257.06,203.46 257.06,199.58 254.05,203.46 252.76,200.87 249.75,208.62 245.02,217.23 240.28,222.82 
					234.26,225.83 237.53,230.33 238.09,230.77 245.66,230.56 247.38,233.79 251.9,232.72 253.84,234.87 255.77,239.81 
					253.62,244.33 259.43,247.13 259.65,247.13 259.65,245.62 				"/>
				<polygon class="st2" points="255.55,271.12 255.56,271.01 255.34,267.14 252.55,262.83 256.2,260.47 259.65,259.61 
					259.89,259.63 260.08,258.53 263.95,256.81 262.23,253.8 259.65,248.64 259.65,247.13 259.43,247.13 253.62,244.33 
					255.77,239.81 253.84,234.87 251.9,232.72 247.38,233.79 245.66,230.56 238.09,230.77 237.53,230.33 237.7,230.56 
					230.82,228.41 226.08,230.56 219.63,231.85 217.98,232.51 220.49,240.46 227.37,240.03 227.37,246.91 232.11,251.22 
					237.27,252.94 234.26,257.67 235.98,257.67 239.42,255.09 240.71,255.52 239.42,257.67 238.99,261.54 245.88,266.28 
					248.46,271.01 255.34,271.01 				"/>
				<polygon class="st2" points="260.6,273.84 263.52,268.43 261.37,265.42 259.65,261.11 259.89,259.63 259.65,259.61 
					256.2,260.47 252.55,262.83 255.34,267.14 255.56,271.01 255.55,271.12 				"/>
				<path id="path25996_4_" class="st2" d="M349.65,363.44l3.04-4.87v-3.65l-0.3-1.83l-6.69-3.96l-5.78-0.3h-3.04l-1.52-3.96h-2.74
					l-1.52,1.52l-2.13,1.83h-2.74l-0.61,4.26l-3.04,4.26l-3.65,1.83l-4.26,3.35l-2.43,0.3l-2.74-4.56l-1.83,1.22l-0.61-5.78
					l2.43-2.13l1.22-1.52"/>
				<path id="path25998_4_" class="st2" d="M299.45,330.28l9.13,1.22l4.26-0.3c0,0,1.52-1.52,3.04-1.52c1.52,0,7.61,0.61,7.61,0.61
					h5.17l7.61-2.13l3.96-2.74l8.21-0.61l3.35-2.74l2.43-3.04v-5.48l2.13-2.13l3.96-2.74l-3.35-6.39l-1.52-3.35l-5.48-5.48
					l-1.22-4.26l-3.96-2.13l-1.52-3.96v-7l-0.61-2.43l-1.83-1.52l3.96-6.39l5.48-1.52l8.82-2.74l10.34-9.43l2.43,7.61l1.83-0.91
					l1.52-7.91l6.69,8.82l3.65,2.13l4.26-0.91l3.04,1.22l2.13,3.35l-1.52,4.87l3.65,1.83l3.65-4.26l10.95,3.65l-1.22,4.56l7.61,3.04
					l4.56,2.74l4.87-7l0.76-3.35"/>
				<path id="path30523_4_" class="st2" d="M319.83,120.65l4.87-6.69l10.95-2.13l-2.74,3.04v3.96l-1.52,3.96l-1.52,3.04l-2.43-1.52
					h-4.26h-5.48l-2.43,1.22l-2.74,0.61l-2.74,2.13l-2.43,4.56l-2.13,1.52l-2.43-1.22l2.43-4.56l0.3-2.74c0,0,2.43-2.43,3.96-2.74
					c1.52-0.3,3.35-2.43,3.35-2.43l3.35-0.3L319.83,120.65L319.83,120.65z"/>
				<path id="path30525_4_" class="st2" d="M322.25,156.56l-1.51,3.01l1.94,7.96h4.95l2.8-2.15l0.86-5.38l-2.15-2.8L322.25,156.56z"
					/>
				<path id="path30527_4_" class="st2" d="M337.53,150.53l3.23,0.43v3.87l3.01,1.51l1.08-1.72l-1.08-4.3l2.58-0.86l1.94,1.51v3.66
					l-0.65,2.8l0.65,4.95v2.8l-2.8,3.66l-3.23,0.65l-1.94-1.08l-0.86-2.8l-3.87-2.58l-2.15-1.94l0.65-3.44l0.65-2.8l1.08-1.29
					l2.8,0.43L337.53,150.53L337.53,150.53z"/>
				<path id="path30529_4_" class="st2" d="M373.45,166.67l-0.22,4.3c0,0-0.22,1.72,0.86,2.15s4.95,0.86,4.95,0.86l0.86-2.8
					l-0.86-1.51h-2.37l-2.8-0.65L373.45,166.67L373.45,166.67z"/>
				<path id="path30531_4_" class="st2" d="M423.37,113.53l-8.39,4.95l-2.15,16.78l4.3-1.51l1.72-3.87l4.73-4.09l-1.51-3.44
					l1.29-1.94l1.51-2.8L423.37,113.53z"/>
				<path id="path30533_4_" class="st2" d="M402.07,128.37l0.43,4.52l-5.16,13.12l-3.66,3.01v-2.37l1.29-3.66l2.15-2.15
					C397.12,140.85,402.07,128.37,402.07,128.37z"/>
				<path id="path30535_4_" class="st5" d="M461.01,92.66l-7.61,1.83l3.65,2.43l2.13,0.91l4.26-1.52L461.01,92.66z"/>
				<path id="path30537_4_" class="st5" d="M467.4,100.87l-3.35,2.13l-2.74-0.61l-2.74,1.22l-3.35,2.13l-1.22,3.04l1.22,3.35v5.78
					l1.22-2.13l1.52-5.17l2.43-2.74l2.74-1.52l2.74-0.3L467.4,100.87z"/>
				<path id="path30539_4_" class="st5" d="M429.36,64.06l-1.22,5.17l5.48,2.43l1.52-3.35L429.36,64.06z"/>
				<path class="st2" d="M414.28,84.87l8.21-8.52l-5.78-7l-0.91-3.04v-2.43l-3.35-5.17l-1.52,2.13l-2.74-1.83l-1.52-2.43l-0.3-3.65
					l-48.5,0.42v9.8l-7,9.43v12.47l-4.56,3.96l-1.03-1.8l-2.8,1.02l-0.3,14.3h6.69L346.43,115l2.13,2.74l-1.22,4.26l5.48,15.21
					l4.26,1.83l-2.74,7.3l-3.04,0.61l4.26,10.95l-3.04,6.09l7,0.91l5.48-0.61l5.78,0.91l-1.52-3.65l-0.3-5.17l0.3-3.96l3.04,1.52
					l2.13-2.43l3.35-1.22l4.87,0.3h4.56l1.22-2.13l5.48-9.43l3.04-12.17l-1.52-5.78l1.22-1.83l2.43-2.13v-3.65l-1.83-4.56
					l-1.22-1.83v-2.43h4.56l0.3-1.52l-8.21-0.91l0.3-3.04l10.04,0.3l2.74-4.56l0.91-3.96l3.35-0.61v3.04l3.35-1.52l3.04-3.65
					l-1.22-3.04L414.28,84.87z M354.52,101.79l3.35-13.08l4.26,2.13l-1.22-9.43h10.34l-1.83,13.69L354.52,101.79z M378.25,101.18
					l-1.83,4.56l-2.74,7.91l-3.04,1.52l0.3-4.56l4.87-10.04l3.96-7.3l0,0l0,0l0,0l1.52,3.35L378.25,101.18z M404.72,87.79
					l-4.26-3.04l-8.52-1.22v-2.74h15.21l-3.96-5.48h4.26l1.83,0.61l3.11,8.21L404.72,87.79z"/>
				<polygon class="st2" points="345.82,87 345.27,87.2 346.3,89.01 350.87,85.05 350.87,72.58 357.86,63.15 357.86,53.35 
					301.4,53.84 300.49,55.67 300.49,55.67 291.66,61.14 297.44,63.58 298.05,65.71 293.49,67.53 291.36,68.14 289.84,66.62 
					285.27,69.66 284.36,73.92 287.4,74.53 291.05,72.1 297.75,69.66 296.53,73.31 291.36,77.88 295.92,82.44 292.58,86.09 
					287.4,82.14 285.88,90.96 295.92,99.48 300.79,104.35 310.22,103.13 317.83,97.35 324.22,91.87 325.44,84.87 327.87,83.35 
					329.39,87.92 333.65,86.7 336.39,81.53 336.39,78.18 336.08,73.01 338.52,75.75 338.52,72.4 340.34,83.05 343.39,82.44 				"/>
				<path id="path34093_4_" class="st6" d="M535.02,55.01l6.02,6.88l2.58-5.16h7.74v-2.58L535.02,55.01z"/>
				<path class="st2" d="M567.19,362.84l-0.17-1.01l-2.57-0.51l-8.52,5.17l-2.43-1.83l-3.04-0.91l-3.35-13.69l3.04-6.69l-6.39-14.6
					l-5.78-4.26l-4.87-5.17l-4.56-9.43l-2.74-0.61h-8.85l0.42-1.27l-1.72,5.16l1.29,3.44l2.58,6.88l-7.75,3.87l-3.01-0.86
					l-1.29,3.01l6.88,6.45l9.9,15.49l0.43,13.34l-6.45,3.01l-3.44-2.15l-4.73,8.61l-0.43-4.73l-2.15-2.15l-3.87-1.29l-4.73,1.72
					l-5.59,2.15l-6.88,2.15l-15.06,5.16l-3.01,7.31l-3.01,2.58l-6.45-2.58l-4.73,1.72l-2.92,0.24l3.41,2.43l1.22,3.65l7.3,3.65
					l6.09,0.61l3.65,5.48l-2.17,2.17c0.6-0.02,0.95-0.04,0.95-0.04l14,7l7,1.22c0,0,0.91-0.3,2.43-0.61
					c1.52-0.3,11.87-0.61,11.87-0.61l3.35,1.52l9.74-8.52l11.26,4.56h11.56l7.22,3.91l2.51-4.52l7.91-2.43l-3.65-4.26l-0.61-9.74
					l-2.43-14.6l4.87-3.65l3.65,8.52l7.91-9.13l-2.43-4.26L567.19,362.84z"/>
				<polygon class="st2" points="564.15,457.76 565.37,451.07 553.2,446.81 549.7,439.82 541.63,440.42 538.59,436.47 
					529.77,437.07 523.68,445.29 529.77,449.55 529.77,453.81 525.81,458.07 525.51,462.02 524.29,466.59 523.07,469.32 
					523.04,469.62 524.6,469.93 533.72,469.93 541.03,468.11 545.89,458.37 552.59,457.76 				"/>
				<path class="st2" d="M478.35,462.35l0.07,0.03l25.18-7.66l20.38,12.47l0.03,0.02l0.28-0.63l1.22-4.56l0.3-3.96l3.96-4.26v-4.26
					l-6.09-4.26l6.09-8.21l8.82-0.61l3.04,3.96l8.07-0.6l-0.16-0.32v-6.09l-7.91-5.48l3.04-3.65l4.87-10.34l0.53-0.95l-7.22-3.91
					h-11.56l-11.26-4.56l-9.74,8.52l-3.35-1.52c0,0-10.34,0.3-11.87,0.61c-1.52,0.3-2.43,0.61-2.43,0.61l-7-1.22l-14-7
					c0,0-0.35,0.01-0.95,0.04l-2.7,2.7l2.43,4.87l4.26,9.13v4.26l-7.3,1.22l-0.61,14l11.56,10.95v10.66H478.35z"/>
				<polygon class="st2" points="430.28,452.9 427.23,457.15 427.23,463.24 427.23,474.19 427.23,479.67 425.41,479.67 
					433.32,490.01 438.62,494.13 438.66,494.12 440.93,493.06 440.93,485.45 449.14,478.76 449.44,471.45 453.38,471.68 
					449.14,452.29 449.75,446.81 445.49,439.51 432.71,441.94 424.19,448.64 426.02,449.85 				"/>
				<polygon class="st2" points="478.35,553.91 482,556.95 487.48,556.34 480.17,539.3 483.83,539.3 491.74,542.35 485.04,533.83 
					485.04,528.35 490.52,527.74 499.65,527.74 488.08,518.61 475.31,510.09 482,507.66 479.57,502.18 484.43,502.18 485.65,502.18 
					475.31,479.67 476.52,473.58 479.57,475.41 478.35,481.49 482.61,483.32 488.08,489.41 486.87,480.28 495.39,487.58 
					492.34,479.06 497.21,482.71 500.26,480.28 496,476.02 491.13,471.15 498.43,472.37 498.43,469.32 504.51,468.11 510.6,468.11 
					515.47,466.28 521.55,469.32 523.04,469.62 523.07,469.32 524.01,467.21 523.99,467.2 503.6,454.72 478.42,462.38 
					478.35,462.35 478.35,462.63 472.87,465.67 464.96,465.67 462.53,469.93 453.4,471.76 453.38,471.68 449.44,471.45 
					449.14,478.76 440.93,485.45 440.93,493.06 438.66,494.12 438.62,494.13 438.8,494.27 439.4,501.58 446.1,508.88 450.36,510.7 
					455.23,513.14 449.14,516.18 453.4,522.27 468.61,521.66 475.91,521.66 481.39,524.09 481.39,527.74 474.7,527.74 
					466.79,527.74 457.66,528.35 454.62,530.78 457.05,535.65 460.09,542.35 461.31,549.65 461.31,553.3 466.79,555.12 
					468.61,550.26 471.66,553.3 476.52,556.95 				"/>
				<polygon class="st2" points="466.79,440.72 467.4,426.73 474.7,425.51 474.7,421.25 470.44,412.13 468,407.26 472.87,402.39 
					469.22,396.91 463.14,396.3 455.83,392.65 454.62,389 451.21,386.57 448.97,386.76 443.37,386.76 436.92,389.34 432.19,383.31 
					428.31,385.89 424.87,394.07 424.44,396.22 430.04,398.37 428.31,402.68 424.01,403.11 424.01,406.98 427.57,409.75 
					427.88,409.78 428.96,413.86 431.76,419.24 435.63,422.9 438.64,423.11 440.79,423.76 445.53,425.7 448.97,429.57 
					451.76,432.15 451.55,434.52 445.65,439.78 449.75,446.81 449.14,452.29 453.4,471.76 462.53,469.93 464.96,465.67 
					472.87,465.67 478.35,462.63 478.35,451.68 				"/>
				<polygon class="st2" points="445.53,425.7 440.79,423.76 438.64,423.11 435.63,422.9 431.76,419.24 428.96,413.86 
					427.88,409.78 427.57,409.75 427.88,409.99 416.7,426.77 420.57,434.52 417.19,441.28 417.56,442.26 424.27,448.58 
					432.71,441.94 445.49,439.51 445.65,439.78 451.55,434.52 451.76,432.15 448.97,429.57 				"/>
				<path id="path43017_4_" class="st2" d="M510.6,481.8l-1.83,1.83l4.26,4.26l2.13-2.43l1.83-3.35l-3.04,0.91L510.6,481.8z"/>
				<path id="path43019_4_" class="st2" d="M519.42,496.4l0.91,3.35l5.17-1.83l1.22,2.74l5.78-1.52l-1.83-3.35l-4.26-0.91
					L519.42,496.4z"/>
				<path id="path43021_4_" class="st2" d="M523.38,511.62l2.74-0.3l0.91,3.35v4.26l-1.52,1.83l-1.83-2.43l0.91-2.74L523.38,511.62
					L523.38,511.62z"/>
				<path id="path43023_4_" class="st2" d="M488.39,506.75l-4.56,3.04l1.52,1.22h4.26l10.65,7l0.91,5.48l4.87,1.83l1.22-2.43
					l-2.74-2.74v-3.65c0,0-2.74-1.22-4.26-2.43C498.73,512.83,489.61,507.96,488.39,506.75L488.39,506.75z"/>
				<polygon class="st2" points="311.71,340.72 305.69,339.85 301.81,339.42 300.09,331.68 297.08,327.81 292.35,322.64 
					282.88,326.52 277.72,323.5 272.98,320.92 270.39,319.89 270.82,319.61 266.1,322.64 263.95,329.1 258.78,331.68 255.34,338.13 
					264.38,338.13 264.81,339.85 268.25,352.33 263.09,355.78 267.59,352.77 269.97,354.91 274.7,353.62 279.44,349.75 
					284.6,349.75 288.47,352.33 291.06,354.91 294.07,351.9 294.5,349.32 299.66,349.32 306.98,349.75 310.85,349.75 314.29,344.59 
									"/>
				<polygon class="st4" points="94.28,556.72 255.6,556.72 255.34,556.29 257.49,546.82 254.48,542.09 258.71,538.62 
					252.76,536.92 248.46,538.64 245.02,536.06 240.28,530.47 236.41,530.47 236.41,533.91 233.4,535.2 226.08,532.19 
					226.51,530.04 223.93,528.32 217.48,533.05 214.04,533.05 208.01,534.34 204.14,531.33 201.56,528.32 191.23,526.6 
					188.22,528.75 184.78,529.18 182.63,525.74 171.01,525.74 166.27,525.3 158.53,523.58 151.65,523.58 143.9,523.15 
					138.74,522.29 130.13,525.3 124.11,527.89 120.66,528.75 120.66,526.6 114.21,527.46 106.47,530.47 100.87,533.91 91.84,533.48 
					91.31,533.29 90.98,533.91 94.42,543.38 94.42,556.29 				"/>
				<path class="st5" d="M834.07,363.95l-14.2-10.76l-13.34-10.33l-4.3-6.88l-0.43-12.48l-6.02-1.29l-5.59-2.58l-4.73-6.02l4.3,1.72
					l1.72-2.58l-2.15-9.47V286.5l6.02-0.43l6.02-6.45l-1.29-3.87l2.15-1.29l-2.58-4.3l6.45-9.47l3.44-0.43l3.87-6.45l8.18-8.61
					l2.58-1.29h4.3l5.16-3.44l0,0l0.69-0.29V53.71H447.31l5.48,6.09l8.52,6.69l4.56,7.91l16.13-7l7.3-2.43l0.61-2.43l14-5.17
					l6.09-2.13h4.87l3.04,0.3v3.96l5.48,1.22l5.17,0.61l6.39,2.13l2.13,2.74l-7.61,1.83l-7-0.3l-5.78,3.96l-5.78,3.04l1.83,4.56
					l-5.78,3.04l-5.17-3.35l-14.6-0.3l-2.74,0.3l-16.13,10.65l0.3,9.74l3.35,3.65l6.39,4.26l2.43-0.3l0.3,2.43l-3.04,10.95
					l2.74,9.74l-6.39,4.56l-13.69-12.47l-6.39,5.17l-7.3,10.95l-1.52,12.47l1.08,1.84l3.26-1.22l2.15,5.16l3.01,9.9l11.19,2.58
					l1.72,25.82l-6.02,9.47l-8.61,2.15l-4.3,4.3l-12.91,0.43l-6.88-0.43l-7.31,3.01l-4.3,10.76h-6.45l-0.86,6.45l2.58,7.31
					l0.43,10.76l9.9,12.05l-0.43,5.16l2.15,5.59h16.35l7.75-3.01l2.15-2.58l4.3-1.72l2.58-6.45l7.74,1.29v6.88l8.61,0.86l6.02-1.29
					l6.45-1.72l1.29-3.87l4.73,0.43l2.58,5.59l4.73,0.43l5.16,6.45l8.18,4.3l4.73,20.22l-4.73-2.15l3.87,12.48l-0.42,1.27h8.85
					l2.74,0.61l4.56,9.43l4.87,5.17l5.78,4.26l6.39,14.6l-3.04,6.69l3.35,13.69l3.04,0.91l2.43,1.83l8.52-5.17l4.56,0.91l1.83-4.26
					l6.69-15.21l7.91-12.17c0,0,9.74,0,12.17,0s0.61,3.65,0.61,3.65l-7.91,4.26l3.04,2.43l7.3,2.43l10.95-4.26l2.43,4.87
					l-5.48,11.56l-3.65,4.87l9.74,0.61l5.48,1.83v10.95h5.48l6.09-13.39l14-6.69l2.43-6.09l-7.3,3.04l-12.78-4.87l-3.65-10.95
					l11.56-3.65l12.17-6.69l10.95-15.82h5.48l12.78-9.13l5.48,3.04l-12.78,9.13l-1.22,7.3l7.91,7.3h-7.3l-3.65,15.82l-9.13,1.83
					l3.04,4.26v3.65l8.52,1.83l10.95,2.43l9.74,5.48l14.6,7.91l14.6,7.3l12.78,9.13l3.65,10.95l-2.73,4.49l13.07,1.6l5.48-4.87
					l11.56,5.48l72.41,1.22v-40.83L834.07,363.95z M608.17,68.78l3.87-1.29l5.16,6.88l6.02,0.86l3.87,4.73l-7.31,2.15l-1.29,6.02
					l-14.2-10.76h8.18L608.17,68.78z M589.67,280.91l-7.31-7.75l9.47,2.15l1.29-3.44l2.15,0.43v5.16l3.01,0.86l4.73,2.15l15.06,6.02
					v2.15l-12.91-3.01L589.67,280.91z M624.09,309.3l-1.29-1.72l-4.73,2.15l-4.73,15.92h-4.3l6.02-16.78l4.73-3.01l9.04-0.86
					l2.15,2.15L624.09,309.3z M664.11,90.72l-9.04,0.86l-10.33-0.86l-9.47-10.33l3.87-1.72l9.9,7.75l7.31-0.43h10.33l3.87-0.86
					L670.13,89l2.15,4.3l2.15,6.02L664.11,90.72z M725.64,270.15l-7.74,8.61l-5.59,0.43v-9.04h3.44l0.86-9.47l3.01-3.44l5.16-12.48
					l2.58,2.15l-5.59,18.07L725.64,270.15z M751.88,141.93l-13.34-17.64l2.58-18.5l-5.59-4.73l0.43-3.44l4.3,3.44l10.33-5.59
					l7.75-4.73l3.01,1.29l-1.72,3.01l-15.92,9.9l-3.01,16.78l6.45,7.31l4.3-6.02l-0.43,9.04l2.15,4.73l8.61-0.86L751.88,141.93z"/>
				<polygon class="st2" points="193.81,415.15 192.52,409.13 192.01,408.79 183.06,410.42 174.88,405.69 169.29,405.69 
					170.15,402.25 159.39,394.5 156.81,395.79 151.65,395.36 143.47,386.33 136.15,378.58 132.71,378.15 134.43,372.99 
					135.58,372.13 130.99,372.13 127.98,371.27 123.25,371.27 117.22,366.96 115.5,363.95 109.05,359.65 104.31,360.08 
					90.11,354.48 79.79,345.88 69.46,344.16 64.73,342.87 62.15,338.13 57.84,333.4 53.97,333.4 49.24,336.84 50.1,338.99 
					49.67,343.3 47.95,341.15 41.92,337.27 38.48,339.42 33.32,341.15 34.18,343.73 35.9,348.03 32.03,351.9 39.34,350.61 
					38.48,352.76 41.49,356.21 37.19,356.21 34.61,358.79 34.61,361.8 34.21,363.09 34.61,363.09 39.99,363.52 40.42,369.33 
					51.6,372.56 52.25,370.19 61.72,376.86 60,379.01 63.01,385.46 48.81,395.15 44.72,414.29 37.62,414.29 36.11,421.61 
					38.91,424.62 33.75,441.62 35.68,449.36 27.29,456.25 27.51,464.42 27.43,464.85 27.94,464.85 32.67,465.93 37.84,470.23 
					39.34,474.32 41.06,480.34 39.77,484.21 42.78,485.93 39.99,487.01 40.42,491.74 42.14,495.4 45.15,497.98 46.87,496.05 
					48.92,498.52 53.11,497.77 57.84,493.46 61.29,494.33 66.02,492.17 68.17,490.88 74.62,492.6 80.22,493.46 87.53,497.34 
					93.99,498.63 95.71,495.62 95.71,500.78 98.72,502.07 107.76,489.59 110.77,490.02 114.21,490.02 118.94,490.88 124.97,491.31 
					124.97,487.01 125.83,480.99 132.28,474.53 139.6,473.24 137.88,470.23 135.29,464.64 134.43,455.6 137.45,448.29 
					148.63,439.68 153.8,438.82 153.8,434.09 159.39,429.35 170.15,429.35 177.03,428.49 179.18,425.91 185.21,425.48 195.1,419.89 
									"/>
				<polygon class="st2" points="63.01,385.46 60,379.01 61.72,376.86 52.25,370.19 51.6,372.56 40.42,369.33 39.99,363.52 
					34.61,363.09 34.21,363.09 32.89,367.39 29.45,378.15 30.31,381.59 29.02,385.46 21.27,402.25 16.54,407.84 10.08,414.29 
					7.93,421.61 12.66,421.18 16.54,421.18 18.26,423.33 14.82,425.48 9.22,427.2 9.22,431.5 11.8,431.5 16.97,430.21 19.98,432.36 
					13.96,435.81 5.35,460.33 5.35,460.33 13.96,458.18 16.54,461.84 20.62,463.99 26,464.85 27.43,464.85 27.51,464.42 
					27.29,456.25 35.68,449.36 33.75,441.62 38.91,424.62 36.11,421.61 37.62,414.29 44.72,414.29 48.81,395.15 				"/>
			</g>
		</g>
		<g>
			<rect id="SVGID_5_" x="2" y="54.58" class="st7" width="596" height="494.1"/>
		</g>
	</g>
	<text transform="matrix(1 0 0 1 261.1404 42.6102)" class="st8 st9 st10">Triple Entente</text>
	<rect x="253.44" y="15.79" class="st5" width="99.43" height="7.65"/>
	<text transform="matrix(1 0 0 1 509.8278 184.0383)" class="st11 st12 st13">RUSSIA</text>
	<text transform="matrix(1 0 0 1 189.2582 324.4812)" class="st11 st12 st13">FRANCE</text>
	<text transform="matrix(1 0 0 1 87.6999 202.2348)" class="st8 st12 st13">UNITED      </text>
	<text transform="matrix(1 0 0 1 151.9099 202.2348)" class="st11 st12 st13">KINGDOM</text>
	<text transform="matrix(1 0 0 1 120.2271 545.2642)" class="st11 st12 st13">ALGERIA (FR)</text>
	<text transform="matrix(1 0 0 1 9.8235 545.2642)" class="st11 st12 st13">MOROCCO (FR)</text>
	<text transform="matrix(1 0 0 1 258.2388 518.5178)" class="st8 st12 st14">TUNISIA (FR)</text>
	<line class="st15" x1="273.57" y1="522.49" x2="273.57" y2="537.45"/>
</g>
</svg>
