<?xml version="1.0" encoding="utf-8"?>
<!-- Generator: Adobe Illustrator 24.3.0, SVG Export Plug-In . SVG Version: 6.00 Build 0)  -->
<svg version="1.1" id="Layer_1" xmlns="http://www.w3.org/2000/svg" xmlns:xlink="http://www.w3.org/1999/xlink" x="0px" y="0px"
	 viewBox="0 0 189.71 27.55" style="enable-background:new 0 0 189.71 27.55;" xml:space="preserve">
<style type="text/css">
	.st0{enable-background:new    ;}
	.st1{fill:#888888;}
</style>
<g class="st0">
	<path class="st1" d="M13.45,16.37V9.9H12.3l-0.52,2.63h-1.22l0.18-3.61h7.66l0.15,3.61h-1.15L16.83,9.9h-1.09v6.47l1.56,0.13v0.83
		h-5.28V16.5L13.45,16.37z"/>
	<path class="st1" d="M19.69,16.4V9.41l-0.73-0.17V8.46l2.5-0.29h0.03l0.38,0.28l0.01,2.36l-0.12,1.02c0.25-0.21,0.55-0.4,0.91-0.56
		s0.77-0.24,1.24-0.24c0.48,0,0.85,0.08,1.11,0.26c0.27,0.17,0.45,0.43,0.56,0.77s0.16,0.79,0.16,1.35v3l0.64,0.11v0.81h-3.35v-0.81
		l0.52-0.11v-2.99c0-0.31-0.02-0.55-0.06-0.71c-0.04-0.17-0.11-0.29-0.21-0.37c-0.1-0.08-0.24-0.12-0.43-0.12
		c-0.18,0-0.36,0.04-0.52,0.12c-0.16,0.08-0.3,0.19-0.41,0.31v3.75l0.56,0.11v0.81h-3.34v-0.81L19.69,16.4z"/>
	<path class="st1" d="M27.21,12.48c0.26-0.47,0.62-0.83,1.1-1.08s1.04-0.37,1.69-0.37c0.83,0,1.47,0.19,1.9,0.56
		c0.43,0.37,0.66,0.9,0.67,1.58c0,0.42-0.04,0.8-0.1,1.12h-3.38c0.06,0.59,0.2,1.03,0.45,1.31s0.59,0.42,1.04,0.42
		c0.26,0,0.53-0.04,0.82-0.13c0.29-0.09,0.54-0.19,0.75-0.3l0.36,0.78c-0.11,0.13-0.3,0.27-0.56,0.42
		c-0.26,0.15-0.57,0.28-0.91,0.39c-0.35,0.11-0.7,0.16-1.05,0.16c-1.09,0-1.89-0.28-2.39-0.83c-0.5-0.55-0.75-1.32-0.75-2.29
		C26.82,13.53,26.95,12.95,27.21,12.48z M30.48,13.47l0.01-0.39c0-0.39-0.05-0.69-0.14-0.89c-0.09-0.2-0.26-0.29-0.5-0.29
		c-0.17,0-0.32,0.04-0.43,0.12s-0.2,0.23-0.27,0.46c-0.07,0.23-0.1,0.56-0.1,0.99H30.48z"/>
	<path class="st1" d="M36.78,16.36v-6.33l-0.8-0.16V8.91h1.88c0.27,0,0.56,0,0.86,0c0.43,0,0.8,0,1.12,0c0.83,0,1.49,0.07,1.99,0.22
		c0.49,0.15,0.85,0.38,1.07,0.71c0.22,0.32,0.33,0.75,0.33,1.29c0,0.31-0.06,0.62-0.17,0.92c-0.11,0.31-0.28,0.59-0.52,0.83
		c-0.24,0.25-0.53,0.43-0.9,0.54c0.28,0.09,0.52,0.24,0.73,0.46c0.21,0.21,0.38,0.45,0.51,0.69c0.13,0.25,0.27,0.55,0.43,0.91
		c0.13,0.29,0.23,0.51,0.31,0.65c0.08,0.14,0.17,0.22,0.26,0.25l0.28,0.09v0.84h-2.45c-0.11,0-0.22-0.12-0.33-0.35
		s-0.24-0.6-0.41-1.11c-0.13-0.4-0.25-0.74-0.35-1s-0.21-0.49-0.33-0.69c-0.12-0.2-0.26-0.32-0.4-0.37h-0.81v2.55l0.96,0.12v0.84
		h-4.07v-0.84L36.78,16.36z M40.53,12.56c0.19-0.29,0.28-0.75,0.28-1.36c0-0.53-0.09-0.92-0.28-1.15S40.05,9.7,39.65,9.7
		c-0.29,0-0.48,0.02-0.57,0.07v3.19c0.04,0.02,0.13,0.03,0.27,0.03C39.5,13,39.62,13,39.72,13C40.07,13,40.34,12.86,40.53,12.56z"/>
	<path class="st1" d="M47.92,13.14c0-0.18-0.02-0.32-0.07-0.42s-0.15-0.18-0.29-0.23s-0.36-0.08-0.65-0.08
		c-0.39,0-0.73,0.03-1.02,0.09c-0.29,0.06-0.59,0.14-0.9,0.23h-0.01l-0.44-0.83c0.14-0.11,0.35-0.23,0.63-0.36
		c0.28-0.14,0.62-0.26,1.02-0.36c0.4-0.1,0.83-0.16,1.27-0.16c0.64,0,1.13,0.08,1.49,0.23c0.36,0.15,0.61,0.39,0.76,0.71
		c0.15,0.32,0.23,0.76,0.23,1.31v3.07h0.55v0.82c-0.17,0.03-0.43,0.07-0.78,0.11s-0.65,0.06-0.89,0.06c-0.22,0-0.39-0.02-0.51-0.06
		c-0.11-0.04-0.19-0.11-0.23-0.2c-0.04-0.09-0.06-0.23-0.06-0.4v-0.21c-0.18,0.24-0.42,0.45-0.72,0.62s-0.67,0.25-1.09,0.25
		c-0.35,0-0.68-0.08-0.97-0.24c-0.29-0.16-0.53-0.38-0.7-0.68c-0.17-0.3-0.26-0.64-0.26-1.04c0-0.67,0.3-1.19,0.91-1.55
		c0.61-0.37,1.52-0.55,2.72-0.55V13.14z M47.92,14.1c-0.48,0-0.82,0.1-1.03,0.29c-0.21,0.2-0.32,0.44-0.32,0.73
		c0,0.31,0.06,0.55,0.19,0.74c0.13,0.19,0.3,0.28,0.52,0.28c0.11,0,0.22-0.03,0.34-0.09c0.12-0.06,0.22-0.13,0.3-0.22V14.1z"/>
	<path class="st1" d="M50.4,11.85v-0.81h3.5v0.81l-0.66,0.13l0.86,2.81l0.19,0.82l0.16-0.82l0.84-2.81l-0.66-0.13v-0.81h2.79v0.81
		l-0.6,0.13l-2.01,5.35h-1.78l-2.22-5.35L50.4,11.85z"/>
	<path class="st1" d="M60.92,13.14c0-0.18-0.02-0.32-0.07-0.42s-0.15-0.18-0.29-0.23s-0.36-0.08-0.65-0.08
		c-0.39,0-0.73,0.03-1.02,0.09c-0.29,0.06-0.59,0.14-0.9,0.23h-0.01l-0.44-0.83c0.14-0.11,0.35-0.23,0.63-0.36
		c0.28-0.14,0.62-0.26,1.02-0.36c0.4-0.1,0.83-0.16,1.27-0.16c0.64,0,1.13,0.08,1.49,0.23c0.36,0.15,0.61,0.39,0.76,0.71
		c0.15,0.32,0.23,0.76,0.23,1.31v3.07h0.55v0.82c-0.17,0.03-0.43,0.07-0.78,0.11s-0.65,0.06-0.89,0.06c-0.22,0-0.39-0.02-0.51-0.06
		c-0.11-0.04-0.19-0.11-0.23-0.2c-0.04-0.09-0.06-0.23-0.06-0.4v-0.21c-0.18,0.24-0.42,0.45-0.72,0.62s-0.67,0.25-1.09,0.25
		c-0.35,0-0.68-0.08-0.97-0.24c-0.29-0.16-0.53-0.38-0.7-0.68c-0.17-0.3-0.26-0.64-0.26-1.04c0-0.67,0.3-1.19,0.91-1.55
		c0.61-0.37,1.52-0.55,2.72-0.55V13.14z M60.92,14.1c-0.48,0-0.82,0.1-1.03,0.29c-0.21,0.2-0.32,0.44-0.32,0.73
		c0,0.31,0.06,0.55,0.19,0.74c0.13,0.19,0.3,0.28,0.52,0.28c0.11,0,0.22-0.03,0.34-0.09c0.12-0.06,0.22-0.13,0.3-0.22V14.1z"/>
	<path class="st1" d="M66.8,15.05c-0.35,0-0.66-0.02-0.93-0.07c-0.01,0.08-0.03,0.16-0.04,0.24s-0.01,0.15-0.01,0.19
		c0,0.14,0.04,0.25,0.11,0.33c0.07,0.08,0.19,0.13,0.36,0.16s0.41,0.05,0.73,0.05h1.1c0.83,0,1.45,0.14,1.88,0.43
		c0.42,0.29,0.64,0.74,0.64,1.35c0,0.53-0.18,0.98-0.55,1.36c-0.36,0.38-0.84,0.67-1.42,0.87c-0.58,0.2-1.19,0.29-1.82,0.29h-0.01
		c-1.08,0-1.86-0.17-2.34-0.5c-0.48-0.33-0.72-0.77-0.72-1.31c0-0.19,0.05-0.38,0.14-0.57c0.09-0.19,0.22-0.36,0.38-0.51
		c0.16-0.15,0.35-0.27,0.55-0.35c-0.35-0.22-0.52-0.54-0.52-0.98c0-0.24,0.08-0.47,0.25-0.69s0.4-0.4,0.69-0.51
		c-0.47-0.15-0.81-0.38-1.01-0.7s-0.3-0.7-0.3-1.15c0-0.4,0.13-0.75,0.4-1.05c0.26-0.3,0.62-0.53,1.08-0.68
		c0.46-0.16,0.97-0.24,1.52-0.24h0.01c1.03,0,1.76,0.18,2.19,0.54c0.11-0.14,0.27-0.26,0.49-0.37s0.45-0.17,0.68-0.17h0.43v1.54
		h-1.07c0.03,0.13,0.04,0.28,0.04,0.44c0,0.41-0.1,0.77-0.32,1.08c-0.22,0.3-0.54,0.54-0.98,0.71
		C68.01,14.97,67.47,15.05,66.8,15.05L66.8,15.05z M65.94,18.06c0,0.4,0.1,0.71,0.29,0.93c0.19,0.22,0.49,0.33,0.9,0.33h0.01
		c0.21,0,0.4-0.04,0.57-0.13c0.18-0.08,0.32-0.22,0.43-0.39s0.17-0.4,0.17-0.66c0-0.3-0.07-0.51-0.22-0.63
		c-0.15-0.12-0.39-0.18-0.72-0.18h-1.08c-0.07,0-0.15,0-0.25,0C65.97,17.52,65.94,17.76,65.94,18.06z M66.93,11.83
		c-0.27,0-0.47,0.1-0.59,0.3c-0.12,0.2-0.18,0.49-0.18,0.86c0,0.42,0.06,0.73,0.18,0.93c0.12,0.2,0.31,0.3,0.58,0.3h0.01
		c0.26,0,0.44-0.1,0.55-0.31c0.11-0.21,0.16-0.5,0.16-0.87c0-0.43-0.05-0.74-0.16-0.93C67.37,11.92,67.19,11.83,66.93,11.83
		L66.93,11.83z"/>
	<path class="st1" d="M71.5,12.48c0.26-0.47,0.62-0.83,1.1-1.08s1.04-0.37,1.69-0.37c0.83,0,1.47,0.19,1.9,0.56
		c0.43,0.37,0.66,0.9,0.67,1.58c0,0.42-0.04,0.8-0.1,1.12h-3.38c0.06,0.59,0.2,1.03,0.45,1.31s0.59,0.42,1.04,0.42
		c0.26,0,0.53-0.04,0.82-0.13c0.29-0.09,0.54-0.19,0.75-0.3l0.36,0.78c-0.11,0.13-0.3,0.27-0.56,0.42
		c-0.26,0.15-0.57,0.28-0.91,0.39c-0.35,0.11-0.7,0.16-1.05,0.16c-1.09,0-1.89-0.28-2.39-0.83c-0.5-0.55-0.75-1.32-0.75-2.29
		C71.11,13.53,71.24,12.95,71.5,12.48z M74.77,13.47l0.01-0.39c0-0.39-0.05-0.69-0.14-0.89c-0.09-0.2-0.26-0.29-0.5-0.29
		c-0.17,0-0.32,0.04-0.43,0.12s-0.2,0.23-0.27,0.46c-0.07,0.23-0.1,0.56-0.1,0.99H74.77z"/>
	<path class="st1" d="M78.86,15.35l0.32,0.89c0.04,0.07,0.15,0.13,0.31,0.19c0.17,0.06,0.34,0.09,0.5,0.09
		c0.25,0,0.44-0.06,0.58-0.17c0.14-0.11,0.21-0.25,0.21-0.41c0-0.13-0.05-0.24-0.14-0.34c-0.1-0.1-0.22-0.19-0.37-0.27
		c-0.15-0.08-0.36-0.17-0.64-0.29c-0.21-0.09-0.43-0.19-0.66-0.3c-0.45-0.21-0.79-0.47-1.02-0.77s-0.35-0.68-0.35-1.12
		c0-0.34,0.1-0.65,0.31-0.92c0.2-0.28,0.51-0.49,0.91-0.65c0.4-0.16,0.89-0.24,1.45-0.24c0.37,0,0.69,0,0.95,0.01
		c0.27,0.01,0.54,0.02,0.83,0.03c0.23,0.01,0.41,0.02,0.53,0.02v1.61H81.4l-0.32-0.67c-0.03-0.05-0.11-0.09-0.23-0.13
		s-0.26-0.06-0.42-0.06c-0.25,0-0.45,0.05-0.59,0.16c-0.14,0.1-0.21,0.24-0.21,0.42c0,0.14,0.05,0.26,0.15,0.37
		c0.1,0.11,0.23,0.2,0.39,0.28s0.37,0.17,0.65,0.29l0.22,0.09c0.39,0.16,0.72,0.32,0.99,0.49c0.27,0.16,0.5,0.37,0.68,0.62
		c0.18,0.25,0.27,0.56,0.27,0.91c0,0.34-0.09,0.64-0.28,0.92c-0.19,0.28-0.49,0.5-0.9,0.67c-0.41,0.17-0.93,0.26-1.56,0.26
		c-0.43,0-0.8-0.03-1.12-0.09c-0.32-0.06-0.65-0.14-0.99-0.24c-0.24-0.07-0.4-0.11-0.49-0.12v-1.54H78.86z"/>
	<path class="st1" d="M91.24,11.38c0.47,0.23,0.84,0.58,1.1,1.04c0.26,0.46,0.39,1.03,0.39,1.7c0,0.74-0.14,1.36-0.44,1.83
		c-0.29,0.48-0.68,0.83-1.18,1.05c-0.5,0.22-1.06,0.33-1.68,0.33c-0.62,0-1.16-0.12-1.63-0.35c-0.47-0.23-0.84-0.58-1.1-1.04
		c-0.27-0.46-0.4-1.03-0.4-1.69c0-0.72,0.15-1.31,0.44-1.79c0.29-0.48,0.69-0.84,1.19-1.07c0.5-0.24,1.06-0.35,1.67-0.35
		C90.23,11.03,90.77,11.15,91.24,11.38z M90.29,12.89c-0.06-0.34-0.15-0.59-0.27-0.75c-0.13-0.16-0.3-0.24-0.51-0.24
		c-0.28,0-0.5,0.17-0.64,0.53c-0.14,0.35-0.21,0.91-0.21,1.68c0,0.56,0.03,1.02,0.09,1.36c0.06,0.35,0.16,0.6,0.29,0.76
		c0.13,0.16,0.31,0.24,0.52,0.24c0.28,0,0.49-0.17,0.62-0.52c0.13-0.35,0.2-0.91,0.2-1.69C90.38,13.69,90.35,13.23,90.29,12.89z"/>
	<path class="st1" d="M94.15,16.37v-4.3h-0.79v-0.78l0.79-0.24v-0.42c0-0.48,0.14-0.92,0.43-1.32c0.29-0.4,0.67-0.71,1.16-0.94
		c0.48-0.23,1.01-0.34,1.59-0.34c0.2,0,0.36,0.01,0.48,0.04c0.12,0.03,0.23,0.05,0.33,0.09v1.85c-0.06-0.06-0.15-0.12-0.29-0.18
		s-0.29-0.12-0.47-0.16S97.02,9.6,96.87,9.6c-0.21,0-0.35,0.04-0.43,0.12c-0.08,0.08-0.12,0.22-0.12,0.41v0.9h1.28v1.03h-1.28v4.3
		l1.1,0.12v0.83h-4.08v-0.83L94.15,16.37z"/>
	<path class="st1" d="M101.71,16.36V9.97l-0.77-0.16V8.91h3.96v0.89L104,9.97v2.55h2.67V9.98l-0.83-0.17V8.91h3.92v0.89l-0.81,0.16
		v6.39l0.81,0.13v0.84h-3.92v-0.84l0.82-0.13V13.6H104v2.76l0.9,0.13v0.84h-3.97v-0.84L101.71,16.36z"/>
	<path class="st1" d="M111.36,16.35V9.98l-0.86-0.17V8.91h4.05v0.89l-0.89,0.17v6.38l0.89,0.14v0.83h-4.04v-0.84L111.36,16.35z"/>
	<path class="st1" d="M114.68,9.85V8.91h4.04v0.93L117.83,10l1.44,4.66l0.2,0.79l0.16-0.79l1.41-4.64l-0.88-0.17V8.91h3.06v0.93
		l-0.74,0.16l-2.5,7.31h-1.86l-2.78-7.31L114.68,9.85z"/>
	<path class="st1" d="M129.58,13.14c0-0.18-0.03-0.32-0.08-0.42s-0.15-0.18-0.29-0.23c-0.15-0.05-0.36-0.08-0.66-0.08
		c-0.39,0-0.73,0.03-1.02,0.09c-0.29,0.06-0.59,0.14-0.9,0.23h-0.01l-0.44-0.83c0.14-0.11,0.35-0.23,0.63-0.36
		c0.28-0.14,0.62-0.26,1.02-0.36c0.4-0.1,0.83-0.16,1.27-0.16c0.64,0,1.13,0.08,1.49,0.23c0.36,0.15,0.61,0.39,0.76,0.71
		c0.15,0.32,0.23,0.76,0.23,1.31v3.07h0.55v0.82c-0.17,0.03-0.43,0.07-0.78,0.11c-0.35,0.04-0.65,0.06-0.89,0.06
		c-0.22,0-0.39-0.02-0.51-0.06c-0.11-0.04-0.19-0.11-0.23-0.2c-0.04-0.09-0.06-0.23-0.06-0.4v-0.21c-0.18,0.24-0.42,0.45-0.72,0.62
		s-0.67,0.25-1.09,0.25c-0.35,0-0.68-0.08-0.97-0.24s-0.53-0.38-0.7-0.68s-0.26-0.64-0.26-1.04c0-0.67,0.3-1.19,0.91-1.55
		c0.61-0.37,1.52-0.55,2.72-0.55V13.14z M129.58,14.1c-0.48,0-0.82,0.1-1.03,0.29s-0.32,0.44-0.32,0.73c0,0.31,0.06,0.55,0.19,0.74
		c0.13,0.19,0.3,0.28,0.52,0.28c0.11,0,0.22-0.03,0.34-0.09c0.12-0.06,0.22-0.13,0.3-0.22V14.1z"/>
	<path class="st1" d="M133.29,16.4v-3.87l-0.6-0.21v-1.04l2.28-0.28H135l0.33,0.27v0.37l-0.01,0.26c0.26-0.25,0.58-0.46,0.97-0.62
		c0.39-0.16,0.81-0.25,1.27-0.25c0.44,0,0.79,0.08,1.05,0.23c0.27,0.15,0.46,0.4,0.59,0.75s0.19,0.81,0.19,1.4v2.99l0.55,0.1v0.82
		h-3.27v-0.81l0.47-0.11v-2.99c0-0.31-0.02-0.56-0.06-0.73c-0.04-0.17-0.11-0.29-0.21-0.36c-0.1-0.07-0.24-0.11-0.42-0.11
		c-0.31,0-0.61,0.15-0.92,0.43v3.76l0.55,0.11v0.81h-3.36v-0.81L133.29,16.4z"/>
	<path class="st1" d="M140.9,12.69c0.26-0.5,0.65-0.91,1.17-1.21c0.52-0.3,1.16-0.46,1.91-0.46c0.12,0,0.28,0.02,0.48,0.06V9.45
		l-1.05-0.18V8.44l2.74-0.24h0.05l0.4,0.31v7.82h0.55v0.83c-0.23,0.04-0.49,0.08-0.79,0.11s-0.56,0.05-0.78,0.05
		c-0.2,0-0.36-0.02-0.48-0.06c-0.12-0.04-0.21-0.1-0.27-0.2c-0.06-0.1-0.09-0.24-0.09-0.42V16.4c-0.17,0.29-0.42,0.51-0.76,0.68
		c-0.34,0.17-0.67,0.25-1.02,0.25c-0.48,0-0.9-0.11-1.27-0.32c-0.37-0.21-0.65-0.54-0.86-0.98c-0.21-0.45-0.31-1.01-0.31-1.69
		C140.51,13.74,140.64,13.2,140.9,12.69z M144.45,12.12c-0.04-0.06-0.12-0.12-0.21-0.16c-0.1-0.04-0.21-0.06-0.32-0.06
		c-0.34,0-0.6,0.17-0.81,0.52c-0.2,0.35-0.3,0.94-0.3,1.77c0,0.68,0.08,1.18,0.24,1.5c0.16,0.32,0.39,0.49,0.69,0.49
		c0.31,0,0.55-0.1,0.72-0.31V12.12z"/>
	<path class="st1" d="M150.52,16.35l2.41-7.44h2.44l2.42,7.44l0.59,0.13v0.84h-3.85v-0.84l0.73-0.13l-0.32-1.2h-2.41l-0.31,1.23
		l0.84,0.1v0.84h-3.17l-0.02-0.84L150.52,16.35z M154.7,14.2l-0.86-3.2l-0.12-0.68L153.59,11l-0.81,3.2H154.7z"/>
	<path class="st1" d="M159.48,16.35V9.98l-0.86-0.17V8.91h4.05v0.89l-0.89,0.17v6.38l0.89,0.14v0.83h-4.04v-0.84L159.48,16.35z"/>
	<path class="st1" d="M164.19,16.29v-6.28l-0.8-0.16V8.91h1.91c0.25,0,0.59,0,1,0c0.07,0,0.21,0,0.4,0s0.38,0,0.57,0
		c1.37,0,2.41,0.33,3.1,0.99c0.7,0.66,1.05,1.63,1.05,2.89c0,0.86-0.17,1.63-0.5,2.31c-0.33,0.69-0.82,1.23-1.45,1.62
		c-0.63,0.39-1.38,0.59-2.25,0.59c-0.21,0-0.6,0-1.17,0c-0.35,0-0.59,0-0.73,0h-1.96v-0.9L164.19,16.29z M167.14,16.43
		c0.58,0,1.02-0.26,1.32-0.79c0.3-0.53,0.45-1.37,0.45-2.54c0-2.23-0.62-3.34-1.86-3.34c-0.19,0-0.33,0.01-0.43,0.04
		c-0.1,0.03-0.16,0.05-0.17,0.05v6.47C166.6,16.39,166.83,16.43,167.14,16.43z"/>
	<path class="st1" d="M172.36,14.69h1.23l0.31,1.42c0.07,0.09,0.2,0.17,0.39,0.24s0.44,0.1,0.73,0.1c0.41,0,0.71-0.08,0.9-0.25
		s0.29-0.4,0.29-0.71c0-0.22-0.07-0.41-0.21-0.58s-0.34-0.33-0.59-0.47c-0.25-0.15-0.61-0.32-1.06-0.53
		c-1.38-0.63-2.07-1.53-2.07-2.69c0-0.41,0.11-0.79,0.32-1.14c0.21-0.35,0.55-0.63,1.02-0.85s1.05-0.32,1.77-0.32
		c0.43,0,0.8,0.01,1.11,0.03c0.31,0.02,0.64,0.05,0.99,0.09c0.21,0.03,0.35,0.04,0.43,0.04l-0.07,2.08h-1.2l-0.27-1.19
		c-0.04-0.05-0.14-0.1-0.3-0.14c-0.16-0.04-0.34-0.06-0.55-0.06c-0.37,0-0.64,0.09-0.82,0.26c-0.17,0.18-0.26,0.39-0.26,0.65
		c0,0.24,0.08,0.45,0.25,0.63c0.16,0.19,0.37,0.35,0.61,0.49c0.24,0.14,0.58,0.32,1.01,0.53c0.02,0.01,0.07,0.03,0.16,0.08
		c0.36,0.17,0.68,0.36,0.97,0.55c0.29,0.2,0.53,0.45,0.74,0.76c0.2,0.31,0.31,0.67,0.31,1.09c0,0.41-0.09,0.81-0.28,1.19
		c-0.19,0.38-0.53,0.7-1.02,0.95c-0.49,0.26-1.17,0.39-2.02,0.39c-0.43,0-0.84-0.03-1.21-0.1s-0.75-0.16-1.15-0.27
		c-0.25-0.07-0.43-0.11-0.54-0.12L172.36,14.69z"/>
</g>
<g>
	<path class="st1" d="M186.13,2.45v21.87H2.93V2.45H186.13 M186.48,2.1H2.58v22.57h183.9V2.1L186.48,2.1z"/>
</g>
</svg>
