<?xml version="1.0" encoding="utf-8"?>
<!-- Generator: Adobe Illustrator 24.2.3, SVG Export Plug-In . SVG Version: 6.00 Build 0)  -->
<svg version="1.1" xmlns="http://www.w3.org/2000/svg" xmlns:xlink="http://www.w3.org/1999/xlink" x="0px" y="0px"
	 viewBox="0 0 600 475.58" style="enable-background:new 0 0 600 475.58;" xml:space="preserve">
<style type="text/css">
	.st0{fill:#242424;}
	.st1{fill:none;stroke:#686868;stroke-width:0.5;stroke-linecap:round;stroke-linejoin:round;stroke-miterlimit:3.5076;}
	.st2{fill:none;}
	.st3{fill:#FFFFFF;}
	.st4{font-family:Merriweather;font-weight:900;}
	.st5{font-size:16px;}
	.st6{fill:#FFFFFF;}
	.st7{font-family:Roboto;font-weight:400;}
	.st8{font-size:13px;}
</style>
<g id="Layer_7">
	<rect y="0" class="st0" width="600" height="475.58"/>
</g>
<g id="Map">
	<g>
		<path class="st1" d="M110.42,107.07c1.17,4.67-3.52,0.92-5.6,2.05c-0.79,3.25,5.26,2.72,7.27,2.93c1.88,0.2,7.31,3.59,6.36-0.61
			c1.2-0.17,3.35,1.11,4.29,0.56c1.21-0.7,1.35-4.27,1.3-5.37c-0.15-2.8,0.25-1.42-1.65-2.89c-0.27-0.2-3.11-2.15-3.31-2.19
			c-1.44-0.25-2.67,1.45-3.65,1.21c-2.14-0.52-1.31-3.08-2.5-3.86c-4.07-2.66-4.53,3.78-7.77,3.88c-0.67,2.83,2.56,2.06,4.21,2.67
			C109.7,106.4,109.28,106.59,110.42,107.07z"/>
		<path class="st1" d="M95.01,106.18c-1.56-0.02-3.05,0.32-4.61,0.33c-2.61,0.02-5.24,0.04-7.85,0.11c-2.88,0.07-5.52,0.2-8.39-0.19
			c-0.99-0.14-1.16-0.05-1.54-0.8c-0.24-0.47-0.02-1.07-0.23-1.49c-0.27-0.52-0.97-0.69-1.48-0.84c-1.04-0.31-1.41-0.29-2.14-1.11
			c-0.87-0.96-1.31-1.25-2.75-1.03c-1.07,0.16-2.1,0.54-3.23,0.35c-2.51-0.43-5.02-1.1-7.63-0.99c-0.95,0.04-1.82,0.54-2.72,0.67
			c-0.66,0.09-1.33-0.04-2,0.08c-0.86,0.16-1.7,0.58-2.57,0.68c-1.5,0.18-1.69-0.1-2.45-1.19c-0.49-0.7-0.77-1-1.83-0.9
			c-0.95,0.09-2.31,0.78-2.81,1.58c-0.66,1.07,0.01,1.35,0.67,2.06c0.46,0.49,0.64,0.47,0.58,1.23c-0.03,0.38-0.37,0.7-0.44,1.07
			c-0.07,0.37,0.12,0.85-0.02,1.2c-0.75,1.97-3.31,0.18-4.23-0.58c-0.46-0.37-0.27-0.72-0.97-0.47c-0.46,0.16-0.89,1.01-0.95,1.5
			c-0.08,0.64,0.32,1.14,0.05,1.73c-0.62,1.4-1.3,0.54-2.11,0.42c-1.9-0.28-2.84,1.63-1.98,3c0.58,0.92,1.95,2.27-0.18,2.44
			c-0.71,0.06-1.36-0.46-2.03-0.32c-1.32,0.26-1.02,1.3-1.44,1.98c-0.74,1.17-2.52,0.54-3.67,1.11c-1.57,0.77-3.19,2.16-4.19,3.57
			c-0.96,1.36-2.63,1.65-1.52,3.48c0.15,0.25,0.5,0.18,0.6,0.49c0.17,0.53-0.16,1.27-0.21,1.8c-0.09,1.01-0.08,1.61-0.53,2.52
			c-0.31,0.61-0.46,1.28-1.23,0.9c-0.26,0.67,0.19,1.26,0.08,1.96c-0.81,0.27-1.5,0.22-2.32,0.57c-0.94,0.4-1.67,0.71-2.72,0.9
			c-1.08,0.19-2.87,0.43-3.45,1.44c-0.73,1.26,0.58,2.35,1.88,2.34c1.16-0.02,2.39-0.83,3.33-1.47c0.95-0.66,1.42-1.72,2.31-2.34
			c1.16-0.82,2.64-0.12,3.88-0.49c1.36-0.41,1.76-1.87,3.02-2.24c1.15-0.34,1.73-0.44,2.64-1.34c0.62-0.61,1.31-1.59,2.31-1.44
			c0.46,0.07,0.84,0.73,1.34,0.79c1.19,0.13,1.36-1.06,1.98-1.78c1.62-1.92,3.21-1.39,5.43-1.74c2.12-0.33,3.79-0.04,5.9,0.19
			c0.65,0.07,1.39,0.21,1.89,0.69c0.72,0.68,0.17,1.19,0.54,1.98c0.35,0.73,1.67,1,2.31,1.46c1.09,0.77,1.34,1.62,2.19,2.54
			c0.52,0.57,0.93,0.59,1.28,1.43c0.31,0.74,0.66,1.9,0.27,2.65c-0.42,0.81-1.91,1.45-2.59,2.12c-0.45,0.44-0.81,0.98-1.34,1.35
			c-0.34,0.23-1.53,0.5-1.1,1.2c0.21,0.35,1.31,0.13,1.73,0.65c0.44,0.54,0.22,1.33,0.57,1.89c0.34,0.54,1.02,0.6,1.11,1.32
			c0.21,1.57-1.89,2.72-2.13,4.24c-0.32,2.01,0.86,4.13,1.24,5.99c0.2,0.97,0.01,1.42,0.47,2.33c0.51,1.01,1.22,1.94,1.4,3.11
			c0.2,1.29-0.19,2.7-0.2,4c-0.02,1.39-0.55,1.67-1.2,2.77c-0.9-0.81-1.56-2.19-2.15-3.22c-0.51-0.88-0.28-1.85-1.42-2.27
			c-0.68,0.59-0.3,1.27-0.35,2.04c-0.06,0.95-0.38,2.32-0.67,3.22c-0.46,1.45-1.7,1.35-2.7,2.23c-1.11,0.99-2.64,2.61-2.38,4.03
			c0.25,1.33,0.98,2.64-0.69,3.47c-0.12-0.07-0.15-0.18-0.09-0.34c-1.54,0.34-2.12,1.63-2.24,3.09c-2.42,0.75-1.21,1.68-1.81,3.49
			c-0.06,0.19-0.62,0.76-0.77,1.06c-0.41,0.84-0.87,1.35-1.39,2.12c-0.58,0.86-0.76,2.06-0.67,3.09c0.12,1.24,0.21,2.38,0.11,3.67
			c-0.13,1.59-0.76,3.04-0.89,4.67c-0.11,1.36-0.36,2.88,0.33,4.08c0.81,1.41,1.94,2.69,2.78,4.12c0.53,0.9,1.27,1.76,1.58,2.78
			c0.3,1,0.22,2.2,0.42,3.19c0.51,0.26-0.89,3.37-0.89,4.27c0,1.08,0.45,2.45,0.78,3.5c0.58,1.8,0.31,3.69,0.86,5.55
			c0.59,1.99-0.03,4.6,0.93,6.41c0.51,0.96,1.41,1.85,1.79,2.98c0.29,0.86-0.07,2.23,0.61,2.81c1.64,1.41,3.88-0.28,2.03-2.03
			c-1.27-1.2-1.64-2.92-2.6-4.49c-0.91-1.48,0.51-2.16,0.16-3.85c-0.19-0.94-0.73-1.64-0.78-2.65c-0.06-1.09,0.15-2.28,0.32-3.35
			c0.13-0.8,0.15-1.67,0.35-2.44c0.18-0.71,0.77-1.29,0.68-2.05c1.66,1.73,1.48,5.52,2.37,7.75c0.5,1.25,1.09,2.23,1.16,3.62
			c0.07,1.24-0.24,2.61,0.19,3.78c0.57,1.57,2.22,2.1,3.03,3.39c0.29,0.46,0.25,1.08,0.54,1.53c0.32,0.49,0.86,0.46,1.21,0.85
			c0.72,0.82-0.1,3.57,0.15,4.9c0.29,1.52,1.18,2.82,0.98,4.44c-0.15,1.18-0.72,2-0.45,3.21c0.34,0.29,0.46,1.1,1.08,1.47
			c0.73,0.43,1.27,0.65,1.96,1.25c0.66,0.58,1.48,1.09,1.96,1.85c0.35,0.56,0.31,1.76,0.66,2.2c0.42,0.52,0.57,0.2,1.22,0.16
			c1.04-0.06,1.58,0.23,2.5,0.75c1.5,0.86,3.03,2.31,4.71,2.79c1.87,0.53,1.55-0.79,2.46-1.83c1.15-1.3,2.43-0.4,2.91,0.95
			c0.22,0.61,0.07,1.22,0.24,1.86c0.26,0.95,0.82,1.13,1.45,1.65c1.29,1.07,1.98,2.85,3.79,3.08c0.89,0.12,1.42-0.23,2.22,0.51
			c0.67,0.62,1.16,1.43,1.89,2.04c1.02,0.86,1.98,1.96,2.99,2.87c-0.01,0.15-0.08,0.27-0.22,0.35c0.03,1.07,1.29,2.07,1.56,3.21
			c0.13,0.58-0.32,1.33-0.12,1.83c0.21,0.51,0.87,0.68,1.33,1.1c0.54,0.51,0.87,1.22,1.45,1.71c0.56,0.47,1.34,0.6,1.89,1.01
			c1.07,0.8,1.51,2.3,2.65,3c1.46,0.89,3.37,0.28,4.93,0.22c0.77-0.03,2.32,0.05,2.86,0.66c0.52,0.59,0.7,2.64,0.64,3.38
			c-0.09,1.15-0.65,2.43-0.55,3.6c0.13,1.54,0.92,2.53,0.74,4.2c-0.18,1.62-1.09,1.02-1.69,2.24c-0.31,0.65-0.18,1.84-0.17,2.57
			c0,1.01-0.06,1.77-1.07,2.31c-0.99,0.54-1.98,0.12-2.92,1.01c-0.52,0.49-1.34,1.45-1.22,2.2c0.15,0.94,1.09,1.06,0.78,2.31
			c-0.23,0.92-1.17,1.37-1.48,2.15c-0.4,1.02,1.11,2.32-0.3,2.86c0.53,0.9,0.27,2.07,0.33,3.1c0.08,1.29,0.43,2.5,0.44,3.82
			c0.01,1.46-0.41,4.31,0.21,5.58c0.61,1.23,1.97,1.21,3.01,1.69c0.87,0.4,2.15,1.64,2.3,2.77c0.16,1.21-1.04,1.87-0.21,3.07
			c0.48,0.71,1.57,1.51,2.2,2.19c0.54,0.58,1.72,1.1,2.07,1.83c0.54,1.12-0.1,3.25-0.16,4.43c-0.12,2.16,1.34,3.14,2.24,4.9
			c0.38,0.74,0.75,1.31,0.86,2.1c0.09,0.63-0.06,1.25,0.11,1.86c0.4,1.44,2.55,1.92,3.77,2.99c1.55,1.36,3.07,2.64,4.7,3.86
			c1.55,1.16,2.44,2.29,2.98,4.23c0.44,1.62,1.02,3.19,1.47,4.82c0.59,2.11,0.42,4.31,0.61,6.47c0.46,5.43,0.99,10.87,0.99,16.32
			c0,2.86,0.08,5.75,0.45,8.59c0.4,3.14,0.17,6.3,0.63,9.43c0.7,4.77,2.12,9.34,2.99,14.06c0.45,2.44,1.13,4.2,3.14,5.69
			c2.21,1.64,2.55,4.13,2.77,6.66c0.28,3.18,0.07,6.38,0.88,9.43c0.22,0.84,0.27,1.76,0.69,2.52c0.65,1.17,1.91,2.28,2.76,3.36
			c1.31,1.67,2.92,3.05,4.31,4.64c1.35,1.54,2.04,3.71,3.41,5.14c1.54,1.61,3.23,1.91,5.32,1.88c1.78-0.02,3.56,0.46,5.34,0.42
			c1.6-0.03,2.12-0.29,1.45-1.73c-0.86-1.84-2.49-3.56-4.53-3.68c-1.2-0.07-1.61-0.12-2.44-1.13c-0.49-0.6-1.6-1.41-1.88-2.06
			c-0.43-0.99,0.25-2.71,0.1-3.79c-0.24-1.74-0.56-3.47-0.86-5.2c-0.49-2.79-0.57-5.55-0.95-8.35c-0.12-0.89-0.62-1.81-0.65-2.7
			c-0.03-0.9,0.55-1.15,0.87-2.07c0.37-1.07,0.08-2.47,0.03-3.61c-0.03-0.71,0.02-1.33-0.36-2.01c-0.31-0.54-1.13-0.95-1.25-1.63
			c-0.19-1.03,0.58-1.23,1.28-1.61c0.99-0.54,1.25-0.93,1.56-2.13c0.24-0.92,0.65-1.79,0.9-2.72c0.72-0.04,1.27-0.6,1.95-0.83
			c0.57-0.19,1.41-0.05,1.91-0.36c0.57-0.35,0.67-1.08,1.11-1.49c0.63-0.58,1.26-0.75,1.81-1.55c0.94-1.38,1.03-2.57,0.55-4.22
			c-0.38-1.32-1.15-1.87-1.82-2.88c0.6-0.46,1.57-0.63,2.34-0.67c1.04-0.05,2.06,0.61,3.09,0.21c-0.77-1-0.13-1.46,0.4-2.52
			c0.49-0.98,0.07-2.73,0.69-3.53c0.43-0.55,1.43-0.33,2.05-0.72c0.83-0.51,0.55-0.25,0.52-1.31c-0.01-0.5-0.12-1.25,0.08-1.71
			c0.27-0.6,1.04-0.86,1.03-1.39c-0.03-0.95,1.38-1.9,1.94-2.77c0.21-0.33,0.25-0.75,0.48-1.08c0.15-0.21,0.52-0.39,0.61-0.55
			c0.33-0.6,0.35-1.08,0.28-1.84c-0.18-2-0.82-3.84-0.87-5.89c-0.03-1.49,0.28-2.95,0.36-4.44c0.04-0.85,0-1.77,0.86-2.15
			c0.47-0.21,1.19,0.13,1.69-0.02c0.6-0.17,1.17-0.72,1.75-0.99c1.05-0.48,2.03-0.94,3.06-1.38c1.3-0.57,4.13-2,4.48-2.94
			c0.44-1.18,1.43-2.65,1.91-3.77c0.76-1.75,0.78-3.74,1.07-5.6c0.41-2.72,1.48-5.25,1.11-8.06c-0.33-2.51-0.66-5.15-0.77-7.68
			c-0.09-2.04,0.28-1.89,1.86-2.91c1.34-0.86,3.09-2.61,3.49-4.16c0.27-1.06-0.4-2.45,0.19-3.42c0.23-0.37,0.84-0.65,1.17-1.05
			c0.44-0.53,0.54-1.11,0.94-1.67c0.41-0.57,0.84-0.59,1-1.27c0.09-0.38,0-1.19,0-1.6c0.02-1.51-0.04-3.03,0.2-4.47
			c-1.96-0.43-2.03-3.4-2.33-4.89c-0.06,0.06-0.14,0.21-0.2,0.32c-1.26-0.49-2.51-1.43-3.44-2.39c-1.38-1.42-3.17-2.09-4.65-3.34
			c-1.08-0.91-1.59-1.92-3.1-1.92c-1.6,0-3.79,1.17-5.33,0.78c-0.52-0.13-0.97-0.62-1.3-1.11c-0.67-1.01-1.09-1.86-2.02-2.7
			c-0.5-0.45-1.08-1.11-1.67-1.42c-0.96-0.51-0.81-0.06-1.66,0.34c-1.84,0.86-2.45-0.86-3.4-2.14c-1-1.34-1.69-1.86-1.44-3.52
			c0.16-1.03-0.02-1.57-0.53-2.46c-0.38-0.68-1.3-1.38-1.51-2.08c-0.26-0.88,0.64-2.17-0.66-2.56c-2.3-0.68-4.03-3.18-5.88-4.72
			c-0.83-0.69-1.8-1.48-2.82-1.86c-0.97-0.37-1.39-0.12-2.37-0.06c-1.22,0.08-3-0.73-3.88-1.46c-0.82-0.68-0.8-1.98-1.3-2.84
			c-0.62-1.05-1.89-1.97-2.97-2.53c-1.84-0.95-2.54-2.44-3.61-4.21c-1.22-2.02-1.42-0.4-3.21-0.52c-0.24-0.02-0.51-0.37-0.77-0.43
			c-0.55-0.12-1.46-0.05-2.02,0.01c-0.87,0.1-1.67,0.6-2.53,0.67c-1,0.08-2.13-0.41-3.05-0.74c-1.1-0.4-1.07-0.89-1.71-1.8
			c-1.53-2.16-3.14-1.21-3.88,0.89c-0.74,2.09-0.63,4.75-3.42,4.53c-0.51-1.57-0.64-2.99-0.46-4.63c0.13-1.15,1.52-2.49-0.28-3.01
			c-0.71-0.2-1.46,0.21-1.95,0.68c-0.17,0.17-0.23,0.74-0.43,0.85c-0.29,0.16-0.59-0.16-0.84-0.1c-1.76,0.45-1.94,2.27-3.08,3.68
			c-0.54,0.68-1.34,1.29-1.86,1.93c-0.22,0.26-0.45,0.61-0.72,0.88c-0.47,0.46-1.28,0.86-1.29,1.6c-0.59-0.57-1.33-0.5-2.03-0.77
			c-0.6-0.23-0.91-0.55-1.47-0.91c-0.79-0.51-4.15-0.9-4.57-0.08c0.98-0.59-1.6-2.81-2.21-3.24c-1.13-0.8-2.78-1.33-2.67-2.82
			c0.14-1.93,1.14-3.72,1.11-5.72c-0.02-1.45-0.89-2.51-1.11-3.91c-0.16-0.98,0.23-1.71-0.19-2.71c-0.85-2.02-2.2-1.54-4.02-1.78
			c-1.64-0.22-1.6-1.43-1.85-2.88c-0.31-1.79-0.19-2.56,0.58-4.04c0.34-0.66,0.65-1.38,0.92-2.06c0.2-0.53,0.32-1.25,0.58-1.77
			c0.62-1.26,3.25-1.61,3.43-2.84c-0.15,0.06-0.28,0.05-0.43,0.07c-0.44-1.95-1.79-2.95-3.66-2.77c-1.07,0.1-2.35-0.06-3.14,0.64
			c-0.37,0.32-0.48,0.92-0.75,1.31c-0.28,0.4-0.91,0.77-1.11,1.16c-0.41,0.77,0.39,1.68,0,2.37c-0.23,0.4-1.57,0.88-1.98,1.2
			c-0.54,0.41-1.13,0.76-1.62,1.24c-0.14,0.14-0.42,0.68-0.57,0.76c-0.66,0.34-1.59,0.05-2.36,0.16c-1.22,0.17-1.05,0.3-1.66-0.77
			c-0.61-1.07-1.31-1.94-2.11-2.85c-0.7-0.8-1.52-1.43-2.23-2.2c-0.77-0.83-0.63-0.95-0.1-2.02c0.91-1.85,0.97-2.96,0.89-5
			c-0.06-1.68,0.21-3.4,0.22-5.1c0-1.06-0.2-2.77,0.44-3.64c0.56-0.77,1.5-0.73,1.78-1.66c0.32-1.06-0.33-1.36,0.93-1.97
			c0.69-0.33,1.32-0.35,1.95-0.8c0.51-0.37,1.11-0.92,1.62-1.33c0.43-0.35,1.08-0.88,1.25-1.44c0.14-0.47-0.23-0.94-0.09-1.39
			c0.3-0.97,2.09-1.88,2.86-2.49c0.28-0.23,0.07-0.36,0.53-0.61c0.45-0.24,1.18-0.18,1.68-0.17c0.78,0.02,1.86-0.06,2.54,0.31
			c0.96,0.52,0.68,1.62,1.38,2.44c0.54,0.64,1.32,0.84,2.08,0.91c3.18,0.29,0.26-2.73,2.38-3.32c0.49-0.14,0.89,0.24,1.33,0.33
			c0.69,0.14,1.37,0.11,2.08,0.11c0.92,0,2.44-0.32,3.3-0.01c0.95,0.34,1.64,1.92,2.02,2.78c0.3,0.65,1.01,1.3,1.22,1.88
			c0.33,0.88-0.55,2.43-0.67,3.39c-0.12,0.91-0.16,1.85-0.25,2.76c-0.14,1.49,0.12,3.91,2.36,3.2c2.37-0.75,1.79-3.17,1.96-5.13
			c0.14-1.59,0.26-3.12,0.11-4.75c-0.11-1.21-0.11-2.24,0.55-3.34c0.61-1.01,1.66-2.24,2.5-3.09c0.95-0.97,1.45-1.55,2.05-2.62
			c0.41-0.73,1.72-0.99,1.77-1.61c0.6-0.7,1.84-1.1,2.63-1.69c1.25-0.94,2.37-1.94,3.53-2.96c0.69-0.6,1.55-0.94,1.82-1.73
			c0.3-0.88-0.05-2.36-0.09-3.22c-0.05-1.15-0.4-3.01,0.42-3.96c0.68-0.79,1.05-0.3,1.99-0.54c0.95-0.24,1.65-1.19,2.13-1.97
			c0.81-1.31,1.54-2.36,2.64-3.5c0.51-0.52,0.97-1.07,1.39-1.66c0.18-0.25,0.59-1.09,0.82-1.23c0.44-0.27,1.37,0.05,1.84,0.07
			c1.13,0.05,2.17-0.08,3.27-0.34c0.99-0.23,0.69-0.02,1.31-0.87c1.27-1.78,2.4-3.83,3.59-5.52c0.49-0.7,1.02-0.75,1.75-0.91
			c1.04-0.24,1.07-0.53,1.89-1.11c0.59-0.42,2.21-0.89,3-0.66c1.59,0.46,0.87,1.99,1.26,3.09c0.77,2.16,3.66,1.57,3.52-0.75
			c0.71-0.19,1.51-0.11,2-0.57c0.29-0.27,0.25-0.87,0.55-1.09c0.28-0.2,0.92-0.01,1.24-0.18c1.56-0.84,2.31-3.44,2.39-4.94
			c-0.04,0.63-0.6,1.59-1.22,1.76c-1.07-1.76-3.1,0.79-3.97,0.89c-0.06-1.05-1.07-1.6-0.97-2.54c0.15-1.39,1.61-2.32,0.59-3.89
			c-0.56-0.86-1.25-0.92-2.19-0.96c-0.65-0.03-1.13,0.11-1.78-0.24c-0.51-0.28-0.84-0.8-1.42-1.02c-0.27-1.2,1.41-1.03,1.54-2.06
			c0.06-0.49-0.53-1.1-0.24-1.5c0.58-0.79,3.19-0.22,3.95-0.19c2.5,0.11,5.02-0.23,7.53-0.12c0.88,0.04,2.08,0.45,2.83-0.06
			c0.38-0.25,0.48-0.79,0.77-1.15c0.55-0.67,1.55-1.28,2.31-1.67c0.63-0.32,0.48-0.43,1.35-0.44c0.55-0.01,1.36,0.32,1.91,0.12
			c0.42-0.15,0.6-0.59,1.08-0.79c0.4-0.16,0.85,0.18,1.22-0.13c0.74-0.62,0.24-2.63,0.33-3.47c0.14-1.33,0.24-1.15-1-1.86
			c-0.94-0.53-1.15-1.35-1.66-1.86c-0.43-0.42-0.2-1.48-0.76-2.21c-0.84-1.08-1.12-1-1.12-2.58c0-1.41-0.13-2.16-0.75-3.33
			c-0.57-1.08-0.74-1.82-0.11-2.72c0.32-0.46,0.69-0.44,0.76-1.12c0.04-0.45-0.29-2.15-0.53-2.54c-0.67-1.07-1.13-0.11-2.02-0.02
			c-0.92,0.09-1.76-0.86-2.53,0.11c-0.86,1.09,0.53,2.38-1.02,2.66c-1.27,0.23-1.72-0.55-2.11-1.44c-0.36-0.83-1.07-1.29-1.43-1.97
			c0.93-0.05,1.52-1.68,1.44-2.47c-0.11-1.05-0.75-0.96-1.34-1.4c-0.98-0.73-0.79-1.63-1.35-2.61c-0.48-0.84-0.77-0.72-1.64-0.85
			c-1.8-0.28-2.78-2.35-4.87-1.59c-0.89,0.32-2.02,1.15-2.42,2.01c-0.51,1.08-0.01,1.62-0.9,2.4c-0.85,0.75-1.43,0.92-1.82,2.18
			c-0.32,1.05,0.18,1.59,0.24,2.53c-1.48,0.05-2.11,0.62-2.32,2.04c-0.12,0.84,0.1,1.48-0.28,2.24c-0.3,0.61-0.89,0.98-1.11,1.65
			c-0.21,0.66,0.1,1.4-0.19,2.06c-0.4,0.9-1.29,1.09-2.09,1.47c-1.16,0.55-1,1.41-2.21,1.66c-1.43,0.29-1.86,0.24-2,1.93
			c-0.17,2.06-0.12,4.17-0.22,6.23c-0.07,1.29-0.06,1.97-1.33,2.35c-1.29,0.39-2.57,0.31-3.04-1.22c-0.21-0.69,0-1.08-0.4-1.67
			c-0.17-0.25-0.53-0.13-0.69-0.41c-0.19-0.34-0.07-0.86-0.03-1.25c0.1-0.98,0.53-1.98,0.51-2.96c-0.02-0.77-0.35-1.28-0.54-2
			c-0.14-0.55-0.31-1.57,0.2-1.91c-2.11-1.42-4.64-3.28-6.49-5.04c-1.85-1.76-3.67-2.85-3.04-5.62c0.16-0.73,0.41-1.16,0.28-1.97
			c-0.06-0.41-0.47-1.03-0.4-1.44c0.22-1.21,1.27-0.6,1.94-1.34c0.96-1.07,0.1-2.32,1.7-2.79c1.43-0.42,2.92,0.33,4.26-0.63
			c1.19-0.85,1.9-2.58,3.3-3.24c-0.82-1.24-5.61-2.11-3.97-3.77c1.36-1.38,2.96-0.35,4.43,0.14c1.38,0.47,2.97,0.08,4.21,0.69
			c0.47,0.23,0.56,0.89,1.22,0.56c0.47-0.23,0.46-0.65,0.39-1.09c-0.21-1.29-1.8-1.46-2.39-2.39c-0.82-1.27,0.79-1.89,1.99-1.75
			c1.44,0.17,3.06,1.35,4.42,1.86c1.09,0.41,1.67,0.81,2.87,0.52c1.11-0.27,0.83-0.39,1.25-1.19c0.28-0.53,0.68-0.99,0.99-1.55
			c1.62,1.07,2.02,0.81,3.66-0.48c1.41-1.1,2.81-2.29,3.88-3.39c-1.65,0.2-0.09-3.2-1.85-3.8c-0.46-0.16-2.19-0.15-2.64,0.06
			c-1.05,0.5-0.89,1.65-0.94,2.61c-0.08,1.67-1.2,2.85-2.91,1.86c-1.84-1.07-1.93-3.29-1.75-5.09c0.19-1.81-0.35-3.36-0.75-5.08
			c-0.34-1.49-0.34-3.04-0.28-4.46c0.08-1.73-0.62-1.71-2.32-1.55c-1.22,0.11-4.13-0.56-4.72,0.91c-0.42,1.02,0.71,1.94,1.15,2.73
			c0.73,1.3,0.29,2.47-0.06,3.86c-0.45,1.79-1.92,3.29-1.78,5.17c0.07,0.92,0.45,1.88,0.09,2.76c-1.52-1.46-3.8-1.76-5.85-1.76
			h-4.78c0.07-0.18,0.03-0.29-0.11-0.36c-0.56,0.02-0.8-0.36-1.34-0.51c-0.58-0.15-1.36-0.01-1.91,0.08
			c-1.73,0.26-2.8,1.23-4.27,1.98c-1.28,0.65-1.97,0.95-3.15,0.08c-1.21-0.89-1.42-2.39-2.58-3.52c-1.44-1.4-3.06-2.33-5.01-2.87
			c-0.09-1.43-2.21-1.96-3.22-2.84c-0.76-0.66-0.77-1.28-1.35-1.98C95.31,106.22,94.54,106.05,95.01,106.18z"/>
		<path class="st1" d="M142.01,101.91c0.6-0.18,2.56,1.61,2.66,2.42c0.03,0.23-0.64,0.28-0.67,0.74c-0.03,0.47,0.03,0.87,0.12,1.32
			c0.41,1.84,2.13,3.5,2.87,5.16c0.9,2.03,1.42,2.33,3.74,2.49c1.46,0.1,2.54,0.52,3.71,1.5c0.42,0.35,1.75,1.18,1.96,1.48
			c0.66,0.96,0.26,0.18-0.1,1.46c-0.34,1.21-0.3,2.54-0.83,3.71c-0.93,2.07-2.43,2.64-4.57,2.66c-1.08,0.01-3.86,0.02-4.25,1.4
			c-0.34,1.2,0.54,0.35,1.17,0.8c0.66,0.47,1.02,1.42,1.66,1.63c0.87,0.29,1.78-0.74,2.5-0.51c0.78,0.26,1.12,1.8,1.5,2.54
			c1.17,2.34,3.08,3.22,4.95,4.88c0.4-0.92,0.56-2.51,1.36-2.94c0.66-0.35,1.78,0.22,2.51-0.12c0.9-0.42,0.85-1,1.33-1.71
			c0.12-0.18,0.18-0.79,0.32-1.04c0.15-0.29,0.66-0.38,0.86-0.87c0.63-1.54-2.09-3.38-0.36-4.28c1.48-0.77,2.35,2.75,3.5,3.56
			c0.74-0.64,0.91-1.8,1.55-2.58c0.81-1,2.05-1.69,2.92-2.55c-0.62-0.36-1.47-1.09-1.77-1.75c-0.35-0.77,0.12-1.94-0.28-2.69
			c-0.42-0.77-1.36-0.54-1.82-1.1c-0.61-0.74-0.1-1.99-0.43-2.82c-0.27-0.7-0.78-0.75-1.13-1.53c-0.35-0.77,0.08-1.52-0.45-2.29
			c-0.4-0.58-1.19-0.63-1.58-1.08c-0.52-0.59-0.42-1.45-0.86-2.05c-0.99-1.34-3.06-0.86-4.65-0.86c-0.65,0-1.93,0.4-2.37,0.33
			c-1.19-0.17-0.54-0.65-1.58-1.46c-2.45-1.92-2.98,1.75-3.82,2.8c-1.32,1.64-2.07-1.76-2-3.16c0.04-0.77,0.44-2.01-0.16-2.54
			c-0.37-0.33-0.95,0.06-1.34-0.12c-0.28-0.13-0.75-0.66-1-0.74C146,101.65,141.99,102.33,142.01,101.91z"/>
		<path class="st1" d="M234.35,134.67c0.16-2.1,1.62-0.6,2.93-0.89c1.31-0.29,2.58-1.92,3.17-3.04c0.56-1.07,0.36-1.68-0.45-2.5
			c-1.32-1.35-1.76-1.46-3.32-0.2c-1.41,1.14-2.12,0.94-3.76,0.96c-0.33-1.01-0.86-2.28-2.01-2.17c-1.31,0.12-1.8,2.25-2.65,2.21
			c-0.13,0.98,1.23,0.65,1.21,1.76c-0.02,1.11-0.88,1.13,0.11,2.02C230.77,133.88,232.93,134.23,234.35,134.67z"/>
		<path class="st1" d="M226.14,158.11c1.47,0.79,1.12,2.63,0.86,3.8c2.73,0.16,3.23,1.39,3.11,4.16c-0.59,0.19-1.62-0.08-2.14,0.18
			c-0.66,0.32-0.91,1.55-1.66,1.64c-1.59,0.2-1.79-2.31-1.82-2.95c-0.05-1.03,0.12-0.94-0.34-2c-0.4-0.92-0.6-0.83-0.37-1.7
			C224.06,160.11,225.02,158.19,226.14,158.11z"/>
		<path class="st1" d="M230.8,170.42c1.95,0.55,2.18,0.34,4-0.46c1.49-0.65,2.45,0.19,3.99-0.04c3.35-0.52,3.85-4.36,4.13-7.29
			c-3.22-1.37-2.95-3.74-3.3-6.82c-0.11-1.03-0.47-2.47-1.37-3.14c-1.05-0.79-2.29-0.3-2.78-1.86c-1.82,0.73-0.96,2.67-0.88,4.13
			c0.08,1.4-1.25,2.36-1.13,3.5c0.11,0.99,1.32,1.17,1.67,2.08c0.29,0.74,0.01,2.28-0.03,3.06c-2.05-1.08-1.6,2.51-1.84,3.51
			C232.93,168.43,230.84,169.45,230.8,170.42z"/>
		<path class="st1" d="M210.24,91l4.35-1.05l3.91,0.1l1.74-0.57l4.06-0.19l8.99,0.19l6.74,1.34l-2.25,0.67l-4.49,0.1l-6.23,0.1
			l0.43,0.38l4.2-0.19l3.33,0.57l2.39-0.57l0.8,0.67l-1.52,1.05l3.12-0.67l5.8-0.67l3.41,0.29l0.58,0.76l-5,1.34l-0.72,0.38
			l-3.91,0.38l2.75,0.1l-1.67,1.43l-1.23,1.34l-0.43,2.39l1.23,1.34l-1.96,0.1l-2.17,0.67l2.1,1.15v1.91l-1.45,0.19l1.38,1.91
			l-2.9,0.19l1.3,0.96l-0.51,0.76l-1.96,0.38h-1.88l1.45,1.63l-0.14,0.96l-2.54-0.96l-0.8,0.67l1.74,0.57l1.52,1.43l0.22,1.91
			l-2.54,0.48l-0.87-0.96l-1.45-1.34l0.15,1.63l-1.81,1.24l3.62,0.1l1.88,0.1l-4.06,2.1l-4.2,2.01l-4.28,0.76h-1.59l-1.67,0.96
			l-2.54,2.68l-3.48,1.72l-1.01,0.1l-2.1,0.67l-2.25,0.57l-1.59,1.53l-0.51,1.82l-1.16,1.72l-2.9,2.01l0.07,2.01l-1.23,2.2
			l-1.38,2.58l-2.17,0.1l-1.74-2.1h-3.04l-1.09-1.43l-0.29-2.58l-1.67-3.16l-0.22-1.72l0.51-2.29l-1.23-2.29l1.09-1.82l-0.65-0.86
			l2.39-2.96l2.46-0.86l0.87-1.05l0.94-1.91l-1.88,0.86l-0.87,0.38l-1.38,0.38l-1.45-0.86l0.58-1.63l1.01-1.24h1.3l2.54,0.57
			l-1.81-1.43l-0.87-0.86l-1.52,0.38l-0.87-0.67l2.39-2.1l-0.43-0.86l-0.36-1.63l-0.51-2.39l-1.23-0.96l0.43-0.86l-2.75-1.34
			l-2.61-0.1l-3.48,0.1l-3.19,0.1l-1.09-0.67l-1.3-1.34l3.7-0.67l2.61-0.1l-5-0.57l-2.17-0.86l0.72-0.86l5.36-0.96l5.15-1.05
			l0.94-0.76l-2.75-0.67l1.59-0.76l5-1.24l1.81-0.19l0.07-0.86l3.04-0.48l3.7-0.19l3.62-0.1l0.94,0.57l3.62-0.96l2.39,0.67l1.52,0.1
			l2.17,0.57l-2.32-0.96L210.24,91z"/>
		<polygon class="st1" points="158.19,93.54 159.71,94.04 163.98,93.96 166.52,94.13 164.06,94.71 163.26,94.54 160.07,94.46 
			159.71,95.38 160.65,96.05 159.71,96.72 157.1,97.13 155.43,97.8 157.1,98.22 157.68,99.39 155.07,98.55 154.2,98.72 
			153.55,100.06 150.79,100.48 150.14,101.39 152.46,101.48 154.13,101.73 158.11,101.39 161.01,101.98 165.36,100.81 
			165.72,100.31 163.48,100.39 163.69,99.97 165.87,99.47 167.1,98.72 169.49,98.22 171.16,97.55 170.94,96.63 172.03,96.38 
			170.58,96.13 174.42,95.96 175.51,95.55 178.27,95.3 181.46,93.88 183.78,93.46 187.33,92.46 184.72,92.46 186.1,92.12 
			189.14,91.79 192.48,91.12 192.84,90.79 191.1,90.37 188.78,90.2 185.88,90.03 183.49,89.95 181.09,89.87 177.54,90.12 
			177.11,89.95 173.55,90.03 171.38,90.2 169.57,90.45 167.9,91.2 167.1,90.79 165.72,90.7 163.4,91.29 160.87,91.54 159.49,91.54 
			157.39,91.87 157.1,92.37 157.9,92.87 		"/>
		<path class="st1" d="M390.92,95.93c1.2,0.44,1.27,1.16,1.83,2.16c0.98,1.78,0.74,0.76,2.3,1.32c1.01,0.37,1.29,1.36,2.28,1.66
			c1.35,0.41,4.42-0.69,5.72-0.79c3.42-0.28,6.5,0.16,9.82,0.73c2.52,0.43,5.1,0.2,7.65,0.44c2.37,0.22,4.01,1.11,6.08,1.79
			c0.78,0.26,0.42,0.26,1.4,0.21c0.68-0.03,1.5-0.31,2.17-0.45c1.97-0.42,3.51-1.21,5.34-1.95c3.63-1.47,7.79-3.27,11.56-2.31
			c3.97,1.01,8.2,1.43,12.21,2.14c2.36,0.41,2.02-1.4,3.77-2.41c2.58-1.49,2.99-0.1,3.97,1.46c1.06,1.69,4.1,1.49,4.56,3.66
			c1.12-0.27,3.02-1.33,4.72-1.58c1.79-0.26,4.12-0.62,5.96-0.26c0.75,0.15,1.27,0.92,2.11,0.65c1.04-0.34,1.05-1.52,1.86-2.14
			c1.66-1.27,4.67-0.84,6.59-0.66c2.45,0.23,4.45,1.48,6.81,1.95c3.27,0.66,6.47-0.05,9.59,1.03c2.12,0.73,4.07,0.71,6.26,0.39
			c2.37-0.34,2.22-0.33,3.43,1.16c0.74,0.91,0.66,0.36,1.71,0.95c0.52,0.29,0.75,0.14,1.12,0.7c0.84,1.27-0.56,2.41-0.12,3.29
			c-1.21-0.81-5.09-0.9-6.73-0.83c-1.39,0.06-3-0.01-3.96,1.28c-0.86,1.16-0.2,2.36-0.09,3.68c2.02-0.45,3.4-1.05,4.54,0.7
			c0.88,1.36,1.89,3.14,0.94,4.5c-1.03,1.48-2.35,1.75-2.51,3.8c-0.13,1.6,0.53,2.05-1.41,2.64c-1.23,0.38-2.86-0.36-3.55,1.01
			c-0.7,1.38,0.97,3.68,1.64,4.73c1.97,3.11,6.05,4.34,7.2,8.08c0.48,1.57,0.02,6.3,2.44,6.34c-0.88,2.4-2.45,1.62-3.64,0.18
			c-1.39-1.69-2.5-4-4.17-5.37c-1.85-1.53-4.35-1.87-6.23-3.22c-1.86-1.33-1.97-3.73-1.75-5.91c0.2-1.96,0.31-5.93-1.88-7.1
			c-1.02-0.54-1.4,0.36-2.45,0.45c-0.67,0.06-1.23-0.77-1.85-0.81c-1.15-0.07-2.65,1.59-2.79,2.63c-0.16,1.2,0.66,2.63-0.49,3.75
			c-1.11,1.08-4.03,0.85-5.51,1.07c-1.6,0.24-2.42,1.1-4.23,1c-1.5-0.08-2.72-0.73-4.21-0.3c-0.83,1.32-1.48,2.74-2.51,3.84
			c-0.59,0.63-1.23,0.6-1.51,1.58c-0.3,1.03,0.31,2.36,0.51,3.34c0.44,2.17,0.32,5.2,2.04,6.81c1.3,1.22,2.81,0.81,4.45,0.83
			c2.04,0.02,2.86-0.19,4.18,1.19c1.93,2.02,3.88,3.98,5.62,6.17c1.01,1.27,2.08,2.61,3.33,3.66c0.39,0.33,1.3,0.69,1.54,1.14
			c0.68,1.25,0.06,3.76,0.12,5.19c0.13,3.45,1.18,9.62-1.33,12.28c0.17-0.03,0.33-0.03,0.49,0.03c-0.03,0.49-0.82,1.98-1.39,2.13
			c-1.16,0.3-1.91-1.39-3.08-1.29c-2.66,0.23-1.38,2.35-1.2,3.65c0.26,1.84-1.42,3.15-1.1,5.01c0.21,1.19,0.91,1.46,1.69,2.2
			c0.42,0.4,1.8,1.36,1.95,1.92c0.13,0.51-0.67,1.34-0.5,2.06c0.35,1.52,3.11,2.46,4.45,2.79c0.1,1.67,0.88,4.78,0,6.08
			c-1.33,1.96-3.6,0.84-4.92-0.28c-0.83-0.71-2.4-1.46-2.87-2.5c-0.54-1.17,0.2-1.38,0.22-2.5c0.03-2.68-3.23-1.06-4.38-2.79
			c-0.89-1.34,1.04-1.95,0.73-3.03c-0.64-2.26-2.13-1.34-3.17-0.63c-1.32,0.9-3.23,1.48-3.87-0.2c-0.45-1.21,0.81-2.99-0.95-3.34
			c-1.5-0.3-3.47,1.84-4.5,2.64c-1.34,1.04-2.16,1.18-1.52,3.02c0.48,1.4,1.96,2.79,3.62,2.84c1.27,0.04,2.11-0.83,3.4-0.54
			c1.3,0.3,2.7,1.32,2.14,2.77c-0.63,1.63-2.35,1.41-2.34,3.42c0.01,3,3.25,5.59,5.32,7.48c2.25,2.04,2.58,3.73,3.45,6.47
			c0.52,1.62,1.45,3,2.03,4.34c0.69,1.6,1.29,8.86-1.33,9.15c0.2-0.03,0.4-0.02,0.59,0.03c-0.56,0.68-1.5,0.82-2,1.55
			c-0.59,0.88-0.12,1.9-0.25,3.08c-0.2,1.72-1.18,1.96-2.2,3.16c-1.12,1.33-0.51,1.22-2.21,1.67c-0.92,0.25-0.57-0.13-1.49,0.39
			c-0.5,0.29-0.83,0.73-1.24,1.09c-0.97,0.86-1.88,2.04-2.94,2.75c-1.17,0.77-0.51,0.41-1.85,0.21c-1.59-0.23-2.18,0.04-3.5,0.59
			c-1.03,0.43-0.71,0.57-2.03,0.29c-1.71-0.36-1.76-0.57-3.33,0.65c-1.19,0.93-1.57,1.59-1.41,3c0.2,1.72,1.06,3.59,1.5,5.33
			c0.27,1.06,0.2,2.61,0.58,3.57c0.45,1.16,1.03,1.17,2.08,1.78c1.18,0.69,2.19,1.18,2.83,2.36c0.58,1.07,0.7,2.23,1.46,3.26
			c1.38,1.89,1.87,1.84,1.64,4.23c-0.33,3.32-0.19,3.8-2.61,5.85c-1.26,1.08-2.55,2.13-3.4,3.6c-0.5,0.86-0.73,3.42-2.16,2.93
			c-1.55-0.53-1.13-5.05-2.48-6.16c-0.91-0.75-2.54-0.52-3.33-1.25c-0.74-0.68-0.49-1.78-0.67-2.79c-0.48-2.8-2.03-1.38-4-0.39
			c-2.89,1.45-3.04,2.54-1.98,5.68c0.45,1.34,1.19,2.71,1.5,4.1c0.28,1.27,0.01,2.84,0.49,4c0.37,0.89,1.07,1.11,1.73,1.68
			c0.8,0.7,1.41,1.76,2.25,2.39c0.77,0.57,1.81,0.7,2.55,1.38c0.98,0.89,0.6,0.92,0.78,1.95c0.54,3.12,2.29,5.99,0.34,9.4
			c-0.07,0.12,0.1,0.43-0.13,0.14c-0.34-1.92-2.51-3.88-3.66-5.46c-1.43-1.96-3.03-4.4-5.05-5.65c0.44-0.29,1.04-0.68,1.38-1.16
			c-1.91-2.73-3.34-4.73-3.84-8.06c-0.2-1.31-0.34-2.82-0.8-4.08c-0.4-1.09-1.24-1.51-1.71-2.49c-0.51-1.06-0.14-2.87-0.29-4.04
			c-0.18-1.43-0.92-2.21-1.29-3.53c-0.31-1.11,0.42-2.46,0.24-3.34c-0.15-0.78-1.13-1.38-1.65-2.05c-0.46-0.6-1.07-2.24-1.82-2.51
			c-0.97-0.36-2.85,0.5-3.83,0.84c0.1,0.7-0.45-0.71-0.67-1.01c-0.37-0.5-0.83-0.97-1.2-1.48c-1.09-1.48-1.34-2.54-1.63-4.25
			c-0.1-0.58,0.04-1.3-0.53-1.71c-0.67-0.48-1.99,0.46-2.63,0.13c-1.38-0.72,0.34-2.09,1.48-2.53c-0.39-1.31-1.77-1.44-2.89-1.96
			c-1.7-0.79-1.92-1.52-2.75-3.07c-0.54-1-1.04-2.01-2.38-1.14c-0.34,0.22-0.29,0.84-0.6,1.08c-0.77,0.59-0.73,0.34-1.68,0.63
			c-1.33,0.4-1.7,0.52-2.33,1.82c-0.59,1.21-0.26,2.96-1.02,4.01c-0.66,0.92-1.33,0.58-2.25,0.82c-1.55,0.41-1.48,0.54-2.21,1.99
			c-1.08,2.12-2.17,4.32-3.32,6.4c-0.94,1.72-2.05,3.07-3.97,3.61c0.43,1.78,0.02,3.67-0.32,5.44c-0.38,2.01-0.34,3.99-0.74,6.01
			c-0.27,1.34,0,2.77-0.29,4.07c-0.19,0.88-1.61,3.35-2.6,3.49c-0.86,0.12-2.55-1.36-3.36-1.66c-0.72-0.27-2.68-0.32-3.2-0.86
			c-0.69-0.72-0.05-1.18,0.02-2.03c0.07-0.91,0.02-1.75-0.51-2.65c-0.83-1.39-1.72-0.9-2.36-2.22c-0.99-2.03,0.35-4.36,0.04-6.45
			c-0.21-1.39-0.97-2.48-1.53-3.82c-0.92-2.19-1.44-4.33-2.12-6.63c-0.61-2.07-1.12-4.75-2.66-6.51c-0.44-0.5-0.85-1.46-1.57-1.51
			c-1.13-0.08-1.19,1.35-2.42,0.6c-0.26-0.16-0.23-1.12-0.6-1.25c-0.66-0.23-0.86,0.66-1.4,0.8c-2.49,0.66-2.17-1.81-2.08-3.54
			c0.2-3.63-2.43-2.31-4.34-4.31c-1.99-2.09-2.33-3.46-5.39-3.6c-3.93-0.19-7.87-0.16-11.81-0.16c-1.12,0-2.91,0.35-3.83-0.33
			c-0.71-0.53-0.77-1.69-1.59-2.27c-2.34-1.67-3.28,0.43-4.93,1.4c-1.88,1.11-3.2-0.64-4.36-1.92c-1.86-2.04-2.17-0.76-4.33-1.37
			c-1.74-0.49-2.25-3.73-3.21-5.32c-0.68-1.12-4.7-5.22-5.7-2.33c-0.19,0.54,0.73,2.14,0.97,2.62c0.67,1.35,1.06,1.38,2.04,2.28
			c1.05,0.97,1.29,2.29,2.28,3.41c1.72,1.94,3.8,3.56,5.49,5.53c0.63,0.74,1.1,2.19,2.02,2.46c1,0.29,2.04-0.8,2.86-1.1
			c1.11-0.4,2.23,0.4,3.01,0.22c0.91-0.21,0.64-1.06,1.46-1.64c1.9-1.33,4.33,2.03,5.45,3.18c0.94,0.95,2.62,1.11,3.36,1.98
			c0.69,0.81,0.2,2.04,0.16,3.1c-0.09,2.58,0.69,4.4-1.27,6.37c-2.31,2.33-4.72,4.63-6.35,7.47c-3.61-0.63-4.56,0.42-7.13,3.14
			c-1.01,1.07-1.71,2.71-2.87,3.57c-0.83,0.62-1.03,0.33-2,0.62c-1.58,0.47-0.64,0.33-1.65,1.68c-0.72,0.96-1.03,0.94-2.06,1.14
			c-1.68,0.32-4.09,0.59-4.45,2.8c-2.1,0.17-3-2.33-3.62-3.87c-0.35-0.88-0.8-1.95-1.54-2.57c-0.45-0.38-1.21-0.22-1.63-0.73
			c-0.52-0.63-0.19-1.25-0.32-2.12c-0.75-5.11-5.53-6.8-8.65-10.3c-1.73-1.94,0.06-3.48-0.17-5.67c-0.2-1.86-1.79-2.63-3.04-3.69
			c-1.69-1.44-2.42-3.94-3.53-5.8c-1.14-1.9-2.19-4.7-3.77-6.25c-0.7-0.69-1.76-0.78-1.97-1.79c-0.15-0.73,0.49-1,0.47-1.58
			c-0.04-1.13-1.11-2.89-2.27-3.15c-0.02,1.74-3.46,0.93-4.49,0.39c-1.15,1.25,0.99,4,1.82,5.08c1.77,2.29,3.61,3.72,5,6.31
			c1.01,1.89,2.46,2.81,3.58,4.51c0.88,1.34,1.53,2.46,1.21,3.98c-0.09-0.12-0.19-0.21-0.32-0.27c0.59,1.56,0.98,3.19,2.1,4.64
			c0.62,0.79,0.81,1.14,1.2,1.95c0.38,0.8,0.89,1.31,1.33,2.15c0.48,0.9,0.19,2.04,0.51,2.92c0.37,1,1.13,1.31,1.74,2.09
			c1.27,1.61,0.47,3.41,1.4,4.98c1.16,1.96,2.21,4.25,4.39,5.41c0.7,0.37,2.42,0.71,2.89,1.28c0.68,0.82-0.23,2.3,0.2,3.21
			c0.34,0.72,1.12,0.85,1.83,1.41c0.7,0.55,0.94,1.35,1.5,1.9c1.5,1.46,1.98,0.07,3.66-0.24c0.79-0.15,1.51,0.19,2.4-0.02
			c0.83-0.19,1.76-0.67,2.58-1.02c1.73-0.72,3.99-4.14,5.66-2.95c1.32,0.94,0.68,6.1,0.5,7.71c-0.31,2.83-0.77,3.7-2.54,5.58
			c-1.64,1.74-2.9,4.03-3.69,6.25c-0.57,1.61-1.01,3-2.36,4.07c-0.96,0.75-1.96,1.26-2.88,2.07c-0.99,0.89-2.26,1.8-3.03,2.91
			c-0.86,1.23-0.94,1.8-2.21,2.65c-1.67,1.13-2.34,2.13-2.41,4.5c-0.05,1.52,0.21,3.04-1.54,3.72c-0.64,0.25-1.77-0.2-2.29,0.23
			c-0.72,0.6-0.15,1.97-0.5,2.79c-0.31,0.75-0.54,0.63-1.04,1.2c-1.52,1.7-1.42,3.87-1.45,6.2c-0.04,3.15-0.22,6.05,0,9.15
			c0.23-0.18,1.21,2.01,1.54,2.82c0.79,1.94,0.81,3.98,1.59,5.83c0.59,1.41,1.12,2.04,0.38,3.36c-0.9,1.6-1,1.46-0.47,3.46
			c0.45,1.72-0.05,1.88-1.37,3.29c-0.87,0.92-1.57,1.98-2.52,2.83c-1.03,0.91-2.37,1.44-3.34,2.37c-1.36,1.3-2.44,2.73-3.95,3.86
			c-1.45,1.08-2.71,0.76-3,2.62c-0.19,1.23-0.14,2.98,0,4.2c0.19,1.63,0.84,1.36,1.53,2.61c0.94,1.7-0.41,3.98-1.69,5.14
			c-0.86,0.78-1.61,1.22-2.37,2.1c-0.33,0.38-0.59,0.91-0.96,1.24c-0.17,0.15-0.69-0.15-0.84,0.04c-0.99,1.29,0.21,3.46-0.87,4.63
			c-1.04,1.13-2.11-0.32-2.62,1.62c-0.39,1.49-0.19,2.29-1.04,3.69c-1.02,1.69-2.22,3.28-3.52,4.75c-0.65,0.73-1.47,1.3-1.93,2.19
			c-0.49,0.93-0.38,2.1-0.82,3.03c-0.81,1.69-2.2,2.04-4.06,2.61c-2.95,0.9-6.61,2-9.75,2.23c-1.13,0.09-6.8,0.08-5.48,2.15
			c-0.02,0.13,0.37,0.34,0.01,0.22c-0.66-0.5-0.75-1.44-1.3-1.89c-0.71-0.59-1.31-0.41-2.18-0.69c-0.17-3.32-0.39-6.43-1.02-9.68
			c-0.39-1.99,0.34-4.19-0.17-6.08c-0.28-1.06-1.16-2.09-1.99-3c-0.72-0.8-1.73-1.3-2.09-2.42c-0.53-1.63,0.28-3.61,0.55-5.19
			c0.23-1.31,0.82-3.39,0.53-4.68c-0.3-1.38-1.76-1.71-2.58-2.74c-1.74-2.16-0.15-5.21-1.11-7.61c-0.62-1.53-2.29-2.02-2.8-3.63
			c-0.5-1.59,0.06-3.22,0.46-4.78c0.37-1.46,1.32-3.13,1.21-4.63c-0.1-1.49-1.15-2.53-0.22-4.05c0.75-1.22,2.05-1.06,2.88-2.2
			c1.2-1.66,0.46-4.46-0.1-6.21c-0.68-2.12-1.27-3.93-1.37-6.18c-0.05-1.22,0.2-2.67-0.03-3.87c-0.36-1.84-1.98-3.71-3.5-4.65
			c-0.13-0.56-0.7-1.05-0.8-1.53c-0.15-0.73,0.14-1.4,0.14-2.12c-0.01-1.95-1.31-1.98-1.99-3.41c-1.74-3.64,0.27-7.49-0.5-11.4
			c-0.22-1.1-0.35-5.31-1.53-5.94c-0.62-0.33-1.71,0.73-2.44,0.48c-0.74-0.26-0.46-0.84-1.03-1.31c-0.7-0.58-0.52-0.34-1.35-0.69
			c-0.59-0.25-1.33-0.03-1.81-0.7c-0.58-0.81,0.18-2.82-0.75-3.45c-0.11-0.07-2.36,0.23-2.83,0.16c-0.64-0.09-1.03-0.43-1.74-0.33
			c-1.36,0.18-1.47,0.96-2.28,1.82c-1.24,1.32-2.7,1.03-4.33,1.82c-1.15,0.56-1.33,1.33-2.91,1.15c-1.25-0.14-2.15-0.75-3.46-0.81
			c-1.69-0.07-3.22,0.03-4.87-0.34c-0.97-0.21-1.97-0.69-2.93-0.84c-1.73-0.27-2.75,0.14-3.65-1.31c-0.22-0.35-0.27-1.54-0.67-1.74
			c-0.57-0.29-0.99,0.5-1.57,0.58c-1.44,0.2-1.51-0.86-2.75-2.03c-1.07-1.01-1.69-1.64-1.83-3.13c-0.09-0.98,0.37-1.69-0.33-2.63
			c-1.31-1.75-3.87-3.31-5.82-4.36c0.23,0.26,0.51,0.43,0.84,0.51c0.47-1.64-0.22-3.77-1.53-4.96c-0.73-0.66-2.87-0.91-3.2-1.93
			c-0.24-0.73,0.45-1.12,0.74-1.76c0.71-1.56-0.84-6.56,1.8-6.49c-0.07-2.04,0.2-4.45,0.36-6.5c0.17-2.1,3.73-4.12,0.91-5.86
			c-2.03-1.25-5.01-1.08-2.76-4.09c1.31-1.75,3.14-4,4.77-5.4c1.73-1.5,1.24-1.42,1.57-3.54c0.19-1.23,0.28-2.8,0.58-4.04
			c0.72-3.04,5.21-4.93,7.23-7.21c0.67-0.75,0.74-1.65,1.19-2.41c0.68-1.16,2.12-1.81,2.61-3.01c0.36-0.87-0.07-1.88,0.19-2.73
			c0.58-1.93,3.38-2.27,3.8-3.92c0.21-0.83-0.57-1.41,0.06-2.41c0.43-0.68,1.32-1.1,2.07-1.25c1.93-0.39,4.52,0.48,6.54,0.51
			c0.98,0.01,2.78,0.57,3.68,0.17c0.67-0.29,0.67-1.06,1.15-1.43c0.86-0.66,1.92-0.38,2.93-0.75c1.13-0.41,0.61-0.38,1.57-1.12
			c1.95-1.53,3.77-1.06,6.15-0.42c1.26,0.34,2.89,0.72,4.21,0.36c1.1-0.31,1.86-1.67,3.11-1.48c1.11,0.17,2.54,2.24,3.33,3.17
			c2.14,2.53-2.54,8.05,0.97,10.45c0.88-0.94,3.61-0.94,4.89-1.48c2.31-0.97,1.94-0.58,3.62,0.51c0.51,0.33,0.72-0.13,1.42,0.57
			c0.41,0.42,0.52,1.33,1.07,1.84c0.71,0.65,2.72,2.22,3.63,2.21c0.08-0.47,0.1-1.96,0.47-2.32c0.38-0.37,1.09-0.01,1.6-0.27
			c0.78-0.4,0.61-0.52,1.12-1.13c1.41-1.69,1.95-1.64,4.32-1.74c2.11-0.09,2.31,0.89,3.93,1.54c1.86,0.74,4.03,0.64,6.03,0.79
			c0.58,0.04,1.73,0.51,2.11,0.49c0.76-0.05,1.03-0.54,1.72-0.83c1.11-0.46,3.85-1.7,5.09-1.45c1.32,0.26,1.86,2.84,3.08,2.59
			c0.65-0.13,0.73-1.35,0.99-1.76c0.52-0.84,1.15-1.29,1.8-2.01c0.7-0.77,0.59-0.18,0.86-1.34c0.23-1.02,0-2.37,0-3.42
			c0-1.82,0.35-3.77,0.14-5.55c-0.82,0.04-1.12,0.47-1.9,0.65c-0.97,0.22-2.25-0.08-3.22-0.17c-1.64-0.16-3.32-0.53-4.95-0.66
			c-1.77-0.14-1.59,0.58-3.13,0.93c-1.57,0.36-0.67-0.07-1.6-0.65c-0.75-0.47-1.92-0.85-2.64-1.45c-0.82-0.69-0.88-1.84-1.48-2.63
			c-0.33-0.44-0.96-0.49-1.34-1.22c-1.26-2.42,1.32-2.51,2.5-3.99c1.39-1.74,0.26-2.78,2.74-3.56c1.66-0.52,3.01-0.47,4.75-0.41
			c1.77,0.06,3.35-0.43,5.05-0.67c1.43-0.2,3.14-0.7,4.55-0.66c1.26,0.04,2.29,0.52,3.53,0.5c2.14-1.83,5.27,0.69,7.65-0.66
			c-0.1-0.9-0.96-1.17-1.5-1.86c-0.76-0.96-0.87-3.07-2.08-3.47c-0.7-0.23-1.58,0.84-2.41,0.74c-1.03-0.12-1.15-0.54-1.76-1.25
			c-0.43-0.5-0.65-1.15-1.16-1.56c-0.5-0.41-1.23-0.29-1.72-0.8c-1.48-1.53,0.53-3.61-0.43-5c-1.05-1.54-3.34,0.12-3.59,1.4
			c-0.26,1.3,0.74,2.97-1.37,3.36c-0.93,0.17-2.92-0.81-3.59-1.45c-1.09-1.05-1.13-3.34-3.2-3.23c-1.03,0.05-1.68,1.05-2.26,1.91
			c-0.56,0.82-1.57,2.4-1.72,3.29c-0.24,1.42,0.66,2.25-0.42,3.47c-0.89,1-1.84,0.23-2.05,2.14c-0.13,1.19,0.34,2.33,0.05,3.6
			c-0.6,2.68-2.63,2.83-5.11,3.39c-1.17,0.26-2.65,0.37-2.94,1.68c-0.39,1.73,1.36,1.68,1.94,2.55c1,1.52,0.56,5.18-1.66,5.57
			c-2.03,0.35-4.16-2.63-5.04-4.14c-1.44-2.46-0.75-4.83-2.02-7.31c-1.13-2.21-3.67-7.1-5.84-8.35c-0.71-0.41-1.47-0.15-2.03-0.64
			c-0.68-0.6-0.28-1.76-1.36-2.19c-0.09-0.03-2.3,0.31-2.38,0.35c-1.4,0.74-0.81,0.86-0.53,1.82c0.49,1.7,2.33,4.08,3.35,5.49
			c1.23,1.7,6.39,4.4,6.31,6.5c-0.09,2.33-1.9,0.41-2.76,1.64c-0.7,1.01,0.51,2.24-1.25,2.65c-1.28,0.3-2.01-0.65-1.76-1.93
			c0.28-1.44,1.61-1.81,0.44-3.54c-1.12-1.66-3.45-1.31-5-2.32c-2.16-1.4-2.16-3.96-3.31-6.02c-1.04-1.86-1.72-1.48-3.64-0.97
			c-1.08,0.29-2.29,1.03-3.33,1.18c-0.75,0.11-1.51-0.38-2.27-0.16c-0.95,0.27-1.78,1.16-2.76,1.51c-1.66,0.59-2.33,0.47-3.18,2
			c-0.46,0.83-0.65,2.24-1.32,2.92c-1.04,1.07-2.43,0-3.33,0.73c-0.49,0.4-0.35,1.41-0.55,2.05c-0.23,0.7-0.69,0.79-0.75,1.62
			c-0.17,2.16,1.25,3.85-1.01,5.7c-2.48,2.03-6.87,2.13-9.82,2.33c-3.31,0.23-4.04-1.01-4.47-4.25c-0.36-2.7,0.6-5.28,0.68-7.91
			c0.03-1.2-0.05-2.05,0.49-3.12c0.4-0.79,0.72-0.67,1.01-1.65c0.61-2.11-0.01-2.64,2.35-2.95c1.47-0.19,3.54-0.63,4.99-0.35
			c0.74,0.14,1.51,1.04,2.15,1.1c2.04,0.19,2.32-2.14,2.93-3.57c1.06-2.52,0.83-3.72-1.67-5.55c-1.89-1.38-5.73-1.13-3.89-3.94
			c1.35-2.05,4.11-2.09,6.38-2.33c3.05-0.32,3.17-1.01,5.05-3.24c0.8-0.95,6.47-9.13,7.79-5.89c1.34-0.66,1.36-2.54,2.86-3
			c0.9-0.28,1.36,0.58,2.01-0.3c0.11-0.15-0.36-0.8-0.3-1.03c0.15-0.65,0.65-1.17,0.76-1.84c0.24-1.47-1.02-2.87-0.38-4.33
			c0.26-0.58,0.88-1.55,1.64-1.08c0.64,0.39,0.09,1.85,0.07,2.41c-0.11,2.26,0.57,1.42,1.51,2.7c0.57,0.77-0.06,1.95,0.75,2.51
			c0.86,0.59,3.2-0.42,4.33-0.3c0.68,0.07,1.46,0.54,2.11,0.14c0.29-0.18,0.33-1.07,0.49-1.14c0.55-0.23,1.04,0.32,1.43,0.19
			c0.45-0.15,0.44-0.41,0.86-0.59c1.16-0.53,0.87-0.73,2.33-0.67c1.27,0.05,1.56,0.32,2.5-0.67c0.79-0.83,0.82-2.04,1.35-2.98
			c0.59-1.03,1.62-1.91,2.57-2.59c1.06-0.75,1.47-0.66,1.74-1.92c0.18-0.86-0.57-2.77,0.66-3.35c1.07-0.5,2.59,1.25,3.75,0.68
			c0.99-0.49,0.56-2.03,1.46-2.65c0.83-0.57,2.33,0.63,3.29-0.32c0.91-0.91,0.26-2.63-0.35-3.29c-1.43-1.55-1.34-0.33-2.64,0.4
			c-1.4,0.78-2.79,0.29-4.46,0.41c-0.27,1.05-0.51,1.91-1.61,2.13c-1.55,0.31-4.3-0.48-4.75-2.15c-0.13-0.49,0.25-0.93,0.18-1.44
			c-0.09-0.58-0.43-1.14-0.5-1.57c-0.23-1.39,0.17-2.18,1.08-3.57c0.86-1.31,2.28-1.79,3.16-2.91c0.84-1.07,0.39-1.59-0.12-2.95
			c-1.13-2.97-2.31-0.88-3.87,1.03c-1.62,1.98-2.75,4.28-4.17,6.41c-0.88,1.33-1.18,1.68-0.89,3.29c0.59,3.3,2.05,6.07-1.18,8.35
			c-1.27,0.9-2.36,0.75-2.31,2.57c0.04,1.41,1.07,2.17-0.13,3.58c-1.91,2.23-3.28-0.86-4.33-2.3c-0.84-1.15-1.62-3.25-2.63-4.18
			c-1.26-1.16-0.34-0.07-1.51,0.49c-1.35,0.64-1.11-0.35-2.54-0.51c-1.16-0.13-2.66,1.38-3.84,0.64c-1.06-0.66-0.29-1.28-0.65-2.22
			c-0.31-0.8-1.2-0.84-1.46-1.57c-0.49-1.4,1.99-2.68,2.85-3.69c1.29-1.5,2.8-2.9,3.83-4.61c1.29-2.15,2.1-4.3,3.59-6.33
			c1.44-1.96,2.43-3.49,4.29-5.09c1.75-1.5,2.9-3.26,4.22-5.06c0.92-1.25,1.22-1.02,2.38-1.5c0.65-0.27,1.39-0.8,2.08-1.01
			c0.37-0.12,0.65,0.47,1.17,0.27c0.28-0.11,0.41-0.65,0.66-0.75c0.65-0.26,1.7-0.19,2.37-0.62c0.92-0.6,0.75-1.35,2.02-1.69
			c1.01-0.28,1.45-0.06,2.36,0.3c1.88,0.73,3.08,1.78,4.55,3.01c1.36,1.13,3.28,0.82,5.14,0.91c1.58,0.08,4.81-1.86,4.83,0.86
			c1.14-0.93,1.3,0.46,2.12,0.93c0.73,0.42,1.72,0.13,2.51,0.67c0.89,0.61,2.58,2.85,2.28,3.62c-0.99,2.62-6.12,0.98-8.05,1.49
			c-2.24,0.6-2.2,2.71-0.02,3.65c1.52,0.66,3.08,1.83,3.51,3.48c2.52,0.68,6.3-4.06,7.83-5.68c1.17-1.24,2.19-1.76,2.81-3.13
			c0.71-1.58-0.49-2.25,1.69-2.87c1.94-0.56,2.81,1.32,4.56,1.06c1.54-0.22,2.08-2.09,3.37-2.63c1.29-0.54,3.4-0.15,4.83-0.54
			c1.88-0.51,3.47-0.66,5.34-1.01c1.87-0.35,2.85-1.63,4.68-2.09c1.52-0.38,3.85-0.03,5.43,0.05c0.34,2.18,3.17,1.36,3.98-0.04
			c-1.83-1.8-2.22-4.52-3.67-6.51c0.6-0.95,2.53-2.15,3.65-3.01c1.06,2.32,3.49,4.86,4.94,7.08c1.4,2.16,3.95,2.67,5,4.74
			c0.25,0.07,0.46,0.02,0.7,0.08c-0.27,0.76-1.06,1.34-1.7,2c1.22,0.26,1.96,1.17,3.09,1.78c1.96-1.92,3.59-3.86,6.35-2.72
			c1.91,0.79,3.2,2.83,5.27,3.03c-0.07-0.44,0.15-1.05,0.08-1.49c0.59,0.27,1.33,0.05,2,0.19c-0.53-4.34-6.97-4.65-10.24-4.65
			c-2.72,0-4.5,0.61-5.87-1.43c-1.27-1.89-1.19-3.68-3.16-5.09c1.28-1.2,5.45-1.65,7.19-1.69c2.61-0.05,3,2.31,5.07,2.75
			c1.42,0.3,1.94-0.4,2.1-1.58c0.26-2.04-0.64-1.46-2.07-2.15c-2.48-1.19-4.59-1.47-5.98-3.71c-0.39-0.62-0.17-1.34-0.68-2.06
			c-0.32-0.45-1.02-0.65-1.42-1.06c-0.9-0.92-1.62-2.02-2.39-2.95c-0.66-0.07-0.58-0.22-1.03-0.57c0.14-0.34,0.31-0.23,0.55-0.52
			c-3.14-3.57,5.94-3.84,7.52-3.95c-0.14-0.98-0.12-1.36,0.26-2.25c-1.07,0.06-1.97-0.29-2.01-1.31c1.51,0.03,3.05,0.95,4.6,0.74
			c2.15-0.29,0.9-0.82,1.62-1.42c1.66-1.38,3.36-2.48,5.39-3.78c1.8-1.16,4.97-3.18,7.31-2.03c0.77,0.38,0.98,1.6,1.67,1.98
			c0.72,0.39,2.46,0.26,3.29,0.36c0.66,1.03,1.7,1.95,1.65,3.3c2.74,0.83,5-0.87,7.73-0.96c-0.06,1.04-0.89,1.67-2,1.83
			c-0.08-0.09-0.01,0.76,0,0.7c0.32,0.02,0.64,0.04,0.96,0.08c0.12,0.91,0.42,0.97-0.24,1.78c0.6,0.52,0.71,0.95,1.55,1.08
			C389.79,94.11,390.8,95.58,390.92,95.93z"/>
		<path class="st1" d="M322.85,104.37c1.29-1.83,3.68-2.94,5.47-3.91c1.74-0.95,2.31-1.96,3.77-3.39c1.51-1.47,3.57-1.28,5.49-1.56
			c2.5-0.36,4.26-1.33,6.32-1.86c0,0.03,0.02-0.75,0-0.71c-4.08-0.35-8.39,0.99-12.46,1c-3.2,0.01-7.08-1.07-8.82,2.3
			c2.35,0.2,0.51,0.92,0.28,1.68c-0.04,0.14-0.9,0.41-1.11,0.7c-0.31,0.41,0.36,0.9,0.15,1.32
			C321.22,101.44,319.73,103.58,322.85,104.37z"/>
		<path class="st1" d="M117.88,242.15c-3.66-1.3-7.51-0.51-11.41-0.57c-3.06-4.35,4.98-2.77,6.54-2.81
			c1.27-0.04,3.48-0.77,4.62,0.31C118.53,239.94,117.77,242.13,117.88,242.15z"/>
		<path class="st1" d="M123.87,243.97c0.21-0.01,0.34,0.42,0.78-0.03c0.78,1.05,3.86,3.02,3.39-0.1c-0.29-1.91-4.85-1.45-3.91,0.39"
			/>
		<path class="st1" d="M136.36,248.79c0.22-0.7,0.04-1.58-0.65-1.94c-0.29-0.15-2.54-0.49-2.14,0.1c-0.25,0.02-1.78-0.2-1.6,0.36
			c0.12,0.36,2.18,0.48,2.56,0.53C135.26,247.95,135.86,248.16,136.36,248.79z"/>
		<path class="st1" d="M137.8,249.78c0.07,0.66-0.57,0.77-0.28,1.38c0.41,0.87,1.76,1.01,2.17,0.08c0.33-0.74,0-1.14-0.64-1.5
			C138.82,249.63,137.51,249.19,137.8,249.78z"/>
		<path class="st1" d="M139.46,256.93c0.06-0.09,0.07-0.17,0.01-0.23c-0.39,0.42-0.02,1.42-0.57,1.6c-0.25,0.08-0.69-0.25-0.82-0.43
			c-0.19-0.26-0.18-0.28-0.03-0.66c0.19-0.47,0.51-1.08,1.08-1.11c0.46-0.02,0.81,0.58,0.29,0.56c0,0.02,0,0.15-0.01,0.16"/>
		<path class="st1" d="M139.02,263.36c-0.37-0.15-0.41,0.29-0.4,0.55c0.01,0.38,0.28,0.58,0,1.01c-0.2,0.31-0.19,0.41-0.6,0.22
			c-0.32-0.14-0.48-0.49-0.62-0.84c-0.34-0.89,0.21-1.16,0.96-1.35c0.24-0.06,0.39-0.27,0.65-0.08c0.24,0.17,0.14,0.38,0.01,0.43"/>
		<path class="st1" d="M136.25,273.39c0.06-0.01,0.11-0.01,0.17,0.01c-0.23,0.35-1.01,0.41-0.67,1.13c0.19,0.4,1.1,0.54,1.38,0.08
			c0.12-0.2,0.02-1.05-0.1-1.22c-0.16-0.22-0.7-0.4-0.72,0.06"/>
		<path class="st1" d="M334.44,350.49c-0.47-0.18-2.33,0.01-2.99,0.11c-0.86,0.13-1.08,0.52-1.65,1.19
			c2.07,0.89,0.04,4.88-0.55,6.21c-0.76,1.7-0.53,3.46-0.81,5.23c-0.3,1.89-2.66,4.35-1.9,6.01c0.3,0.65,1.09,0.95,1.33,1.56
			c0.27,0.68,0.08,1.65,0.33,2.41c1.27,3.89,5.19,1.95,8.3,1.99c0.18-1.29-0.15-2.71,0.14-4.01c0.27-1.2,1.16-1.59,1.56-2.51
			c0.84-1.95-1.07-4.23,0.41-6.12c0.78-0.99,2.91-1.67,3.34-2.86c0.29-0.8-0.25-2.03-0.21-2.94c0.07-1.66-0.2-4.24,0.67-5.64
			c0.36-0.58,0.93-0.97,1.19-1.63c0.1-0.27,0.02-0.77,0.13-0.98c0.14-0.26,0.51-0.25,0.65-0.47c0.75-1.16,0.9-3.3,0.52-4.63
			c-0.13-0.45-0.48-0.74-0.72-1.16c-0.39-0.69-0.32-1.49-0.63-2.17c-0.13-0.28-0.2-0.79-0.58-0.77c-0.59,0.02-0.13,0.47-0.33,0.78
			c-0.37,0.58-0.73,1.18-1.24,1.66c-1.06,0.99-2.67,1.16-3.59,2.07c-0.73,0.71-1.24,2.41-1.49,3.35c-0.37,1.37-1.62,1.94-1.89,3.32
			C334.44,350.36,334.44,350.26,334.44,350.49z"/>
		<path class="st1" d="M412.92,280.43c-0.07,1.03-0.02,2.07-0.11,3.08c-0.07,0.8-0.27,1.21,0.74,1.58c2.37,0.87,4.13-4.29,3.22-5.97
			C415.75,277.24,411.44,278.64,412.92,280.43z"/>
		<path class="st1" d="M464.24,306.37c0.08-0.48,0.94-1.64,0.75-2.11c-0.2-0.51-0.49-0.26-1-0.46c-1.63-0.63-2.78-1.78-3.87-3.12
			c-0.86-1.06-1.36-2.29-2.23-3.32c-0.73-0.87-1.58-1.62-2.3-2.51c-1.22-1.51-2.27-3.15-3.48-4.65c-1.07-1.33-1.74-0.36-2.92,0.39
			c-0.38,0.25-1.31,0.53-1.37,1.04c-0.1,0.82,0.6,0.51,1.1,0.75c0.49,0.24,0.74,0.31,0.99,0.91c0.32,0.79-0.41,1.21-0.31,1.61
			c0.26,1.09,1.25,0.55,1.08,2.01c-0.06,0.48-0.41,1.33-0.2,1.81c0.21,0.47,0.85,0.45,1.34,0.79c1.2,0.84,2.26,2.6,3.3,3.67
			c0.62,0.63,1.35,1.24,1.93,1.9c0.59,0.67,0.67,1.36,1.1,2.18c0.49,0.94,0.97,1.09,0.91,2c-0.1,1.44-0.13,1.2,0.75,2.31
			c0.75,0.94,0.59,1.71,0.67,2.83c0.12,1.93,2.26,2.58,3.63,3.82c0.73,0.67,1.84,2.2,2.94,2.23c0.71,0.02,1.42-0.67,1.77-1.23
			c0.57-0.93,0.03-1.21,0.05-2.11c0.04-1.35,2.08-1.48,1.91-3.13c-0.1-1.01-0.99-1.56-1.64-2.29c-0.98-1.1-2.06-2.13-3.04-3.23
			C465.61,307.91,464.87,305.94,464.24,306.37z"/>
		<path class="st1" d="M468.68,325.66c0.74,0.28,1.62,0.26,2.43,0.36c1.97,0.24,3.75,1.08,5.68,1.46c2.68,0.53,5.36,0.95,7.8,2.15
			c0.87,0.43,1.83,0.96,2.63,0.38c0.62-0.44,1.09-2.25,0.95-3c-0.87-0.03-3.16-0.06-3.76-0.51c-1.09-0.82-0.76-2.42-2.33-3.06
			c-2.2-0.89-5.11,0.06-7.43,0c-1.13-0.03-3.48-0.52-4.6,0.05C469.09,324,469.42,325.61,468.68,325.66z"/>
		<path class="st1" d="M493.51,315.79c-0.08-0.9,0.6-1.71,0.92-2.51c0.68-1.72,0.78-3.54,1.41-5.28c0.7-1.93,1.53-4.27,1.55-6.31
			c0.04-3.46-0.69-6.6,1.35-9.51c0.72-1.03,1.67-1.57,0.68-2.72c-0.94-1.09-2.52-1.86-3.69-2.57c-0.61-0.37-0.44-0.55-1.11-0.55
			c-0.67-0.01-2.07,0.7-2.64,1.11c-1.07,0.78-1,1.56-0.94,2.74c0.03,0.53,0.37,0.42,0.01,0.96c-0.33,0.5-1.23,0.46-1.68,0.78
			c-0.91,0.65-0.64,1.98-1.29,2.59c-0.33,0.31-0.69-0.01-1,0.21c-0.43,0.3-0.42,0.85-0.66,1.23c-0.22,0.35-0.22,0.76-0.8,0.78
			c-0.7,0.03-0.33-0.64-1-0.62c-0.56,0.02-0.7,0.63-0.95,0.95c-0.43,0.55-0.33,0.75-1.05,1.11c-0.75,0.38-1.9,0.23-2.49,0.69
			c-0.42,0.33-0.74,1.26-1.02,1.69c-0.53,0.8-1.18,1.52-1.56,2.41c-0.56,1.33-0.32,1.71,0.66,2.64c0.79,0.75,1.54,1.65,1.67,2.77
			c0.14,1.24-0.75,2.19,0.11,3.3c1.18,1.52,2.55,0.08,3.88,0.69c0.86,0.4,0.63,1.9,0.34,2.64c1.65,0.56,3.5,1,5.25,0.75
			C490.46,315.6,493.19,315.89,493.51,315.79z"/>
		<path class="st1" d="M507.47,334.75c0.54-1.34,1.62-2.63,2.62-3.65c0.32-0.32,1.98-2.21,2.36-2.23c0.53-0.04,1.19,1.05,1.36,1.45
			c0.36,0.84,0.26,0.75-0.25,1.49c-0.93,1.34-2.39,3.27-3.98,3.83C508.68,335.95,507.36,335.44,507.47,334.75z"/>
		<path class="st1" d="M499.82,335.97c-0.01-0.83,0.81-1.09,0.76-2.09c-0.88-0.16-3.3-4.19-3.75-1.07
			C496.68,333.82,498.82,336.1,499.82,335.97z"/>
		<path class="st1" d="M501.93,310.25c0.05-0.81,0.21-1.48-0.1-2.27c-0.23-0.6-0.88-1.14-0.9-1.82c-0.08-1.94,3.61-3.22,4.24-5.08
			c1.5,0.32,2.51-0.16,4.03-0.52c0.89-0.21,1.72-0.26,2.52,0.33c0.52,0.39,1.51,1.34,1.08,1.86c-0.36,0.44-2.15,0.19-2.66,0.19
			c-1.05,0-4.87-0.14-4.3,1.97c0.39,1.47,3.03,1.02,3.61,2.24c0.76,1.58-2.7,2.74-3.06,4.3c1.03,0.36,2.5,0.08,3.07,1.19
			c0.58,1.13-0.19,3.01-1.65,2.93c-0.68-0.03-1.12-0.86-1.77-1.06c-0.39-0.12-1.24-0.16-1.67-0.06c-1.61,0.4-1.96,2.11-1.05,3.26
			c1.14,1.46,1.67,2.38-0.05,3.63c-0.64-0.71-2.03-1.72-2.39-2.5c-0.47-1.04,0.36-2.21-0.27-3.27c-0.26-0.44-0.82-0.66-0.89-1.16
			c-0.08-0.58,0.6-1.5,0.89-1.97C501.14,311.55,501.6,310.66,501.93,310.25z"/>
		<path class="st1" d="M550.04,333.86c1.03-0.78,2.02-1.83,2.94-2.76c0.54-0.54,1.19-1.85,1.92-1.99c0.01,1.15,1.02,1.41,1.87,1.45
			c0.76,0.04,0.54-0.35,1.05,0.08c0.21,0.17,0.39,0.84,0.55,1.11c0.47,0.78,1.24,2.67,1.89,3.21c0.56,0.46,1.17-0.01,1.76,0.23
			c0.42,0.17,0.57,0.78,0.99,0.98c2.54,1.24,4.43-3.9,2.21-4.5c-1.19-0.32-2.24,0.35-2.64-1.19c-0.32-1.27-0.03-3.3,0.11-4.62
			c0.14-1.34,0.42-1.6-0.66-2.42c-1.19-0.89-1.46-2.18-2.38-3.52c-0.39-0.58-0.89-1.23-1.53-1.55c-0.33-0.17-0.88-0.14-1.13-0.32
			c-0.64-0.47-0.75-1.4-1.46-1.86c-0.91-0.59-2.25-0.08-3.01-0.76c-0.65-0.58-0.42-1.62-0.9-2.31c-1.02-1.46-2.29-0.08-3.57-0.53
			c-1.03-0.36-2.11-1.92-2.92-2.68c-0.96-0.9-1.97-1.96-3.16-0.75c-0.97,0.99-0.63,2.67-1.8,3.67c-0.76,0.65-2.63,0.6-3.44-0.01
			c-0.68-0.5-0.59-1.96-1.64-1.9c-0.07-1.28-0.57-2.61-1.43-3.56c-0.42-0.46-1.06-0.63-1.58-0.97c-0.64-0.42-1.16-1.05-1.99-0.87
			c-1.95,0.43-1.45,3.06-1.34,4.41c0.07,0.8-0.09,1.37,0.44,2.02c0.53,0.65,1.69,0.76,2.01,1.53c0.79,1.89-3.57,3.51-0.55,4.52
			c2.22,0.74,5.06-2.15,6.76,0.19c0.46,0.64,0.54,2,1.16,2.44c0.99,0.7,1.94-0.67,2.94-0.29c0.52,0.2,0.78,1.04,1.14,1.46
			c0.35,0.41,1.16,0.75,1.42,1.12c0.59,0.89-0.19,2.09-0.2,3.1c-0.01,0.51-0.05,1.48,0.11,1.98c0.16,0.47,0.49,0.56,0.69,0.99
			c0.33,0.71,0,1.96,0.42,2.52c0.79,1.03,2.34,0.04,3.28,0.38c0.8,0.3,1.02,1.39,1.67,1.86
			C549.86,333.72,549.72,333.65,550.04,333.86z"/>
		<path class="st1" d="M551.87,342.84c-0.23-0.27-0.53,3.72-0.5,4.49c0.03,0.73-0.17,2,0.2,2.63c0.39,0.67,1.47,0.71,1.87,1.37
			c0.65,1.1-0.08,3.96-0.07,5.37c0.01,2.43,1.52,4.52,1.83,6.9c0.23,1.69,0.65,4.69,3.13,4.55c-0.12,4.72,1.64,10,1.21,14.25
			c1.92-0.04,0.29,2.71,2.11,3.05c0.69,1.49-1.07,2.67-1.51,4.12c-0.75,2.5,0.1,5.11-0.46,7.58c-0.62,2.74-4.46,4.64-6.14,6.9
			c-0.73,0.98-0.98,2.22-1.68,3.12c-0.69,0.9-2.09,1.93-2.99,2.62c-3.54,2.7-6.72,5.02-9.19,8.93c-1.84,2.92-4.19,4.84-7.78,5.15
			c-1.44,0.12-2.67-0.1-4.06,0.35c-1,0.33-2.32,1.33-3.42,1.28c-2.73-0.14-1.36-1.93-1.98-3.17c-0.47-0.96-2.22-0.9-2.66-2.08
			c-0.38-1.02,0.33-2.36,0.12-3.46c-0.21-1.14-0.85-2.07-0.97-3.28c-0.11-1.08,0.03-2.21-0.02-3.29c-2.22-0.6-1.66-2.41-2.98-3.83
			c-1.46-1.57-4.51-3.04-6.45-3.85c-2.01-0.85-2.89-2-4.93-1.5c-2.58,0.63-4.16,1.16-6.65,0.73c-1.44-0.25-1.05-0.22-1.86,0.6
			c-0.62,0.64-2.05,2.03-2.24,2.8c-1.23,0.46-2.07-0.32-3.13,0.36c-0.45,0.29-0.13,0.97-0.82,1.17c-0.77,0.22-1.26-0.62-1.92-0.85
			c-2.19-0.74-5.73-0.12-8.05,0c-0.74,0.04-1.46,0.4-2.18-0.02c-0.7-0.4-0.96-1.85-1.63-2.33c0.76-3.5,0.71-7.36-0.03-10.92
			c-0.4-1.91-1.33-3.61-0.97-5.62c0.26-1.45,0.5-3.13,0.89-4.56c0.7-2.54,3.24-2.58,3.91-5.23c0.48-1.91-0.09-3.78,1.58-5.09
			c1.13-0.89,2.9-1.26,4.12-2.06c1.31-0.86,2.43-2,3.6-3.05c0.56-0.5,1.04-1.29,1.75-1.59c0.95-0.39,0.42-0.1,1.41-0.09
			c2.03,0.02,2.01-0.28,3.71-1.33c1.05-0.65,2.5-0.36,3.13-1.17c0.36-0.47,0.17-1.52,0.36-2.05c0.42-1.19,1.26-2.21,2.15-3.09
			c0.81-0.81,1.42-1.95,2.18-2.69c1.04-1,2.59-0.64,3.7-1.72c1.07-1.04,1.52-3.18,3.33-3.44c0.6-0.08,1.03,0.37,1.59,0.43
			c1.45,0.17,2.08-0.4,3.33-0.93c1.46-0.62,4.87-0.63,5.48-2.32c0.38-1.05-0.42-1.8,0.44-2.98c0.78-1.07,2.13-3.11,3.22-3.86
			c2.71,3.03,6.77,0.58,10.3-0.15c1.4-0.29,0.62-0.93,1.66,0.67c1.1,1.7,1.31,1.71,0.15,3.25c-0.57,0.76-0.39,0.62-0.81,1.57
			c-0.57,1.26-1.25,1.17-2.21,2.32c-1.13,1.35-0.87,2.57,0.21,3.74c1.3,1.4,2.77,2.92,4.17,4.41c0.93,0.99,2.41,3.59,4.18,2.81
			c0.88-0.39,1.29-2.5,1.51-3.28c2.02-0.05,0.32-3.37,0.13-4.38c-0.41-2.27,1.1-1.54,1.91-3.44c0.56-1.32-0.06-2.56,1.16-3.82
			c0.89-0.92,2.89-1.56,4.05-1.64c0.09,0.08,0.46,0.53,0.53,0.66C551.79,343.09,551.62,343.25,551.87,342.84z"/>
		<path class="st1" d="M525.1,437.78c0.58-2.35,3.99-3.33,3.66-5.79c-0.23-1.65-1.67-1.71-3.16-1.93c-1.16-0.17-4.34-0.77-5.25-0.02
			c-0.66,0.54-0.41,1.68-0.83,2.32c-0.64,0.97-1.35,0.55-1.3,1.9c0.05,1.22,1.05,1.62,1.72,2.39c0.71,0.82,0.77,1.01,1.03,2.09
			C522.03,438.95,524.64,437.98,525.1,437.78z"/>
		<path class="st1" d="M570.32,444.27c-0.21-2.16,0.45-2.07,2-2.04c1.72,0.04,2.33-0.28,2.58-2.27c0.41-3.36-2.29-4.75-4.13-1.67
			c-0.78,1.32-0.52,1.58-2.03,2.24c-1.13,0.5-1.86,0.4-3.08,0.58c-1.86,0.27-1.71,1.26-2.87,2.51c-1.08,1.16-2.41,0.92-3.82,1.44
			c-0.65,0.24-1.25,0.89-1.96,0.85c-0.67-0.04-0.86-0.75-1.53-0.65c-0.96,0.14-1.45,1.63-2,2.14c-0.83,0.76-1.9,1.27-2.94,1.74
			c-0.2,0.65-0.53,2.51-0.16,3.11c0.34,0.55,1.69,0.82,2.23,1.18c0.79,0.53,0.96,1.13,2,0.83c0.96-0.27,1.3-1.97,2.26-2.15
			c1.09-0.2,1.18,1.04,2.29,0.83c1.51-0.29,0.77-1.63,1.01-2.68c0.42-1.85,3.53-3.32,5.31-4.07c1.07-0.45,2.09-0.41,3.13-0.96
			C569.21,444.92,569.5,444.34,570.32,444.27z"/>
		<path class="st1" d="M591.11,438.61c-0.87-0.76-0.47-2.54-0.52-3.63c-1.39,0.08-1.59,2.34-2.32,3.29c0.6,0.7,1.59,0.66,2.19,1.52
			c0.47-0.26,0.58-0.65,0.49-1.18"/>
		<path class="st1" d="M585.12,420.49c2.96-0.63,2.12,5.75,2.81,7.25c0.57,1.23,2.18,1.63,2.55,3.2c0.58,2.44-1.01,1.78-2.6,2.02
			c-1.02,0.16-0.97,0.24-1.46,0.96c-0.57,0.83-0.73,1.62-1.59,2.53c-0.96,1.01-1.8,1.89-3.03,2.5c-1,0.5-1.52,0.32-2.04,1.64
			c-1.29-1.44-2.1-3.32-1.8-5.35c0.33-2.17,2.79-1.35,3.94-3.53c1.08-2.05,1.05-4.75,1.72-6.98
			C584.02,423.42,583.75,420.48,585.12,420.49z"/>
		<path class="st1" d="M506.81,282.82c0.64-1.27,1.78-1.84,2.66-2.85c3.4,1.42,2.59-2.31,4.66-2.97c2.49-0.8,3.81,3.9,1.53,4.35
			c0,0,0,0.44,0,0.44c3.18,0.56-1.58,6.19-3.77,5.85c-2.52-0.4-0.08-2.61-1.57-3.83C509.38,283.06,507.3,283.77,506.81,282.82z"/>
		<path class="st1" d="M498.66,252.72c-0.02,1.57-0.03,3.56,1.16,4.75c1.38,1.37,2.32,0.42,2.74-1.19c0.59-2.23,1.54-5.9-1.66-5.9
			c-2.27,0-1.73,0.79-2.41,2.49"/>
		<path class="st1" d="M495,241.42c0.5-0.82,1.66-1.14,2.08-1.82c0.46-0.74,0.24-1.97,0.24-2.84c0-2.27-0.64-2.98-1.98-4.69
			c-1.67,0.93-1.22,3.49-0.98,5.03c0.15,0.98,0.11,1.33,0.13,2.33C494.52,240.17,494.76,240.99,495,241.42z"/>
		<path class="st1" d="M511.52,206.72c-0.28-0.5-0.75-1.44-1.44-1.44c-0.63,0-0.62,0.76-1.04,1c-0.33,0.19-1.11,0.06-1.51,0.11
			c-0.21,0.03-0.44,0.13-0.61,0.16c-0.24,0.04-0.51-0.02-0.82,0c-0.83,0.06-0.94,0.82-0.95,1.5c-0.01,1.17,0.72,1.32,1.45,2.09
			c0.17,0.18,0.31,0.6,0.51,0.72c0.36,0.22,0.38-0.02,0.75-0.15c0.78-0.25,1.17,0.24,1.45-0.58c0.36-1.06,0.37-1.89,1.25-2.67
			C510.82,207.23,511.34,207.03,511.52,206.72z"/>
		<path class="st1" d="M522.38,197.19c-0.46-0.01-1.49,1.37-1.78,1.79c-0.37,0.54-0.83,1.35-1.43,1.64
			c-0.3,0.14-0.73,0.07-0.95,0.28c-0.21,0.22-0.19,0.73-0.13,1c-1.07,0.08-2.15-0.13-3.23-0.05c-1.49,0.11-2.96,0.38-4.46,0.32
			c-0.56-0.02-1.67,0.02-2.12-0.44c-0.18-0.19-0.13-0.42-0.28-0.59c-0.17-0.19-0.76-0.19-0.84-0.44c-0.09-0.27,0.3-0.35,0.5-0.47
			c0.78-0.47,1.28-0.86,1.71-1.65c0.24-0.44,0.53-0.85,0.71-1.32c0.23-0.58,0.04-0.94-0.02-1.54c-0.19-1.84,2.8-1.66,3.89-2.59
			c0.81-0.69,0.84-1.23,0.57-2.21c-0.24-0.86-0.27-1.73-0.34-2.61c-0.06-0.8-0.15-1.62-0.33-2.41c-0.17-0.72-0.49-1.65-0.34-2.4
			c0.12-0.59,0.98-1.34,1.55-1.55c0.63-0.24,1.07-0.12,1.51,0.46c0.43,0.58,0.69,1.34,1.09,1.96c0.43,0.65,0.49,1.26,0.6,2
			c0.16,1.06,0.91,1.76,0.97,2.84c0.03,0.56-0.12,0.74,0.26,1.21c0.33,0.42,0.63,0.71,0.79,1.25c0.35,1.13-0.45,2.19,0.4,3.15
			c0.24,0.27,0.63,0.42,0.83,0.71c0.15,0.22,0.19,0.51,0.29,0.75C521.9,196.52,522.12,197.17,522.38,197.19z"/>
		<path class="st1" d="M516.9,177.29c-0.02-0.41-0.03-1.19,0.25-1.5c0.28-0.32,0.54-0.21,0.7-0.72c0.21-0.65,0.1-1.4,0.03-2.06
			c-0.04-0.43,0.04-1.15-0.32-1.38c-0.37-0.23-1.29-0.07-1.73-0.05c-0.82,0.05-1.62,0.15-2.45,0.11c-0.41-0.02-0.86-0.01-1.14-0.32
			c-0.34-0.37-0.37-0.97-0.89-1.26c-1.52-0.84-2.15,1.43-2.01,2.49c0.13,1.04,0.57,1.94,0.52,3.02c-0.03,0.54-0.12,1.07-0.19,1.61
			c-0.13,1.01-0.32,1.43,0.56,2.06c0.99,0.7,1.66,1.08,2.4-0.16c0.59-0.98,1.26-0.67,2.22-0.84
			C515.45,178.19,516.66,177.6,516.9,177.29z"/>
		<path class="st1" d="M505.98,159c0.44-0.13-1.19-1.76-1.44-2c-0.97-0.9-2.07-1.58-3.02-2.52c-1.63-1.62-3.18-3.38-5-4.79
			c-1.1-0.85-2.13-2.07-3.4-2.67c-0.3-0.14-0.46-0.23-0.77,0.06c-0.19,0.17-0.59,0.77-0.68,1.03c-0.27,0.74,0.76,0.92,1.28,1.46
			c0.88,0.91,1.44,2.01,2.18,3.01c0.44,0.59,0.63,1.18,1,1.78c0.36,0.6,0.69,0.46,1.36,0.55c0.94,0.13,1.19,0.53,1.78,1.27
			c0.53,0.67,1.18,1.23,1.81,1.79c0.35,0.32,0.66,0.5,0.84,0.95c0.08,0.2,0.16,0.29,0.14,0.52c-0.04,0.35-0.23,0.27-0.35,0.53
			c-0.33,0.71,0.33,1.15,0.8,1.61c0.56,0.54,0.34,1.05,0.52,1.77c0.24,0.96,2.38,1.83,3.34,1.74c0.08-0.6-0.16-1.33-0.23-1.94
			c-0.13-1.11-0.6-2.14-0.65-3.27c-0.01-0.28-0.06-0.59,0.11-0.8C505.73,158.89,506.05,159.22,505.98,159z"/>
		<path class="st1" d="M474.33,247.05c0.46,0.03,2.47,1.28,2.56,2.01c0.05,0.42-0.64,0.94-1.09,1.14c-1.57,0.71-2.92,0.26-4.02-0.91
			c0.51-0.5,1.74-2.4,2.35-2.23"/>
		<path class="st1" d="M501.32,267.64c0.58-0.24,1.34-1.61,0.24-1.92c-1-0.28-1.91,1.21-1.55,2c0.48,0.04,0.8,0.54,1.08,0.1
			L501.32,267.64z"/>
		<path class="st1" d="M511.55,271.34c0.18-0.06,0.37-0.74,0.46-0.96c0.1-0.25,0.28-0.36,0.41-0.59c0.38-0.65,0.07-1.07-0.41-1.46
			c-0.25-0.2-0.2-0.3-0.51-0.07c-0.31,0.23-0.44,0.46-0.65,0.76c-0.15,0.21-0.35,0.24-0.4,0.52c-0.08,0.38,0.14,0.71,0.39,0.95
			c0.17,0.17,0.28,0.34,0.42,0.55C511.32,271.16,511.42,271.47,511.55,271.34z"/>
		<path class="st1" d="M509.47,274.7c0.05,0.24,0.25,0.99,0.08,1.19c-0.13,0.16-0.46,0.01-0.63,0.1c-0.26,0.12-0.25,0.38-0.57,0.4
			c-0.16,0.01-0.68-0.03-0.8-0.14c-0.29-0.27,0.14-1.04,0.29-1.31c0.11-0.2,0.24-0.15,0.4-0.28c0.24-0.19,0.17-0.37,0.57-0.42
			C509.09,274.2,509.48,274.47,509.47,274.7z"/>
		<path class="st1" d="M505.06,273.51c0.08-0.49,0.59-0.39,0.83-0.73c0.19-0.27,0.4-0.68,0.33-1.02c-0.08-0.46-0.6-0.51-0.96-0.29
			c-0.21,0.13-0.29,0.37-0.53,0.4c-0.28,0.03-0.39-0.16-0.62,0.12c-0.19,0.23-0.68,1.13-0.4,1.37c0.16,0.14,1.04,0.24,1.27,0.2
			C505.05,273.5,505.08,273.44,505.06,273.51z"/>
		<path class="st1" d="M498.99,276.97c0,0.45,0.11,0.89-0.3,1.16c-0.16,0.11-0.35,0.12-0.5,0.19c-0.15,0.08-0.13,0.11-0.25,0.24
			c-0.29,0.32-1.37,0.51-1.2-0.19c0.14-0.54,0.45-1,0.88-1.36c0.39-0.32,0.81-0.12,1.21-0.11
			C498.85,277.02,498.9,276.99,498.99,276.97z"/>
	</g>
</g>
<g id="Graphic_Title">
	<g>
		<rect x="88.92" y="11.68" class="st2" width="358.39" height="40.42"/>
		<text transform="matrix(1 0 0 1 88.921 24.5689)"><tspan x="0" y="0" class="st3 st4 st5">Worldwide Diffusion of Influenza</tspan><tspan x="0" y="24" class="st6 st7 st8">Second Wave: Autumn 1918</tspan></text>
	</g>
</g>
</svg>
