<?xml version="1.0" encoding="utf-8"?>
<!-- Generator: Adobe Illustrator 24.2.3, SVG Export Plug-In . SVG Version: 6.00 Build 0)  -->
<svg version="1.1" id="Ocean_spread" xmlns="http://www.w3.org/2000/svg" xmlns:xlink="http://www.w3.org/1999/xlink" x="0px"
	 y="0px" viewBox="0 0 600 475.58" style="enable-background:new 0 0 600 475.58;" xml:space="preserve">
<style type="text/css">
	.st0{fill:none;stroke:#CCC;stroke-width:3;stroke-linejoin:round;}
	.st1{fill:#CCC;}
</style>
<g>
	<g>
		<path class="st0" d="M572.15,221.8c0,0-4.49-6.98-11.47-4.32c-6.98,2.66-12.38,9-17.79,10.14c-5.33,1.12-12.24-0.54-17.27-2.22"/>
		<g>
			<polygon class="st1" points="530.37,222.35 527.04,225.84 527.23,230.67 518.95,222.79 			"/>
		</g>
	</g>
</g>
<g>
	<g>
		<path class="st0" d="M574.48,275.67c0,0-8.42-4.08-24.44,8.83"/>
		<g>
			<polygon class="st1" points="543.72,290.13 549.45,278.58 550.55,284.11 555.9,285.9 			"/>
		</g>
	</g>
</g>
<g>
	<g>
		<path class="st0" d="M581.8,385.57c0,0,6.65,3.66,5.49,9.31c-1.16,5.65-8.48,8.48-13.8,16.63c-2.68,4.11-5.02,9.05-6.69,12.96"/>
		<g>
			<polygon class="st1" points="563.98,419.7 567.4,423.11 572.22,423.01 564.17,431.13 			"/>
		</g>
	</g>
</g>
<g>
	<g>
		<path class="st0" d="M567,409.35c0,0-3.82-0.5-7.98,3.82c-2.53,2.64-7.11,5.58-11.31,7.37"/>
		<g>
			<polygon class="st1" points="549.79,415.18 549.09,419.96 552.04,423.78 540.73,422.15 			"/>
		</g>
	</g>
</g>
<g>
	<g>
		<path class="st0" d="M348.41,267.35c0,0,13.08-0.22,17.07-0.44c1.68-0.09,4.46-0.46,7.12-0.86"/>
		<g>
			<polygon class="st1" points="369.95,270.94 371.13,266.26 368.57,262.16 379.67,264.91 			"/>
		</g>
	</g>
</g>
<g>
	<g>
		<path class="st0" d="M286.33,381.53c0,0,3.33-3.55,5.1-8.65c0.68-1.97,1.68-6.77,2.48-10.91"/>
		<g>
			<polygon class="st1" points="297.65,366.09 293.62,363.42 288.91,364.47 295.2,354.92 			"/>
		</g>
	</g>
</g>
<g>
	<g>
		<path class="st0" d="M318.04,394.38c0,0,19.95-0.89,27.05-19.07c7.09-18.18,19.51-71.83,23.06-77.59c1.63-2.65,4.58-5.21,7.29-7.2
			"/>
		<g>
			<polygon class="st1" points="375.11,296.16 374.23,291.41 370.2,288.75 381.44,286.64 			"/>
		</g>
	</g>
</g>
<g>
	<g>
		<path class="st0" d="M236.01,342.51c0,0,11.53,3.77,8.87,17.96c-2.66,14.19-10.2,32.37-6.87,38.13
			c2.83,4.91,14.18,8.37,21.46,7.65"/>
		<g>
			<polygon class="st1" points="257.58,411.25 257.96,406.44 254.76,402.82 266.16,403.7 			"/>
		</g>
	</g>
</g>
<g>
	<g>
		<path class="st0" d="M200.98,367.56c0,0-8.65,4.88-9.75,16.85c-1.11,11.97,3.99,22.39,2.66,29.26
			c-1.33,6.87-6.65,10.64-9.75,12.41c-3.1,1.77-2,1.77-5.54,1.11c-3.05-0.57-7.75-0.98-10.27-1.79"/>
		<g>
			<polygon class="st1" points="173.38,422.69 169.74,425.87 169.5,430.69 161.96,422.1 			"/>
		</g>
	</g>
</g>
<g>
	<g>
		<path class="st0" d="M209.85,287.97c0,0-6.43,2.22-6.87,14.41s4.21,26.6-0.22,34.58c-3.23,5.81-8.81,11.27-15.02,13.21"/>
		<g>
			<polygon class="st1" points="190.57,345.14 189.18,349.76 191.54,353.97 180.59,350.71 			"/>
		</g>
	</g>
</g>
<g>
	<g>
		<path class="st0" d="M224.59,181.6c0,0-6.51-5.01-15.03-0.75c-8.51,4.26-40.32,14.27-50.58,15.03c-2.86,0.21-5.22,0.15-7.13-0.05"
			/>
		<g>
			<polygon class="st1" points="156.26,192.15 153.34,195.99 154.07,200.76 144.95,193.87 			"/>
		</g>
	</g>
</g>
<g>
	<g>
		<path class="st0" d="M215.82,186.61c0,0,2.5,6.01-4.76,11.77s-24.29,8.76-29.3,13.52c-5.01,4.76-7.51,5.01-5.76,9.77
			c1.75,4.76,2,5.51,6.26,6.01c1.77,0.21,4.49,0.76,7.06,1.34"/>
		<g>
			<polygon class="st1" points="185.02,232.6 187.87,228.7 187.05,223.95 196.29,230.68 			"/>
		</g>
	</g>
</g>
<g>
	<g>
		<path class="st0" d="M129.68,224.42c0,0-12.52-4.51-19.03,3.76c-6.51,8.26-10.27,20.03-12.77,20.53
			c-2.5,0.5-14.02-6.51-14.27-8.76c-0.11-0.96,0.06-3.52,0.29-6.14"/>
		<g>
			<polygon class="st1" points="88.02,237.58 83.78,235.28 79.17,236.74 84.6,226.67 			"/>
		</g>
	</g>
</g>
<g>
	<g>
		<path class="st0" d="M137.69,176.34c0,0-8.63,3.45-14.97,6.38"/>
		<g>
			<polygon class="st1" points="123.71,177.31 124.08,182.12 127.8,185.19 116.41,186.11 			"/>
		</g>
	</g>
</g>
<g>
	<g>
		<path class="st0" d="M51.8,176.34c0,0,4.38,5.4,11.24,7.95"/>
		<g>
			<polygon class="st1" points="58.84,187.73 61.63,183.78 60.72,179.04 70.08,185.61 			"/>
		</g>
	</g>
</g>
<g>
	<g>
		<path class="st0" d="M28.51,208.14c0,0,9.52-1.75,16.53-0.5c2.87,0.51,6.04,1.15,8.78,1.73"/>
		<g>
			<polygon class="st1" points="49.6,213.12 52.35,209.15 51.39,204.42 60.81,210.9 			"/>
		</g>
	</g>
</g>
</svg>
