<?xml version="1.0" encoding="utf-8"?>
<!-- Generator: Adobe Illustrator 24.2.3, SVG Export Plug-In . SVG Version: 6.00 Build 0)  -->
<svg version="1.1" id="Layer_1" xmlns="http://www.w3.org/2000/svg" xmlns:xlink="http://www.w3.org/1999/xlink" x="0px" y="0px"
	 viewBox="0 0 600 475.58" style="enable-background:new 0 0 600 475.58;" xml:space="preserve">
<style type="text/css">
	.st0{fill:none;stroke:#CCC;stroke-width:1.5;stroke-linejoin:round;stroke-miterlimit:3.5076;}
	.st1{fill:#CCC;}
	.st2{font-family:Roboto;font-weight:400;}
	.st3{font-size:13px;}
</style>
<g id="Oct">
	<path class="st0" d="M251.86,133.78c0,0,13.08,4.88,20.17,13.19s5.1,11.64,2.88,13.19s-17.29,9.09-18.62,15.41
		c-1.33,6.32,2.66,5.1,5.76,5.32s20.73-0.44,24.5,10.86c3.77,11.31,2.11,16.41,2.11,16.41"/>
	<path class="st0" d="M288.83,216.14c0,0-2.49,9.81-0.17,14.3s6.48,3.49,9.64,2c3.16-1.5,12.8-5.32,20.62-7.15
		c7.81-1.83,20.29-5.65,24.28-10.81c3.99-5.15-2.49-10.81-6.48-12.97c-3.99-2.16-19.45-8.31-24.94-17.46s-8.15-15.8-10.14-22.45
		c-2-6.65-2.16-12.3,1.66-16.96s11.31-15.63,11.64-23.44c0.33-7.81-2-14.47-2-14.47"/>
	<path class="st0" d="M216.28,221.91c0.44,0.67,7.09,2,17.51-1.33s15.08-7.54,20.62-9.98s10.42-2.66,10.42-2.66"/>
	<path class="st0" d="M212.51,225.01c0.67,0.22,7.98,0.89,8.87,13.3s-0.67,18.84,3.33,21.5s18.18,11.97,24.16,18.84
		c5.99,6.87,7.76,9.31,5.99,20.17"/>
	<path class="st0" d="M242.66,292.63c0,0-1.77-3.77-4.43-5.76c-2.66-2-5.54-1.55-8.42,1.11c-2.88,2.66-4.21,6.43-4.21,6.43"/>
	<path class="st0" d="M327.57,266.69c0,0-7.54,7.76-8.42,13.08c-0.89,5.32-1.11,7.32,3.99,5.99s6.87-3.33,9.98-7.09
		c3.1-3.77,5.99-5.76,5.99-5.76"/>
	<path class="st0" d="M341.54,295.51c0,0-11.97,2-17.96,1.77c-5.99-0.22-11.31,3.33-14.41,8.65s0.67,9.75,3.77,12.19
		c3.1,2.44,11.53,7.76,11.53,7.76"/>
	<path class="st0" d="M306.73,386.62c0,0-5.99-2.66-6.87-13.08s0.89-18.84,2-27.71s2.88-11.97-1.33-10.2s-8.2,5.76-10.2,11.08
		c-2,5.32-5.54,18.62-6.87,23.72s-7.09,13.75-11.53,16.41c-4.43,2.66-6.43,3.77-6.43,3.77"/>
	<path class="st0" d="M383.44,249.17c0,0,8.65-6.43,8.2-11.53s-3.55-5.32-2-10.2c1.55-4.88,4.21-7.54,6.87-5.54
		s10.2,13.75,19.07,14.85c8.87,1.11,17.74-4.21,26.16,2.66c8.42,6.87,34.36,36.14,34.36,36.14"/>
	<line class="st0" x1="449.06" y1="278.22" x2="460.59" y2="281.1"/>
	<path class="st0" d="M472.11,245.85c0,0-5.54-5.1-0.22-11.53s13.97-12.41,8.87-17.51c-5.1-5.1-10.2-2.22-15.52-6.87
		c-5.32-4.66-6.87-10.2-1.33-14.41s5.54-4.21,5.54-4.21"/>
	<path class="st0" d="M508.69,189.76c0,0,7.32,0.22,16.63,9.75"/>
	<path class="st0" d="M506.92,260.92c0,0-6.43,0-9.31,3.1s-5.1,7.76-4.66,11.97s3.55,7.98,7.09,7.09c3.55-0.89,6.21-4.21,9.09-5.54
		c2.88-1.33,4.66-2.88,5.1-6.43s3.1-3.99,1.77-6.87"/>
	<path class="st0" d="M423.12,288.86c0,0,5.54-4.88,3.99-11.97c-1.55-7.09-7.54-9.75-12.41-8.65c-4.88,1.11-8.2,6.21-8.42,10.2
		c-0.22,3.99,0.67,14.41,3.33,16.63c2.66,2.22,6.21,2.22,7.76,0"/>
	<path class="st0" d="M163.96,281.32c0,0-6.43,3.99-10.42,8.65s-5.54,5.54-9.75,10.86s-10.2,13.97-7.32,19.73
		c2.88,5.76,12.19,13.97,16.85,17.74s6.43,6.21,6.21,15.08s-3.77,31.92-5.99,35.47s-8.2,9.31-11.31,14.19
		c-3.1,4.88-4.88,9.98-2.66,15.08c2.22,5.1,5.76,7.32,5.76,7.32"/>
	<path class="st0" d="M146,419.66c0,0-2.22-5.54,1.33-8.2s7.32-1.77,7.32-1.77"/>
	<path class="st0" d="M118.07,418.33c0,0,8.87-3.99,7.76-9.09s-3.99-7.09-3.33-11.53c0.67-4.43-7.09-9.31-7.09-9.31"/>
	<path class="st0" d="M99.22,345.61c0,0,3.1-4.21,6.43-7.76c3.33-3.55,6.21-6.43,3.1-11.75c-3.1-5.32-6.65-4.88-9.53-2.22
		s-7.76,4.43-9.75,4.21"/>
	<path class="st0" d="M138.91,281.76c0,0-3.1,1.77-3.33,7.09c-0.22,5.32,1.77,5.76,4.66,3.77c2.88-2,5.99-7.09,8.42-7.98"/>
	<path class="st0" d="M92.79,299.5c0,0,4.43-2.88,8.2-0.67c3.77,2.22,4.88,4.66,10.2-0.44s10.86-7.76,13.97-12.19
		c3.1-4.43,7.98-15.3,7.98-15.3"/>
	<path class="st0" d="M43.58,130.51c0,0,6.32-6.98,11.14-4.49c4.82,2.49,2.33,6.98,1.16,8.81c-1.16,1.83-7.65,7.15-11.64,8.31"/>
	<path class="st0" d="M45.57,150.8c0,0,7.81,2,12.3,8.81s4.82,10.31,3.33,12.64s-7.48,7.32-9.81,9.81
		c-2.33,2.49-7.81,3.49-11.81,2.16c-3.99-1.33-7.65-0.33-7.65-0.33"/>
	<path class="st0" d="M29.45,192.37c0,0,6.48,2.49,12.14,5.99c5.65,3.49,8.15,5.15,6.82,10.14c-1.33,4.99-2.16,7.32-3.33,10.14
		c-1.16,2.83-2.49,3.99-5.99,7.15c-3.49,3.16-6.32,8.48-6.32,8.48"/>
	<path class="st0" d="M579.99,424.78c0,0,3.57,1.62,5.19,0.65s6.17-0.97,6.17-0.97"/>
	<path class="st0" d="M578.04,428.02c0,0,5.52,6.82,7.14,11.36"/>
	<path class="st0" d="M560.84,437.11c0,0,6.49,12.01,10.39,13.63"/>
	<path class="st0" d="M122.5,138.99c0,0-7.54,0.89-18.18,7.98s-14.63,13.75-17.29,19.95c-2.66,6.21-0.89,12.41-6.65,18.18
		c-5.76,5.76-15.52,9.31-15.52,15.96s5.76,14.63,2.66,19.51c-3.1,4.88-12.86,13.3-10.2,20.84s3.55,12.86,10.2,15.52
		c6.65,2.66,11.08,4.88,11.53,11.08c0.44,6.21-0.89,11.08-0.89,11.08"/>
	<path class="st0" d="M223.59,131.45c0,0,11.08-2.66,19.07,0.44"/>
	<text transform="matrix(1 0 0 1 483.3053 48.5679)" class="st1 st2 st3">OCT</text>
</g>
</svg>
