<?xml version="1.0" encoding="utf-8"?>
<!-- Generator: Adobe Illustrator 24.2.3, SVG Export Plug-In . SVG Version: 6.00 Build 0)  -->
<svg version="1.1" id="Layer_1" xmlns="http://www.w3.org/2000/svg" xmlns:xlink="http://www.w3.org/1999/xlink" x="0px" y="0px"
	 viewBox="0 0 600 475.58" style="enable-background:new 0 0 600 475.58;" xml:space="preserve">
<style type="text/css">
	.st0{fill:none;stroke:#CCC;stroke-width:1.5;stroke-linejoin:round;stroke-miterlimit:3.5076;}
	.st1{fill:#CCC;}
	.st2{font-family:Roboto;font-weight:400;}
	.st3{font-size:13px;}
</style>
<g id="Aug">
	<path class="st0" d="M220.93,191.09c0,0,1.11,2.44,4.21,4.66s2.22,5.1,0,7.76c-2.22,2.66-3.77,3.33-3.77,3.33"/>
	<path class="st0" d="M235.12,185.22c0,0,5.21,1.44,9.09-0.44c3.88-1.88,7.43-3.1,6.43-7.09s-3.33-4.99-5.21-2.66
		s-6.1,5.21-11.2,6.43"/>
	<path class="st0" d="M203.42,240.31c0,0,6.43,0.22,7.09,4.43s-1.77,8.87-0.67,12.86c1.11,3.99,3.1,14.41,3.1,20.4
		s-2.44,8.2-2.44,8.2"/>
	<text transform="matrix(1 0 0 1 366.4417 48.5679)" class="st1 st2 st3">AUG</text>
</g>
</svg>
