<?xml version="1.0" encoding="utf-8"?>
<!-- Generator: Adobe Illustrator 24.2.3, SVG Export Plug-In . SVG Version: 6.00 Build 0)  -->
<svg version="1.1" id="Layer_1" xmlns="http://www.w3.org/2000/svg" xmlns:xlink="http://www.w3.org/1999/xlink" x="0px" y="0px"
	 viewBox="0 0 600 475.58" style="enable-background:new 0 0 600 475.58;" xml:space="preserve">
<style type="text/css">
	.st0{fill:none;stroke:#CCC;stroke-width:1.5;stroke-linejoin:round;stroke-miterlimit:3.5076;}
	.st1{fill:#CCC;}
	.st2{font-family:Roboto;font-weight:400;}
	.st3{font-size:13px;}
</style>
<g id="Sep">
	<path class="st0" d="M303.13,211.32c0,0,3.49,1.16,9.31-0.5s8.81-3.66,17.62-2.49s10.48,4.66,6.48,6.65c-3.99,2-11.31,1.5-15.63,1
		s-8.65,2.16-13.97,5.99c-5.32,3.82-10.97,9.31-11.64,5.32c-0.67-3.99,1.16-10.81,1.16-10.81"/>
	<path class="st0" d="M288.83,216.14c0,0-2.49,9.81-0.17,14.3s6.48,3.49,9.64,2c3.16-1.5,12.8-5.32,20.62-7.15
		c7.81-1.83,20.29-5.65,24.28-10.81c3.99-5.15-2.49-10.81-6.48-12.97c-3.99-2.16-19.45-8.31-24.94-17.46s-8.15-15.8-10.14-22.45
		c-2-6.65-2.16-12.3,1.66-16.96s11.31-15.63,11.64-23.44c0.33-7.81-2-14.47-2-14.47"/>
	<path class="st0" d="M221.16,215.92c0,0,5.1,1.77,14.63-1.55c9.53-3.33,17.51-11.75,17.51-11.75"/>
	<path class="st0" d="M209.85,227.45c0,0,3.99,1.11,4.88,8.42s-0.67,18.84-0.67,23.06s0.22,13.08,5.76,14.19
		c5.54,1.11,15.52,2.22,20.4,4.43c4.88,2.22,8.42,5.32,9.98,9.53c1.55,4.21-0.89,7.54-0.89,8.2"/>
	<path class="st0" d="M242.66,292.63c0,0-1.77-3.77-4.43-5.76c-2.66-2-5.54-1.55-8.42,1.11c-2.88,2.66-4.21,6.43-4.21,6.43"/>
	<path class="st0" d="M326.02,315.9c0,0-6.87-1.77-6.65-4.66c0.22-2.88,0.22-4.88,2.22-5.99s12.41-0.89,12.41-0.89"/>
	<path class="st0" d="M269.04,397.04c0,0,2.22-0.22,5.76-3.55c3.55-3.33,10.42-10.2,13.52-8.2c3.1,2,1.33,5.99-0.44,9.98
		c-1.77,3.99-5.32,8.65-5.32,8.65"/>
	<path class="st0" d="M294.09,399.26c0,0-3.1-4.43-1.55-8.87c1.55-4.43,5.54-2.22,7.54,0.44"/>
	<path class="st0" d="M393.19,261.37c0,0,3.99-2.66,7.54-5.1c3.55-2.44,5.54-7.09,2.88-9.53s-5.54-1.33-6.87,1.11
		s-3.77,3.55-5.76,3.77"/>
	<path class="st0" d="M476.33,191.31c0,0-1.33,4.21-3.55,7.09c-2.22,2.88-4.66,8.2-1.11,10.2c3.55,2,8.2,1.11,10.64-0.22
		s6.21-0.67,6.21-0.67"/>
	<path class="st0" d="M492.51,228.56c0,0-6.87-2.22-11.75,3.55c-4.88,5.76-2.44,12.41-2.44,12.41"/>
	<path class="st0" d="M506.7,194.86c0,0,5.54-1.55,16.41,11.75"/>
	<path class="st0" d="M179.92,305.48c0,0-4.21,3.1-5.76,3.99s-2.22,5.1-2.44,9.98s-0.67,9.09-3.77,15.08s-4.66,6.21-1.55,11.53
		c3.1,5.32,8.2,7.54,3.77,15.52s-7.32,7.32-4.21,12.41s4.21,5.1,4.21,5.1"/>
	<path class="st0" d="M146,419.66c0,0-2.22-5.54,1.33-8.2s7.32-1.77,7.32-1.77"/>
	<path class="st0" d="M118.95,271.57c0,0-3.99,5.32-3.55,9.53s3.33,6.65,6.87,4.21s4.66-10.2,6.21-12.86"/>
	<path class="st0" d="M108.76,268.68c-0.22,0.67-2.66,9.98-1.11,13.08c1.55,3.1,3.77,5.32,2.22,9.09s-4.88,3.33-5.99-0.67
		c-1.11-3.99-4.21-11.97-5.54-12.86"/>
	<path class="st0" d="M82.71,280.88c0,0,1.55-3.66,3.88-1.66c2.33,2,4.77,3.33,6.87,2.99c2.11-0.33,2.66-0.89,3.1,1.33
		c0.44,2.22-2.99,4.21-2.99,4.21"/>
	<path class="st0" d="M92.02,263.25c0,0-4.88,2.55-6.54,2.99s-4.66-2.55-6.76-5.54c-2.11-2.99-3.66-3.88-7.21-5.43
		s-7.09-3.21-8.98-7.54c-1.88-4.32-2.77-6.54,0.11-13.08c2.88-6.54,7.65-15.85,9.98-17.85s5.54-3.44,12.08-1.77
		c6.54,1.66,9.2,1,11.42,2.99c2.22,2,3.33,8.42,2.44,12.3s-1.44,6.65-1.44,6.65"/>
	<path class="st0" d="M46.74,159.44c0,0,4.49,0.33,7.32,3.82s2.49,7.15,1.16,8.65s-4.16,2.99-6.65,2.66s-7.15-5.99-8.81-6.82"/>
	<path class="st0" d="M27.45,199.68c1,0,7.98,0.5,11.47,4.99s0.5,7.32-2,8.81c-2.49,1.5-5.15,3.82-5.15,3.82"/>
	<path class="st0" d="M165.62,145.31c0,0-4.82,6.48-9.98,7.65c-5.15,1.16-9.81-0.17-12.3,2.99s-4.32,12.14-10.31,14.13
		c-5.99,2-26.27,0.17-29.43,2.33c-3.16,2.16-4.16,6.65,1,9.98c5.15,3.33,8.65,2,8.15,5.99s-2.16,5.15-4.82,5.65
		c-2.66,0.5-13.97,5.15-15.96,12.47s4.49,7.32,9.48,4.16s8.98-9.98,11.64-12.97s9.98-4.16,15.8-1.5"/>
	<path class="st0" d="M488.3,198.41c0,0,5.76-3.99,12.86-3.1"/>
	<text transform="matrix(1 0 0 1 425.816 48.5679)" class="st1 st2 st3">SEP</text>
</g>
</svg>
