<?xml version="1.0" encoding="utf-8"?>
<!-- Generator: Adobe Illustrator 24.2.3, SVG Export Plug-In . SVG Version: 6.00 Build 0)  -->
<svg version="1.1" id="Layer_1" xmlns="http://www.w3.org/2000/svg" xmlns:xlink="http://www.w3.org/1999/xlink" x="0px" y="0px"
	 viewBox="0 0 600 475.58" style="enable-background:new 0 0 600 475.58;" xml:space="preserve">
<style type="text/css">
	.st0{fill:none;stroke:#CCC;stroke-width:1.5;stroke-linejoin:round;stroke-miterlimit:3.5076;}
	.st1{fill:#CCC;}
	.st2{font-family:Roboto;font-weight:400;}
	.st3{font-size:13px;}
</style>
<g id="Nov">
	<path class="st0" d="M323.91,112.06c0,0,1.66,3.99-2.66,13.63s-10.97,22.95-9.31,34.58c1.66,11.64,9.98,23.28,17.29,27.6
		c7.32,4.32,19.62,9.64,21.28,15.3c1.66,5.65,2,12.3-3.66,19.62s-18.95,10.64-24.28,11.31s-21.62,6.32-27.93,7.98
		c-6.32,1.66-12.97-1-20.62-7.32s-14.3-11.31-23.94-8.65s-11.31,1.33-11.31,5.99s-0.33,19.95,4.66,25.61
		c4.99,5.65,18.62,15.96,20.95,24.94s-2.99,20.29-7.65,25.61s-4.66,5.32-4.66,5.32"/>
	<path class="st0" d="M260.84,323.89c0,0,17.51-7.98,26.16-15.74c8.65-7.76,18.4-17.74,22.17-29.26
		c3.77-11.53,11.97-21.95,19.51-22.61"/>
	<path class="st0" d="M331.34,342.95c0,0-4.66-2.66-10.2-3.55c-5.54-0.89-10.2,0-11.97,6.43s-3.55,12.64-2.66,17.74
		s5.32,8.2,6.65,11.75"/>
	<path class="st0" d="M264.83,381.97c0,0,3.99-2.44,6.87-3.1c2.88-0.67,5.76-5.1,7.54-11.08c1.77-5.99,8.65-21.73,10.42-27.71
		s-1.55-13.3-5.99-11.97c-4.43,1.33-11.31,5.99-14.63,7.09c-3.33,1.11-9.98,4.66-10.86,5.99"/>
	<line class="st0" x1="451.5" y1="285.98" x2="468.34" y2="288.86"/>
	<path class="st0" d="M377.67,240.53c0,0,5.54-2.88,4.88-10.42s-0.44-14.63,11.08-11.97c11.53,2.66,25.94,5.1,31.48,7.98
		c5.54,2.88,23.5,15.08,31.48,12.19s16.85-10.64,13.3-17.29c-3.55-6.65-13.3-0.44-19.29-15.08c-5.99-14.63,13.52-23.5,20.84-26.82
		c7.32-3.33,22.39-5.76,28.82,1.33"/>
	<path class="st0" d="M508.25,183.11c0,0,5.32,3.33,8.87,3.1s5.54-1.11,7.54,0.44s2,1.55,2,1.55"/>
	<path class="st0" d="M119.4,423.87c0,0,4.21-3.55,9.53-3.77s4.88,1.33,7.76,4.66c2.88,3.33,5.76,8.87,8.65,8.65"/>
	<path class="st0" d="M114.3,383.96c0,0,9.53,7.54,15.08,9.09c5.54,1.55,10.42-0.22,6.87-5.54s-14.41-12.64-6.65-19.51
		c7.76-6.87,20.17-11.31,20.4-19.51c0.22-8.2-7.54-13.08-13.97-13.52c-6.43-0.44-22.17,7.54-27.27,10.42
		c-5.1,2.88-8.65,7.09-8.65,7.09"/>
	<path class="st0" d="M86.59,323.44c0,0,6.43-5.76,18.18-6.87s21.95,4.21,25.94-3.77s0-14.19-0.22-21.06s1.33-12.19,5.54-13.08"/>
	<text transform="matrix(1 0 0 1 540.6931 48.5679)" class="st1 st2 st3">NOV</text>
</g>
</svg>
