<?xml version="1.0" encoding="utf-8"?>
<!-- Generator: Adobe Illustrator 24.2.3, SVG Export Plug-In . SVG Version: 6.00 Build 0)  -->
<svg version="1.1" id="Layer_1" xmlns="http://www.w3.org/2000/svg" xmlns:xlink="http://www.w3.org/1999/xlink" x="0px" y="0px"
	 viewBox="0 0 600 600" style="enable-background:new 0 0 600 600;" xml:space="preserve">
<style type="text/css">
	.st0{fill:#FFFFFF;}
	.st1{font-family:Roboto;font-weight:400;}
	.st2{font-size:16px;}
	.st3{font-family:Roboto;font-weight:700;}
	.st4{fill:#C1272D;}
</style>
<text transform="matrix(1 0 0 1 251.575 309.2952)" class="st0 st1 st2">POPULATION</text>
<text transform="matrix(1 0 0 1 275.1296 458.2952)" class="st0 st3 st2">80,000 </text>
<text transform="matrix(1 0 0 1 282.0598 478.4752)" class="st0 st1 st2">1803</text>
<path class="st4" d="M300.03,363.59c19.72,0,35.71,15.99,35.71,35.71s-15.99,35.71-35.71,35.71s-35.71-15.99-35.71-35.71
	C264.32,379.57,280.31,363.59,300.03,363.59L300.03,363.59L300.03,363.59z"/>
<path class="st0" d="M300.03,419.51c4.28,0,7.75,3.47,7.75,7.75s-3.47,7.75-7.75,7.75s-7.75-3.47-7.75-7.75
	S295.75,419.51,300.03,419.51L300.03,419.51L300.03,419.51z"/>
<text transform="matrix(1 0 0 1 270.5398 334.2952)" class="st0 st3 st2">170,000 </text>
<text transform="matrix(1 0 0 1 282.0598 354.4752)" class="st0 st1 st2">1860</text>
</svg>
