<?xml version="1.0" encoding="utf-8"?>
<!-- Generator: Adobe Illustrator 24.2.3, SVG Export Plug-In . SVG Version: 6.00 Build 0)  -->
<svg version="1.1" id="Layer_1" xmlns="http://www.w3.org/2000/svg" xmlns:xlink="http://www.w3.org/1999/xlink" x="0px" y="0px"
	 viewBox="0 0 620 620" style="enable-background:new 0 0 620 620;" xml:space="preserve">
<style type="text/css">
	.st0{fill:none;}
	.st1{fill:#FFFFFF;}
	.st2{font-family:'Merriweather-Black';}
	.st3{font-size:16px;}
	.st4{fill:#FFFDFD;}
	.st5{font-family:'Roboto-Regular';}
	.st6{font-size:13px;}
	.st7{fill:none;stroke:#686868;stroke-width:0.5;stroke-miterlimit:10;}
	.st8{fill:none;stroke:#333333;stroke-width:0.5;stroke-miterlimit:10;}
	.st9{fill:none;stroke:#333333;stroke-width:0.5;stroke-miterlimit:10;stroke-dasharray:3.0158,3.0158;}
	.st10{fill:#878787;}
	.st11{fill:#C1272D;}
	.st12{font-family:Roboto;font-weight:700;}
	.st13{font-family:'Roboto-Light';}
	.st14{font-size:12px;}
</style>
<g>
	<g>
		<rect x="10.11" y="22.73" class="st0" width="513.09" height="64.42"/>
		<!-- <text transform="matrix(1 0 0 1 10.1085 35.6149)"><tspan x="0" y="0" class="st1 st2 st3">Variation in False-Negative Rate of RT-PCR–Based </tspan><tspan x="0" y="24" class="st1 st2 st3">SARS-CoV-2 Tests by Time Since Exposure</tspan><tspan x="0" y="48" class="st4 st5 st6">PROBABILITY OF A FALSE-NEGATIVE RESULT IN AN INFECTED PERSON</tspan></text> -->
		<g>
			<line class="st7" x1="52.61" y1="536.67" x2="52.61" y2="543.67"/>
			<line class="st7" x1="79.63" y1="536.67" x2="79.63" y2="543.67"/>
			<line class="st7" x1="106.66" y1="536.67" x2="106.66" y2="543.67"/>
			<line class="st7" x1="133.68" y1="536.67" x2="133.68" y2="543.67"/>
			<line class="st7" x1="160.71" y1="536.67" x2="160.71" y2="543.67"/>
			<line class="st7" x1="187.73" y1="536.67" x2="187.73" y2="543.67"/>
			<line class="st7" x1="214.76" y1="536.67" x2="214.76" y2="543.67"/>
			<line class="st7" x1="241.78" y1="536.67" x2="241.78" y2="543.67"/>
			<line class="st7" x1="268.81" y1="536.67" x2="268.81" y2="543.67"/>
			<line class="st7" x1="295.83" y1="536.67" x2="295.83" y2="543.67"/>
			<line class="st7" x1="322.86" y1="536.67" x2="322.86" y2="543.67"/>
			<line class="st7" x1="349.88" y1="536.67" x2="349.88" y2="543.67"/>
			<line class="st7" x1="376.91" y1="536.67" x2="376.91" y2="543.67"/>
			<line class="st7" x1="403.93" y1="536.67" x2="403.93" y2="543.67"/>
			<line class="st7" x1="430.96" y1="536.67" x2="430.96" y2="543.67"/>
			<line class="st7" x1="457.98" y1="536.67" x2="457.98" y2="543.67"/>
			<line class="st7" x1="485.01" y1="536.67" x2="485.01" y2="543.67"/>
			<line class="st7" x1="512.03" y1="536.67" x2="512.03" y2="543.67"/>
			<line class="st7" x1="539.06" y1="536.67" x2="539.06" y2="543.67"/>
			<line class="st7" x1="566.08" y1="536.67" x2="566.08" y2="543.67"/>
			<line class="st7" x1="593.11" y1="536.67" x2="593.11" y2="543.67"/>
		</g>
		<g>
			<g>
				<g>
					<line class="st8" x1="52.61" y1="125.67" x2="52.61" y2="127.17"/>
					<line class="st9" x1="52.61" y1="130.18" x2="52.61" y2="532.79"/>
					<line class="st8" x1="52.61" y1="534.29" x2="52.61" y2="535.79"/>
				</g>
			</g>
			<g>
				<g>
					<line class="st8" x1="79.63" y1="125.67" x2="79.63" y2="127.17"/>
					<line class="st9" x1="79.63" y1="130.18" x2="79.63" y2="532.79"/>
					<line class="st8" x1="79.63" y1="534.29" x2="79.63" y2="535.79"/>
				</g>
			</g>
			<g>
				<g>
					<line class="st8" x1="106.66" y1="125.67" x2="106.66" y2="127.17"/>
					<line class="st9" x1="106.66" y1="130.18" x2="106.66" y2="532.79"/>
					<line class="st8" x1="106.66" y1="534.29" x2="106.66" y2="535.79"/>
				</g>
			</g>
			<g>
				<g>
					<line class="st8" x1="133.68" y1="125.67" x2="133.68" y2="127.17"/>
					<line class="st9" x1="133.68" y1="130.18" x2="133.68" y2="532.79"/>
					<line class="st8" x1="133.68" y1="534.3" x2="133.68" y2="535.8"/>
				</g>
			</g>
			<g>
				<g>
					<line class="st8" x1="160.71" y1="125.67" x2="160.71" y2="127.17"/>
					<line class="st9" x1="160.71" y1="130.18" x2="160.71" y2="532.79"/>
					<line class="st8" x1="160.71" y1="534.3" x2="160.71" y2="535.8"/>
				</g>
			</g>
			<g>
				<g>
					<line class="st8" x1="187.73" y1="125.67" x2="187.73" y2="127.17"/>
					<line class="st9" x1="187.73" y1="130.19" x2="187.73" y2="532.79"/>
					<line class="st8" x1="187.73" y1="534.3" x2="187.73" y2="535.8"/>
				</g>
			</g>
			<g>
				<g>
					<line class="st8" x1="214.76" y1="125.67" x2="214.76" y2="127.17"/>
					<line class="st9" x1="214.76" y1="130.19" x2="214.76" y2="532.79"/>
					<line class="st8" x1="214.76" y1="534.3" x2="214.76" y2="535.8"/>
				</g>
			</g>
			<g>
				<g>
					<line class="st8" x1="241.78" y1="125.67" x2="241.78" y2="127.17"/>
					<line class="st9" x1="241.78" y1="130.19" x2="241.78" y2="532.79"/>
					<line class="st8" x1="241.78" y1="534.3" x2="241.78" y2="535.8"/>
				</g>
			</g>
			<g>
				<g>
					<line class="st8" x1="268.81" y1="125.67" x2="268.81" y2="127.17"/>
					<line class="st9" x1="268.81" y1="130.19" x2="268.81" y2="532.79"/>
					<line class="st8" x1="268.81" y1="534.3" x2="268.81" y2="535.8"/>
				</g>
			</g>
			<g>
				<g>
					<line class="st8" x1="295.83" y1="125.67" x2="295.83" y2="127.17"/>
					<line class="st9" x1="295.83" y1="130.19" x2="295.83" y2="532.79"/>
					<line class="st8" x1="295.83" y1="534.3" x2="295.83" y2="535.8"/>
				</g>
			</g>
			<g>
				<g>
					<line class="st8" x1="322.86" y1="125.67" x2="322.86" y2="127.17"/>
					<line class="st9" x1="322.86" y1="130.19" x2="322.86" y2="532.79"/>
					<line class="st8" x1="322.86" y1="534.3" x2="322.86" y2="535.8"/>
				</g>
			</g>
			<g>
				<g>
					<line class="st8" x1="349.88" y1="125.67" x2="349.88" y2="127.17"/>
					<line class="st9" x1="349.88" y1="130.19" x2="349.88" y2="532.79"/>
					<line class="st8" x1="349.88" y1="534.3" x2="349.88" y2="535.8"/>
				</g>
			</g>
			<g>
				<g>
					<line class="st8" x1="376.91" y1="125.67" x2="376.91" y2="127.17"/>
					<line class="st9" x1="376.91" y1="130.19" x2="376.91" y2="532.79"/>
					<line class="st8" x1="376.91" y1="534.3" x2="376.91" y2="535.8"/>
				</g>
			</g>
			<g>
				<g>
					<line class="st8" x1="403.93" y1="125.67" x2="403.93" y2="127.17"/>
					<line class="st9" x1="403.93" y1="130.19" x2="403.93" y2="532.79"/>
					<line class="st8" x1="403.93" y1="534.3" x2="403.93" y2="535.8"/>
				</g>
			</g>
			<g>
				<g>
					<line class="st8" x1="430.96" y1="125.67" x2="430.96" y2="127.17"/>
					<line class="st9" x1="430.96" y1="130.19" x2="430.96" y2="532.79"/>
					<line class="st8" x1="430.96" y1="534.3" x2="430.96" y2="535.8"/>
				</g>
			</g>
			<g>
				<g>
					<line class="st8" x1="457.98" y1="125.67" x2="457.98" y2="127.17"/>
					<line class="st9" x1="457.98" y1="130.19" x2="457.98" y2="532.79"/>
					<line class="st8" x1="457.98" y1="534.3" x2="457.98" y2="535.8"/>
				</g>
			</g>
			<g>
				<g>
					<line class="st8" x1="485.01" y1="125.68" x2="485.01" y2="127.18"/>
					<line class="st9" x1="485.01" y1="130.19" x2="485.01" y2="532.79"/>
					<line class="st8" x1="485.01" y1="534.3" x2="485.01" y2="535.8"/>
				</g>
			</g>
			<g>
				<g>
					<line class="st8" x1="512.03" y1="125.68" x2="512.03" y2="127.18"/>
					<line class="st9" x1="512.03" y1="130.19" x2="512.03" y2="532.79"/>
					<line class="st8" x1="512.03" y1="534.3" x2="512.03" y2="535.8"/>
				</g>
			</g>
			<g>
				<g>
					<line class="st8" x1="539.06" y1="125.68" x2="539.06" y2="127.18"/>
					<line class="st9" x1="539.06" y1="130.19" x2="539.06" y2="532.79"/>
					<line class="st8" x1="539.06" y1="534.3" x2="539.06" y2="535.8"/>
				</g>
			</g>
			<g>
				<g>
					<line class="st8" x1="566.08" y1="125.68" x2="566.08" y2="127.18"/>
					<line class="st9" x1="566.08" y1="130.19" x2="566.08" y2="532.8"/>
					<line class="st8" x1="566.08" y1="534.3" x2="566.08" y2="535.8"/>
				</g>
			</g>
			<g>
				<g>
					<line class="st8" x1="593.11" y1="125.68" x2="593.11" y2="127.18"/>
					<line class="st9" x1="593.11" y1="130.19" x2="593.11" y2="532.8"/>
					<line class="st8" x1="593.11" y1="534.3" x2="593.11" y2="535.8"/>
				</g>
			</g>
		</g>
		<g>
			<line class="st7" x1="10.11" y1="496.66" x2="32.26" y2="496.66"/>
			<line class="st7" x1="10.11" y1="457.44" x2="32.26" y2="457.44"/>
			<line class="st7" x1="10.11" y1="418.22" x2="32.26" y2="418.22"/>
			<line class="st7" x1="10.11" y1="379" x2="32.26" y2="379"/>
			<line class="st7" x1="10.11" y1="339.77" x2="32.26" y2="339.77"/>
			<line class="st7" x1="10.11" y1="300.55" x2="32.26" y2="300.55"/>
			<line class="st7" x1="10.11" y1="261.33" x2="32.26" y2="261.33"/>
			<line class="st7" x1="10.11" y1="222.11" x2="32.26" y2="222.11"/>
			<line class="st7" x1="10.11" y1="182.89" x2="32.26" y2="182.89"/>
			<line class="st7" x1="10.11" y1="143.67" x2="32.26" y2="143.67"/>
		</g>
		<g>
			<line class="st7" x1="10.11" y1="535.88" x2="610.11" y2="535.88"/>
		</g>
		<g>
			<text transform="matrix(1 0 0 1 10.1088 140.0823)"><tspan x="0" y="0" class="st10 st5 st6">100</tspan><tspan x="7.3" y="39" class="st10 st5 st6">90</tspan><tspan x="7.3" y="78" class="st10 st5 st6">80</tspan><tspan x="7.3" y="117" class="st10 st5 st6">70</tspan><tspan x="7.3" y="156" class="st10 st5 st6">60</tspan><tspan x="7.3" y="195" class="st10 st5 st6">50</tspan><tspan x="7.3" y="234" class="st10 st5 st6">40</tspan><tspan x="7.3" y="273" class="st10 st5 st6">30</tspan><tspan x="7.3" y="312" class="st10 st5 st6">20</tspan><tspan x="7.3" y="351" class="st10 st5 st6">10</tspan><tspan x="14.6" y="390" class="st10 st5 st6">0</tspan></text>
		</g>
		<circle class="st11" cx="160.61" cy="536.17" r="5.5"/>
		<circle class="st1" cx="53.11" cy="143.67" r="5.66"/>
		<circle class="st1" cx="134.11" cy="273.67" r="5.66"/>
		<circle class="st1" cx="160.78" cy="386.96" r="5.66"/>
		<circle class="st1" cx="241.59" cy="457.46" r="5.66"/>
		<circle class="st1" cx="268.89" cy="453.48" r="5.66"/>
		<circle class="st1" cx="592.76" cy="277.73" r="5.66"/>
		<g>
			<text transform="matrix(1 0 0 1 262.6479 572.927)" class="st10 st5 st6">DAYS OF INFECTION</text>
		</g>
		<g>
			<text transform="matrix(1 0 0 1 48.1903 556.9656)" class="st1 st5 st6">1</text>
		</g>
		<g>
			<text transform="matrix(1 0 0 1 75.2589 556.9656)" class="st10 st5 st6">2</text>
		</g>
		<g>
			<text transform="matrix(1 0 0 1 102.3278 556.9656)" class="st10 st5 st6">3</text>
		</g>
		<g>
			<text transform="matrix(1 0 0 1 129.3969 556.9656)" class="st1 st5 st6">4</text>
		</g>
		<g>
			<text transform="matrix(1 0 0 1 156.4655 556.9656)" class="st1 st5 st6">5</text>
		</g>
		<g>
			<text transform="matrix(1 0 0 1 183.5341 556.9656)" class="st10 st5 st6">6</text>
		</g>
		<g>
			<text transform="matrix(1 0 0 1 210.6034 556.9656)" class="st10 st5 st6">7</text>
		</g>
		<g>
			<text transform="matrix(1 0 0 1 237.672 556.9656)" class="st1 st5 st6">8</text>
		</g>
		<g>
			<text transform="matrix(1 0 0 1 264.7406 556.9656)" class="st1 st5 st6">9</text>
		</g>
		<g>
			<text transform="matrix(1 0 0 1 288.1606 556.9656)" class="st10 st5 st6">10</text>
		</g>
		<g>
			<text transform="matrix(1 0 0 1 315.2292 556.9656)" class="st10 st5 st6">11</text>
		</g>
		<g>
			<text transform="matrix(1 0 0 1 342.2978 556.9656)" class="st10 st5 st6">12</text>
		</g>
		<g>
			<text transform="matrix(1 0 0 1 369.3666 556.9656)" class="st10 st5 st6">13</text>
		</g>
		<g>
			<text transform="matrix(1 0 0 1 396.4352 556.9656)" class="st10 st5 st6">14</text>
		</g>
		<g>
			<text transform="matrix(1 0 0 1 423.5048 556.9656)" class="st10 st5 st6">15</text>
		</g>
		<g>
			<text transform="matrix(1 0 0 1 450.5734 556.9656)" class="st10 st5 st6">16</text>
		</g>
		<g>
			<text transform="matrix(1 0 0 1 477.6422 556.9656)" class="st10 st5 st6">17</text>
		</g>
		<g>
			<text transform="matrix(1 0 0 1 504.7108 556.9656)" class="st10 st5 st6">18</text>
		</g>
		<g>
			<text transform="matrix(1 0 0 1 531.7794 556.9656)" class="st10 st5 st6">19</text>
		</g>
		<g>
			<text transform="matrix(1 0 0 1 558.8483 556.9656)" class="st10 st5 st6">20</text>
		</g>
		<g>
			<text transform="matrix(1 0 0 1 585.9176 556.9656)" class="st1 st5 st6">21</text>
		</g>
		<text transform="matrix(1 0 0 1 67.5658 129.5105)"><tspan x="0" y="0" class="st10 st5 st6">DAY 1</tspan><tspan x="0" y="19" class="st1 st2 st3">100%</tspan></text>
		<text transform="matrix(1 0 0 1 145.3803 258.5364)"><tspan x="0" y="0" class="st10 st5 st6">DAY 4</tspan><tspan x="0" y="19" class="st1 st2 st3">67%</tspan></text>
		<text transform="matrix(1 0 0 1 173.3139 353.6428)"><tspan x="0" y="0" class="st10 st5 st6">DAY 5</tspan><tspan x="0" y="19" class="st11 st12 st6">DAY OF SYMPTOM ONSET</tspan><tspan x="0" y="38" class="st1 st2 st3">38%</tspan></text>
		<text transform="matrix(1 0 0 1 193.1845 445.4246)"><tspan x="0" y="0" class="st10 st5 st6">DAY 8</tspan><tspan x="-2.91" y="19" class="st1 st2 st3">20%</tspan></text>
		<text transform="matrix(1 0 0 1 281.057 438.1086)"><tspan x="0" y="0" class="st10 st5 st6">DAY 9</tspan><tspan x="0" y="19" class="st1 st2 st3">21%</tspan></text>
		<text transform="matrix(1 0 0 1 540.3734 261.8616)"><tspan x="0" y="0" class="st10 st5 st6">DAY 21</tspan><tspan x="3.21" y="19" class="st1 st2 st3">66%</tspan></text>
	</g>
	<text transform="matrix(1 0 0 1 9.8912 594.022)" class="st1 st13 st14">SOURCE: JOHNS HOPKINS UNIVERSITY</text>
</g>
</svg>
